<?xml version="1.0" standalone="no"?>
<!DOCTYPE svg PUBLIC "-//W3C//DTD SVG 1.1//EN" "http://www.w3.org/Graphics/SVG/1.1/DTD/svg11.dtd" >
<svg xmlns="http://www.w3.org/2000/svg" xmlns:xlink="http://www.w3.org/1999/xlink" version="1.1">
<metadata></metadata>
<defs>
<font id="gentonamedium" horiz-adv-x="1003" >
<font-face units-per-em="2048" ascent="1638" descent="-410" />
<missing-glyph horiz-adv-x="436" />
<glyph unicode="fi" horiz-adv-x="1200" d="M37 780v195h137v59q0 180 81.5 265t262.5 85q81 0 223 -26l-18 -164q-115 8 -164 8q-88 0 -119.5 -40t-31.5 -128v-61h651v-973h-232v780h-419v-780h-234v780h-137zM813 1257q0 59 39 92t96 33t96 -33t39 -92t-38.5 -90.5t-96.5 -31.5t-96.5 31.5t-38.5 90.5z" />
<glyph unicode="fl" horiz-adv-x="1183" d="M37 780v193h137v61q0 180 81.5 264t262.5 84q94 0 305 -41v31h234v-1372h-234v1186q-152 16 -264 16q-88 0 -119.5 -40t-31.5 -128v-61h276v-193h-276v-780h-234v780h-137z" />
<glyph unicode=" "  horiz-adv-x="436" />
<glyph unicode="&#x09;" horiz-adv-x="436" />
<glyph unicode="&#xa0;" horiz-adv-x="436" />
<glyph unicode="!" horiz-adv-x="479" d="M115 1249h250l-35 -829h-180zM125 106q0 50 31.5 83.5t83.5 33.5t84 -33.5t32 -83.5t-32 -83t-84 -33t-83.5 33t-31.5 83z" />
<glyph unicode="&#x22;" horiz-adv-x="716" d="M129 807v524h213l-57 -524h-156zM406 807v524h210l-55 -524h-155z" />
<glyph unicode="#" horiz-adv-x="1427" d="M82 246l33 170h231l66 297h-228l33 170h232l55 243h186l-55 -243h295l55 243h186l-55 -243h240l-33 -170h-244l-67 -297h239l-32 -170h-244l-53 -246h-187l56 246h-297l-54 -246h-186l55 246h-227zM530 416h297l66 297h-295z" />
<glyph unicode="$" horiz-adv-x="1097" d="M59 150l80 163q221 -153 432 -153q94 0 146.5 37.5t52.5 97.5q0 64 -61 102t-248 97q-196 63 -271 136t-75 201q0 126 90 205t248 88v129h153v-135q155 -19 348 -96l-55 -164q-237 96 -389 96q-79 0 -125.5 -34t-46.5 -89q0 -62 55 -94.5t244 -89.5q197 -58 276.5 -136 t79.5 -208q0 -139 -103 -225.5t-284 -93.5v-117h-153v123q-213 31 -394 160z" />
<glyph unicode="%" horiz-adv-x="1748" d="M78 891q0 379 321 379q160 0 242 -96t82 -283q0 -186 -82 -280.5t-242 -94.5q-321 0 -321 375zM231 891q0 -236 168 -236q88 0 128 59t40 177q0 121 -40 180t-128 59q-87 0 -127.5 -59.5t-40.5 -179.5zM440 0l719 1249h137l-721 -1249h-135zM1028 356q0 188 81 283.5 t241 95.5t241.5 -96t81.5 -283q0 -186 -81.5 -280t-241.5 -94q-322 0 -322 374zM1182 356q0 -235 168 -235q88 0 128 58.5t40 176.5q0 121 -40 180.5t-128 59.5q-87 0 -127.5 -60t-40.5 -180z" />
<glyph unicode="&#x26;" horiz-adv-x="1339" d="M86 344q0 104 65.5 177t215.5 145q-86 82 -119 150.5t-33 150.5q0 142 102.5 222.5t284.5 80.5q159 0 254.5 -81.5t95.5 -221.5q0 -100 -63.5 -187.5t-196.5 -144.5l273 -217q47 67 116 192l154 -94q-74 -137 -125 -211l184 -145l-108 -158l-193 154q-86 -94 -181 -134 t-220 -40q-243 0 -374.5 92.5t-131.5 269.5zM313 371q0 -99 78.5 -154t200.5 -55q148 0 256 108l-348 283q-99 -44 -143 -85.5t-44 -96.5zM424 958q0 -55 28.5 -101.5t100.5 -111.5q122 49 171.5 96t49.5 111q0 79 -46 121.5t-126 42.5q-78 0 -128 -43t-50 -115z" />
<glyph unicode="'" horiz-adv-x="440" d="M137 807v524h211l-55 -524h-156z" />
<glyph unicode="(" horiz-adv-x="665" d="M154 498q0 475 317 854l143 -82q-252 -368 -252 -772q0 -406 252 -774l-143 -84q-317 379 -317 858z" />
<glyph unicode=")" horiz-adv-x="655" d="M51 -276q252 368 252 774q0 404 -252 772l144 82q317 -375 317 -856t-317 -856z" />
<glyph unicode="*" horiz-adv-x="884" d="M92 958l37 109l236 -66l14 248h125l14 -248l238 66l37 -109l-230 -98l148 -203l-86 -75l-183 192l-184 -192l-86 75l147 203z" />
<glyph unicode="+" horiz-adv-x="993" d="M80 406v169h330v330h168v-332h331v-167h-331v-330h-168v330h-330z" />
<glyph unicode="," horiz-adv-x="542" d="M109 -199q59 49 88 94.5t43 102.5q-44 11 -71.5 46.5t-27.5 82.5q0 59 38.5 98t99.5 39q60 0 97.5 -42.5t37.5 -106.5q0 -100 -64.5 -202.5t-183.5 -178.5z" />
<glyph unicode="-" horiz-adv-x="817" d="M125 469v205h567v-205h-567z" />
<glyph unicode="." horiz-adv-x="528" d="M129 127q0 59 37 98t98 39t99 -39t38 -98t-38 -98t-99 -39t-98 39t-37 98z" />
<glyph unicode="/" horiz-adv-x="884" d="M51 -424l537 1776h198l-542 -1776h-193z" />
<glyph unicode="0" horiz-adv-x="1265" d="M88 623q0 315 138 481t407 166q270 0 408.5 -166.5t138.5 -480.5q0 -310 -139 -475.5t-408 -165.5t-407 165.5t-138 475.5zM328 623q0 -213 74 -320.5t231 -107.5t232 107.5t75 320.5q0 217 -74.5 325.5t-232.5 108.5q-157 0 -231 -108.5t-74 -325.5z" />
<glyph unicode="1" horiz-adv-x="1007" d="M98 1059q219 81 373 190h184v-1050h263v-199h-795v199h301v786q-138 -46 -279 -67z" />
<glyph unicode="2" horiz-adv-x="1077" d="M55 1130q155 71 276.5 105.5t241.5 34.5q196 0 310 -109.5t114 -294.5q0 -60 -20.5 -118t-60 -111t-91 -104.5t-118.5 -104t-137 -103t-152 -107.5q-27 -19 -41 -28q167 9 207 9h434v-199h-944v168q64 52 171.5 137.5t165.5 132t134 114t114.5 113.5t66.5 98.5t28 98.5 q0 99 -58.5 154t-160.5 55q-181 0 -414 -108z" />
<glyph unicode="3" horiz-adv-x="1110" d="M45 109l68 161q216 -100 452 -100q117 0 184.5 48.5t67.5 135.5q0 94 -80 142.5t-229 48.5h-178v186h178q144 0 212 37.5t68 118.5q0 89 -63.5 140.5t-171.5 51.5q-192 0 -420 -92l-53 158q261 121 504 121q187 0 304.5 -96t117.5 -252q1 -100 -53.5 -172.5 t-143.5 -104.5q118 -42 175.5 -111.5t57.5 -179.5q0 -171 -126 -269.5t-341 -98.5q-131 0 -271 32.5t-259 94.5z" />
<glyph unicode="4" horiz-adv-x="1241" d="M49 438l717 811h233v-786h199v-201h-199v-262h-233v262h-707zM309 463h457v516q-55 -76 -102 -125l-236 -264q-61 -73 -119 -127z" />
<glyph unicode="5" horiz-adv-x="1128" d="M45 109l68 172q218 -101 432 -101q124 0 203 61.5t79 164.5q0 96 -67 154t-180 58q-125 0 -258 -81l-195 28l47 684h830v-198h-627l-29 -355q146 78 303 78q186 0 294 -102t108 -277q0 -191 -134.5 -302t-343.5 -111q-131 0 -271 32.5t-259 94.5z" />
<glyph unicode="6" horiz-adv-x="1175" d="M88 571q0 319 171 508t446 191q187 0 358 -72l-59 -168q-156 47 -289 47q-173 -2 -278 -114.5t-118 -313.5q148 154 383 154q185 0 297.5 -106t112.5 -281q0 -203 -129 -318.5t-350 -115.5q-265 0 -405 155t-140 434zM324 475q20 -148 98.5 -226.5t210.5 -78.5 q114 0 186 68t72 188q0 103 -70.5 164t-189.5 61q-99 0 -181 -48.5t-126 -127.5z" />
<glyph unicode="7" horiz-adv-x="974" d="M27 1051v198h931v-178q-159 -211 -294.5 -500.5t-210.5 -570.5h-277q90 284 228 567t296 484h-673z" />
<glyph unicode="8" horiz-adv-x="1191" d="M61 344q0 214 271 311q-213 90 -213 279q0 158 130 247t359 89q220 0 341.5 -87t121.5 -239q0 -190 -244 -274q155 -50 229 -128.5t74 -197.5q0 -170 -140.5 -266t-381.5 -96q-276 0 -411.5 93.5t-135.5 268.5zM289 360q0 -94 80.5 -146t218.5 -52q134 0 212.5 51.5 t78.5 140.5q0 85 -80.5 138.5t-278.5 99.5q-128 -39 -179.5 -97.5t-51.5 -134.5zM346 938q0 -78 64 -127t215 -86q229 59 229 215q0 78 -70.5 127t-185.5 49q-114 0 -183 -49t-69 -129z" />
<glyph unicode="9" horiz-adv-x="1175" d="M61 836q0 203 131 318.5t359 115.5q256 0 391 -155.5t135 -434.5q0 -343 -151.5 -520.5t-436.5 -177.5q-108 0 -189.5 19.5t-174.5 64.5l61 165q154 -57 295 -57q342 0 363 420q-136 -152 -371 -152q-185 0 -298.5 109.5t-113.5 284.5zM283 825q0 -102 71 -162.5 t189 -60.5q92 0 172 47t127 119q-17 152 -91 232.5t-200 80.5q-121 0 -194.5 -67t-73.5 -189z" />
<glyph unicode=":" horiz-adv-x="528" d="M129 127q0 59 37 98t98 39t99 -39t38 -98t-38 -98t-99 -39t-98 39t-37 98zM129 784q0 60 37 99t98 39t99 -39.5t38 -98.5t-38 -98t-99 -39t-98 39t-37 98z" />
<glyph unicode=";" horiz-adv-x="540" d="M100 -199q60 49 89.5 94t43.5 103q-44 10 -71 46t-27 83q0 59 37 98t98 39t99.5 -42.5t38.5 -106.5q0 -100 -64.5 -202.5t-183.5 -178.5zM129 784q0 58 37.5 98t97.5 40t98.5 -40t38.5 -98q0 -60 -38 -98.5t-99 -38.5t-98 38t-37 99z" />
<glyph unicode="&#x3c;" horiz-adv-x="833" d="M90 512l524 428l107 -127l-307 -252q-12 -8 -35.5 -25.5t-36.5 -25.5l74 -51l305 -252l-105 -123z" />
<glyph unicode="=" horiz-adv-x="972" d="M80 272v148h809v-148h-809zM80 590v147h809v-147h-809z" />
<glyph unicode="&#x3e;" horiz-adv-x="835" d="M121 205l305 252l74 53q-12 8 -36 25.5t-36 25.5l-307 252l106 125l525 -428l-527 -426z" />
<glyph unicode="?" horiz-adv-x="1069" d="M47 1130q152 70 274.5 105t241.5 35q191 0 307.5 -106t116.5 -277q0 -145 -112.5 -242.5t-319.5 -132.5l4 -133h-186l-35 291q405 23 405 192q0 93 -60 148t-159 55q-177 0 -413 -109zM352 106q0 50 32.5 82.5t84.5 32.5t83.5 -32.5t31.5 -82.5t-31.5 -83t-83.5 -33 t-84.5 33t-32.5 83z" />
<glyph unicode="@" horiz-adv-x="1847" d="M88 420q0 188 65 347.5t179.5 269.5t274.5 171.5t347 61.5q181 0 331.5 -55.5t254.5 -154.5t161.5 -239.5t57.5 -308.5q-1 -124 -28 -221t-68.5 -153.5t-96.5 -93t-104.5 -49.5t-99.5 -13q-55 0 -94 9.5t-74.5 41.5t-52.5 88q-82 -76 -155 -107.5t-177 -31.5 q-336 0 -336 444q0 442 352 442q166 0 299 -108v92h201v-610q0 -82 21.5 -114t66.5 -32q31 0 61 11.5t62.5 41t57.5 75t41.5 120t17.5 168.5q0 300 -188.5 479.5t-510.5 179.5q-167 0 -308 -54.5t-240.5 -151.5t-155 -237.5t-55.5 -307.5q0 -327 196.5 -521t521.5 -194 q267 0 500 111l39 -82q-107 -64 -248 -99.5t-291 -35.5q-245 0 -432.5 102t-290 288.5t-102.5 430.5zM670 426q0 -156 53 -220.5t156 -64.5q69 0 123.5 29.5t121.5 91.5v332q-59 54 -112.5 79t-116.5 25q-108 0 -166.5 -63.5t-58.5 -208.5z" />
<glyph unicode="A" horiz-adv-x="1376" d="M27 0l501 1249h320l502 -1249h-254l-103 262h-608l-104 -262h-254zM467 479h442l-178 453q-33 91 -43 137q-20 -73 -43 -137z" />
<glyph unicode="B" horiz-adv-x="1224" d="M154 0v1249h446q473 0 473 -346q0 -93 -50.5 -155.5t-145.5 -92.5q138 -32 208 -110.5t70 -194.5q0 -350 -537 -350h-464zM391 211h234q284 0 284 162q0 82 -65 126t-185 44h-268v-332zM391 743h268q91 0 141 37t50 103q0 157 -250 157h-209v-297z" />
<glyph unicode="C" horiz-adv-x="1265" d="M86 623q0 311 161.5 479t457.5 168q117 0 236.5 -28.5t215.5 -80.5l-74 -180q-192 72 -368 72q-191 0 -289 -109t-98 -321q0 -198 98 -311t270 -113q118 0 216.5 26t207.5 84l84 -178q-229 -149 -520 -149q-281 0 -439.5 167.5t-158.5 473.5z" />
<glyph unicode="D" horiz-adv-x="1341" d="M154 0v1249h409q330 0 510 -163t180 -455q0 -297 -181.5 -464t-508.5 -167h-409zM391 215h172q219 0 335 107t116 309q0 197 -115 300t-336 103h-172v-819z" />
<glyph unicode="E" horiz-adv-x="1153" d="M154 0v1249h870v-219h-633v-301h549v-213h-549v-299h649v-217h-886z" />
<glyph unicode="F" horiz-adv-x="1073" d="M154 0v1249h852v-219h-615v-344h535v-213h-535v-473h-237z" />
<glyph unicode="G" horiz-adv-x="1372" d="M88 623q0 298 162.5 472.5t443.5 174.5q126 0 261.5 -25.5t250.5 -73.5l-63 -186q-222 70 -426 70q-183 0 -286 -114t-103 -316q0 -207 93.5 -317.5t262.5 -110.5q221 0 363 79v191h-385v203h602v-523q-150 -87 -290.5 -126t-299.5 -39q-273 0 -429.5 167.5t-156.5 473.5 z" />
<glyph unicode="H" horiz-adv-x="1392" d="M154 0v1249h237v-506h608v506h238v-1249h-238v524h-608v-524h-237z" />
<glyph unicode="I" horiz-adv-x="544" d="M154 0v1249h237v-1249h-237z" />
<glyph unicode="J" horiz-adv-x="985" d="M35 88l61 184q59 -22 92 -33t88.5 -22.5t106.5 -11.5q99 0 156 66t57 182v796h238v-796q0 -224 -104.5 -347.5t-295.5 -123.5q-178 0 -399 106z" />
<glyph unicode="K" horiz-adv-x="1310" d="M154 0v1249h237v-643l580 643h270v-16l-469 -522l498 -695v-16h-264l-388 530l-227 -254v-276h-237z" />
<glyph unicode="L" horiz-adv-x="1046" d="M154 0v1249h237v-1028h594v-221h-831z" />
<glyph unicode="M" horiz-adv-x="1710" d="M150 0l47 1249h276l354 -825q11 -28 27 -82q12 40 31 82l352 825h276l48 -1249h-240l-23 778v64l-360 -842h-166l-358 842v-58l-25 -784h-239z" />
<glyph unicode="N" horiz-adv-x="1409" d="M154 0v1249h217l647 -858v858h237v-1249h-215l-649 854v-854h-237z" />
<glyph unicode="O" horiz-adv-x="1388" d="M88 623q0 310 159.5 478.5t446.5 168.5q289 0 449 -168.5t160 -478.5q0 -306 -160.5 -473.5t-448.5 -167.5q-287 0 -446.5 167.5t-159.5 473.5zM328 623q0 -208 95 -316t271 -108t271.5 108.5t95.5 315.5q0 210 -95.5 320t-271.5 110t-271 -109.5t-95 -320.5z" />
<glyph unicode="P" horiz-adv-x="1189" d="M154 0v1249h454q252 0 388.5 -118.5t136.5 -339.5q0 -220 -133.5 -338.5t-381.5 -118.5h-227v-334h-237zM391 547h225q138 0 212.5 63t74.5 181q0 117 -77 181t-218 64h-217v-489z" />
<glyph unicode="Q" horiz-adv-x="1368" d="M88 623q0 312 155 479.5t441 167.5q288 0 443 -167.5t155 -479.5q0 -308 -155.5 -474.5t-442.5 -166.5q-286 0 -441 167t-155 474zM328 623q0 -209 90.5 -316.5t265.5 -107.5t265.5 107.5t90.5 316.5q0 212 -90.5 321t-265.5 109t-265.5 -109t-90.5 -321zM543 -227 l43 137q162 -65 290 -90t310 -25v-186q-345 0 -643 164z" />
<glyph unicode="R" horiz-adv-x="1232" d="M154 0v1249h481q252 0 389 -115.5t137 -328.5q0 -141 -74.5 -244t-207.5 -149l315 -394v-18h-258l-295 379h-250v-379h-237zM391 582h248q135 0 209 58.5t74 164.5q0 110 -74 169.5t-209 61.5h-248v-454z" />
<glyph unicode="S" horiz-adv-x="1146" d="M57 141l93 187q270 -138 458 -138q86 0 135.5 35.5t49.5 100.5q0 80 -59 120.5t-255 98.5q-87 26 -147.5 54t-112 71.5t-77 106t-25.5 145.5q0 155 110.5 251.5t300.5 96.5q244 0 486 -105l-72 -182q-224 86 -401 86q-82 0 -131.5 -37t-49.5 -90q0 -24 5.5 -42.5 t12.5 -33t26.5 -28.5t35.5 -24t52 -23.5t62.5 -22.5l79.5 -27q35 -12 54 -18q93 -31 153 -60.5t108.5 -72.5t70.5 -102t22 -140q0 -176 -116 -271t-305 -95q-128 0 -284.5 44.5t-279.5 114.5z" />
<glyph unicode="T" horiz-adv-x="1138" d="M31 1030v219h1077v-219h-422v-1030h-235v1030h-420z" />
<glyph unicode="U" horiz-adv-x="1357" d="M133 578v671h238v-671q0 -184 79.5 -280.5t229.5 -96.5q149 0 228 96.5t79 280.5v671h238v-671q0 -292 -140 -444t-407 -152q-264 0 -404 152.5t-141 443.5z" />
<glyph unicode="V" horiz-adv-x="1329" d="M29 1249h264l328 -866q22 -65 45 -145q16 67 43 145l338 866h253l-501 -1249h-269z" />
<glyph unicode="W" horiz-adv-x="1853" d="M33 1249h258l223 -854q20 -86 29 -166q7 39 32 166l222 854h260l221 -854q28 -141 31 -164q17 118 28 164l226 854h258l-348 -1249h-316l-199 735q-13 57 -30 166q-10 -61 -33 -166l-199 -735h-315z" />
<glyph unicode="X" horiz-adv-x="1273" d="M35 0l418 635l-408 614h279l278 -411q23 -35 35 -56q12 21 35 56l278 411h279l-410 -614l420 -635h-272l-295 440l-35 54q-15 -24 -35 -54l-295 -440h-272z" />
<glyph unicode="Y" horiz-adv-x="1226" d="M31 1249h245l281 -501q24 -39 57 -123q14 41 56 123l280 501h246l-465 -846v-403h-235v403z" />
<glyph unicode="Z" horiz-adv-x="1216" d="M94 0v178l725 860q-152 -8 -227 -8h-457v219h989v-188l-692 -850q148 8 217 8h484v-219h-1039z" />
<glyph unicode="[" horiz-adv-x="761" d="M190 -362v1714h521v-181h-310v-1353h310v-180h-521z" />
<glyph unicode="\" horiz-adv-x="884" d="M109 1352h198l537 -1776h-195z" />
<glyph unicode="]" horiz-adv-x="761" d="M63 -182h310v1353h-310v181h521v-1714h-521v180z" />
<glyph unicode="^" horiz-adv-x="995" d="M92 698l332 633h147l332 -633h-184l-164 326q-39 74 -55 133h-4q-15 -56 -56 -133l-161 -326h-187z" />
<glyph unicode="_" horiz-adv-x="968" d="M115 -96h739v-168h-739v168z" />
<glyph unicode="`" d="M266 1307v47l168 110l238 -303l-66 -67q-111 53 -181 97.5t-159 115.5z" />
<glyph unicode="a" horiz-adv-x="1060" d="M68 281q0 155 100.5 231t306.5 76h238q0 123 -38 167t-147 44q-126 0 -327 -47l-37 174q264 67 405 67q204 0 288.5 -94t84.5 -311v-588h-229v119q-73 -65 -148.5 -101t-171.5 -36q-165 0 -245 70t-80 229zM281 307q0 -155 184 -155q132 0 248 127v163h-209 q-120 0 -171.5 -28t-51.5 -107z" />
<glyph unicode="b" horiz-adv-x="1161" d="M129 0v1331h231v-489q155 149 345 149q185 0 281.5 -119t96.5 -380q0 -132 -33 -233t-90 -160t-127 -88t-151 -29q-76 0 -136 19t-97 45t-89 75v-121h-231zM360 317q125 -143 252 -143q107 0 175.5 78t68.5 240q0 307 -229 307q-138 0 -267 -148v-334z" />
<glyph unicode="c" horiz-adv-x="1011" d="M78 481q0 236 130.5 374t346.5 138q205 0 371 -100l-74 -152q-134 62 -281 62q-122 0 -194 -87t-72 -235q0 -141 70.5 -224t191.5 -83q87 0 161 21t157 73l76 -143q-103 -79 -197.5 -111t-228.5 -32q-203 0 -330 135.5t-127 363.5z" />
<glyph unicode="d" horiz-adv-x="1163" d="M78 492q0 258 100 378.5t279 120.5q201 0 346 -139v479h231v-1331h-231v121q-78 -73 -146 -106t-178 -33q-81 0 -151 29t-127 88t-90 160t-33 233zM305 494q0 -163 68.5 -241.5t175.5 -78.5q80 0 136 36t118 107v334q-121 146 -268 146q-230 0 -230 -303z" />
<glyph unicode="e" horiz-adv-x="1075" d="M78 479q0 255 129 383.5t350 128.5h7q200 0 314 -120q116 -122 119 -349q0 -59 -6 -102h-692q13 -132 81.5 -194t180.5 -62q98 0 178 24.5t172 83.5l76 -139q-104 -81 -205 -116t-231 -35q-216 0 -344.5 125t-128.5 372zM301 582h494q-9 116 -70 175.5t-168 59.5 q-104 0 -171 -57.5t-85 -177.5z" />
<glyph unicode="f" horiz-adv-x="704" d="M37 780v195h133v59q0 180 83 265t265 85q102 0 197 -20l-19 -168q-64 6 -137 6q-88 0 -123 -41t-35 -127v-59h283v-195h-283v-780h-231v780h-133z" />
<glyph unicode="g" horiz-adv-x="1138" d="M78 502q0 489 379 489q178 0 344 -135v117h231v-817q0 -256 -118 -375t-343 -119q-117 0 -230.5 25.5t-199.5 70.5l49 168q186 -71 351 -71q131 0 195.5 69t64.5 232v30q-71 -76 -144 -109.5t-188 -33.5q-176 0 -283.5 115.5t-107.5 343.5zM305 502q0 -147 67 -213 t177 -66q80 0 135.5 37.5t116.5 110.5v280q-67 74 -129.5 110t-136.5 36q-112 0 -171 -68t-59 -227z" />
<glyph unicode="h" horiz-adv-x="1144" d="M129 0v1331h231v-510q167 170 359 170q162 0 233.5 -90.5t71.5 -288.5v-612h-231v539q0 124 -30.5 173.5t-123.5 49.5q-143 0 -279 -156v-606h-231z" />
<glyph unicode="i" horiz-adv-x="503" d="M117 1257q0 59 39 92t96 33t96 -33t39 -92t-38.5 -90.5t-96.5 -31.5t-96.5 31.5t-38.5 90.5zM137 0v973h232v-973h-232z" />
<glyph unicode="j" horiz-adv-x="503" d="M12 -182q75 37 99 90.5t24 171.5v893h232v-893q0 -187 -67.5 -288.5t-238.5 -141.5zM115 1257q0 59 39 92t96 33t96 -33t39 -92t-38.5 -90.5t-96.5 -31.5t-96.5 31.5t-38.5 90.5z" />
<glyph unicode="k" horiz-adv-x="1095" d="M129 0v1331h231v-776l412 420h272v-17l-378 -387l415 -555v-16h-266l-311 399l-144 -149v-250h-231z" />
<glyph unicode="l" horiz-adv-x="489" d="M129 0v1331h231v-1331h-231z" />
<glyph unicode="m" horiz-adv-x="1732" d="M129 0v973h231v-137q77 77 152.5 116t163.5 39q224 0 285 -180q94 97 174.5 138.5t169.5 41.5q155 0 231 -92t76 -287v-612h-234v551q0 121 -28.5 172t-108.5 51q-116 0 -254 -147v-627h-231v551q0 119 -31 171t-111 52q-124 0 -254 -149v-625h-231z" />
<glyph unicode="n" horiz-adv-x="1144" d="M129 0v973h231v-135q86 76 168 114.5t179 38.5q162 0 239.5 -91t77.5 -288v-612h-231v551q0 125 -30.5 174t-123.5 49q-147 0 -279 -151v-623h-231z" />
<glyph unicode="o" horiz-adv-x="1144" d="M78 481q0 235 134 373q133 137 356 137h3.5h2.5q224 0 358 -137q134 -138 135 -373q0 -229 -134.5 -364t-361.5 -135t-360 135t-133 364zM305 481q0 -146 71 -226.5t195 -80.5q125 0 197 80.5t72 226.5q0 152 -72 236t-197 84q-123 0 -194.5 -84t-71.5 -236z" />
<glyph unicode="p" horiz-adv-x="1161" d="M129 -326v1301h231v-119q162 135 345 135q185 0 281.5 -119t96.5 -380q0 -133 -33 -234t-90 -159.5t-127 -87.5t-151 -29q-109 0 -177.5 33t-144.5 104v-445h-231zM360 315q123 -141 267 -141q105 0 167 77t62 241q0 163 -54 235t-161 72q-74 0 -149.5 -41.5 t-131.5 -104.5v-338z" />
<glyph unicode="q" horiz-adv-x="1161" d="M78 492q0 260 97 379.5t282 119.5t344 -133v115h231v-1299h-231v443q-77 -70 -145 -102.5t-177 -32.5q-81 0 -151 29t-127 88t-90 160t-33 233zM307 492q0 -162 67.5 -240t174.5 -78q79 0 135.5 35.5t116.5 103.5v342q-128 142 -266 142q-228 0 -228 -305z" />
<glyph unicode="r" horiz-adv-x="796" d="M129 0v975h231v-187q44 94 117 148.5t164 54.5q68 0 123 -6l-16 -231q-49 4 -117 4q-97 0 -166.5 -55t-104.5 -166v-537h-231z" />
<glyph unicode="s" horiz-adv-x="933" d="M59 115l78 159q183 -108 352 -108q67 0 106.5 25t39.5 71q0 18 -4.5 33t-10 25.5t-20.5 20.5t-26 16.5t-36 15t-42.5 14t-53 16t-59.5 17.5q-149 47 -216 108t-67 170q0 142 89.5 219.5t254.5 77.5q172 0 390 -84l-60 -168q-220 72 -325 72q-63 0 -97.5 -25.5 t-34.5 -72.5q0 -16 4.5 -29t17 -24t23.5 -18.5t35 -16t40.5 -13.5t50.5 -15t55 -17q73 -22 118.5 -40t87 -43t63 -55.5t34 -72.5t12.5 -99q0 -138 -97.5 -215t-271.5 -77q-227 0 -430 133z" />
<glyph unicode="t" horiz-adv-x="763" d="M31 780v195h143v233h234v-233h270v-195h-270v-440q0 -86 33 -118t118 -32q65 0 139 9l25 -158q-127 -51 -246 -51q-161 0 -232 79.5t-71 260.5v450h-143z" />
<glyph unicode="u" horiz-adv-x="1144" d="M117 365v608h233v-553q0 -122 35.5 -174.5t128.5 -52.5q137 0 268 157v623h232v-973h-232v131q-101 -76 -178 -112.5t-170 -36.5q-161 0 -239 93t-78 290z" />
<glyph unicode="v" horiz-adv-x="1093" d="M18 975h234l244 -584q20 -48 49 -151q44 134 51 151l252 584h233l-409 -975h-252z" />
<glyph unicode="w" horiz-adv-x="1521" d="M20 975h224l190 -613q15 -64 27 -129q6 32 31 129l174 613h192l172 -613q1 -2 31 -133q14 72 29 133l188 613h223l-293 -975h-274l-172 618l-172 -618h-275z" />
<glyph unicode="x" horiz-adv-x="1032" d="M20 0l334 489l-327 486h254l188 -270q4 -7 21 -32t26 -42q9 17 26 42t21 32l189 268h254l-328 -484l334 -489h-250l-199 276q-34 49 -47 72q-13 -23 -47 -72l-201 -276h-248z" />
<glyph unicode="y" horiz-adv-x="1075" d="M4 973h242l225 -549q40 -109 55 -156q48 96 100 220.5t82.5 206.5t102.5 278h250q-9 -23 -41.5 -106.5t-43.5 -111.5t-39.5 -101.5t-43 -107.5t-40.5 -95.5t-44.5 -101.5t-42 -88.5t-45.5 -90.5q-100 -184 -219.5 -302.5t-288.5 -180.5l-78 186q158 74 250 176z" />
<glyph unicode="z" horiz-adv-x="1040" d="M76 0v147l565 641q-106 -8 -182 -8h-367v193h852v-144l-549 -645q23 1 65 2.5t74 2.5t54 1h377v-190h-889z" />
<glyph unicode="{" horiz-adv-x="802" d="M82 418v164q140 7 187.5 60t47.5 198v123q0 197 100.5 289t330.5 102l14 -162q-131 -20 -179 -71.5t-48 -157.5v-123q0 -166 -54 -242t-176 -100q122 -22 176 -98t54 -242v-121q0 -108 48 -160t179 -72l-14 -161q-230 10 -330.5 102.5t-100.5 290.5v121 q0 146 -47.5 199.5t-187.5 60.5z" />
<glyph unicode="|" horiz-adv-x="645" d="M225 -410v1741h195v-1741h-195z" />
<glyph unicode="}" horiz-adv-x="802" d="M51 -195q131 20 179.5 72t48.5 160v121q0 166 53.5 242t175.5 98q-122 24 -175.5 100t-53.5 242v121q0 106 -48.5 157.5t-179.5 71.5l15 162q230 -10 330 -101.5t100 -289.5v-121q0 -146 47.5 -199.5t187.5 -60.5v-164q-140 -7 -187.5 -60t-47.5 -198v-123 q0 -197 -100 -289t-330 -102z" />
<glyph unicode="~" horiz-adv-x="954" d="M80 512q49 92 102 137.5t111.5 48t128.5 -25.5l162 -72q57 -26 102 -7.5t94 97.5l92 -63q-50 -93 -104 -139.5t-112.5 -50t-127.5 23.5l-161 71q-55 29 -100.5 11.5t-94.5 -94.5z" />
<glyph unicode="&#xa1;" horiz-adv-x="479" d="M109 -264l32 829h183l32 -829h-247zM117 879q0 50 32 83t84 33t83.5 -33t31.5 -83t-31.5 -83.5t-83.5 -33.5t-84 33.5t-32 83.5z" />
<glyph unicode="&#xa2;" horiz-adv-x="1054" d="M86 549q0 131 33 236.5t91.5 175t133 110.5t162.5 53v125h156v-125q165 -18 309 -106l-70 -150q-136 72 -293 72q-129 0 -211.5 -98t-81.5 -291q-1 -191 79.5 -286t207.5 -95q191 0 328 106l80 -139q-79 -70 -161.5 -106t-186.5 -45v-113h-156v113q-67 8 -127 31.5 t-114.5 68.5t-93.5 108t-62 154t-23 201z" />
<glyph unicode="&#xa3;" horiz-adv-x="1148" d="M78 0v170l151 16l21 242h-168v141h180l4 25q24 283 137.5 413t321.5 130q217 0 383 -111l-68 -149q-142 75 -284 75q-117 0 -181.5 -81t-82.5 -277l-3 -25h381v-141h-393l-20 -235h590v-193h-969z" />
<glyph unicode="&#xa5;" horiz-adv-x="1122" d="M27 1118h241l244 -416q23 -49 49 -110l47 110l244 416h244l-338 -594h237v-110h-301l-16 -29v-66h317v-110h-317v-209h-236v209h-309v110h309v66l-16 29h-293v110h232z" />
<glyph unicode="&#xa6;" horiz-adv-x="645" d="M225 289h195v-699h-195v699zM225 635v696h195v-696h-195z" />
<glyph unicode="&#xa7;" horiz-adv-x="1220" d="M119 592q0 73 39 123t116 100q-69 66 -69 176q0 127 92.5 203t255.5 76q218 0 422 -90l-60 -164q-84 40 -178.5 64t-163.5 24q-73 0 -113 -28t-40 -79q0 -52 50.5 -79.5t221.5 -81.5q215 -65 302 -133.5t87 -176.5q0 -73 -38 -124.5t-117 -98.5q69 -66 69 -174 q0 -130 -94.5 -209.5t-261.5 -79.5q-118 0 -248 41.5t-227 112.5l67 162q92 -67 200 -104.5t196 -37.5q74 0 113.5 28.5t39.5 80.5t-52.5 81t-219.5 79q-216 65 -302.5 133t-86.5 176zM324 623q0 -24 14 -44.5t40.5 -37t63.5 -32.5t85.5 -32t104.5 -34q27 -8 42 -13 q80 -24 135 -51q39 40 53.5 65t14.5 52q0 29 -17.5 52t-68 46t-87 36t-128.5 42q-11 4 -17 5.5t-15.5 4.5t-17.5 6q-86 29 -135 53q-39 -39 -53 -64.5t-14 -53.5z" />
<glyph unicode="&#xa8;" d="M176 1257q0 56 37.5 89.5t87.5 33.5q57 0 92 -33t35 -90q0 -56 -35 -88t-92 -32q-50 0 -87.5 33t-37.5 87zM575 1257q0 57 35.5 90t89.5 33q52 0 89.5 -33.5t37.5 -89.5q0 -55 -37.5 -87.5t-89.5 -32.5q-54 0 -89.5 32.5t-35.5 87.5z" />
<glyph unicode="&#xa9;" horiz-adv-x="1509" d="M113 625q0 175 85.5 323.5t233.5 235t324 86.5q175 0 322.5 -86.5t233 -235t85.5 -323.5q0 -176 -85.5 -324t-233 -233.5t-322.5 -85.5q-176 0 -324 85.5t-233.5 233.5t-85.5 324zM178 625q0 -158 77 -291t210 -210t291 -77q118 0 225 45.5t184.5 122.5t123.5 184t46 226 q0 118 -46 225.5t-123.5 185t-185 124t-224.5 46.5q-118 0 -225.5 -46t-184.5 -124.5t-122.5 -185.5t-45.5 -225zM408 616q0 176 95 277.5t253 101.5q155 0 288 -86l-51 -108q-108 57 -217 57q-97 0 -151 -62.5t-54 -179.5q0 -110 57.5 -170.5t153.5 -60.5q117 0 232 86 l59 -100q-133 -121 -311 -121q-154 0 -254 100t-100 266z" />
<glyph unicode="&#xaa;" horiz-adv-x="792" d="M68 766q0 110 71.5 161.5t220.5 53.5h170q0 87 -28 119.5t-105 32.5q-98 0 -233 -33l-27 121q171 49 291 49q148 0 210 -65t62 -224v-420h-170v84q-107 -96 -229 -96q-118 0 -175.5 51t-57.5 166zM225 786q0 -110 127 -110q90 0 178 88v119h-149q-80 0 -118 -22.5 t-38 -74.5z" />
<glyph unicode="&#xab;" horiz-adv-x="1161" d="M84 512l430 428l119 -117l-234 -241q-52 -49 -82 -72q43 -34 84 -72l232 -241l-117 -113zM494 510l432 428l118 -115l-235 -241q-34 -34 -82 -72q48 -38 84 -74l233 -241l-116 -111z" />
<glyph unicode="&#xad;" horiz-adv-x="817" d="M125 469v205h567v-205h-567z" />
<glyph unicode="&#xae;" horiz-adv-x="1509" d="M113 625q0 175 85.5 323.5t233.5 235t324 86.5q175 0 322.5 -86.5t233 -235t85.5 -323.5q0 -176 -85.5 -324t-233 -233.5t-322.5 -85.5q-176 0 -324 85.5t-233.5 233.5t-85.5 324zM178 625q0 -158 77 -291t210 -210t291 -77q118 0 225 45.5t184.5 122.5t123.5 184t46 226 q0 118 -46 225.5t-123.5 185t-185 124t-224.5 46.5q-118 0 -225.5 -46t-184.5 -124.5t-122.5 -185.5t-45.5 -225zM475 268v717h287q307 0 307 -242q0 -163 -147 -194q58 -29 98 -101t76 -180h-174q-45 119 -78 173.5t-76 54.5h-145v-228h-148zM631 616h157q125 0 125 121 q0 60 -39 92.5t-112 32.5h-131v-246z" />
<glyph unicode="&#xaf;" d="M227 1155v186h551v-186h-551z" />
<glyph unicode="&#xb0;" horiz-adv-x="718" d="M92 1001q0 122 72.5 195.5t195.5 73.5q121 0 194 -73.5t73 -195.5q0 -117 -73 -188.5t-196 -71.5q-121 0 -193.5 71.5t-72.5 188.5zM227 1001q0 -60 35 -95.5t96 -35.5q63 0 99.5 35.5t36.5 95.5q0 63 -36.5 101.5t-97.5 38.5q-62 0 -97.5 -38t-35.5 -102z" />
<glyph unicode="&#xb1;" horiz-adv-x="993" d="M80 86v147h819v-147h-819zM80 590v149h340v269h147v-271h342v-147h-342v-268h-147v268h-340z" />
<glyph unicode="&#xb2;" horiz-adv-x="712" d="M49 1389q186 86 324 86q120 0 190 -67.5t70 -184.5q0 -54 -26 -105t-79.5 -101t-109 -92t-139.5 -100q-14 -9 -21 -14q64 6 119 6h270v-131h-588v111q36 29 92 73t89 70t75.5 61.5t67 61t48 54t34 54.5t10.5 50q0 60 -34 91t-95 31q-109 0 -252 -65z" />
<glyph unicode="&#xb3;" horiz-adv-x="714" d="M31 967l45 104q138 -65 278 -65q71 0 109.5 29t38.5 81q0 117 -185 117h-120v121h120q86 0 127 22t41 72q0 55 -36 84t-103 29q-109 0 -258 -56l-37 103q162 73 311 73q121 0 193 -58t72 -157q0 -63 -34.5 -107.5t-90.5 -64.5q75 -27 111 -69.5t36 -110.5 q0 -109 -76.5 -169t-212.5 -60q-180 0 -329 82z" />
<glyph unicode="&#xb4;" d="M336 1143l237 303l168 -113v-45q-89 -71 -158.5 -115t-179.5 -98z" />
<glyph unicode="&#xb6;" horiz-adv-x="1153" d="M92 825q0 226 120.5 325t393.5 99h461v-176l-205 -20v-1053h-217v412h-39q-272 0 -393 96.5t-121 316.5z" />
<glyph unicode="&#xb7;" horiz-adv-x="569" d="M139 567q0 59 38 98.5t99 39.5t98.5 -39.5t37.5 -98.5t-37.5 -98t-98.5 -39t-99 39t-38 98z" />
<glyph unicode="&#xb8;" d="M295 -387l22 111q97 -19 144 -19q55 0 83 14t27 52q0 45 -24.5 57t-102.5 12h-75l43 215h108l-6 -118q118 -3 162.5 -41t44.5 -132q0 -91 -54.5 -140.5t-152.5 -49.5q-107 0 -219 39z" />
<glyph unicode="&#xb9;" horiz-adv-x="669" d="M61 1331q151 62 258 123h123v-645h183v-131h-533v131h197v473q-127 -36 -199 -49z" />
<glyph unicode="&#xba;" horiz-adv-x="880" d="M88 903q0 176 92 271.5t260 95.5q169 0 262 -95.5t93 -271.5q0 -169 -93.5 -261.5t-261.5 -92.5t-260 92t-92 262zM252 903q0 -215 186 -215q191 0 191 215q0 227 -189 227q-188 0 -188 -227z" />
<glyph unicode="&#xbb;" horiz-adv-x="1161" d="M106 195l232 241q36 36 84 74q-48 38 -82 72l-234 241l117 117l430 -428l-432 -428zM516 195l234 241q34 37 81 74q-34 27 -79 72l-236 241l117 115l432 -428l-434 -426z" />
<glyph unicode="&#xbc;" horiz-adv-x="1810" d="M61 1126q151 62 258 123h123v-645h183v-131h-533v131h197v473q-127 -36 -199 -49zM471 0l719 1249h137l-721 -1249h-135zM963 264l446 512h147v-500h121v-120h-121v-156h-147v156h-440zM1108 276h301v336q-22 -31 -53 -65l-172 -191q-27 -31 -76 -80z" />
<glyph unicode="&#xbd;" horiz-adv-x="1835" d="M61 1126q151 62 258 123h123v-645h183v-131h-533v131h197v473q-127 -36 -199 -49zM471 0l719 1249h137l-721 -1249h-135zM1114 702q186 86 324 86q120 0 190 -67t70 -182q0 -55 -24 -104.5t-84 -104.5t-105 -89t-142 -102q-13 -9 -20 -14q64 6 119 6h270v-131h-588v113 q36 29 92 73t89 70t75.5 61.5t67 61t48 54t34 54.5t10.5 50q0 59 -34 90.5t-95 31.5q-109 0 -252 -65z" />
<glyph unicode="&#xbe;" horiz-adv-x="1781" d="M31 555l45 107q135 -66 278 -66q71 0 109.5 28.5t38.5 82.5q0 114 -185 114h-120v123h120q86 0 127 21.5t41 70.5q0 55 -36 84t-103 29q-120 0 -258 -55l-37 104q164 74 311 74q121 0 193 -58t72 -157q0 -64 -34.5 -109t-90.5 -65q75 -25 111 -67.5t36 -110.5 q0 -110 -76.5 -170t-212.5 -60q-184 0 -329 80zM463 0l719 1249h137l-721 -1249h-135zM954 262l447 514h147v-500h121v-122h-121v-154h-147v154h-440zM1100 276h301v334q-27 -35 -53 -63l-172 -191q-47 -54 -76 -80z" />
<glyph unicode="&#xbf;" horiz-adv-x="1069" d="M92 98q1 146 113.5 242t320.5 133l-4 131h187l34 -289q-205 -12 -306 -62t-101 -130q0 -93 60.5 -148t160.5 -55q176 0 412 109l65 -174q-149 -71 -273 -105.5t-245 -34.5q-190 0 -306 106t-118 277zM498 879q0 50 31 83t83 33t84.5 -33t32.5 -83t-32.5 -83.5 t-84.5 -33.5t-83 33t-31 84z" />
<glyph unicode="&#xc0;" horiz-adv-x="1376" d="M27 0l501 1249h320l502 -1249h-254l-103 262h-608l-104 -262h-254zM414 1530v45l178 108l227 -280l-67 -68q-108 42 -175.5 81.5t-162.5 113.5zM467 479h442l-178 453q-33 91 -43 137q-20 -73 -43 -137z" />
<glyph unicode="&#xc1;" horiz-adv-x="1376" d="M27 0l501 1249h320l502 -1249h-254l-103 262h-608l-104 -262h-254zM467 479h442l-178 453q-33 91 -43 137q-20 -73 -43 -137zM553 1413l227 279l176 -107v-45q-97 -75 -163.5 -114.5t-174.5 -79.5z" />
<glyph unicode="&#xc2;" horiz-adv-x="1376" d="M27 0l501 1249h320l502 -1249h-254l-103 262h-608l-104 -262h-254zM360 1417l256 240h146l256 -240l-74 -78l-256 154l-254 -154zM467 479h442l-178 453q-33 91 -43 137q-20 -73 -43 -137z" />
<glyph unicode="&#xc3;" horiz-adv-x="1376" d="M27 0l501 1249h320l502 -1249h-254l-103 262h-608l-104 -262h-254zM356 1409q10 76 42.5 126.5t76.5 69.5t92.5 17.5t96.5 -23.5l112 -53q55 -25 86.5 -9t59.5 77l104 -17q-10 -78 -43.5 -130.5t-79.5 -72.5t-95.5 -19t-94.5 24l-113 55q-53 25 -84 11t-59 -72zM467 479 h442l-178 453q-33 91 -43 137q-20 -73 -43 -137z" />
<glyph unicode="&#xc4;" horiz-adv-x="1376" d="M27 0l501 1249h320l502 -1249h-254l-103 262h-608l-104 -262h-254zM367 1503q0 55 36 88t86 33q54 0 89.5 -32.5t35.5 -88.5q0 -55 -35.5 -87t-89.5 -32q-50 0 -86 32t-36 87zM467 479h442l-178 453q-33 91 -43 137q-20 -73 -43 -137zM764 1503q0 56 35.5 88.5t89.5 32.5 q50 0 86.5 -33t36.5 -88q0 -54 -36.5 -86.5t-86.5 -32.5q-54 0 -89.5 32t-35.5 87z" />
<glyph unicode="&#xc5;" horiz-adv-x="1376" d="M27 0l501 1249h320l502 -1249h-254l-103 262h-608l-104 -262h-254zM467 479h442l-178 453q-33 91 -43 137q-20 -73 -43 -137zM483 1540q0 93 57 150t150 57q91 0 149 -57t58 -150q0 -86 -58.5 -140t-150.5 -54q-91 0 -148 54t-57 140zM598 1540q0 -37 25 -59.5t65 -22.5 q41 0 66.5 22.5t25.5 59.5q0 44 -25 69t-65 25q-42 0 -67 -25t-25 -69z" />
<glyph unicode="&#xc6;" horiz-adv-x="1968" d="M27 0l833 1249h973v-219h-633v-301h549v-213h-549v-299h649v-217h-886v260h-496l-170 -260h-270zM606 477h357v545z" />
<glyph unicode="&#xc7;" horiz-adv-x="1265" d="M86 623q0 311 161.5 479t457.5 168q117 0 236.5 -28.5t215.5 -80.5l-74 -180q-192 72 -368 72q-191 0 -289 -109t-98 -321q0 -198 98 -311t270 -113q118 0 216.5 26t207.5 84l84 -180q-226 -147 -520 -147h-14l-4 -45q118 -3 162 -41t44 -132q0 -91 -54 -140.5 t-152 -49.5q-105 0 -220 39l25 111q93 -19 143 -19q54 0 82 14t27 52q0 45 -24.5 57t-100.5 12h-78l31 152q-222 39 -343.5 202t-121.5 429z" />
<glyph unicode="&#xc8;" horiz-adv-x="1153" d="M154 0v1249h870v-219h-633v-301h549v-213h-549v-299h649v-217h-886zM301 1530v45l180 108l226 -280l-66 -68q-108 42 -175.5 81.5t-164.5 113.5z" />
<glyph unicode="&#xc9;" horiz-adv-x="1153" d="M154 0v1249h870v-219h-633v-301h549v-213h-549v-299h649v-217h-886zM440 1413l228 279l178 -107v-45q-97 -75 -163.5 -114.5t-174.5 -79.5z" />
<glyph unicode="&#xca;" horiz-adv-x="1153" d="M154 0v1249h870v-219h-633v-301h549v-213h-549v-299h649v-217h-886zM248 1417l256 242h145l258 -242l-73 -78l-256 154l-254 -154z" />
<glyph unicode="&#xcb;" horiz-adv-x="1153" d="M154 0v1249h870v-219h-633v-301h549v-213h-549v-299h649v-217h-886zM254 1503q0 56 37 88.5t86 32.5q56 0 90.5 -32t34.5 -89q0 -56 -35 -87.5t-90 -31.5q-49 0 -86 32.5t-37 86.5zM653 1503q0 57 34.5 89t88.5 32q52 0 88.5 -32.5t36.5 -88.5q0 -55 -36.5 -87t-88.5 -32 q-54 0 -88.5 31.5t-34.5 87.5z" />
<glyph unicode="&#xcc;" horiz-adv-x="544" d="M-2 1530v45l180 108l225 -280l-65 -68q-109 42 -177.5 82t-162.5 113zM154 0v1249h237v-1249h-237z" />
<glyph unicode="&#xcd;" horiz-adv-x="544" d="M137 1413l228 279l176 -107v-45q-93 -73 -161 -113t-177 -81zM154 0v1249h237v-1249h-237z" />
<glyph unicode="&#xce;" horiz-adv-x="544" d="M-55 1417l256 242h145l258 -242l-76 -78l-254 154l-256 -154zM154 0v1249h237v-1249h-237z" />
<glyph unicode="&#xcf;" horiz-adv-x="544" d="M-49 1503q0 56 36.5 88.5t86.5 32.5q56 0 90.5 -32t34.5 -89q0 -56 -35 -87.5t-90 -31.5q-50 0 -86.5 32.5t-36.5 86.5zM154 0v1249h237v-1249h-237zM348 1503q0 57 35.5 89t89.5 32q50 0 87.5 -32.5t37.5 -88.5q0 -54 -37.5 -86.5t-87.5 -32.5q-54 0 -89.5 32t-35.5 87z " />
<glyph unicode="&#xd0;" horiz-adv-x="1341" d="M20 526v187h130v536h409q329 0 509.5 -163t180.5 -455q0 -297 -181.5 -464t-508.5 -167h-409v526h-130zM387 215h172q218 0 333.5 107t115.5 309q0 197 -114 300t-335 103h-172v-323h234v-185h-234v-311z" />
<glyph unicode="&#xd1;" horiz-adv-x="1409" d="M154 0v1249h217l647 -858v858h237v-1249h-215l-649 854v-854h-237zM373 1409q10 76 42 126.5t76 69.5t92.5 17.5t96.5 -23.5l113 -53q55 -24 85 -9t60 77l102 -17q-10 -78 -43.5 -130.5t-79 -72.5t-95 -19t-95.5 24l-113 55q-53 25 -83.5 11t-57.5 -72z" />
<glyph unicode="&#xd2;" horiz-adv-x="1388" d="M88 623q0 311 159 479t447 168t448.5 -168.5t160.5 -478.5q0 -306 -161 -473.5t-448 -167.5q-288 0 -447 167t-159 474zM328 623q0 -208 95 -316t271 -108t271.5 108.5t95.5 315.5q0 210 -95.5 320t-271.5 110t-271 -109.5t-95 -320.5zM418 1530v45l180 108l225 -280 l-65 -68q-108 42 -175.5 81.5t-164.5 113.5z" />
<glyph unicode="&#xd3;" horiz-adv-x="1388" d="M88 623q0 311 159 479t447 168t448.5 -168.5t160.5 -478.5q0 -306 -161 -473.5t-448 -167.5q-288 0 -447 167t-159 474zM328 623q0 -208 95 -316t271 -108t271.5 108.5t95.5 315.5q0 210 -95.5 320t-271.5 110t-271 -109.5t-95 -320.5zM557 1413l227 279l179 -107v-45 q-97 -75 -163.5 -114.5t-174.5 -79.5z" />
<glyph unicode="&#xd4;" horiz-adv-x="1388" d="M88 623q0 310 159.5 478.5t446.5 168.5q289 0 449 -168.5t160 -478.5q0 -306 -160.5 -473.5t-448.5 -167.5q-287 0 -446.5 167.5t-159.5 473.5zM328 623q0 -208 95 -316t271 -108t271.5 108.5t95.5 315.5q0 210 -95.5 320t-271.5 110t-271 -109.5t-95 -320.5zM365 1417 l256 242h145l258 -242l-74 -78l-256 154l-254 -154z" />
<glyph unicode="&#xd5;" horiz-adv-x="1388" d="M88 623q0 310 159.5 478.5t446.5 168.5q289 0 449 -168.5t160 -478.5q0 -306 -160.5 -473.5t-448.5 -167.5q-287 0 -446.5 167.5t-159.5 473.5zM328 623q0 -208 95 -316t271 -108t271.5 108.5t95.5 315.5q0 210 -95.5 320t-271.5 110t-271 -109.5t-95 -320.5zM362 1409 q10 76 42 126.5t76 69.5t93 17.5t97 -23.5l112 -53q55 -24 85.5 -9t60.5 77l102 -17q-10 -78 -43.5 -130.5t-79 -72.5t-95 -19t-95.5 24l-113 55q-53 25 -83.5 11t-57.5 -72z" />
<glyph unicode="&#xd6;" horiz-adv-x="1388" d="M88 623q0 310 159.5 478.5t446.5 168.5q289 0 449 -168.5t160 -478.5q0 -306 -160.5 -473.5t-448.5 -167.5q-287 0 -446.5 167.5t-159.5 473.5zM328 623q0 -208 95 -316t271 -108t271.5 108.5t95.5 315.5q0 210 -95.5 320t-271.5 110t-271 -109.5t-95 -320.5zM371 1503 q0 56 37 88.5t86 32.5q55 0 89.5 -32t34.5 -89q0 -56 -34.5 -87.5t-89.5 -31.5q-49 0 -86 32.5t-37 86.5zM770 1503q0 57 34.5 89t88.5 32q52 0 88.5 -32.5t36.5 -88.5q0 -55 -36.5 -87t-88.5 -32q-54 0 -88.5 31.5t-34.5 87.5z" />
<glyph unicode="&#xd7;" horiz-adv-x="980" d="M133 270l242 238l-240 240l121 120l240 -237l237 237l117 -120l-234 -238l240 -240l-121 -120l-239 239l-242 -239z" />
<glyph unicode="&#xd8;" horiz-adv-x="1388" d="M80 623q0 310 159.5 478.5t448.5 168.5q240 0 393 -119l105 113l90 -86l-107 -117q125 -166 125 -438q0 -306 -159.5 -473.5t-446.5 -167.5q-247 0 -397 120l-107 -116l-90 86l111 121q-125 159 -125 430zM322 623q0 -150 49 -248l553 602q-88 76 -238 76 q-175 0 -269.5 -110t-94.5 -320zM451 274q87 -75 235 -75q178 0 273.5 108t95.5 316q0 151 -54 256z" />
<glyph unicode="&#xd9;" horiz-adv-x="1357" d="M133 578v671h238v-671q0 -184 79.5 -280.5t229.5 -96.5q149 0 228 96.5t79 280.5v671h238v-671q0 -292 -140 -444t-407 -152q-264 0 -404 152.5t-141 443.5zM403 1530v45l179 108l227 -280l-66 -68q-110 42 -177 81.5t-163 113.5z" />
<glyph unicode="&#xda;" horiz-adv-x="1357" d="M133 578v671h238v-671q0 -184 79.5 -280.5t229.5 -96.5q149 0 228 96.5t79 280.5v671h238v-671q0 -292 -140 -444t-407 -152q-264 0 -404 152.5t-141 443.5zM543 1413l227 279l176 -107v-45q-97 -75 -163.5 -114.5t-174.5 -79.5z" />
<glyph unicode="&#xdb;" horiz-adv-x="1357" d="M133 578v671h238v-671q0 -184 79.5 -280.5t229.5 -96.5q149 0 228 96.5t79 280.5v671h238v-671q0 -292 -140 -444t-407 -152q-264 0 -404 152.5t-141 443.5zM350 1417l256 242h146l256 -242l-74 -78l-254 154l-256 -154z" />
<glyph unicode="&#xdc;" horiz-adv-x="1357" d="M133 578v671h238v-671q0 -184 79.5 -280.5t229.5 -96.5q149 0 228 96.5t79 280.5v671h238v-671q0 -292 -140 -444t-407 -152q-264 0 -404 152.5t-141 443.5zM356 1503q0 56 36.5 88.5t86.5 32.5q54 0 89.5 -32t35.5 -89q0 -55 -35.5 -87t-89.5 -32q-50 0 -86.5 32.5 t-36.5 86.5zM754 1503q0 57 35.5 89t89.5 32q50 0 87.5 -32.5t37.5 -88.5q0 -54 -37.5 -86.5t-87.5 -32.5q-54 0 -89.5 32t-35.5 87z" />
<glyph unicode="&#xdd;" horiz-adv-x="1226" d="M31 1249h245l281 -501q24 -39 57 -123q14 41 56 123l280 501h246l-465 -846v-403h-235v403zM477 1413l228 279l176 -107v-45q-93 -73 -161 -113t-177 -81z" />
<glyph unicode="&#xde;" horiz-adv-x="1189" d="M154 0v1249h237v-194h217q269 0 398 -109.5t129 -335.5q0 -227 -125.5 -331.5t-388.5 -104.5h-230v-174h-237zM391 365h227q146 0 216.5 60t70.5 185q0 121 -72.5 181.5t-224.5 60.5h-217v-487z" />
<glyph unicode="&#xdf;" horiz-adv-x="1226" d="M-4 805v168h158q45 155 177.5 244.5t323.5 89.5q187 0 304.5 -93.5t117.5 -244.5q1 -110 -55.5 -182t-151.5 -109q275 -76 275 -348q0 -157 -108.5 -252.5t-286.5 -95.5q-134 0 -246 32l18 166q110 -18 193 -18q98 0 156.5 52t58.5 140q0 105 -82.5 159t-224.5 54h-88 v174h88q109 0 173 54.5t64 146.5q0 82 -55.5 128t-147.5 46q-136 0 -214 -76.5t-78 -210.5v-829h-232v788z" />
<glyph unicode="&#xe0;" horiz-adv-x="1060" d="M68 281q0 155 100.5 231t306.5 76h238q0 123 -38 167t-147 44q-126 0 -327 -47l-37 174q264 67 405 67q204 0 288.5 -94t84.5 -311v-588h-229v119q-73 -65 -148.5 -101t-171.5 -36q-165 0 -245 70t-80 229zM281 307q0 -155 184 -155q132 0 248 127v163h-209 q-120 0 -171.5 -28t-51.5 -107zM295 1307v47l168 110l237 -303l-65 -67q-111 53 -181 97.5t-159 115.5z" />
<glyph unicode="&#xe1;" horiz-adv-x="1060" d="M68 281q0 155 100.5 231t306.5 76h238q0 123 -38 167t-147 44q-126 0 -327 -47l-37 174q264 67 405 67q204 0 288.5 -94t84.5 -311v-588h-229v119q-73 -65 -148.5 -101t-171.5 -36q-165 0 -245 70t-80 229zM281 307q0 -155 184 -155q132 0 248 127v163h-209 q-120 0 -171.5 -28t-51.5 -107zM365 1143l237 303l168 -113v-45q-89 -71 -158.5 -115t-179.5 -98z" />
<glyph unicode="&#xe2;" horiz-adv-x="1060" d="M68 281q0 155 100.5 231t306.5 76h238q0 123 -38 167t-147 44q-126 0 -327 -47l-37 174q264 67 405 67q204 0 288.5 -94t84.5 -311v-588h-229v119q-73 -65 -148.5 -101t-171.5 -36q-164 0 -244.5 70t-80.5 229zM209 1163l252 256h143l254 -256l-74 -78q-42 29 -252 166 q-31 -20 -116.5 -77t-132.5 -89zM281 307q0 -155 184 -155q132 0 248 127v163h-209q-120 0 -171.5 -28t-51.5 -107z" />
<glyph unicode="&#xe3;" horiz-adv-x="1060" d="M68 281q0 155 100.5 231t306.5 76h238q0 123 -38 167t-147 44q-126 0 -327 -47l-37 174q264 67 405 67q204 0 288.5 -94t84.5 -311v-588h-229v119q-73 -65 -148.5 -101t-171.5 -36q-165 0 -245 70t-80 229zM199 1182q10 76 42.5 126.5t76 70t92.5 18t96 -24.5l112 -53 q55 -24 86 -8.5t60 75.5l104 -16q-10 -77 -44 -129.5t-79.5 -72.5t-95.5 -19.5t-96 22.5l-113 56q-54 26 -83 11.5t-58 -73.5zM281 307q0 -155 184 -155q132 0 248 127v163h-209q-120 0 -171.5 -28t-51.5 -107z" />
<glyph unicode="&#xe4;" horiz-adv-x="1060" d="M68 281q0 155 100.5 231t306.5 76h238q0 123 -38 167t-147 44q-126 0 -327 -47l-37 174q264 67 405 67q204 0 288.5 -94t84.5 -311v-588h-229v119q-73 -65 -148.5 -101t-171.5 -36q-165 0 -245 70t-80 229zM205 1257q0 56 37.5 89.5t87.5 33.5q56 0 91.5 -33t35.5 -90 q0 -56 -35.5 -88t-91.5 -32q-50 0 -87.5 33t-37.5 87zM281 307q0 -155 184 -155q132 0 248 127v163h-209q-120 0 -171.5 -28t-51.5 -107zM602 1257q0 57 36.5 90t90.5 33q52 0 89.5 -33.5t37.5 -89.5q0 -55 -37.5 -87.5t-89.5 -32.5q-54 0 -90.5 32.5t-36.5 87.5z" />
<glyph unicode="&#xe5;" horiz-adv-x="1058" d="M68 281q0 155 100.5 231t306.5 76h238q0 123 -38 167t-147 44q-126 0 -327 -47l-37 174q264 67 405 67q204 0 288.5 -94t84.5 -311v-588h-229v119q-73 -65 -148.5 -101t-171.5 -36q-165 0 -245 70t-80 229zM281 307q0 -155 184 -155q132 0 248 127v163h-209 q-120 0 -171.5 -28t-51.5 -107zM334 1282q0 93 58 150t149 57q93 0 150 -57t57 -150q0 -87 -57.5 -142t-149.5 -55q-91 0 -149 55.5t-58 141.5zM451 1282q0 -37 25 -59.5t65 -22.5q41 0 66.5 22.5t25.5 59.5q0 43 -25.5 68.5t-66.5 25.5q-40 0 -65 -26t-25 -68z" />
<glyph unicode="&#xe6;" horiz-adv-x="1714" d="M68 287q0 140 103 217.5t304 77.5h230q2 127 -34.5 178t-142.5 51q-135 0 -327 -45l-37 158q245 67 405 67q201 0 281 -117q123 117 338 117q206 2 321.5 -120t118.5 -349q0 -59 -6 -102h-692q13 -132 81.5 -194t180.5 -62q98 0 178 24.5t172 83.5l76 -139 q-104 -81 -205 -116t-231 -35q-241 0 -365 145q-180 -145 -383 -145q-192 0 -279 71.5t-87 233.5zM281 301q0 -145 204 -145q122 0 265 86q-33 73 -39 178h-6l-201 2q-121 0 -172 -26.5t-51 -94.5zM932 582h493q-9 116 -69.5 175.5t-167.5 59.5q-104 0 -171 -57.5 t-85 -177.5z" />
<glyph unicode="&#xe7;" horiz-adv-x="1011" d="M78 481q0 236 130.5 374t346.5 138q205 0 371 -100l-74 -152q-134 62 -281 62q-122 0 -194 -87t-72 -235q0 -141 70.5 -224t191.5 -83q87 0 161 21t157 73l76 -143q-101 -78 -193 -110t-221 -33l-4 -45q118 -3 162.5 -41t44.5 -132q0 -91 -54.5 -140.5t-152.5 -49.5 q-104 0 -219 39l24 111q93 -19 144 -19q53 0 81 14t27 52q0 45 -24.5 57t-100.5 12h-78l31 152q-160 34 -255 163.5t-95 325.5z" />
<glyph unicode="&#xe8;" horiz-adv-x="1075" d="M78 479q0 255 129 383.5t350 128.5q206 2 321.5 -120t118.5 -349q0 -59 -6 -102h-692q13 -132 81.5 -194t180.5 -62q98 0 178 24.5t172 83.5l76 -139q-104 -81 -205 -116t-231 -35q-216 0 -344.5 125t-128.5 372zM299 1307v47l168 112l238 -305l-66 -67 q-111 53 -181 97.5t-159 115.5zM301 582h494q-9 116 -70 175.5t-168 59.5q-104 0 -171 -57.5t-85 -177.5z" />
<glyph unicode="&#xe9;" horiz-adv-x="1075" d="M78 479q0 255 129 383.5t350 128.5q206 2 321.5 -120t118.5 -349q0 -59 -6 -102h-692q13 -132 81.5 -194t180.5 -62q98 0 178 24.5t172 83.5l76 -139q-104 -81 -205 -116t-231 -35q-216 0 -344.5 125t-128.5 372zM301 582h494q-9 116 -70 175.5t-168 59.5 q-104 0 -171 -57.5t-85 -177.5zM369 1143l237 303l168 -111v-47q-89 -71 -158.5 -115t-179.5 -98z" />
<glyph unicode="&#xea;" horiz-adv-x="1075" d="M78 479q0 255 129 383.5t350 128.5q206 2 321.5 -120t118.5 -349q0 -59 -6 -102h-692q13 -132 81.5 -194t180.5 -62q98 0 178 24.5t172 83.5l76 -139q-104 -81 -205 -116t-231 -35q-216 0 -344.5 125t-128.5 372zM213 1163l252 256h143l254 -256l-74 -76 q-42 28 -125.5 82t-125.5 82q-19 -13 -250 -164zM301 582h494q-9 116 -70 175.5t-168 59.5q-104 0 -171 -57.5t-85 -177.5z" />
<glyph unicode="&#xeb;" horiz-adv-x="1075" d="M78 479q0 255 129 383.5t350 128.5q206 2 321.5 -120t118.5 -349q0 -59 -6 -102h-692q13 -132 81.5 -194t180.5 -62q98 0 178 24.5t172 83.5l76 -139q-104 -81 -205 -116t-231 -35q-216 0 -344.5 125t-128.5 372zM209 1257q0 56 37.5 89.5t87.5 33.5q56 0 91.5 -33 t35.5 -90q0 -56 -35.5 -88t-91.5 -32q-50 0 -87.5 33t-37.5 87zM301 582h494q-9 116 -70 175.5t-168 59.5q-104 0 -171 -57.5t-85 -177.5zM606 1257q0 57 36.5 90t90.5 33q52 0 89.5 -33.5t37.5 -89.5q0 -55 -37.5 -87.5t-89.5 -32.5q-54 0 -90.5 32.5t-36.5 87.5z" />
<glyph unicode="&#xec;" horiz-adv-x="503" d="M16 1307v47l168 110l238 -303l-66 -67q-111 53 -181 97.5t-159 115.5zM137 0v973h232v-973h-232z" />
<glyph unicode="&#xed;" horiz-adv-x="503" d="M86 1143l238 303l168 -113v-45q-89 -71 -158.5 -115t-179.5 -98zM137 0v973h232v-973h-232z" />
<glyph unicode="&#xee;" horiz-adv-x="503" d="M-70 1163l252 256h144l254 -256l-74 -78q-42 29 -252 166q-34 -23 -119 -79t-131 -87zM137 0v973h232v-973h-232z" />
<glyph unicode="&#xef;" horiz-adv-x="503" d="M-74 1257q0 56 37.5 89.5t87.5 33.5q57 0 92 -33t35 -90q0 -56 -35 -88t-92 -32q-50 0 -87.5 33t-37.5 87zM137 0v973h232v-973h-232zM326 1257q0 57 35.5 90t89.5 33q52 0 89.5 -33.5t37.5 -89.5q0 -55 -37.5 -87.5t-89.5 -32.5q-54 0 -89.5 32.5t-35.5 87.5z" />
<glyph unicode="&#xf0;" horiz-adv-x="1144" d="M78 481q0 109 33 195t101.5 150.5t181.5 99.5t265 35q-58 67 -143 137l-237 -111l-46 109l177 82q-34 26 -142 96v31l219 88q23 -18 72.5 -56.5t73.5 -58.5l192 90l47 -108l-141 -66q180 -164 258 -326t78 -387q0 -239 -130.5 -369t-365.5 -130t-364 130t-129 369z M305 469q0 -301 266 -301q267 0 267 313q0 184 -70 324q-185 -2 -286 -38t-139 -105.5t-38 -192.5z" />
<glyph unicode="&#xf1;" horiz-adv-x="1144" d="M129 0v973h231v-135q86 76 168 114.5t179 38.5q162 0 239.5 -91t77.5 -288v-612h-231v551q0 125 -30.5 174t-123.5 49q-147 0 -279 -151v-623h-231zM250 1182q10 76 42.5 126.5t76 70t92.5 18t96 -24.5l113 -53q55 -24 85.5 -8.5t59.5 75.5l105 -16q-10 -77 -44 -129.5 t-80 -72.5t-96 -19.5t-96 22.5l-112 56q-53 26 -83 11.5t-59 -73.5z" />
<glyph unicode="&#xf2;" horiz-adv-x="1144" d="M78 481q0 235 133.5 373t359.5 137q227 1 361.5 -137t134.5 -373q0 -229 -134.5 -364t-361.5 -135t-360 135t-133 364zM305 481q0 -146 71 -226.5t195 -80.5q125 0 197 80.5t72 226.5q0 152 -72 236t-197 84q-123 0 -194.5 -84t-71.5 -236zM336 1307v47l168 112l237 -305 l-65 -67q-111 53 -181 97.5t-159 115.5z" />
<glyph unicode="&#xf3;" horiz-adv-x="1144" d="M78 481q0 235 133.5 373t359.5 137q227 1 361.5 -137t134.5 -373q0 -229 -134.5 -364t-361.5 -135t-360 135t-133 364zM305 481q0 -146 71 -226.5t195 -80.5q125 0 197 80.5t72 226.5q0 152 -72 236t-197 84q-123 0 -194.5 -84t-71.5 -236zM406 1143l237 303l168 -111 v-47q-89 -71 -158.5 -115t-179.5 -98z" />
<glyph unicode="&#xf4;" horiz-adv-x="1144" d="M78 481q0 235 133.5 373t359.5 137q227 1 361.5 -137t134.5 -373q0 -229 -134.5 -364t-361.5 -135t-360 135t-133 364zM250 1163l252 256h143l254 -256l-74 -76q-42 28 -126 82t-126 82q-60 -41 -249 -164zM305 481q0 -146 71 -226.5t195 -80.5q125 0 197 80.5t72 226.5 q0 152 -72 236t-197 84q-123 0 -194.5 -84t-71.5 -236z" />
<glyph unicode="&#xf5;" horiz-adv-x="1144" d="M78 481q0 235 133.5 373t359.5 137q227 1 361.5 -137t134.5 -373q0 -229 -134.5 -364t-361.5 -135t-360 135t-133 364zM240 1171q10 76 41.5 126.5t75.5 70t93 18t97 -23.5l110 -53q56 -25 87 -10t59 77l104 -16q-10 -78 -43.5 -130.5t-79.5 -73t-95.5 -19.5t-94.5 24 l-113 56q-53 25 -84 10.5t-59 -72.5zM305 481q0 -146 71 -226.5t195 -80.5q125 0 197 80.5t72 226.5q0 152 -72 236t-197 84q-123 0 -194.5 -84t-71.5 -236z" />
<glyph unicode="&#xf6;" horiz-adv-x="1144" d="M78 481q0 235 133.5 373t359.5 137q227 1 361.5 -137t134.5 -373q0 -229 -134.5 -364t-361.5 -135t-360 135t-133 364zM246 1257q0 57 37.5 91t87.5 34q57 0 92 -33t35 -92q0 -56 -35 -87t-92 -31q-50 0 -87.5 32t-37.5 86zM305 481q0 -146 71 -226.5t195 -80.5 q125 0 197 80.5t72 226.5q0 152 -72 236t-197 84q-123 0 -194.5 -84t-71.5 -236zM645 1257q0 58 35.5 91.5t89.5 33.5q52 0 89.5 -34t37.5 -91q0 -55 -37.5 -86.5t-89.5 -31.5q-54 0 -89.5 31.5t-35.5 86.5z" />
<glyph unicode="&#xf7;" horiz-adv-x="983" d="M80 410v168h819v-168h-819zM393 176q0 42 27 69t69 27q44 0 70.5 -27t26.5 -69t-26.5 -69t-70.5 -27q-42 0 -69 27t-27 69zM393 821q0 42 27 69.5t69 27.5q44 0 70.5 -27.5t26.5 -69.5t-26.5 -69t-70.5 -27q-42 0 -69 27t-27 69z" />
<glyph unicode="&#xf8;" horiz-adv-x="1126" d="M70 481q0 235 133.5 373t359.5 137q181 0 305 -88l78 86l70 -65l-78 -84q121 -137 121 -359q0 -229 -134.5 -364t-361.5 -135q-197 0 -321 100l-74 -80l-66 66l74 79q-106 127 -106 334zM297 481q0 -101 33 -166l397 435q-66 51 -164 51q-123 0 -194.5 -84t-71.5 -236z M385 238q67 -64 178 -64q124 0 196 80.5t72 226.5q0 119 -43 195z" />
<glyph unicode="&#xf9;" horiz-adv-x="1144" d="M117 365v608h233v-553q0 -122 35.5 -174.5t128.5 -52.5q137 0 268 157v623h232v-973h-232v131q-101 -75 -179 -112t-169 -37q-162 0 -239.5 93t-77.5 290zM336 1307v47l170 110l235 -303l-65 -67q-109 53 -179 97.5t-161 115.5z" />
<glyph unicode="&#xfa;" horiz-adv-x="1144" d="M117 365v608h233v-553q0 -122 35.5 -174.5t128.5 -52.5q137 0 268 157v623h232v-973h-232v131q-101 -75 -179 -112t-169 -37q-162 0 -239.5 93t-77.5 290zM408 1143l237 303l166 -113v-45q-89 -71 -158.5 -115t-179.5 -98z" />
<glyph unicode="&#xfb;" horiz-adv-x="1144" d="M117 365v608h233v-553q0 -122 35.5 -174.5t128.5 -52.5q137 0 268 157v623h232v-973h-232v131q-101 -75 -179 -112t-169 -37q-162 0 -239.5 93t-77.5 290zM250 1163l254 256h141l256 -256l-76 -78q-97 66 -250 166q-45 -29 -251 -166z" />
<glyph unicode="&#xfc;" horiz-adv-x="1144" d="M117 365v608h233v-553q0 -122 35.5 -174.5t128.5 -52.5q137 0 268 157v623h232v-973h-232v131q-101 -76 -178 -112.5t-170 -36.5q-161 0 -239 93t-78 290zM248 1257q0 56 36.5 89.5t88.5 33.5q56 0 91.5 -33t35.5 -90q0 -56 -35.5 -88t-91.5 -32q-52 0 -88.5 32.5 t-36.5 87.5zM645 1257q0 57 35.5 90t91.5 33q52 0 89.5 -33.5t37.5 -89.5q0 -55 -37.5 -87.5t-89.5 -32.5q-56 0 -91.5 32t-35.5 88z" />
<glyph unicode="&#xfd;" horiz-adv-x="1075" d="M4 973h242l225 -549q40 -109 55 -156q48 96 100 220.5t82.5 206.5t102.5 278h250q-11 -28 -54.5 -139.5t-58.5 -150.5t-52 -130t-59.5 -141.5t-54.5 -118.5t-61 -123q-100 -184 -219.5 -302.5t-288.5 -180.5l-78 186q158 74 250 176zM373 1143l237 303l166 -113v-45 q-89 -71 -158.5 -115t-179.5 -98z" />
<glyph unicode="&#xfe;" horiz-adv-x="1155" d="M129 -326v1610h231v-418q169 125 338 125q185 0 282 -119.5t97 -379.5q0 -132 -33 -233t-90 -160t-127 -88t-151 -29q-105 0 -172 30t-144 97v-435h-231zM360 297q64 -62 117.5 -92.5t128.5 -30.5q107 0 174.5 78t67.5 240q0 305 -227 305q-130 0 -261 -127v-373z" />
<glyph unicode="&#xff;" horiz-adv-x="1075" d="M4 973h242l225 -549q40 -109 55 -156q48 96 100 220.5t82.5 206.5t102.5 278h250q-9 -23 -41.5 -106.5t-43.5 -111.5t-39.5 -101.5t-43 -107.5t-40.5 -95.5t-44.5 -101.5t-42 -88.5t-45.5 -90.5q-100 -184 -219.5 -302.5t-288.5 -180.5l-78 186q158 74 250 176zM211 1257 q0 56 37.5 89.5t89.5 33.5q56 0 91.5 -33t35.5 -90q0 -56 -35.5 -88t-91.5 -32q-52 0 -89.5 32.5t-37.5 87.5zM610 1257q0 57 35.5 90t91.5 33q52 0 89.5 -33.5t37.5 -89.5q0 -55 -37.5 -87.5t-89.5 -32.5q-56 0 -91.5 32t-35.5 88z" />
<glyph unicode="&#x100;" horiz-adv-x="1376" d="M27 0l501 1249h320l502 -1249h-254l-103 262h-608l-104 -262h-254zM416 1409v182h547v-182h-547zM467 479h442l-178 453q-33 91 -43 137q-20 -73 -43 -137z" />
<glyph unicode="&#x101;" horiz-adv-x="1060" d="M68 281q0 155 100.5 231t306.5 76h238q0 123 -38 167t-147 44q-126 0 -327 -47l-37 174q264 67 405 67q204 0 288.5 -94t84.5 -311v-588h-229v119q-73 -65 -148.5 -101t-171.5 -36q-165 0 -245 70t-80 229zM256 1155v186h551v-186h-551zM281 307q0 -155 184 -155 q132 0 248 127v163h-209q-120 0 -171.5 -28t-51.5 -107z" />
<glyph unicode="&#x102;" horiz-adv-x="1376" d="M27 0l501 1249h320l502 -1249h-254l-103 262h-608l-104 -262h-254zM391 1622h154q10 -109 143 -109t146 109h153q0 -256 -299 -256q-297 0 -297 256zM467 479h442l-178 453q-33 91 -43 137q-20 -73 -43 -137z" />
<glyph unicode="&#x103;" horiz-adv-x="1060" d="M68 281q0 155 100.5 231t306.5 76h238q0 123 -38 167t-147 44q-126 0 -327 -47l-37 174q264 67 405 67q204 0 288.5 -94t84.5 -311v-588h-229v119q-73 -65 -148.5 -101t-171.5 -36q-165 0 -245 70t-80 229zM238 1374h153q6 -129 144 -129q70 0 104.5 32.5t40.5 98.5h154 q0 -141 -73.5 -209.5t-225.5 -68.5q-151 0 -224 68t-73 208zM281 307q0 -155 184 -155q132 0 248 127v163h-209q-120 0 -171.5 -28t-51.5 -107z" />
<glyph unicode="&#x104;" horiz-adv-x="1376" d="M18 0l504 1249h320l501 -1249h-112q-195 -50 -195 -133q0 -43 32.5 -67.5t90.5 -24.5q22 0 154 20l24 -135q-118 -45 -239 -45q-108 0 -172 52.5t-64 139.5q0 71 54.5 133t156.5 101l-88 221h-608l-103 -262h-256zM461 479h442l-178 453q-31 85 -45 137q-10 -46 -43 -137 z" />
<glyph unicode="&#x105;" horiz-adv-x="1060" d="M68 281q0 155 100.5 231t306.5 76h238q0 123 -38 167t-147 44q-126 0 -327 -47l-37 172q149 39 237.5 54t167.5 15q204 0 288.5 -95t84.5 -312v-586h-117q-70 -20 -109.5 -55.5t-39.5 -77.5q0 -41 38 -66.5t99 -25.5q26 0 152 20l28 -135q-118 -45 -241 -45 q-110 0 -173 51.5t-63 147.5q0 73 52.5 133.5t144.5 97.5v74q-73 -65 -148.5 -101t-171.5 -36q-165 0 -245 70t-80 229zM281 305q0 -75 46.5 -114t137.5 -39q132 0 248 127v163h-209q-120 0 -171.5 -28t-51.5 -109z" />
<glyph unicode="&#x106;" horiz-adv-x="1265" d="M86 623q0 311 161.5 479t457.5 168q117 0 236.5 -28.5t215.5 -80.5l-74 -180q-192 72 -368 72q-191 0 -289 -109t-98 -321q0 -198 98 -311t270 -113q118 0 216.5 26t207.5 84l84 -178q-229 -149 -520 -149q-281 0 -439.5 167.5t-158.5 473.5zM547 1423l227 279l178 -107 v-45q-97 -75 -164 -114.5t-176 -79.5z" />
<glyph unicode="&#x107;" horiz-adv-x="1011" d="M78 481q0 236 130.5 374t346.5 138q205 0 371 -100l-74 -152q-134 62 -281 62q-122 0 -194 -87t-72 -235q0 -141 70.5 -224t191.5 -83q87 0 161 21t157 73l76 -143q-103 -79 -197.5 -111t-228.5 -32q-203 0 -330 135.5t-127 363.5zM371 1143l237 303l166 -111v-47 q-89 -71 -158.5 -115t-179.5 -98z" />
<glyph unicode="&#x10a;" horiz-adv-x="1265" d="M88 623q0 311 161.5 479t455.5 168q118 0 237 -28.5t215 -80.5l-74 -180q-190 72 -368 72q-191 0 -289 -109t-98 -321q0 -198 98 -311t270 -113q118 0 216.5 26t207.5 84l84 -178q-226 -149 -520 -149q-280 0 -438 167.5t-158 473.5zM541 1513q0 64 40.5 101t102.5 37 q58 0 99.5 -37.5t41.5 -100.5q0 -62 -41.5 -99.5t-99.5 -37.5q-62 0 -102.5 37t-40.5 100z" />
<glyph unicode="&#x10b;" horiz-adv-x="1011" d="M78 481q0 236 130.5 374t346.5 138q205 0 371 -100l-74 -152q-134 62 -281 62q-122 0 -194 -87t-72 -235q0 -141 70.5 -224t191.5 -83q87 0 161 21t157 73l76 -143q-103 -79 -197.5 -111t-228.5 -32q-203 0 -330 135.5t-127 363.5zM389 1266q0 64 42 101.5t104 37.5 q60 0 102.5 -38t42.5 -101q0 -64 -42.5 -102t-102.5 -38q-62 0 -104 38t-42 102z" />
<glyph unicode="&#x10c;" horiz-adv-x="1265" d="M88 623q0 311 161.5 479t455.5 168q118 0 237 -28.5t215 -80.5l-74 -180q-190 72 -368 72q-191 0 -289 -109t-98 -321q0 -198 98 -311t270 -113q118 0 216.5 26t207.5 84l84 -178q-226 -149 -520 -149q-280 0 -438 167.5t-158 473.5zM354 1608l76 78l254 -152l256 152 l74 -78l-258 -242h-146z" />
<glyph unicode="&#x10d;" horiz-adv-x="1011" d="M78 481q0 236 130.5 374t346.5 138q205 0 371 -100l-74 -152q-134 62 -281 62q-122 0 -194 -87t-72 -235q0 -141 70.5 -224t191.5 -83q87 0 161 21t157 73l76 -143q-103 -79 -197.5 -111t-228.5 -32q-203 0 -330 135.5t-127 363.5zM211 1346l74 75q45 -30 129 -84.5 t121 -79.5q11 7 106 68.5t145 95.5l74 -75l-254 -256h-143z" />
<glyph unicode="&#x10e;" horiz-adv-x="1341" d="M154 0v1249h409q330 0 510 -163t180 -455q0 -297 -181.5 -464t-508.5 -167h-409zM301 1597l76 78l254 -151l254 151l76 -78l-259 -241h-145zM391 215h172q219 0 335 107t116 309q0 197 -115 300t-336 103h-172v-819z" />
<glyph unicode="&#x10f;" horiz-adv-x="1161" d="M78 492q0 258 100 378.5t279 120.5q201 0 346 -139v479h231v-1331h-231v121q-78 -73 -146 -106t-178 -33q-81 0 -151 29t-127 88t-90 160t-33 233zM305 494q0 -163 68.5 -241.5t175.5 -78.5q80 0 136 36t118 107v334q-121 146 -268 146q-230 0 -230 -303zM1126 975 l11 356h180v-24q-12 -189 -72 -332h-119z" />
<glyph unicode="&#x110;" horiz-adv-x="1337" d="M20 526v187h123v536h410q330 0 510 -163t180 -455q0 -297 -181.5 -464t-508.5 -167h-410v526h-123zM381 215h172q219 0 335 107t116 309q0 197 -115 300t-336 103h-172v-323h240v-185h-240v-311z" />
<glyph unicode="&#x111;" horiz-adv-x="1165" d="M70 492q0 258 101 378.5t280 120.5q202 0 344 -139v211h-258v141h258v127h233v-127h90v-141h-90v-1063h-233v121q-76 -73 -144 -106t-180 -33q-80 0 -150 29t-127.5 88t-90.5 160t-33 233zM299 494q0 -164 68 -242t176 -78q80 0 136 36t116 107v334q-121 146 -267 146 q-229 0 -229 -303z" />
<glyph unicode="&#x112;" horiz-adv-x="1153" d="M154 0v1249h870v-219h-633v-301h549v-213h-549v-299h649v-217h-886zM305 1409v182h547v-182h-547z" />
<glyph unicode="&#x113;" horiz-adv-x="1075" d="M78 479q0 255 129 383.5t350 128.5q206 2 321.5 -120t118.5 -349q0 -59 -6 -102h-692q13 -132 81.5 -194t180.5 -62q98 0 178 24.5t172 83.5l76 -139q-104 -81 -205 -116t-231 -35q-216 0 -344.5 125t-128.5 372zM268 1135v186h551v-186h-551zM301 582h494 q-9 116 -70 175.5t-168 59.5q-104 0 -171 -57.5t-85 -177.5z" />
<glyph unicode="&#x116;" horiz-adv-x="1153" d="M154 0v1249h870v-219h-633v-301h549v-213h-549v-299h649v-217h-886zM434 1503q0 64 41 100.5t103 36.5q59 0 100 -37t41 -100q0 -62 -41.5 -99.5t-99.5 -37.5q-62 0 -103 37t-41 100z" />
<glyph unicode="&#x117;" horiz-adv-x="1075" d="M78 479q0 255 129 383.5t350 128.5q206 2 321.5 -120t118.5 -349q0 -59 -6 -102h-692q13 -132 81.5 -194t180.5 -62q98 0 178 24.5t172 83.5l76 -139q-104 -81 -205 -116t-231 -35q-216 0 -344.5 125t-128.5 372zM301 582h494q-9 116 -70 175.5t-168 59.5 q-104 0 -171 -57.5t-85 -177.5zM393 1264q0 65 42 103t106 38q59 0 101 -38t42 -103q0 -63 -42.5 -101.5t-100.5 -38.5q-64 0 -106 38t-42 102z" />
<glyph unicode="&#x118;" horiz-adv-x="1153" d="M154 0v1249h870v-219h-633v-301h549v-213h-549v-299h649v-217h-141q-70 -20 -109.5 -55.5t-39.5 -77.5q0 -41 38 -66.5t101 -25.5q25 0 151 20l27 -135q-118 -45 -242 -45q-109 0 -172 52t-63 147q0 108 112 186h-548z" />
<glyph unicode="&#x119;" horiz-adv-x="1075" d="M78 479q0 255 129 383.5t350 128.5q206 2 321.5 -120t118.5 -349q0 -59 -6 -102h-692q13 -132 81.5 -194t180.5 -62q98 0 178 24.5t172 83.5l76 -139q-166 -130 -350 -147q-51 -22 -80 -53t-29 -66q0 -41 38.5 -66.5t101.5 -25.5q25 0 151 20l27 -135q-118 -45 -242 -45 q-109 0 -172 52t-63 147q0 100 96 174q-180 23 -283.5 146.5t-103.5 344.5zM301 582h494q-9 116 -70 175.5t-168 59.5q-104 0 -171 -57.5t-85 -177.5z" />
<glyph unicode="&#x11a;" horiz-adv-x="1153" d="M154 0v1249h870v-219h-633v-301h549v-213h-549v-299h649v-217h-886zM248 1597l76 78l254 -151l256 151l73 -78l-258 -241h-145z" />
<glyph unicode="&#x11b;" horiz-adv-x="1075" d="M78 479q0 255 129 383.5t350 128.5q206 2 321.5 -120t118.5 -349q0 -59 -6 -102h-692q13 -132 81.5 -194t180.5 -62q98 0 178 24.5t172 83.5l76 -139q-104 -81 -205 -116t-231 -35q-216 0 -344.5 125t-128.5 372zM211 1346l74 75q13 -9 250 -164q21 14 111 72.5t140 91.5 l74 -75l-254 -256h-143zM301 582h494q-9 116 -70 175.5t-168 59.5q-104 0 -171 -57.5t-85 -177.5z" />
<glyph unicode="&#x11e;" horiz-adv-x="1372" d="M88 623q0 298 162.5 472.5t443.5 174.5q126 0 261.5 -25.5t250.5 -73.5l-63 -186q-222 70 -426 70q-183 0 -286 -114t-103 -316q0 -207 93.5 -317.5t262.5 -110.5q221 0 363 79v191h-385v203h602v-523q-150 -87 -290.5 -126t-299.5 -39q-273 0 -429.5 167.5t-156.5 473.5 zM387 1622h152q13 -109 143 -109q134 0 147 109h152q0 -256 -299 -256q-295 0 -295 256z" />
<glyph unicode="&#x11f;" horiz-adv-x="1138" d="M78 502q0 489 379 489q178 0 344 -135v117h231v-817q0 -256 -118 -375t-343 -119q-117 0 -230.5 25.5t-199.5 70.5l49 168q186 -71 351 -71q131 0 195.5 69t64.5 232v30q-71 -76 -144 -109.5t-188 -33.5q-176 0 -283.5 115.5t-107.5 343.5zM281 1374h151q5 -65 39 -97 t104 -32q136 0 148 131h151q0 -140 -73.5 -209t-225.5 -69q-294 0 -294 276zM305 502q0 -147 67 -213t177 -66q80 0 135.5 37.5t116.5 110.5v280q-67 74 -129.5 110t-136.5 36q-112 0 -171 -68t-59 -227z" />
<glyph unicode="&#x120;" horiz-adv-x="1372" d="M88 623q0 298 162.5 472.5t443.5 174.5q126 0 261.5 -25.5t250.5 -73.5l-63 -186q-222 70 -426 70q-183 0 -286 -114t-103 -316q0 -207 93.5 -317.5t262.5 -110.5q221 0 363 79v191h-385v203h602v-523q-150 -87 -290.5 -126t-299.5 -39q-273 0 -429.5 167.5t-156.5 473.5 zM541 1503q0 64 40.5 100.5t102.5 36.5q59 0 100 -37t41 -100q0 -62 -41.5 -99.5t-99.5 -37.5q-62 0 -102.5 37t-40.5 100z" />
<glyph unicode="&#x121;" horiz-adv-x="1138" d="M78 502q0 489 379 489q178 0 344 -135v117h231v-817q0 -256 -118 -375t-343 -119q-117 0 -230.5 25.5t-199.5 70.5l49 168q186 -71 351 -71q131 0 195.5 69t64.5 232v30q-71 -76 -144 -109.5t-188 -33.5q-176 0 -283.5 115.5t-107.5 343.5zM305 502q0 -147 67 -213 t177 -66q80 0 135.5 37.5t116.5 110.5v280q-67 74 -129.5 110t-136.5 36q-112 0 -171 -68t-59 -227zM426 1266q0 64 41.5 101.5t103.5 37.5q60 0 103 -38t43 -101t-43 -101.5t-103 -38.5q-62 0 -103.5 38t-41.5 102z" />
<glyph unicode="&#x122;" horiz-adv-x="1372" d="M88 623q0 298 162.5 472.5t443.5 174.5q126 0 261.5 -25.5t250.5 -73.5l-63 -186q-222 70 -426 70q-183 0 -286 -114t-103 -316q0 -207 93.5 -317.5t262.5 -110.5q221 0 363 79v191h-385v203h602v-523q-150 -87 -290.5 -126t-299.5 -39q-273 0 -429.5 167.5t-156.5 473.5 zM571 -422q79 64 97 121q-37 12 -57.5 39.5t-20.5 64.5q0 50 30 81.5t80 31.5q49 0 79 -34.5t30 -86.5q0 -86 -55 -162t-152 -120z" />
<glyph unicode="&#x123;" horiz-adv-x="1138" d="M78 502q0 489 379 489q178 0 344 -135v117h231v-817q0 -256 -118 -375t-343 -119q-117 0 -230.5 25.5t-199.5 70.5l49 168q186 -71 351 -71q131 0 195.5 69t64.5 232v30q-71 -76 -144 -109.5t-188 -33.5q-176 0 -283.5 115.5t-107.5 343.5zM305 502q0 -147 67 -213 t177 -66q80 0 135.5 37.5t116.5 110.5v280q-67 74 -129.5 110t-136.5 36q-112 0 -171 -68t-59 -227zM442 1210q0 85 50.5 155t162.5 132l35 -70q-68 -54 -100 -116q38 -9 62 -40t24 -71q0 -50 -33 -83.5t-84 -33.5q-52 0 -84.5 36.5t-32.5 90.5z" />
<glyph unicode="&#x126;" horiz-adv-x="1390" d="M57 895v174h97v180h235v-180h612v180h238v-180h96v-174h-96v-895h-238v477h-612v-477h-235v895h-97zM389 690h612v205h-612v-205z" />
<glyph unicode="&#x127;" horiz-adv-x="1142" d="M41 1079v113h78v139h231v-139h273v-113h-273v-258q167 170 359 170q162 0 233.5 -90.5t71.5 -288.5v-612h-232v539q0 124 -30 173.5t-123 49.5q-143 0 -279 -156v-606h-231v1079h-78z" />
<glyph unicode="&#x12a;" horiz-adv-x="544" d="M0 1409v182h547v-182h-547zM154 0v1249h237v-1249h-237z" />
<glyph unicode="&#x12b;" horiz-adv-x="503" d="M-25 1155v186h553v-186h-553zM137 0v973h232v-973h-232z" />
<glyph unicode="&#x12e;" horiz-adv-x="544" d="M4 -186q0 126 150 209v1226h237v-1249h-78q-70 -20 -109.5 -55.5t-39.5 -77.5q0 -41 38 -66.5t101 -25.5q26 0 152 20l26 -135q-118 -45 -241 -45q-109 0 -172.5 52t-63.5 147z" />
<glyph unicode="&#x12f;" horiz-adv-x="503" d="M-4 -186q0 123 141 202v957h232v-973h-64q-70 -20 -109.5 -55.5t-39.5 -77.5q0 -41 38 -66.5t101 -25.5q25 0 151 20l27 -135q-118 -45 -242 -45q-109 0 -172 52t-63 147zM106 1264q0 65 42 103t104 38q60 0 102.5 -38t42.5 -103q0 -64 -42.5 -102t-102.5 -38 q-62 0 -104 38t-42 102z" />
<glyph unicode="&#x130;" horiz-adv-x="544" d="M131 1503q0 64 40.5 100.5t102.5 36.5q59 0 100.5 -37t41.5 -100q0 -62 -42 -99.5t-100 -37.5q-62 0 -102.5 37t-40.5 100zM154 0v1249h237v-1249h-237z" />
<glyph unicode="&#x131;" horiz-adv-x="503" d="M137 0v973h232v-973h-232z" />
<glyph unicode="&#x132;" horiz-adv-x="1531" d="M154 0v1249h237v-1249h-237zM582 88l61 184q61 -23 92 -33.5t86.5 -22t106.5 -11.5q100 0 157 66t56 182v796h237v-796q0 -224 -104 -347.5t-295 -123.5q-179 0 -397 106z" />
<glyph unicode="&#x133;" horiz-adv-x="968" d="M117 1257q0 59 39 92t96 33t96 -33t39 -92t-38.5 -90.5t-96.5 -31.5t-96.5 31.5t-38.5 90.5zM137 0v973h232v-973h-232zM477 -182q74 38 97.5 91t23.5 171v893h233v-893q0 -187 -68 -288.5t-239 -141.5zM578 1257q0 59 39 92t96 33t96 -33t39 -92t-38.5 -90.5 t-96.5 -31.5t-96.5 31.5t-38.5 90.5z" />
<glyph unicode="&#x136;" horiz-adv-x="1310" d="M154 0v1249h237v-643l580 643h270v-16l-469 -522l498 -695v-16h-264l-388 530l-227 -254v-276h-237zM532 -422q77 65 95 121q-36 12 -57 40t-21 64q0 50 30 81.5t80 31.5q49 0 79 -34.5t30 -86.5q0 -86 -54.5 -162t-150.5 -120z" />
<glyph unicode="&#x137;" horiz-adv-x="1095" d="M129 0v1331h231v-776l412 420h272v-17l-378 -387l415 -555v-16h-266l-311 399l-144 -149v-250h-231zM440 -422q79 64 97 121q-37 12 -57.5 39.5t-20.5 64.5q0 50 30 81.5t80 31.5q49 0 79 -34.5t30 -86.5q0 -86 -55 -162t-152 -120z" />
<glyph unicode="&#x139;" horiz-adv-x="1046" d="M152 1413l227 279l178 -107v-45q-97 -75 -163.5 -114.5t-174.5 -79.5zM154 0v1249h237v-1028h594v-221h-831z" />
<glyph unicode="&#x13a;" horiz-adv-x="489" d="M121 1501l237 303l166 -112v-45q-89 -71 -158.5 -115t-179.5 -98zM129 0v1331h231v-1331h-231z" />
<glyph unicode="&#x13b;" horiz-adv-x="1046" d="M154 0v1249h237v-1028h594v-221h-831zM428 -422q76 64 94 121q-36 12 -57 40t-21 64q0 50 30.5 81.5t80.5 31.5q49 0 79 -34.5t30 -86.5q0 -86 -54.5 -162t-150.5 -120z" />
<glyph unicode="&#x13c;" horiz-adv-x="489" d="M123 -422q76 64 94 121q-36 12 -57 40t-21 64q0 50 30.5 81.5t80.5 31.5q49 0 78.5 -34.5t29.5 -86.5q0 -86 -54 -162t-150 -120zM129 0v1331h231v-1331h-231z" />
<glyph unicode="&#x13d;" horiz-adv-x="1046" d="M154 0v1249h237v-1028h594v-221h-831zM635 893l10 356h180v-24q-12 -182 -71 -332h-119z" />
<glyph unicode="&#x13e;" horiz-adv-x="503" d="M129 0v1331h231v-1331h-231zM457 975l10 356h180v-24q-12 -189 -72 -332h-118z" />
<glyph unicode="&#x13f;" horiz-adv-x="1046" d="M154 0v1249h237v-1028h594v-221h-831zM602 657q0 60 37 99t98 39t99 -39.5t38 -98.5t-38 -98t-99 -39t-98 39t-37 98z" />
<glyph unicode="&#x140;" horiz-adv-x="751" d="M129 0v1331h231v-1331h-231zM459 662q0 59 37 97t98 38t99 -38t38 -97t-38 -98.5t-99 -39.5t-98 39t-37 99z" />
<glyph unicode="&#x141;" horiz-adv-x="1056" d="M35 481v185l108 32v551h238v-479l301 90v-184l-301 -92v-363h594v-221h-832v514z" />
<glyph unicode="&#x142;" horiz-adv-x="503" d="M35 512v184l90 35v600h233v-514l117 45v-184l-117 -45v-633h-233v545z" />
<glyph unicode="&#x143;" horiz-adv-x="1409" d="M154 0v1249h217l647 -858v858h237v-1249h-215l-649 854v-854h-237zM567 1413l228 279l178 -107v-45q-97 -75 -163.5 -114.5t-174.5 -79.5z" />
<glyph unicode="&#x144;" horiz-adv-x="1144" d="M129 0v973h231v-135q86 76 168 114.5t179 38.5q162 0 239.5 -91t77.5 -288v-612h-231v551q0 125 -30.5 174t-123.5 49q-147 0 -279 -151v-623h-231zM416 1143l237 303l168 -113v-45q-89 -71 -158.5 -115t-179.5 -98z" />
<glyph unicode="&#x145;" horiz-adv-x="1409" d="M154 0v1249h217l647 -858v858h237v-1249h-215l-649 854v-854h-237zM571 -422q79 64 97 121q-37 12 -57.5 39.5t-20.5 64.5q0 50 30 81.5t80 31.5q49 0 79 -34.5t30 -86.5q0 -86 -55 -162t-152 -120z" />
<glyph unicode="&#x146;" horiz-adv-x="1144" d="M129 0v973h231v-135q86 76 168 114.5t179 38.5q162 0 239.5 -91t77.5 -288v-612h-231v551q0 125 -30.5 174t-123.5 49q-147 0 -279 -151v-623h-231zM449 -422q77 63 96 121q-37 12 -57.5 39.5t-20.5 64.5q0 50 30.5 81.5t80.5 31.5q49 0 78.5 -34.5t29.5 -86.5 q0 -86 -55 -162t-152 -120z" />
<glyph unicode="&#x147;" horiz-adv-x="1409" d="M154 0v1249h217l647 -858v858h237v-1249h-215l-649 854v-854h-237zM375 1597l76 78l254 -151l256 151l73 -78l-258 -241h-145z" />
<glyph unicode="&#x148;" horiz-adv-x="1144" d="M129 0v973h231v-135q86 76 168 114.5t179 38.5q162 0 239.5 -91t77.5 -288v-612h-231v551q0 125 -30.5 174t-123.5 49q-147 0 -279 -151v-623h-231zM258 1343l74 78q13 -9 250 -164q31 20 117.5 76t134.5 88l73 -78l-254 -256h-143z" />
<glyph unicode="&#x14c;" horiz-adv-x="1388" d="M88 623q0 310 159.5 478.5t446.5 168.5q289 0 449 -168.5t160 -478.5q0 -306 -160.5 -473.5t-448.5 -167.5q-287 0 -446.5 167.5t-159.5 473.5zM328 623q0 -208 95 -316t271 -108t271.5 108.5t95.5 315.5q0 210 -95.5 320t-271.5 110t-271 -109.5t-95 -320.5zM422 1409 v182h547v-182h-547z" />
<glyph unicode="&#x14d;" horiz-adv-x="1144" d="M78 481q0 235 133.5 373t359.5 137q227 1 361.5 -137t134.5 -373q0 -229 -134.5 -364t-361.5 -135t-360 135t-133 364zM297 1157v184h551v-184h-551zM305 481q0 -146 71 -226.5t195 -80.5q125 0 197 80.5t72 226.5q0 152 -72 236t-197 84q-123 0 -194.5 -84t-71.5 -236z " />
<glyph unicode="&#x150;" horiz-adv-x="1388" d="M88 623q0 311 159 479t447 168t448.5 -168.5t160.5 -478.5q0 -306 -161 -473.5t-448 -167.5q-288 0 -447 167t-159 474zM328 623q0 -208 95 -316t271 -108t271.5 108.5t95.5 315.5q0 210 -95.5 320t-271.5 110t-271 -109.5t-95 -320.5zM436 1407l201 289l164 -82v-47 q-10 -8 -38.5 -32t-40 -33t-35.5 -29t-39.5 -31.5t-37 -27.5t-42 -30t-42.5 -28zM754 1407l200 289l162 -82v-47q-6 -5 -33 -28t-34.5 -29.5t-31 -25.5t-34 -27.5t-31.5 -24.5t-35.5 -26.5t-34 -24t-38.5 -25.5z" />
<glyph unicode="&#x151;" horiz-adv-x="1144" d="M78 481q0 235 133.5 373t359.5 137q227 1 361.5 -137t134.5 -373q0 -229 -134.5 -364t-361.5 -135t-360 135t-133 364zM305 481q0 -146 71 -226.5t195 -80.5q125 0 197 80.5t72 226.5q0 152 -72 236t-197 84q-123 0 -194.5 -84t-71.5 -236zM309 1153l201 307l158 -80v-47 q-136 -125 -273 -229zM623 1153l200 307l156 -80v-47q-153 -140 -272 -229z" />
<glyph unicode="&#x152;" horiz-adv-x="1945" d="M86 623q0 310 159.5 478.5t448.5 168.5q140 0 246 -56v35h870v-219h-632v-301h546v-213h-546v-299h649v-217h-887v37q-104 -55 -246 -55q-288 0 -448 167.5t-160 473.5zM328 623q0 -208 95 -316t271 -108q154 0 246 80v692q-91 82 -246 82q-176 0 -271 -109.5t-95 -320.5 z" />
<glyph unicode="&#x153;" horiz-adv-x="1841" d="M70 481q0 235 134.5 373.5t360.5 136.5q240 3 377 -153q127 153 373 153q205 2 321.5 -120t120.5 -349q0 -45 -8 -102h-690q13 -131 81 -193.5t179 -62.5q98 0 178.5 25t171.5 83l78 -139q-103 -81 -205 -116t-231 -35q-245 0 -369 151q-138 -151 -379 -151 q-226 0 -359.5 135t-133.5 364zM297 481q0 -146 71.5 -226.5t194.5 -80.5q126 0 198.5 80.5t72.5 226.5q0 152 -72 236t-197 84q-123 0 -195.5 -84t-72.5 -236zM1061 582h493q-9 116 -70.5 175.5t-166.5 59.5q-104 0 -171 -57.5t-85 -177.5z" />
<glyph unicode="&#x154;" horiz-adv-x="1232" d="M154 0v1249h481q252 0 389 -115.5t137 -328.5q0 -141 -74.5 -244t-207.5 -149l315 -394v-18h-258l-295 379h-250v-379h-237zM391 582h248q135 0 209 58.5t74 164.5q0 110 -74 169.5t-209 61.5h-248v-454zM465 1413l227 279l176 -107v-45q-97 -75 -163.5 -114.5 t-174.5 -79.5z" />
<glyph unicode="&#x155;" horiz-adv-x="796" d="M129 0v975h231v-187q44 94 117 148.5t164 54.5q68 0 123 -6l-16 -231q-49 4 -117 4q-97 0 -166.5 -55t-104.5 -166v-537h-231zM227 1143l238 303l168 -113v-45q-89 -71 -158.5 -115t-179.5 -98z" />
<glyph unicode="&#x156;" horiz-adv-x="1232" d="M154 0v1249h481q252 0 389 -115.5t137 -328.5q0 -141 -74.5 -244t-207.5 -149l315 -394v-18h-258l-295 379h-250v-379h-237zM391 582h248q135 0 209 58.5t74 164.5q0 110 -74 169.5t-209 61.5h-248v-454zM504 -422q77 63 96 121q-37 12 -57.5 39.5t-20.5 64.5 q0 50 30.5 81.5t80.5 31.5q49 0 78.5 -34.5t29.5 -86.5q0 -86 -54.5 -162t-151.5 -120z" />
<glyph unicode="&#x157;" horiz-adv-x="796" d="M119 -422q77 63 96 121q-37 12 -57.5 39.5t-20.5 64.5q0 50 30.5 81.5t80.5 31.5q49 0 78.5 -34.5t29.5 -86.5q0 -86 -54.5 -162t-151.5 -120zM129 0v975h231v-187q44 94 117 148.5t164 54.5q68 0 123 -6l-16 -231q-49 4 -117 4q-97 0 -166.5 -55t-104.5 -166v-537h-231z " />
<glyph unicode="&#x158;" horiz-adv-x="1232" d="M154 0v1249h481q252 0 389 -115.5t137 -328.5q0 -141 -74.5 -244t-207.5 -149l315 -394v-18h-258l-295 379h-250v-379h-237zM272 1597l74 78l256 -151l254 151l76 -78l-258 -241h-146zM391 582h248q135 0 209 58.5t74 164.5q0 110 -74 169.5t-209 61.5h-248v-454z" />
<glyph unicode="&#x159;" horiz-adv-x="821" d="M94 1343l74 78q13 -9 250 -164q31 20 117.5 76t134.5 88l73 -78l-254 -256h-143zM154 0v975h231v-187q44 94 117.5 148.5t165.5 54.5q68 0 123 -6l-17 -231q-49 4 -117 4q-203 0 -272 -221v-537h-231z" />
<glyph unicode="&#x15a;" horiz-adv-x="1146" d="M57 141l93 187q270 -138 458 -138q86 0 135.5 35.5t49.5 100.5q0 80 -59 120.5t-255 98.5q-87 26 -147.5 54t-112 71.5t-77 106t-25.5 145.5q0 155 110.5 251.5t300.5 96.5q244 0 486 -105l-72 -182q-224 86 -401 86q-82 0 -131.5 -37t-49.5 -90q0 -24 5.5 -42.5 t12.5 -33t26.5 -28.5t35.5 -24t52 -23.5t62.5 -22.5l79.5 -27q35 -12 54 -18q93 -31 153 -60.5t108.5 -72.5t70.5 -102t22 -140q0 -176 -116 -271t-305 -95q-128 0 -284.5 44.5t-279.5 114.5zM428 1413l227 279l176 -107v-45q-94 -74 -161.5 -113.5t-175.5 -80.5z" />
<glyph unicode="&#x15b;" horiz-adv-x="933" d="M59 115l78 159q183 -108 352 -108q67 0 106.5 25t39.5 71q0 18 -4.5 33t-10 25.5t-20.5 20.5t-26 16.5t-36 15t-42.5 14t-53 16t-59.5 17.5q-149 47 -216 108t-67 170q0 142 89.5 219.5t254.5 77.5q172 0 390 -84l-60 -168q-220 72 -325 72q-63 0 -97.5 -25.5 t-34.5 -72.5q0 -16 4.5 -29t17 -24t23.5 -18.5t35 -16t40.5 -13.5t50.5 -15t55 -17q73 -22 118.5 -40t87 -43t63 -55.5t34 -72.5t12.5 -99q0 -138 -97.5 -215t-271.5 -77q-227 0 -430 133zM293 1147l237 303l166 -111v-47q-89 -71 -158.5 -115t-179.5 -98z" />
<glyph unicode="&#x15e;" horiz-adv-x="1146" d="M57 141l93 187q270 -138 458 -138q86 0 135.5 35.5t49.5 100.5q0 80 -59 120.5t-255 98.5q-87 26 -147.5 54t-112 71.5t-77 106t-25.5 145.5q0 155 110.5 251.5t300.5 96.5q244 0 486 -105l-72 -182q-224 86 -401 86q-82 0 -131.5 -37t-49.5 -90q0 -24 5.5 -42.5 t12.5 -33t26.5 -28.5t35.5 -24t52 -23.5t62.5 -22.5l79.5 -27q35 -12 54 -18q93 -31 153 -60.5t108.5 -72.5t70.5 -102t22 -140q0 -176 -116 -271t-305 -95l-50 2l-2 -47q118 -3 162.5 -41t44.5 -132q0 -91 -54.5 -140.5t-152.5 -49.5q-107 0 -219 39l23 111q97 -19 143 -19 q56 0 84 14t27 52q0 45 -24.5 57t-102.5 12h-76l31 158q-227 45 -398 143z" />
<glyph unicode="&#x15f;" horiz-adv-x="933" d="M59 115l78 159q183 -108 352 -108q67 0 106.5 25t39.5 71q0 18 -4.5 33t-10 25.5t-20.5 20.5t-26 16.5t-36 15t-42.5 14t-53 16t-59.5 17.5q-149 47 -216 108t-67 170q0 142 89.5 219.5t254.5 77.5q172 0 390 -84l-60 -168q-220 72 -325 72q-63 0 -97.5 -25.5 t-34.5 -72.5q0 -16 4.5 -29t17 -24t23.5 -18.5t35 -16t40.5 -13.5t50.5 -15t55 -17q73 -22 118.5 -40t87 -43t63 -55.5t34 -72.5t12.5 -99q0 -138 -97.5 -215t-271.5 -77h-8l-4 -45q118 -3 162.5 -41t44.5 -132q0 -91 -54.5 -140.5t-152.5 -49.5q-104 0 -219 39l25 111 q93 -19 143 -19q54 0 82 14t27 52q0 45 -24.5 57t-100.5 12h-78l30 152q-153 25 -303 123z" />
<glyph unicode="&#x160;" horiz-adv-x="1146" d="M57 141l93 187q270 -138 458 -138q86 0 135.5 35.5t49.5 100.5q0 80 -59 120.5t-255 98.5q-87 26 -147.5 54t-112 71.5t-77 106t-25.5 145.5q0 155 110.5 251.5t300.5 96.5q244 0 486 -105l-72 -182q-224 86 -401 86q-82 0 -131.5 -37t-49.5 -90q0 -24 5.5 -42.5 t12.5 -33t26.5 -28.5t35.5 -24t52 -23.5t62.5 -22.5l79.5 -27q35 -12 54 -18q93 -31 153 -60.5t108.5 -72.5t70.5 -102t22 -140q0 -176 -116 -271t-305 -95q-128 0 -284.5 44.5t-279.5 114.5zM236 1597l75 78l254 -151l254 151l76 -78l-258 -241h-145z" />
<glyph unicode="&#x161;" horiz-adv-x="933" d="M59 115l78 159q183 -108 352 -108q67 0 106.5 25t39.5 71q0 18 -4.5 33t-10 25.5t-20.5 20.5t-26 16.5t-36 15t-42.5 14t-53 16t-59.5 17.5q-149 47 -216 108t-67 170q0 142 89.5 219.5t254.5 77.5q172 0 390 -84l-60 -168q-220 72 -325 72q-63 0 -97.5 -25.5 t-34.5 -72.5q0 -16 4.5 -29t17 -24t23.5 -18.5t35 -16t40.5 -13.5t50.5 -15t55 -17q73 -22 118.5 -40t87 -43t63 -55.5t34 -72.5t12.5 -99q0 -138 -97.5 -215t-271.5 -77q-227 0 -430 133zM133 1350l74 75q44 -30 128 -84t122 -79q28 18 116 74t136 89l73 -75l-254 -256 h-143z" />
<glyph unicode="&#x164;" horiz-adv-x="1138" d="M31 1030v219h1077v-219h-422v-1030h-235v1030h-420zM240 1597l75 78l254 -151l256 151l74 -78l-258 -241h-145z" />
<glyph unicode="&#x165;" horiz-adv-x="776" d="M31 780v195h143v233h234v-233h270v-195h-270v-440q0 -86 33 -118t118 -32q65 0 139 9l25 -158q-127 -51 -246 -51q-161 0 -232 79.5t-71 260.5v450h-143zM498 1044l10 359h180v-27q-12 -175 -72 -332h-118z" />
<glyph unicode="&#x16a;" horiz-adv-x="1357" d="M133 578v671h238v-671q0 -184 79.5 -280.5t229.5 -96.5q149 0 228 96.5t79 280.5v671h238v-671q0 -292 -140 -444t-407 -152q-264 0 -404 152.5t-141 443.5zM406 1409v182h546v-182h-546z" />
<glyph unicode="&#x16b;" horiz-adv-x="1144" d="M117 365v608h233v-553q0 -122 35.5 -174.5t128.5 -52.5q137 0 268 157v623h232v-973h-232v131q-101 -76 -178 -112.5t-170 -36.5q-161 0 -239 93t-78 290zM297 1155v186h551v-186h-551z" />
<glyph unicode="&#x16e;" horiz-adv-x="1357" d="M133 578v671h238v-671q0 -184 79.5 -280.5t229.5 -96.5q149 0 228 96.5t79 280.5v671h238v-671q0 -292 -140 -444t-407 -152q-264 0 -404 152.5t-141 443.5zM473 1542q0 92 57.5 148.5t149.5 56.5q91 0 149 -56.5t58 -148.5q0 -87 -58 -141.5t-151 -54.5q-91 0 -148 54 t-57 142zM588 1542q0 -38 25 -61t65 -23q41 0 66.5 23t25.5 61q0 42 -25 67t-65 25q-42 0 -67 -25t-25 -67z" />
<glyph unicode="&#x16f;" horiz-adv-x="1144" d="M117 365v608h233v-553q0 -122 35.5 -174.5t128.5 -52.5q137 0 268 157v623h232v-973h-232v131q-101 -76 -178 -112.5t-170 -36.5q-161 0 -239 93t-78 290zM367 1282q0 94 56.5 150.5t149.5 56.5q91 0 149 -57t58 -150q0 -86 -58.5 -141.5t-150.5 -55.5q-90 0 -147 55 t-57 142zM481 1282q0 -37 25 -59.5t65 -22.5q41 0 67 22.5t26 59.5q0 42 -25.5 68t-65.5 26q-41 0 -66.5 -25.5t-25.5 -68.5z" />
<glyph unicode="&#x170;" horiz-adv-x="1357" d="M133 578v671h238v-671q0 -184 79.5 -280.5t229.5 -96.5q149 0 228 96.5t79 280.5v671h238v-671q0 -292 -140 -444t-407 -152q-264 0 -404 152.5t-141 443.5zM422 1407l199 289l163 -82v-47q-174 -148 -272 -211zM739 1407l201 289l162 -82v-47q-171 -145 -273 -211z" />
<glyph unicode="&#x171;" horiz-adv-x="1144" d="M117 365v608h233v-553q0 -122 35.5 -174.5t128.5 -52.5q137 0 268 157v623h232v-973h-232v131q-101 -75 -179 -112t-169 -37q-162 0 -239.5 93t-77.5 290zM311 1153l199 307l160 -82v-47q-140 -125 -275 -229zM623 1153l200 307l158 -82v-47q-122 -111 -272 -229z" />
<glyph unicode="&#x172;" horiz-adv-x="1357" d="M133 578v671h238v-671q0 -184 79.5 -280.5t229.5 -96.5q149 0 228 96.5t79 280.5v671h238v-671q0 -281 -130 -433t-378 -163q-101 -45 -101 -115q0 -41 38.5 -66.5t101.5 -25.5q25 0 151 20l27 -135q-118 -45 -242 -45q-109 0 -172 52t-63 147q0 101 100 176 q-207 34 -315 183t-109 405z" />
<glyph unicode="&#x173;" horiz-adv-x="1144" d="M117 365v608h233v-553q0 -122 35.5 -174.5t128.5 -52.5q137 0 268 157v623h232v-973h-117q-70 -20 -109.5 -55.5t-39.5 -77.5q0 -41 38 -66.5t99 -25.5q21 0 153 20l27 -135q-118 -45 -242 -45q-110 0 -172.5 51.5t-62.5 147.5q0 72 51.5 132t142.5 97v88 q-101 -76 -178 -112.5t-170 -36.5q-161 0 -239 93t-78 290z" />
<glyph unicode="&#x174;" horiz-adv-x="1853" d="M33 1249h258l223 -854q20 -86 29 -166q7 39 32 166l222 854h260l221 -854q28 -141 31 -164q17 118 28 164l226 854h258l-348 -1249h-316l-199 735q-13 57 -30 166q-10 -61 -33 -166l-199 -735h-315zM598 1417l256 242h145l256 -242l-73 -78l-256 154l-254 -154z" />
<glyph unicode="&#x175;" horiz-adv-x="1521" d="M20 975h224l190 -613q15 -64 27 -129q6 32 31 129l174 613h192l172 -613q1 -2 31 -133q14 72 29 133l188 613h223l-293 -975h-274l-172 618l-172 -618h-275zM440 1163l252 256h144l254 -256l-74 -78q-42 29 -252 166q-34 -23 -119 -79t-131 -87z" />
<glyph unicode="&#x176;" horiz-adv-x="1226" d="M31 1249h245l281 -501q24 -39 57 -123q14 41 56 123l280 501h246l-465 -846v-403h-235v403zM285 1417l256 242h145l258 -242l-76 -78l-254 154l-256 -154z" />
<glyph unicode="&#x177;" horiz-adv-x="1075" d="M4 973h242l225 -549q40 -109 55 -156q48 96 100 220.5t82.5 206.5t102.5 278h248q-82 -214 -116 -301.5t-100 -241t-122 -260.5q-100 -184 -219.5 -302.5t-288.5 -180.5l-78 186q158 74 250 176zM215 1163l254 256h141l254 -256l-73 -78q-97 66 -250 166 q-127 -83 -252 -166z" />
<glyph unicode="&#x178;" horiz-adv-x="1226" d="M31 1249h245l281 -501q24 -39 57 -123q14 41 56 123l280 501h246l-465 -846v-403h-235v403zM291 1503q0 56 36.5 88.5t86.5 32.5q56 0 90.5 -32t34.5 -89q0 -56 -35 -87.5t-90 -31.5q-50 0 -86.5 32.5t-36.5 86.5zM688 1503q0 57 35.5 89t89.5 32q50 0 87.5 -32.5 t37.5 -88.5q0 -54 -37.5 -86.5t-87.5 -32.5q-54 0 -89.5 32t-35.5 87z" />
<glyph unicode="&#x179;" horiz-adv-x="1216" d="M94 0v178l725 860q-152 -8 -227 -8h-457v219h989v-188l-692 -850q148 8 217 8h484v-219h-1039zM471 1413l227 279l179 -107v-45q-97 -75 -163.5 -114.5t-174.5 -79.5z" />
<glyph unicode="&#x17a;" horiz-adv-x="1040" d="M76 0v147l565 641q-106 -8 -182 -8h-367v193h852v-144l-549 -645q23 1 65 2.5t74 2.5t54 1h377v-190h-889zM354 1143l238 303l168 -113v-45q-89 -71 -159 -115.5t-181 -97.5z" />
<glyph unicode="&#x17b;" horiz-adv-x="1216" d="M94 0v178l725 860q-152 -8 -227 -8h-457v219h989v-188l-692 -850q148 8 217 8h484v-219h-1039zM465 1503q0 64 40.5 100.5t102.5 36.5q59 0 100.5 -37t41.5 -100q0 -62 -42 -99.5t-100 -37.5q-62 0 -102.5 37t-40.5 100z" />
<glyph unicode="&#x17c;" horiz-adv-x="1040" d="M76 0v147l565 641q-106 -8 -182 -8h-367v193h852v-144l-549 -645q23 1 65 2.5t74 2.5t54 1h377v-190h-889zM375 1264q0 65 41.5 103t103.5 38q59 0 102.5 -38.5t43.5 -102.5q0 -63 -43.5 -101.5t-102.5 -38.5q-62 0 -103.5 38t-41.5 102z" />
<glyph unicode="&#x17d;" horiz-adv-x="1216" d="M94 0v178l725 860q-152 -8 -227 -8h-457v219h989v-188l-692 -850q148 8 217 8h484v-219h-1039zM279 1597l75 78l254 -151l256 151l74 -78l-258 -241h-145z" />
<glyph unicode="&#x17e;" horiz-adv-x="1040" d="M76 0v147l565 641q-106 -8 -182 -8h-367v193h852v-144l-549 -645q23 1 65 2.5t74 2.5t54 1h377v-190h-889zM197 1343l73 78q13 -9 250 -164q31 20 117.5 76t134.5 88l74 -78l-254 -256h-143z" />
<glyph unicode="&#x192;" horiz-adv-x="1148" d="M61 387l31 152h121l10 55q53 280 179 411.5t331 131.5q210 0 385 -111l-69 -143q-146 69 -283 69q-120 0 -199 -83.5t-116 -274.5l-11 -55h441l-29 -152h-440l-74 -387h-227l73 387h-123z" />
<glyph unicode="&#x1cd;" horiz-adv-x="1376" d="M27 0l501 1249h320l502 -1249h-254l-103 262h-608l-104 -262h-254zM360 1597l74 78l256 -151l254 151l74 -78l-256 -241h-146zM467 479h442l-178 453q-33 91 -43 137q-20 -73 -43 -137z" />
<glyph unicode="&#x218;" horiz-adv-x="1146" d="M57 141l93 187q270 -138 458 -138q86 0 135.5 35.5t49.5 100.5q0 80 -59 120.5t-255 98.5q-87 26 -147.5 54t-112 71.5t-77 106t-25.5 145.5q0 155 110.5 251.5t300.5 96.5q244 0 486 -105l-72 -182q-224 86 -401 86q-82 0 -131.5 -37t-49.5 -90q0 -24 5.5 -42.5 t12.5 -33t26.5 -28.5t35.5 -24t52 -23.5t62.5 -22.5l79.5 -27q35 -12 54 -18q93 -31 153 -60.5t108.5 -72.5t70.5 -102t22 -140q0 -176 -116 -271t-305 -95q-128 0 -284.5 44.5t-279.5 114.5zM434 -422q80 68 94 121q-36 12 -56.5 40t-20.5 64q0 50 30 81.5t82 31.5 q47 0 77 -34.5t30 -86.5q0 -86 -54.5 -162t-150.5 -120z" />
<glyph unicode="&#x219;" horiz-adv-x="933" d="M59 115l78 159q183 -108 352 -108q67 0 106.5 25t39.5 71q0 18 -4.5 33t-10 25.5t-20.5 20.5t-26 16.5t-36 15t-42.5 14t-53 16t-59.5 17.5q-149 47 -216 108t-67 170q0 142 89.5 219.5t254.5 77.5q172 0 390 -84l-60 -168q-220 72 -325 72q-63 0 -97.5 -25.5 t-34.5 -72.5q0 -16 4.5 -29t17 -24t23.5 -18.5t35 -16t40.5 -13.5t50.5 -15t55 -17q73 -22 118.5 -40t87 -43t63 -55.5t34 -72.5t12.5 -99q0 -138 -97.5 -215t-271.5 -77q-227 0 -430 133zM342 -422q77 63 96 121q-37 12 -57.5 39.5t-20.5 64.5q0 50 30.5 81.5t80.5 31.5 q49 0 79 -34.5t30 -86.5q0 -86 -55 -162t-152 -120z" />
<glyph unicode="&#x21a;" horiz-adv-x="1138" d="M31 1030v219h1077v-219h-422v-1030h-235v1030h-420zM446 -422q79 64 97 121q-37 12 -57.5 39.5t-20.5 64.5q0 50 30 81.5t80 31.5q49 0 79 -34.5t30 -86.5q0 -86 -55 -162t-152 -120z" />
<glyph unicode="&#x21b;" horiz-adv-x="763" d="M31 780v195h143v233h234v-233h270v-195h-270v-440q0 -86 33 -118t118 -32q65 0 139 9l25 -158q-127 -51 -246 -51q-161 0 -232 79.5t-71 260.5v450h-143zM274 -412q79 64 97 121q-37 12 -57.5 40t-20.5 65q0 50 30 81t80 31q49 0 79 -34.5t30 -86.5q0 -86 -55 -162 t-152 -120z" />
<glyph unicode="&#x2c6;" d="M180 1163l252 256h143l254 -256l-73 -78q-42 29 -252 166q-34 -23 -119 -79t-131 -87z" />
<glyph unicode="&#x2c7;" d="M178 1343l74 78q13 -9 250 -164q31 20 117.5 76t134.5 88l73 -78l-254 -256h-143z" />
<glyph unicode="&#x2d8;" d="M209 1374h153q9 -129 144 -129q71 0 106 32.5t41 98.5h152q0 -141 -73.5 -209.5t-225.5 -68.5q-151 0 -224 68t-73 208z" />
<glyph unicode="&#x2d9;" d="M356 1264q0 65 42 103t104 38q60 0 102.5 -38t42.5 -103q0 -64 -42.5 -102t-102.5 -38q-62 0 -104 38t-42 102z" />
<glyph unicode="&#x2da;" d="M295 1282q0 93 58 150t149 57q93 0 150 -57t57 -150q0 -87 -58 -142t-151 -55q-89 0 -147 55.5t-58 141.5zM412 1282q0 -36 24.5 -59t63.5 -23q42 0 67 22.5t25 59.5q0 43 -24.5 68.5t-65.5 25.5q-40 0 -65 -26t-25 -68z" />
<glyph unicode="&#x2db;" d="M231 -186q0 90 78 159t207 99l66 -62q-87 -17 -139 -55.5t-52 -87.5q0 -41 38 -66.5t101 -25.5q26 0 152 20l27 -135q-118 -45 -242 -45q-109 0 -172.5 52t-63.5 147z" />
<glyph unicode="&#x2dc;" d="M170 1182q10 76 42 126.5t76 70t93 18t96 -24.5l113 -53q55 -24 85 -9t60 76l103 -16q-10 -77 -43.5 -129.5t-79 -72.5t-95.5 -19.5t-96 22.5l-112 56q-53 26 -84 11.5t-58 -73.5z" />
<glyph unicode="&#x2dd;" d="M219 1153l201 307l158 -82v-45q-112 -105 -273 -231zM532 1153l201 307l156 -82v-45q-127 -119 -273 -231z" />
<glyph unicode="&#x312;" horiz-adv-x="0" d="M356 1210q0 85 50.5 155t162.5 132l35 -70q-68 -54 -100 -116q38 -9 62 -40t24 -71q0 -50 -33 -83.5t-84 -33.5q-52 0 -84.5 36.5t-32.5 90.5z" />
<glyph unicode="&#x326;" horiz-adv-x="0" d="M371 -422q76 64 94 121q-36 12 -57 40t-21 64q0 50 30.5 81.5t80.5 31.5q49 0 78.5 -34.5t29.5 -86.5q0 -86 -54.5 -162t-150.5 -120z" />
<glyph unicode="&#x1e80;" horiz-adv-x="1853" d="M33 1249h258l223 -854q20 -86 29 -166q7 39 32 166l222 854h260l221 -854q28 -141 31 -164q17 118 28 164l226 854h258l-348 -1249h-316l-199 735q-13 57 -30 166q-10 -61 -33 -166l-199 -735h-315zM651 1530v45l178 108l228 -280l-68 -68q-108 42 -175.5 81.5 t-162.5 113.5z" />
<glyph unicode="&#x1e81;" horiz-adv-x="1521" d="M20 975h224l190 -613q15 -64 27 -129q6 32 31 129l174 613h192l172 -613q1 -2 31 -133q14 72 29 133l188 613h223l-293 -975h-274l-172 618l-172 -618h-275zM526 1307v47l168 110l238 -303l-66 -67q-111 53 -181 97.5t-159 115.5z" />
<glyph unicode="&#x1e82;" horiz-adv-x="1853" d="M33 1249h258l223 -854q20 -86 29 -166q7 39 32 166l222 854h260l221 -854q28 -141 31 -164q17 118 28 164l226 854h258l-348 -1249h-316l-199 735q-13 57 -30 166q-10 -61 -33 -166l-199 -735h-315zM791 1413l227 279l176 -107v-45q-97 -75 -163.5 -114.5t-174.5 -79.5z " />
<glyph unicode="&#x1e83;" horiz-adv-x="1521" d="M20 975h224l190 -613q15 -64 27 -129q6 32 31 129l174 613h192l172 -613q1 -2 31 -133q14 72 29 133l188 613h223l-293 -975h-274l-172 618l-172 -618h-275zM596 1143l238 303l167 -113v-45q-89 -71 -158.5 -115.5t-178.5 -97.5z" />
<glyph unicode="&#x1e84;" horiz-adv-x="1853" d="M33 1249h258l223 -854q20 -86 29 -166q7 39 32 166l222 854h260l221 -854q28 -141 31 -164q17 118 28 164l226 854h258l-348 -1249h-316l-199 735q-13 57 -30 166q-10 -61 -33 -166l-199 -735h-315zM604 1503q0 56 36.5 88.5t86.5 32.5q54 0 88.5 -32t34.5 -89 q0 -56 -34.5 -87.5t-88.5 -31.5q-50 0 -86.5 32.5t-36.5 86.5zM1001 1503q0 57 35.5 89t89.5 32q50 0 86.5 -32.5t36.5 -88.5q0 -54 -36.5 -86.5t-86.5 -32.5q-54 0 -89.5 32t-35.5 87z" />
<glyph unicode="&#x1e85;" horiz-adv-x="1521" d="M20 975h224l190 -613q15 -64 27 -129q6 32 31 129l174 613h192l172 -613q1 -2 31 -133q14 72 29 133l188 613h223l-293 -975h-274l-172 618l-172 -618h-275zM436 1257q0 56 37.5 89.5t87.5 33.5q57 0 92 -33t35 -90q0 -56 -35 -88t-92 -32q-50 0 -87.5 33t-37.5 87z M836 1257q0 57 35.5 90t89.5 33q52 0 89 -33.5t37 -89.5q0 -55 -37 -87.5t-89 -32.5q-54 0 -89.5 32.5t-35.5 87.5z" />
<glyph unicode="&#x1ef2;" horiz-adv-x="1226" d="M31 1249h245l281 -501q24 -39 57 -123q14 41 56 123l280 501h246l-465 -846v-403h-235v403zM338 1530v45l180 108l225 -280l-65 -68q-109 42 -177.5 82t-162.5 113z" />
<glyph unicode="&#x1ef3;" horiz-adv-x="1075" d="M4 973h242l225 -549q40 -109 55 -156q48 96 100 220.5t82.5 206.5t102.5 278h250q-9 -23 -41.5 -106.5t-43.5 -111.5t-39.5 -101.5t-43 -107.5t-40.5 -95.5t-44.5 -101.5t-42 -88.5t-45.5 -90.5q-100 -184 -219.5 -302.5t-288.5 -180.5l-78 186q158 74 250 176zM301 1307 v47l170 110l236 -303l-66 -67q-109 53 -179 97.5t-161 115.5z" />
<glyph unicode="&#x2000;" horiz-adv-x="902" />
<glyph unicode="&#x2001;" horiz-adv-x="1804" />
<glyph unicode="&#x2002;" horiz-adv-x="902" />
<glyph unicode="&#x2003;" horiz-adv-x="1804" />
<glyph unicode="&#x2004;" horiz-adv-x="601" />
<glyph unicode="&#x2005;" horiz-adv-x="451" />
<glyph unicode="&#x2006;" horiz-adv-x="300" />
<glyph unicode="&#x2007;" horiz-adv-x="300" />
<glyph unicode="&#x2008;" horiz-adv-x="225" />
<glyph unicode="&#x2009;" horiz-adv-x="184" />
<glyph unicode="&#x200a;" horiz-adv-x="100" />
<glyph unicode="&#x2010;" horiz-adv-x="817" d="M125 469v205h567v-205h-567z" />
<glyph unicode="&#x2011;" horiz-adv-x="817" d="M125 469v205h567v-205h-567z" />
<glyph unicode="&#x2012;" horiz-adv-x="817" d="M125 469v205h567v-205h-567z" />
<glyph unicode="&#x2013;" horiz-adv-x="1021" d="M125 475v174h772v-174h-772z" />
<glyph unicode="&#x2014;" horiz-adv-x="1861" d="M125 475v174h1612v-174h-1612z" />
<glyph unicode="&#x2018;" horiz-adv-x="542" d="M139 979q0 100 64.5 202.5t183.5 178.5l57 -68q-59 -51 -88 -95t-43 -101q44 -11 71.5 -46.5t27.5 -82.5q0 -59 -37.5 -98.5t-98.5 -39.5t-99 43t-38 107z" />
<glyph unicode="&#x2019;" horiz-adv-x="540" d="M100 897q60 50 89.5 95t43.5 102q-44 10 -71 46t-27 83q0 59 37 98t98 39t99.5 -43t38.5 -107q0 -100 -64.5 -202.5t-183.5 -178.5z" />
<glyph unicode="&#x201a;" horiz-adv-x="540" d="M100 -168q60 50 89.5 95t43.5 102q-44 10 -71 46t-27 83q0 59 37 98t98 39t99.5 -43t38.5 -107q0 -100 -64.5 -202.5t-183.5 -178.5z" />
<glyph unicode="&#x201c;" horiz-adv-x="909" d="M139 979q0 100 64.5 202.5t183.5 178.5l57 -68q-59 -51 -88 -95t-43 -101q44 -11 71.5 -46.5t27.5 -82.5q0 -59 -37.5 -98.5t-98.5 -39.5t-99 43t-38 107zM508 979q0 100 64.5 202.5t183.5 178.5l57 -68q-59 -50 -88 -94.5t-45 -101.5q45 -10 72.5 -45.5t27.5 -83.5 q0 -59 -38 -98.5t-99 -39.5q-60 0 -97.5 43t-37.5 107z" />
<glyph unicode="&#x201d;" horiz-adv-x="909" d="M100 897q60 50 89.5 95t43.5 102q-44 10 -71 46t-27 83q0 59 37 98t98 39t99.5 -43t38.5 -107q0 -100 -64.5 -202.5t-183.5 -178.5zM469 897q60 50 89.5 95t43.5 102q-44 10 -71 46t-27 83q0 59 37 98t98 39t99 -43t38 -107q0 -100 -64.5 -202.5t-183.5 -178.5z" />
<glyph unicode="&#x201e;" horiz-adv-x="909" d="M100 -168q60 50 89.5 95t43.5 102q-44 10 -71 46t-27 83q0 59 37 98t98 39t99.5 -43t38.5 -107q0 -100 -64.5 -202.5t-183.5 -178.5zM469 -168q60 50 89.5 95t43.5 102q-44 10 -71 46t-27 83q0 59 37 98t98 39t99 -43t38 -107q0 -100 -64.5 -202.5t-183.5 -178.5z" />
<glyph unicode="&#x2020;" horiz-adv-x="1050" d="M92 733v125l354 16l17 375h125l16 -375l354 -16v-123l-352 -18l-18 -901h-125l-19 901z" />
<glyph unicode="&#x2021;" horiz-adv-x="1050" d="M92 215v125l350 14v365l-350 14v125l354 16l17 375h125l16 -375l354 -16v-123l-350 -16v-365l350 -14v-125l-354 -16l-16 -375h-125l-17 375z" />
<glyph unicode="&#x2022;" horiz-adv-x="671" d="M150 565q0 83 51 135t135 52t135 -52t51 -135q0 -81 -51 -133.5t-135 -52.5t-135 52.5t-51 133.5z" />
<glyph unicode="&#x2026;" horiz-adv-x="1544" d="M121 127q0 59 38 98t99 39t98 -39t37 -98t-37 -98t-98 -39t-99 39t-38 98zM631 127q0 59 37 98t98 39t99 -39t38 -98t-38 -98t-99 -39t-98 39t-37 98zM1137 127q0 59 38 98t99 39t98 -39t37 -98t-37 -98t-98 -39t-99 39t-38 98z" />
<glyph unicode="&#x202f;" horiz-adv-x="360" />
<glyph unicode="&#x2030;" horiz-adv-x="2535" d="M78 891q0 379 321 379q160 0 242 -96t82 -283q0 -186 -82 -280.5t-242 -94.5q-321 0 -321 375zM231 891q0 -236 168 -236q88 0 128 59t40 177q0 121 -40 180t-128 59q-87 0 -127.5 -59.5t-40.5 -179.5zM440 0l719 1249h137l-721 -1249h-135zM1038 356q0 188 81 283.5 t241 95.5t241.5 -96t81.5 -283q0 -186 -81.5 -280t-241.5 -94q-322 0 -322 374zM1192 356q0 -235 168 -235q88 0 128 58.5t40 176.5q0 121 -40 180.5t-128 59.5q-87 0 -127.5 -60t-40.5 -180zM1815 356q0 379 321 379q160 0 242 -96t82 -283q0 -186 -82 -280t-242 -94 q-321 0 -321 374zM1968 356q0 -235 168 -235q88 0 128 58.5t40 176.5q0 121 -40 180.5t-128 59.5q-87 0 -127.5 -60t-40.5 -180z" />
<glyph unicode="&#x2039;" horiz-adv-x="753" d="M90 512l432 428l119 -117l-235 -241q-34 -34 -82 -72q44 -34 84 -72l233 -241l-117 -113z" />
<glyph unicode="&#x203a;" horiz-adv-x="753" d="M113 195l233 241q31 34 82 74q-39 31 -80 72l-235 241l116 117l433 -428l-435 -428z" />
<glyph unicode="&#x2044;" horiz-adv-x="436" d="M-209 0l719 1249h137l-721 -1249h-135z" />
<glyph unicode="&#x205f;" horiz-adv-x="451" />
<glyph unicode="&#x20ac;" horiz-adv-x="1181" d="M72 381v108h129l-2 60q0 31 2 47h-129v111h141q37 206 167.5 313.5t307.5 107.5q213 0 395 -110l-69 -150q-144 76 -293 76q-97 0 -173 -56t-106 -181h471l-32 -111h-453l-2 -47q0 -40 2 -60h424l-33 -108h-375q56 -215 271 -215q183 0 325 110l80 -139 q-92 -83 -193.5 -119t-244.5 -36q-81 0 -153.5 22.5t-136.5 68t-110.5 124.5t-66.5 184h-143z" />
<glyph unicode="&#x2116;" horiz-adv-x="2375" d="M143 0v1249h217l648 -858v858h237v-1249h-215l-649 854v-854h-238zM1450 723q0 191 97 297t290 106t290 -106t97 -297q0 -187 -97 -290t-292 -103q-192 0 -288.5 103.5t-96.5 289.5zM1489 0v174h694v-174h-694zM1645 723q0 -109 44.5 -166t145.5 -57q102 0 147.5 57 t45.5 166q0 113 -45 171t-146 58t-146.5 -58t-45.5 -171z" />
<glyph unicode="&#x2122;" horiz-adv-x="1583" d="M41 1124v125h596v-125h-225v-465h-144v465h-227zM698 659l25 590h149l183 -393q3 -8 7.5 -22.5t6.5 -18.5q2 4 6.5 18.5t7.5 22.5l183 393h147l27 -590h-140l-10 381l-168 -381h-106l-168 379l-12 -379h-138z" />
<glyph unicode="&#x215b;" horiz-adv-x="1886" d="M61 1126q151 62 258 123h123v-645h183v-131h-533v131h197v473q-127 -36 -199 -49zM471 0l719 1249h137l-721 -1249h-135zM1081 207q0 130 164 190q-129 60 -129 176q0 98 80.5 152.5t222.5 54.5q136 0 211.5 -53t75.5 -147q0 -117 -143 -172q90 -32 135 -80t45 -121 q1 -105 -86.5 -166t-237.5 -59q-168 0 -253 59t-85 166zM1229 217q0 -54 49 -85.5t129 -31.5q76 0 124 31.5t48 81.5t-48.5 82.5t-162.5 60.5q-139 -47 -139 -139zM1266 575q0 -47 39 -78t125 -53q135 39 135 134q0 46 -41.5 74t-110.5 28q-66 0 -106.5 -29t-40.5 -76z" />
<glyph unicode="&#x215c;" horiz-adv-x="1869" d="M31 555l45 107q135 -66 276 -66q71 0 110.5 28.5t39.5 82.5q0 114 -185 114h-120v123h120q86 0 126 21.5t40 70.5q0 55 -36 84t-103 29q-120 0 -258 -55l-35 104q164 74 311 74q121 0 193 -58t72 -157q0 -64 -34.5 -109t-90.5 -65q75 -25 110.5 -67.5t34.5 -110.5 q0 -110 -76 -170t-213 -60q-182 0 -327 80zM465 0l717 1249h137l-719 -1249h-135zM1073 207q0 129 166 190q-129 60 -129 176q0 98 80.5 152.5t222.5 54.5q136 0 211.5 -53t75.5 -147q0 -117 -144 -172q91 -32 136 -80t45 -121q1 -105 -87 -166t-237 -59q-168 0 -254 59 t-86 166zM1223 217q0 -54 49 -85.5t129 -31.5q76 0 124 31.5t48 81.5t-48.5 82.5t-162.5 60.5q-139 -47 -139 -139zM1257 575q0 -47 39.5 -78t126.5 -53q133 38 133 134q0 46 -41 74t-108 28t-108.5 -29t-41.5 -76z" />
<glyph unicode="&#x215d;" horiz-adv-x="1906" d="M57 545l45 112q145 -67 267 -67q76 0 121 36.5t45 100.5q0 62 -38 97.5t-106 35.5q-77 0 -162 -51l-129 18l29 422h524v-129h-397l-18 -215q99 58 196 58q120 0 185 -63t65 -179q0 -123 -82 -190.5t-215 -67.5q-178 0 -330 82zM489 0l719 1249h138l-719 -1249h-138z M1110 207q0 129 166 190q-129 60 -129 176q0 98 80.5 152.5t222.5 54.5q136 0 211.5 -53t75.5 -147q0 -117 -144 -172q91 -32 136 -80t45 -121q1 -105 -86.5 -166t-237.5 -59q-168 0 -254 59t-86 166zM1260 217q0 -54 49 -85.5t129 -31.5q77 0 124.5 31t47.5 82 q0 50 -48.5 82.5t-162.5 60.5q-139 -47 -139 -139zM1294 575q0 -47 39.5 -78t126.5 -53q133 38 133 134q0 46 -40.5 73t-108.5 27q-67 0 -108.5 -28.5t-41.5 -74.5z" />
<glyph unicode="&#x215e;" horiz-adv-x="1753" d="M49 1118v131h582v-114q-101 -135 -186.5 -313.5t-129.5 -348.5h-180q54 172 141 345t187 300h-414zM297 0l719 1249h137l-721 -1249h-135zM948 207q0 130 164 190q-129 60 -129 176q0 98 80.5 152.5t222.5 54.5q136 0 211.5 -53t75.5 -147q0 -117 -143 -172 q90 -32 135 -80t45 -121q1 -105 -86.5 -166t-237.5 -59q-168 0 -253 59t-85 166zM1096 217q0 -54 49 -85.5t129 -31.5q78 0 126 31t48 82q0 50 -49 82.5t-164 60.5q-139 -47 -139 -139zM1133 575q0 -47 39 -78t124 -53q136 38 136 134q0 46 -41.5 73t-110.5 27 q-66 0 -106.5 -28.5t-40.5 -74.5z" />
<glyph unicode="&#x2190;" horiz-adv-x="1345" d="M51 618l582 613l137 -137l-367 -377h897v-195h-897l367 -377l-137 -137z" />
<glyph unicode="&#x2191;" horiz-adv-x="1329" d="M82 725l584 541l581 -541l-137 -137l-348 327v-915h-195v918l-348 -330z" />
<glyph unicode="&#x2192;" horiz-adv-x="1345" d="M47 522v195h895l-364 377l137 137l579 -613l-579 -610l-137 137l364 377h-895z" />
<glyph unicode="&#x2193;" horiz-adv-x="1329" d="M82 524l137 138l348 -330v917h195v-915l348 328l137 -138l-581 -538z" />
<glyph unicode="&#x2196;" horiz-adv-x="1404" d="M102 356v893h893v-188h-567l926 -926l-137 -137l-920 926v-568h-195z" />
<glyph unicode="&#x2197;" horiz-adv-x="1404" d="M51 135l924 922h-565v192h893v-893h-189v568l-926 -926z" />
<glyph unicode="&#x2198;" horiz-adv-x="1404" d="M51 1114l137 137l920 -925v567h195v-893h-893v188h565z" />
<glyph unicode="&#x2199;" horiz-adv-x="1404" d="M102 0v893h189v-567l926 925l137 -137l-926 -924h567v-190h-893z" />
<glyph unicode="&#x2212;" horiz-adv-x="983" d="M80 406v167h819v-167h-819z" />
<glyph unicode="&#x25fc;" horiz-adv-x="972" d="M0 0v973h973v-973h-973z" />
<glyph unicode="&#xfb00;" horiz-adv-x="1394" d="M37 780v195h133v59q0 180 82.5 265t263.5 85q105 0 197 -20l-17 -168q-64 6 -137 6q-88 0 -123 -41t-35 -127v-59h459v59q0 180 83 265t265 85q105 0 197 -20l-16 -168q-67 6 -140 6q-87 0 -121 -41t-34 -127v-59h280v-195h-280v-780h-234v780h-459v-780h-231v780h-133z " />
<glyph unicode="&#xfb03;" horiz-adv-x="1869" d="M37 780v195h133v59q0 180 83 265t265 85q102 0 197 -20l-19 -168q-64 6 -137 6q-88 0 -123 -41t-35 -127v-59h443v59q0 180 81.5 264t262.5 84q80 0 209 -22l-17 -160q-107 8 -151 8q-86 0 -119 -43t-33 -131v-59h654v-975h-232v780h-422v-780h-233v780h-443v-780h-231 v780h-133zM1481 1257q0 59 39 92t96 33t96 -33t39 -92t-38.5 -90.5t-96.5 -31.5t-96.5 31.5t-38.5 90.5z" />
<glyph unicode="&#xfb04;" horiz-adv-x="1845" d="M37 780v193h133v61q0 180 83 264t265 84q112 0 197 -18l-19 -168q-64 6 -137 6q-88 0 -123 -41t-35 -127v-59h435v59q0 180 80.5 264t261.5 84q93 0 307 -41v31h233v-1372h-233v1186q-152 16 -266 16q-88 0 -120 -40.5t-32 -127.5v-59h276v-195h-276v-780h-231v780h-435 v-780h-231v780h-133z" />
<glyph horiz-adv-x="581" d="M12 -117q99 47 138.5 104.5t39.5 166.5v1095h236v-1048q0 -143 -32 -234.5t-100.5 -151t-191.5 -106.5z" />
<glyph horiz-adv-x="1280" d="M154 0v1249h237v-506h199l371 506h258v-16l-424 -598l442 -617v-18h-276l-361 510h-209v-510h-237z" />
<glyph horiz-adv-x="1280" d="M154 0v1249h237v-506h199l371 506h258v-16l-424 -598l442 -617v-18h-276l-361 510h-209v-510h-237zM506 -422q76 64 94 121q-36 12 -57 40t-21 64q0 50 30.5 81.5t80.5 31.5q49 0 78.5 -34.5t29.5 -86.5q0 -86 -54 -162t-150 -120z" />
<glyph horiz-adv-x="1368" d="M88 623q0 310 155 478.5t441 168.5q287 0 442.5 -168t155.5 -479q0 -189 -59.5 -325.5t-173.5 -213.5q75 -81 206 -209l-163 -135q-159 165 -232 260q-79 -18 -176 -18q-286 0 -441 166t-155 475zM328 623q0 -209 90.5 -316.5t265.5 -107.5t265.5 107.5t90.5 316.5 q0 212 -90.5 321t-265.5 109t-265.5 -109t-90.5 -321z" />
<glyph horiz-adv-x="1288" d="M154 0v1249h479q253 0 389.5 -110t136.5 -314q0 -161 -63 -243t-191 -111q27 -12 52 -28.5t47 -40t39.5 -42t36 -51.5t29.5 -50.5t26.5 -56t22 -52.5t20 -55.5t15.5 -48t15 -46.5h-272q-16 49 -29.5 86t-34.5 85.5t-43.5 82.5t-50.5 65.5t-62.5 47.5t-72.5 16h-252v-383 h-237zM391 594h262q129 -1 199 58t70 169q0 103 -74.5 159t-210.5 56h-246v-442z" />
<glyph horiz-adv-x="1288" d="M154 0v1249h479q253 0 389.5 -110t136.5 -314q0 -161 -63 -243t-191 -111q38 -17 73 -46t60.5 -58t50 -72.5t39.5 -74.5t32.5 -80t25 -72t20.5 -68h-270q-16 49 -29.5 86t-34.5 85.5t-43.5 82.5t-50.5 65.5t-62.5 47.5t-72.5 16h-252v-383h-237zM391 594h262 q129 -1 199 58t70 169q0 103 -74.5 159t-210.5 56h-246v-442zM492 1413l227 279l176 -107v-45q-97 -75 -163.5 -114.5t-174.5 -79.5z" />
<glyph horiz-adv-x="1288" d="M154 0v1249h479q253 0 389.5 -110t136.5 -314q0 -161 -63 -243t-191 -111q27 -12 52 -28.5t47 -40t39.5 -42t36 -51.5t29.5 -50.5t26.5 -56t22 -52.5t20 -55.5t15.5 -48t15 -46.5h-272q-16 49 -29.5 86t-34.5 85.5t-43.5 82.5t-50.5 65.5t-62.5 47.5t-72.5 16h-252v-383 h-237zM299 1597l74 78l256 -151l254 151l73 -78l-256 -241h-145zM391 594h262q129 -1 199 58t70 169q0 103 -74.5 159t-210.5 56h-246v-442z" />
<glyph horiz-adv-x="1288" d="M154 0v1249h479q253 0 389.5 -110t136.5 -314q0 -161 -63 -243t-191 -111q27 -12 52 -28.5t47 -40t39.5 -42t36 -51.5t29.5 -50.5t26.5 -56t22 -52.5t20 -55.5t15.5 -48t15 -46.5h-272q-16 49 -29.5 86t-34.5 85.5t-43.5 82.5t-50.5 65.5t-62.5 47.5t-72.5 16h-252v-383 h-237zM391 594h262q129 -1 199 58t70 169q0 103 -74.5 159t-210.5 56h-246v-442zM496 -422q80 68 94 121q-36 12 -57 40t-21 64q0 50 30.5 81.5t82.5 31.5q47 0 76.5 -34.5t29.5 -86.5q0 -86 -54.5 -162t-150.5 -120z" />
<glyph horiz-adv-x="1075" d="M129 0v1331h231v-715h168l265 359h245v-17l-327 -444l352 -496v-18h-258l-283 408h-162v-408h-231z" />
<glyph horiz-adv-x="1075" d="M129 0v1331h231v-715h168l265 359h245v-17l-327 -444l352 -496v-18h-258l-283 408h-162v-408h-231zM416 -422q76 64 94 121q-36 12 -57 40t-21 64q0 50 30.5 81.5t80.5 31.5q49 0 78.5 -34.5t29.5 -86.5q0 -86 -54.5 -162t-150.5 -120z" />
<glyph horiz-adv-x="1161" d="M78 492q0 258 100 378.5t279 120.5q188 0 344 -127v109h231v-973h-231v121q-52 -49 -89 -75t-97 -45t-136 -19q-81 0 -151 29t-127 88t-90 160t-33 233zM307 492q0 -162 67.5 -240t174.5 -78q57 0 100.5 17t74.5 44.5t77 81.5v334q-65 75 -127.5 110.5t-138.5 35.5 q-228 0 -228 -305z" />
<glyph horiz-adv-x="1161" d="M78 492q0 258 100 378.5t279 120.5q188 0 344 -127v109h231v-973h-231v121q-52 -49 -89 -75t-97 -45t-136 -19q-81 0 -151 29t-127 88t-90 160t-33 233zM307 492q0 -162 67.5 -240t174.5 -78q57 0 100.5 17t74.5 44.5t77 81.5v334q-65 75 -127.5 110.5t-138.5 35.5 q-228 0 -228 -305zM436 1143l238 303l168 -111v-47q-89 -71 -159 -115.5t-181 -97.5z" />
<glyph horiz-adv-x="1161" d="M78 492q0 258 100 378.5t279 120.5q188 0 344 -127v109h231v-973h-231v121q-52 -49 -89 -75t-97 -45t-136 -19q-81 0 -151 29t-127 88t-90 160t-33 233zM307 492q0 -162 67.5 -240t174.5 -78q57 0 100.5 17t74.5 44.5t77 81.5v334q-65 75 -127.5 110.5t-138.5 35.5 q-228 0 -228 -305zM309 1374h154q6 -129 143 -129q70 0 105 32.5t41 98.5h153q0 -141 -73.5 -209.5t-225.5 -68.5q-151 0 -224 68t-73 208z" />
<glyph horiz-adv-x="1161" d="M78 492q0 258 100 378.5t279 120.5q188 0 344 -127v109h231v-973h-231v121q-52 -49 -89 -75t-97 -45t-136 -19q-81 0 -151 29t-127 88t-90 160t-33 233zM281 1163l251 256h144l254 -256l-74 -76q-42 28 -126 82t-126 82q-19 -13 -250 -164zM307 492q0 -162 67.5 -240 t174.5 -78q57 0 100.5 17t74.5 44.5t77 81.5v334q-65 75 -127.5 110.5t-138.5 35.5q-228 0 -228 -305z" />
<glyph horiz-adv-x="1161" d="M78 492q0 258 100 378.5t279 120.5q188 0 344 -127v109h231v-973h-231v121q-52 -49 -89 -75t-97 -45t-136 -19q-81 0 -151 29t-127 88t-90 160t-33 233zM276 1257q0 57 37.5 91t87.5 34q56 0 91.5 -33.5t35.5 -91.5q0 -55 -35.5 -86.5t-91.5 -31.5q-50 0 -87.5 32 t-37.5 86zM307 492q0 -162 67.5 -240t174.5 -78q57 0 100.5 17t74.5 44.5t77 81.5v334q-65 75 -127.5 110.5t-138.5 35.5q-228 0 -228 -305zM674 1257q0 58 36 91.5t91 33.5q52 0 89.5 -34t37.5 -91q0 -55 -37.5 -86.5t-89.5 -31.5q-55 0 -91 31.5t-36 86.5z" />
<glyph horiz-adv-x="1161" d="M78 492q0 258 100 378.5t279 120.5q188 0 344 -127v109h231v-973h-231v121q-52 -49 -89 -75t-97 -45t-136 -19q-81 0 -151 29t-127 88t-90 160t-33 233zM307 492q0 -162 67.5 -240t174.5 -78q57 0 100.5 17t74.5 44.5t77 81.5v334q-65 75 -127.5 110.5t-138.5 35.5 q-228 0 -228 -305zM367 1307v47l168 112l237 -305l-65 -67q-111 53 -181 97.5t-159 115.5z" />
<glyph horiz-adv-x="1161" d="M78 492q0 258 100 378.5t279 120.5q188 0 344 -127v109h231v-973h-231v121q-52 -49 -89 -75t-97 -45t-136 -19q-81 0 -151 29t-127 88t-90 160t-33 233zM307 492q0 -162 67.5 -240t174.5 -78q57 0 100.5 17t74.5 44.5t77 81.5v334q-65 75 -127.5 110.5t-138.5 35.5 q-228 0 -228 -305zM326 1157v184h553v-184h-553z" />
<glyph horiz-adv-x="1161" d="M78 492q0 258 100 378.5t279 120.5q188 0 344 -127v109h231v-973h-108q-70 -20 -110 -55.5t-40 -77.5q0 -41 38 -66.5t101 -25.5q26 0 152 20l27 -135q-118 -45 -242 -45q-109 0 -172.5 52t-63.5 147q0 71 49.5 129.5t137.5 95.5v82q-52 -49 -89 -75t-97 -45t-136 -19 q-81 0 -151 29t-127 88t-90 160t-33 233zM307 492q0 -162 67.5 -240t174.5 -78q57 0 100.5 17t74.5 44.5t77 81.5v334q-65 75 -127.5 110.5t-138.5 35.5q-228 0 -228 -305z" />
<glyph horiz-adv-x="1161" d="M78 492q0 258 100 378.5t279 120.5q188 0 344 -127v109h231v-973h-231v121q-52 -49 -89 -75t-97 -45t-136 -19q-81 0 -151 29t-127 88t-90 160t-33 233zM307 492q0 -162 67.5 -240t174.5 -78q57 0 100.5 17t74.5 44.5t77 81.5v334q-65 75 -127.5 110.5t-138.5 35.5 q-228 0 -228 -305zM395 1282q0 93 58 150t149 57q93 0 150 -57t57 -150q0 -87 -58 -141t-151 -54q-90 0 -147.5 54.5t-57.5 140.5zM512 1282q0 -36 24.5 -59t63.5 -23q42 0 67 22.5t25 59.5q0 44 -24 69t-66 25q-40 0 -65 -25t-25 -69z" />
<glyph horiz-adv-x="1161" d="M78 492q0 258 100 378.5t279 120.5q188 0 344 -127v109h231v-973h-231v121q-52 -49 -89 -75t-97 -45t-136 -19q-81 0 -151 29t-127 88t-90 160t-33 233zM270 1184q10 76 42.5 126.5t76.5 69.5t92.5 17.5t96.5 -23.5l112 -53q55 -25 86.5 -9t59.5 77l102 -17 q-9 -78 -42.5 -130.5t-79 -73t-95.5 -20t-96 22.5l-113 58q-53 25 -82.5 11t-58.5 -73zM307 492q0 -162 67.5 -240t174.5 -78q57 0 100.5 17t74.5 44.5t77 81.5v334q-65 75 -127.5 110.5t-138.5 35.5q-228 0 -228 -305z" />
<glyph horiz-adv-x="1163" d="M41 -193q0 150 137 209q-63 52 -63 166q0 65 26.5 107t102.5 69q-113 87 -113 273q2 188 105.5 274.5t328.5 85.5q161 0 258 -47q92 60 183 60q58 0 122 -15l-18 -145q-37 2 -94 2q-29 0 -70 -6q53 -83 53 -209q1 -184 -102.5 -269.5t-329.5 -85.5q-139 0 -229 33 q-51 -29 -51 -65q0 -44 21.5 -59t86.5 -15h342q184 0 265 -61t83 -199q0 -191 -126.5 -275t-397.5 -84q-285 0 -402.5 56.5t-117.5 199.5zM240 -154q0 -73 70.5 -100t250.5 -27q164 0 240 33t76 113q0 52 -34 75t-104 23h-348q-87 -1 -119 -29t-32 -88zM352 631 q0 -100 50.5 -144.5t164.5 -44.5q115 0 164 43.5t49 145.5q0 108 -50 156.5t-163 48.5q-117 0 -166 -47t-49 -158z" />
<glyph horiz-adv-x="1163" d="M41 -193q0 150 137 209q-63 52 -63 166q0 65 26.5 107t102.5 69q-113 87 -113 273q2 188 105.5 274.5t328.5 85.5q161 0 258 -47q92 60 183 60q58 0 122 -15l-18 -145q-37 2 -94 2q-29 0 -70 -6q53 -83 53 -209q1 -184 -102.5 -269.5t-329.5 -85.5q-139 0 -229 33 q-51 -29 -51 -65q0 -44 21.5 -59t86.5 -15h342q184 0 265 -61t83 -199q0 -191 -126.5 -275t-397.5 -84q-285 0 -402.5 56.5t-117.5 199.5zM240 -154q0 -73 70.5 -100t250.5 -27q164 0 240 33t76 113q0 52 -34 75t-104 23h-348q-87 -1 -119 -29t-32 -88zM289 1374h151 q9 -129 144 -129t147 129h152q0 -140 -73.5 -208t-225.5 -68q-149 0 -222 68t-73 208zM352 631q0 -100 50.5 -144.5t164.5 -44.5q115 0 164 43.5t49 145.5q0 108 -50 156.5t-163 48.5q-117 0 -166 -47t-49 -158z" />
<glyph horiz-adv-x="1163" d="M41 -193q0 150 137 209q-63 52 -63 166q0 65 26.5 107t102.5 69q-113 87 -113 273q2 188 105.5 274.5t328.5 85.5q161 0 258 -47q92 60 183 60q58 0 122 -15l-18 -145q-37 2 -94 2q-29 0 -70 -6q53 -83 53 -209q1 -184 -102.5 -269.5t-329.5 -85.5q-139 0 -229 33 q-51 -29 -51 -65q0 -44 21.5 -59t86.5 -15h342q184 0 265 -61t83 -199q0 -191 -126.5 -275t-397.5 -84q-285 0 -402.5 56.5t-117.5 199.5zM240 -154q0 -73 70.5 -100t250.5 -27q164 0 240 33t76 113q0 52 -34 75t-104 23h-348q-87 -1 -119 -29t-32 -88zM352 631 q0 -100 50.5 -144.5t164.5 -44.5q115 0 164 43.5t49 145.5q0 108 -50 156.5t-163 48.5q-117 0 -166 -47t-49 -158zM451 1251q0 85 50.5 155t162.5 132l34 -70q-68 -54 -100 -116q38 -9 62 -40t24 -71q0 -50 -33 -83.5t-84 -33.5t-83.5 36.5t-32.5 90.5z" />
<glyph horiz-adv-x="1163" d="M41 -193q0 150 137 209q-63 52 -63 166q0 65 26.5 107t102.5 69q-113 87 -113 273q2 188 105.5 274.5t328.5 85.5q161 0 258 -47q92 60 183 60q58 0 122 -15l-18 -145q-37 2 -94 2q-29 0 -70 -6q53 -83 53 -209q1 -184 -102.5 -269.5t-329.5 -85.5q-139 0 -229 33 q-51 -29 -51 -65q0 -44 21.5 -59t86.5 -15h342q184 0 265 -61t83 -199q0 -191 -126.5 -275t-397.5 -84q-285 0 -402.5 56.5t-117.5 199.5zM240 -154q0 -73 70.5 -100t250.5 -27q164 0 240 33t76 113q0 52 -34 75t-104 23h-348q-87 -1 -119 -29t-32 -88zM352 631 q0 -100 50.5 -144.5t164.5 -44.5q115 0 164 43.5t49 145.5q0 108 -50 156.5t-163 48.5q-117 0 -166 -47t-49 -158zM436 1264q0 66 41 103.5t105 37.5q59 0 101 -38t42 -103q0 -63 -42.5 -101.5t-100.5 -38.5q-63 0 -104.5 38t-41.5 102z" />
<glyph horiz-adv-x="1179" d="M117 502v471h233v-471q0 -76 18.5 -129t52.5 -81.5t75 -41t94 -12.5q75 0 132 32.5t120 106.5v596h233v-817q0 -255 -114 -374.5t-349 -119.5q-246 0 -430 96l51 168q172 -71 349 -71q133 0 196.5 69t63.5 217v31q-73 -68 -146.5 -100.5t-187.5 -32.5q-187 0 -289 114 t-102 349z" />
<glyph horiz-adv-x="1179" d="M117 502v471h233v-471q0 -76 18.5 -129t52.5 -81.5t75 -41t94 -12.5q75 0 132 32.5t120 106.5v596h233v-817q0 -255 -114 -374.5t-349 -119.5q-246 0 -430 96l51 168q172 -71 349 -71q133 0 196.5 69t63.5 217v31q-73 -68 -146.5 -100.5t-187.5 -32.5q-187 0 -289 114 t-102 349zM436 1143l238 303l168 -113v-45q-89 -71 -158.5 -115t-179.5 -98z" />
<glyph horiz-adv-x="1179" d="M117 502v471h233v-471q0 -76 18.5 -129t52.5 -81.5t75 -41t94 -12.5q75 0 132 32.5t120 106.5v596h233v-817q0 -254 -114.5 -374t-348.5 -120q-245 0 -432 96l53 168q172 -71 349 -71q133 0 196.5 69t63.5 217v31q-73 -68 -146.5 -100.5t-187.5 -32.5q-187 0 -289 114 t-102 349zM281 1163l251 256h144l254 -256l-74 -78q-42 29 -252 166q-34 -23 -119 -79t-131 -87z" />
<glyph horiz-adv-x="1179" d="M117 502v471h233v-471q0 -76 18.5 -129t52.5 -81.5t75 -41t94 -12.5q75 0 132 32.5t120 106.5v596h233v-817q0 -255 -114 -374.5t-349 -119.5q-246 0 -430 96l51 168q172 -71 349 -71q133 0 196.5 69t63.5 217v31q-73 -68 -146.5 -100.5t-187.5 -32.5q-187 0 -289 114 t-102 349zM276 1257q0 56 37.5 89.5t87.5 33.5q57 0 92 -33t35 -90q0 -56 -35 -88t-92 -32q-50 0 -87.5 33t-37.5 87zM676 1257q0 57 35.5 90t89.5 33q52 0 89.5 -33.5t37.5 -89.5q0 -55 -37.5 -87.5t-89.5 -32.5q-54 0 -89.5 32.5t-35.5 87.5z" />
<glyph horiz-adv-x="1179" d="M117 502v471h233v-471q0 -76 18.5 -129t52.5 -81.5t75 -41t94 -12.5q75 0 132 32.5t120 106.5v596h233v-817q0 -255 -114 -374.5t-349 -119.5q-246 0 -430 96l51 168q172 -71 349 -71q133 0 196.5 69t63.5 217v31q-73 -68 -146.5 -100.5t-187.5 -32.5q-187 0 -289 114 t-102 349zM367 1307v47l168 110l237 -303l-65 -67q-111 53 -181 97.5t-159 115.5z" />
<glyph horiz-adv-x="1863" d="M37 780v195h137v59q0 180 81.5 265t262.5 85q89 0 311 -45v33h232v-524q160 143 344 143q185 0 282.5 -118.5t98.5 -378.5q0 -133 -33 -234t-90.5 -160.5t-127.5 -88.5t-151 -29q-112 0 -179.5 33t-143.5 106v-121h-232v1186q-157 16 -270 16q-88 0 -119.5 -40 t-31.5 -128v-59h276v-195h-276v-780h-234v780h-137zM1061 317q125 -143 252 -143q108 0 175.5 78t67.5 242q0 305 -229 305q-137 0 -266 -148v-334z" />
<glyph horiz-adv-x="2516" d="M37 780v195h133v59q0 180 83 265t265 85q102 0 197 -20l-19 -168q-64 6 -137 6q-88 0 -123 -41t-35 -127v-61h428v61q0 180 80.5 264t261.5 84q72 4 312 -43v33h233v-524q156 143 344 143q185 0 282 -118.5t97 -378.5q0 -133 -33 -234t-90 -160.5t-127 -88.5t-151 -29 q-110 0 -178 33t-144 106v-121h-233v1186q-154 16 -271 16q-86 0 -118.5 -40.5t-32.5 -127.5v-61h276v-193h-276v-780h-232v780h-428v-780h-231v780h-133zM1716 317q122 -143 250 -143q108 0 176 78t68 242q0 305 -228 305q-140 0 -266 -148v-334z" />
<glyph horiz-adv-x="2086" d="M37 780v195h133v59q0 180 83 265t265 85q102 0 197 -20l-19 -168q-64 6 -137 6q-88 0 -123 -41t-35 -127v-59h459v59q0 180 83 265t265 85q105 0 197 -20l-16 -168q-67 6 -140 6q-87 0 -121 -41t-34 -127v-59h458v59q0 180 83.5 265t265.5 85q101 0 196 -20l-16 -168 q-67 6 -139 6q-87 0 -122.5 -41t-35.5 -127v-59h282v-195h-282v-780h-232v780h-458v-780h-234v780h-459v-780h-231v780h-133z" />
<glyph horiz-adv-x="2506" d="M37 780v195h133v59q0 180 83 265t265 85q102 0 197 -20l-19 -168q-64 6 -137 6q-88 0 -123 -41t-35 -127v-59h435v59q0 181 80.5 265.5t261.5 84.5q88 0 313 -45v33h231v-536q182 155 367 155q159 0 228 -90t69 -289v-612h-234v551q0 122 -35 173.5t-128 51.5 q-76 0 -138.5 -38t-128.5 -115v-623h-231v1186q-157 16 -272 16q-88 0 -120 -40.5t-32 -127.5v-59h276v-195h-276v-780h-231v780h-435v-780h-231v780h-133z" />
<glyph horiz-adv-x="1861" d="M37 780v195h133v59q0 180 83 265t265 85q102 0 197 -20l-19 -168q-64 6 -137 6q-88 0 -123 -41t-35 -127v-59h435v59q0 181 80.5 265.5t261.5 84.5q60 0 208 -22l-18 -168q-107 8 -149 8q-88 0 -120 -40.5t-32 -127.5v-61h651v-893q0 -187 -68 -288.5t-237 -141.5 l-47 168q72 38 95.5 91t23.5 171v700h-418v-780h-231v780h-435v-780h-231v780h-133zM1473 1257q0 59 39 92t96 33t96 -33t39 -92t-38.5 -90.5t-96.5 -31.5t-96.5 31.5t-38.5 90.5z" />
<glyph horiz-adv-x="2467" d="M37 780v193h133v61q0 180 83 264t265 84q112 0 197 -18l-19 -168q-64 6 -137 6q-88 0 -123 -41t-35 -127v-59h435v59q0 181 80.5 265.5t261.5 84.5q116 0 313 -45v33h231v-821l412 422h279l-383 -404q248 -271 438 -569h-264q-158 237 -326 408l-156 -162v-246h-231v1186 q-138 16 -272 16q-88 0 -120 -40.5t-32 -127.5v-59h276v-195h-276v-780h-231v780h-435v-780h-231v780h-133z" />
<glyph horiz-adv-x="2093" d="M37 780v193h133v61q0 180 83 264t265 84q112 0 197 -18l-19 -168q-64 6 -137 6q-88 0 -123 -41t-35 -127v-61h459v61q0 180 83 264t265 84q114 0 197 -18l-16 -168q-67 6 -140 6q-87 0 -121 -41t-34 -127v-59h411v233h234v-235h270v-193h-270v-440q0 -87 33.5 -119.5 t117.5 -32.5q66 0 140 9l24 -156q-127 -51 -246 -51q-161 0 -232 79.5t-71 260.5v450h-411v-780h-234v780h-459v-780h-231v780h-133z" />
<glyph horiz-adv-x="1845" d="M37 780v195h137v59q0 180 81.5 265t262.5 85q89 0 311 -45v33h232v-536q186 155 366 155q159 0 228 -90t69 -289v-612h-231v551q0 122 -36 173.5t-130 51.5q-135 0 -266 -153v-623h-232v1186q-157 16 -270 16q-88 0 -119.5 -40t-31.5 -128v-59h276v-195h-276v-780h-234 v780h-137z" />
<glyph horiz-adv-x="1202" d="M37 780v195h137v59q0 181 80.5 265.5t261.5 84.5q81 0 225 -26l-18 -164q-115 8 -164 8q-88 0 -119.5 -40t-31.5 -128v-61h649v-893q0 -188 -67 -289t-238 -141l-47 168q73 37 96.5 90.5t23.5 171.5v700h-417v-780h-234v780h-137zM813 1257q0 59 39 92t96 33t96 -33 t39 -92t-38.5 -90.5t-96.5 -31.5t-96.5 31.5t-38.5 90.5z" />
<glyph horiz-adv-x="1808" d="M37 780v195h137v59q0 180 81.5 265t262.5 85q89 0 311 -45v33h232v-817l412 418h278l-383 -402q244 -266 438 -571h-264q-164 246 -328 410l-153 -160v-250h-232v1186q-157 16 -270 16q-88 0 -119.5 -40t-31.5 -128v-59h276v-195h-276v-780h-234v780h-137z" />
<glyph horiz-adv-x="1413" d="M37 780v193h133v61q0 180 83 264t265 84q112 0 197 -18l-19 -168q-64 6 -137 6q-88 0 -123 -41t-35 -127v-59h424v233h232v-235h272v-193h-272v-440q0 -86 34 -119t117 -33q66 0 142 9l22 -156q-124 -51 -246 -51q-160 0 -230.5 79.5t-70.5 260.5v450h-424v-780h-231v780 h-133z" />
<glyph horiz-adv-x="1527" d="M129 0v975h231v-187q44 94 117 148.5t164 54.5q68 0 123 -6l-16 -231q-49 4 -117 4q-97 0 -166.5 -55t-104.5 -166v-537h-231zM852 780v195h117v59q0 180 81.5 265t262.5 85q111 0 225 -26l-22 -162q-92 6 -162 6q-87 0 -119.5 -40.5t-32.5 -127.5v-59h277v-195h-277 v-780h-233v780h-117z" />
<glyph horiz-adv-x="1538" d="M129 0v975h231v-187q44 94 117.5 148.5t165.5 54.5q68 0 123 -6l-16 -231q-49 4 -117 4q-204 0 -273 -221v-537h-231zM838 780v195h110v233h234v-233h272v-195h-272v-440q0 -86 33.5 -118t117.5 -32q68 0 142 9l22 -158q-124 -51 -246 -51q-160 0 -231.5 79.5 t-71.5 260.5v450h-110z" />
<glyph horiz-adv-x="1224" d="M88 530q0 165 56.5 288t176 195t291.5 72q256 0 391.5 -151.5t135.5 -403.5q0 -161 -57.5 -283t-178 -193.5t-291.5 -71.5q-255 0 -389.5 150.5t-134.5 397.5zM328 530q0 -150 70 -242.5t214 -92.5q145 0 216 93t71 242q0 154 -71 248t-216 94t-214.5 -93.5t-69.5 -248.5 z" />
<glyph horiz-adv-x="1009" d="M61 866q211 76 412 199h191v-866h266v-199h-821v199h319v604q-131 -42 -319 -84z" />
<glyph horiz-adv-x="1077" d="M55 946q152 71 274.5 105t243.5 34q196 0 310 -100.5t114 -271.5q0 -55 -17 -105.5t-45 -91.5t-73.5 -80.5t-92.5 -70t-112 -63t-122 -56.5t-132 -53q132 8 181 8h434v-201h-944v170q26 13 79 39q106 52 159 79t138 73t127.5 78t90 74t67 82.5t19.5 82.5q0 99 -58.5 154 t-160.5 55q-176 0 -414 -107z" />
<glyph horiz-adv-x="1097" d="M47 -72l66 164q227 -108 448 -108q116 0 184 51t68 139q0 95 -79 143t-226 48h-178v186h178q140 0 208 37.5t68 118.5q0 89 -63.5 140.5t-171.5 51.5q-188 0 -416 -92l-53 158q262 120 500 120q187 0 304 -96t117 -252q0 -104 -58 -172t-155 -98q125 -39 187.5 -111 t62.5 -186q0 -171 -126 -270t-341 -99q-131 0 -268.5 32t-255.5 95z" />
<glyph horiz-adv-x="1239" d="M49 164l717 880h233v-858h199v-186h-199v-225h-233v225h-707zM281 186h485v594q-45 -61 -96 -125l-267 -338q-92 -105 -122 -131z" />
<glyph horiz-adv-x="1128" d="M47 -96l66 174q229 -109 434 -109q121 0 200.5 65t79.5 167q0 96 -66.5 155.5t-178.5 59.5q-124 0 -260 -84l-193 30l45 682h832v-196h-641l-31 -369q158 90 319 90q186 0 293 -102t107 -277q0 -191 -134 -302t-341 -111q-134 0 -274 32t-257 95z" />
<glyph horiz-adv-x="1175" d="M88 571q0 319 171 508t446 191q187 0 358 -72l-59 -168q-156 47 -289 47q-173 -2 -278 -114.5t-118 -313.5q148 154 383 154q185 0 297.5 -106t112.5 -281q0 -203 -129 -318.5t-350 -115.5q-265 0 -405 155t-140 434zM324 475q20 -148 98.5 -226.5t210.5 -78.5 q114 0 186 68t72 188q0 103 -70.5 164t-189.5 61q-99 0 -181 -48.5t-126 -127.5z" />
<glyph horiz-adv-x="974" d="M27 844v200h931v-176q-160 -213 -295 -502.5t-210 -570.5h-277q92 286 230 568t296 481h-675z" />
<glyph horiz-adv-x="1191" d="M61 344q0 214 271 311q-213 90 -213 279q0 158 130 247t359 89q220 0 341.5 -87t121.5 -239q0 -190 -244 -274q155 -50 229 -128.5t74 -197.5q0 -170 -140.5 -266t-381.5 -96q-276 0 -411.5 93.5t-135.5 268.5zM289 360q0 -94 80.5 -146t218.5 -52q134 0 212.5 51.5 t78.5 140.5q0 85 -80.5 138.5t-278.5 99.5q-128 -39 -179.5 -97.5t-51.5 -134.5zM346 938q0 -78 64 -127t215 -86q229 59 229 215q0 78 -70.5 127t-185.5 49q-114 0 -183 -49t-69 -129z" />
<glyph horiz-adv-x="1175" d="M61 651q0 203 131 318.5t359 115.5q256 0 391 -155t135 -434q0 -343 -151.5 -521t-436.5 -178q-110 0 -191.5 19t-172.5 65l61 164q155 -55 295 -55q341 0 363 418q-139 -152 -371 -152q-185 0 -298.5 109.5t-113.5 285.5zM283 641q0 -104 71 -164.5t189 -60.5 q92 0 171.5 47.5t127.5 118.5q-17 153 -90.5 233t-200.5 80q-121 0 -194.5 -67t-73.5 -187z" />
<glyph horiz-adv-x="1146" d="M39 623q0 314 136 480.5t398 166.5q263 0 400 -166.5t137 -480.5q0 -309 -137.5 -475t-399.5 -166t-398 165.5t-136 475.5zM279 623q0 -428 294 -428q297 0 297 428q0 434 -297 434q-150 0 -222 -108.5t-72 -325.5z" />
<glyph horiz-adv-x="1146" d="M115 1051q224 75 413 198h189v-1050h282v-199h-823v199h305v784q-154 -53 -319 -82z" />
<glyph horiz-adv-x="1146" d="M78 1130q153 71 275 105.5t243 34.5q196 0 310 -109t114 -295q0 -60 -18.5 -116t-65 -114.5t-86.5 -102t-124 -108t-133.5 -99.5t-156.5 -109l-39 -27q171 9 209 9h434v-199h-944v170q59 48 148.5 118.5t143.5 113.5t123.5 101t110.5 100t80 89t56.5 89t17.5 81 q0 99 -58.5 154t-160.5 55q-178 0 -414 -106z" />
<glyph horiz-adv-x="1146" d="M59 109l66 161q216 -100 455 -100q117 0 184 48.5t67 135.5q0 94 -80 142.5t-229 48.5h-178v186h178q143 0 212 37.5t69 118.5q0 89 -64 140.5t-172 51.5q-191 0 -422 -92l-51 158q261 121 502 121q187 0 305.5 -96t118.5 -252q0 -100 -55 -172.5t-144 -104.5 q119 -43 177 -112t57 -179q0 -171 -126 -269.5t-339 -98.5q-133 0 -273 32.5t-258 94.5z" />
<glyph horiz-adv-x="1146" d="M23 424l696 825h231v-803h180v-184h-180v-262h-231v262h-686zM264 446h455l-2 543q-52 -75 -74 -100l-287 -336q-13 -15 -45.5 -53.5t-46.5 -53.5z" />
<glyph horiz-adv-x="1146" d="M70 109l67 172q218 -101 432 -101q124 0 203.5 61.5t79.5 164.5q0 96 -67.5 154t-180.5 58q-125 0 -258 -81l-194 28l47 684h829v-198h-627l-28 -355q146 78 303 78q186 0 293.5 -102t107.5 -277q0 -192 -134.5 -302.5t-342.5 -110.5q-131 0 -271 32.5t-259 94.5z" />
<glyph horiz-adv-x="1146" d="M63 571q0 319 171 508t446 191q187 0 358 -72l-57 -168q-156 47 -291 47q-172 -2 -276 -114.5t-117 -313.5q145 154 381 154q186 0 299 -106t113 -281q0 -203 -129.5 -318.5t-352.5 -115.5q-264 0 -404.5 155t-140.5 434zM299 475q20 -148 98.5 -226.5t210.5 -78.5 q114 0 187 68t73 188q0 102 -71.5 163.5t-188.5 61.5q-99 0 -181 -48.5t-128 -127.5z" />
<glyph horiz-adv-x="1146" d="M109 1049v200h933v-176q-160 -214 -296 -503.5t-211 -569.5h-275q90 285 228 567t296 482h-675z" />
<glyph horiz-adv-x="1146" d="M39 344q0 214 270 311q-213 90 -213 279q0 158 130.5 247t359.5 89q220 0 341.5 -87t121.5 -239q0 -190 -244 -274q155 -50 229 -128.5t74 -197.5q0 -170 -140.5 -266t-381.5 -96q-276 0 -411.5 93.5t-135.5 268.5zM266 360q0 -94 80.5 -146t218.5 -52q134 0 212.5 51.5 t78.5 140.5q0 85 -80 139t-278 99q-128 -39 -180 -97.5t-52 -134.5zM324 938q0 -78 64 -127t214 -86q229 59 229 215q0 78 -70.5 127t-185.5 49q-114 0 -182.5 -49t-68.5 -129z" />
<glyph horiz-adv-x="1146" d="M53 836q0 203 132 318.5t360 115.5q255 0 389.5 -155.5t134.5 -434.5q1 -343 -151 -520.5t-437 -177.5q-108 0 -188.5 19.5t-173.5 64.5l59 165q156 -57 295 -57q340 0 365 420q-139 -152 -373 -152q-184 0 -298 109.5t-114 284.5zM274 825q0 -102 72 -162.5t191 -60.5 q92 0 171 47t128 119q-17 152 -91 232.5t-200 80.5q-122 0 -196.5 -67t-74.5 -189z" />
<glyph horiz-adv-x="1265" d="M80 623q0 314 138.5 480.5t408.5 166.5q269 0 406.5 -166t137.5 -481q0 -311 -137.5 -476t-406.5 -165t-408 165.5t-139 475.5zM319 623q0 -111 23 -205l500 551q-76 88 -215 88q-308 0 -308 -434zM401 293q73 -98 226 -98q157 0 231 107.5t74 320.5q0 137 -29 225z" />
<glyph horiz-adv-x="811" d="M68 381q0 195 85 297t253 102t253.5 -102t85.5 -297q0 -194 -86 -296.5t-253 -102.5t-252.5 102.5t-85.5 296.5zM223 381q0 -133 42.5 -196.5t140.5 -63.5t141 63.5t43 196.5q0 135 -43 198.5t-141 63.5t-140.5 -63.5t-42.5 -198.5z" />
<glyph horiz-adv-x="669" d="M61 653q151 62 258 123h123v-645h183v-131h-533v131h197v473q-127 -36 -199 -49z" />
<glyph horiz-adv-x="712" d="M49 702q186 86 324 86q120 0 190 -67t70 -184q0 -54 -26 -105t-79.5 -101t-109 -92t-139.5 -100q-14 -9 -21 -14q64 6 119 6h270v-131h-588v111q36 29 92 73t89 70t75.5 61.5t67 61t48 54t34 54.5t10.5 50q0 60 -34 91t-95 31q-109 0 -252 -65z" />
<glyph horiz-adv-x="714" d="M31 63l45 105q140 -66 278 -66q70 0 109 29t39 82q0 117 -185 117h-120v121h120q86 0 127 22t41 72q0 55 -36 83.5t-103 28.5q-111 0 -258 -55l-37 103q162 73 311 73q121 0 193 -58t72 -157q0 -63 -34.5 -107.5t-90.5 -64.5q75 -27 111 -69.5t36 -110.5 q0 -109 -76.5 -169t-212.5 -60q-182 0 -329 81z" />
<glyph horiz-adv-x="790" d="M31 264l446 512h148v-500h120v-120h-120v-156h-148v156h-440zM176 276h301v336q-22 -31 -53 -65l-172 -191q-27 -31 -76 -80z" />
<glyph horiz-adv-x="733" d="M51 63l45 113q145 -67 266 -67q76 0 121 36.5t45 100.5q0 62 -37.5 97.5t-105.5 35.5q-77 0 -162 -51l-129 18l29 422h524v-129h-399l-19 -215q102 57 199 57q120 0 185 -62.5t65 -178.5q0 -123 -82 -190.5t-215 -67.5q-180 0 -330 81z" />
<glyph horiz-adv-x="768" d="M68 348q0 199 106.5 315.5t282.5 116.5q119 0 223 -43l-39 -108q-101 26 -178 26q-112 0 -175 -69t-71 -195q96 96 240 96q115 0 185.5 -64.5t70.5 -170.5q0 -123 -80 -196.5t-219 -73.5q-166 0 -256 97t-90 269zM219 295q12 -90 62.5 -139.5t130.5 -49.5q69 0 112 41.5 t43 110.5q0 59 -43 96t-112 37q-55 0 -108.5 -26.5t-84.5 -69.5z" />
<glyph horiz-adv-x="657" d="M37 645v131h579v-114q-100 -133 -184.5 -311.5t-130.5 -350.5h-178q55 174 141 346.5t187 298.5h-414z" />
<glyph horiz-adv-x="776" d="M55 207q0 129 166 190q-129 60 -129 176q0 98 80.5 152.5t222.5 54.5q136 0 211.5 -53t75.5 -147q0 -117 -143 -172q90 -32 135 -80t45 -121q1 -105 -86.5 -166t-237.5 -59q-168 0 -254 59t-86 166zM205 217q0 -54 49 -85.5t129 -31.5q76 0 124 31.5t48 81.5t-48.5 82.5 t-162.5 60.5q-139 -47 -139 -139zM240 575q0 -47 39.5 -78t126.5 -53q133 38 133 134q0 46 -41.5 74t-108.5 28t-108 -29t-41 -76z" />
<glyph horiz-adv-x="751" d="M53 512q0 127 81.5 197.5t223.5 70.5q159 0 242.5 -95.5t83.5 -268.5q0 -214 -93 -324t-269 -110q-125 0 -230 51l41 108q97 -35 182 -35q106 1 157.5 63.5t59.5 190.5q-91 -84 -223 -84q-116 0 -186 64.5t-70 171.5zM199 506q0 -65 40 -99t113 -34q56 0 103 22t77 60 q-12 200 -174 200q-76 0 -117.5 -37t-41.5 -112z" />
<glyph horiz-adv-x="811" d="M68 870q0 195 85.5 297.5t252.5 102.5q168 0 253.5 -102.5t85.5 -297.5q0 -194 -86 -296.5t-253 -102.5t-252.5 102.5t-85.5 296.5zM223 870q0 -133 42.5 -196.5t140.5 -63.5t141 63.5t43 196.5q0 135 -43 199t-141 64t-140.5 -64t-42.5 -199z" />
<glyph horiz-adv-x="669" d="M61 1126q151 62 258 123h123v-645h183v-131h-533v131h197v473q-127 -36 -199 -49z" />
<glyph horiz-adv-x="712" d="M49 1184q186 86 324 86q120 0 190 -67.5t70 -184.5q0 -54 -26 -105t-79.5 -101t-109 -92t-139.5 -100q-14 -9 -21 -14q64 6 119 6h270v-131h-588v111q36 29 92 73t89 70t75.5 61.5t67 61t48 54t34 54.5t10.5 50q0 60 -34 91.5t-95 31.5q-107 0 -252 -66z" />
<glyph horiz-adv-x="714" d="M31 555l45 107q135 -66 278 -66q71 0 109.5 28.5t38.5 82.5q0 114 -185 114h-120v123h120q86 0 127 21.5t41 70.5q0 55 -36 84t-103 29q-120 0 -258 -55l-37 104q164 74 311 74q121 0 193 -58t72 -157q0 -64 -34.5 -109t-90.5 -65q75 -25 111 -67.5t36 -110.5 q0 -110 -76.5 -170t-212.5 -60q-184 0 -329 80z" />
<glyph horiz-adv-x="790" d="M31 737l446 512h148v-499h120v-121h-120v-156h-148v156h-440zM176 750h301v335q-22 -31 -53 -65l-172 -191q-20 -23 -76 -79z" />
<glyph horiz-adv-x="733" d="M51 545l45 112q145 -67 266 -67q76 0 121 36.5t45 100.5q0 62 -37.5 97.5t-105.5 35.5q-77 0 -162 -51l-129 18l29 422h524v-129h-399l-19 -215q103 58 199 58q120 0 185 -63t65 -179q0 -123 -82 -190.5t-215 -67.5q-178 0 -330 82z" />
<glyph horiz-adv-x="768" d="M68 838q0 199 106.5 315.5t282.5 116.5q119 0 223 -43l-39 -109q-105 27 -178 27q-112 0 -175 -69t-71 -195q96 96 240 96q115 0 185.5 -65t70.5 -171q0 -123 -80 -196.5t-219 -73.5q-166 0 -256 97.5t-90 269.5zM219 784q12 -90 62.5 -139t130.5 -49q69 0 112 41.5 t43 110.5q0 59 -43 96t-112 37q-55 0 -108.5 -27t-84.5 -70z" />
<glyph horiz-adv-x="657" d="M37 1118v131h579v-114q-100 -133 -184.5 -311.5t-130.5 -350.5h-178q55 174 141 346.5t187 298.5h-414z" />
<glyph horiz-adv-x="776" d="M55 696q0 130 166 191q-129 60 -129 176q0 98 80.5 152.5t222.5 54.5q136 0 211.5 -53.5t75.5 -147.5q0 -117 -143 -172q90 -32 135 -80t45 -121q1 -105 -86.5 -166t-237.5 -59q-168 0 -254 59t-86 166zM205 707q0 -54 49 -85.5t129 -31.5q76 0 124 31t48 81t-48.5 83 t-162.5 61q-139 -47 -139 -139zM240 1065q0 -47 39.5 -78t126.5 -53q133 38 133 133q0 46 -41.5 74t-108.5 28q-68 0 -108.5 -28.5t-40.5 -75.5z" />
<glyph horiz-adv-x="751" d="M53 1001q0 127 81.5 198t223.5 71q159 0 242.5 -96t83.5 -269q0 -214 -93 -324t-269 -110q-125 0 -230 51l41 109q97 -35 182 -35q106 1 157.5 63.5t59.5 190.5q-91 -84 -223 -84q-116 0 -186 64t-70 171zM199 995q0 -65 40 -99t113 -34q56 0 103 22t77 60 q-12 201 -174 201q-75 0 -117 -37.5t-42 -112.5z" />
<glyph horiz-adv-x="864" d="M109 1352h198l449 -1489h-195z" />
<glyph horiz-adv-x="671" d="M150 627q0 82 51 134t135 52t135 -52t51 -134q0 -81 -51.5 -134t-134.5 -53t-134.5 53t-51.5 134z" />
<glyph horiz-adv-x="479" d="M109 0l32 829h183l32 -829h-247zM117 1143q0 50 32 83.5t84 33.5t83.5 -33.5t31.5 -83.5t-31.5 -82.5t-83.5 -32.5t-84 32.5t-32 82.5z" />
<glyph horiz-adv-x="569" d="M139 639q0 59 38 98t99 39t98.5 -39t37.5 -98t-37.5 -98t-98.5 -39t-99 39t-38 98z" />
<glyph horiz-adv-x="1069" d="M92 365q1 146 113.5 242.5t320.5 131.5l-4 133h187l34 -290q-407 -23 -407 -193q0 -93 60.5 -148t160.5 -55q176 0 412 109l65 -174q-151 -70 -274 -104.5t-244 -34.5q-190 0 -306 106t-118 277zM498 1145q0 51 31 84t83 33t84.5 -33.5t32.5 -83.5t-32.5 -82.5 t-84.5 -32.5t-83 32.5t-31 82.5z" />
<glyph horiz-adv-x="878" d="M109 -197l466 1549h199l-471 -1549h-194z" />
<glyph horiz-adv-x="802" d="M82 543v164q140 7 187.5 58t47.5 189v52q0 183 101.5 271.5t329.5 98.5l14 -162q-130 -19 -178.5 -67.5t-48.5 -140.5v-52q0 -159 -53 -233t-173 -96q121 -21 173.5 -94.5t52.5 -237.5v-49q0 -92 48.5 -141t178.5 -68l-14 -164q-228 10 -329.5 99.5t-101.5 273.5v49 q0 75 -10 119.5t-37.5 73.5t-71 41t-116.5 16z" />
<glyph horiz-adv-x="800" d="M51 35q130 19 179 68t49 141v49q0 164 52 237.5t171 94.5q-118 22 -170.5 96t-52.5 233v52q0 92 -49 140t-179 68l15 162q228 -10 329 -98.5t101 -271.5v-52q0 -138 47.5 -189t187.5 -58v-164q-73 -4 -116.5 -16t-71 -41t-37.5 -73.5t-10 -119.5v-49q0 -185 -101 -274 t-329 -99z" />
<glyph horiz-adv-x="761" d="M190 -111v1463h521v-181h-310v-1101h310v-181h-521z" />
<glyph horiz-adv-x="759" d="M63 70h310v1101h-310v181h521v-1463h-521v181z" />
<glyph horiz-adv-x="661" d="M154 621q0 158 40 288.5t104 227t173 215.5l139 -82q-63 -79 -103 -140.5t-76 -140t-52.5 -168.5t-16.5 -200t16.5 -200.5t52.5 -169.5t76 -140.5t103 -141.5l-139 -84q-81 89 -134.5 163t-97.5 162.5t-64.5 189.5t-20.5 221z" />
<glyph horiz-adv-x="649" d="M51 -31q63 80 103 141.5t76 140.5t52.5 169.5t16.5 200.5t-16.5 200t-52.5 168.5t-76 140t-103 140.5l139 82q165 -179 241.5 -341.5t76.5 -392.5q0 -120 -20.5 -220t-65 -188.5t-98 -162t-134.5 -162.5z" />
<glyph horiz-adv-x="1861" d="M119 553v174h1612v-174h-1612z" />
<glyph horiz-adv-x="1021" d="M119 553v174h772v-174h-772z" />
<glyph horiz-adv-x="817" d="M119 543v205h567v-205h-567z" />
<glyph horiz-adv-x="1161" d="M84 618l430 429l119 -115l-234 -242q-24 -24 -82 -74q63 -50 84 -71l232 -242l-117 -110zM494 618l432 429l118 -115l-235 -242q-15 -16 -82 -74q63 -50 84 -71l233 -242l-116 -110z" />
<glyph horiz-adv-x="1161" d="M106 303l232 242q4 4 84 73q-58 46 -82 72l-234 242l117 115l430 -429l-432 -425zM516 303l234 242q15 16 81 73q-46 37 -79 72l-236 242l117 115l432 -429l-434 -425z" />
<glyph horiz-adv-x="751" d="M84 618l430 429l119 -115l-234 -242q-24 -24 -82 -74q63 -50 84 -71l232 -242l-117 -110z" />
<glyph horiz-adv-x="751" d="M106 303l232 242q4 4 84 73q-58 46 -82 72l-234 242l117 115l430 -429l-432 -425z" />
<glyph horiz-adv-x="1146" d="M45 387l29 152h121l12 55q54 280 179 411.5t331 131.5q208 0 383 -111l-68 -143q-146 69 -284 69q-119 0 -198 -83.5t-116 -274.5l-12 -55h442l-30 -152h-441l-71 -387h-228l72 387h-121z" />
<glyph horiz-adv-x="1146" d="M119 549q0 131 33 236.5t91 175t132.5 110.5t163.5 53v125h153v-125q165 -18 309 -106l-67 -150q-136 72 -295 72q-129 0 -209 -95.5t-80 -295.5q0 -191 77 -285t206 -94q191 0 328 106l79 -139q-79 -70 -161.5 -106t-186.5 -45v-113h-153v113q-68 8 -128 31.5 t-114.5 68.5t-93 108t-61.5 154t-23 201z" />
<glyph horiz-adv-x="1146" d="M94 150l80 163q220 -153 432 -153q93 0 146 38t53 99q0 63 -61 101t-248 98q-195 61 -270.5 134.5t-75.5 200.5q0 126 89.5 205t247.5 88v129h156v-135q154 -19 346 -96l-55 -162q-241 94 -387 94q-81 0 -127.5 -33.5t-46.5 -89.5q0 -61 54.5 -93t246.5 -91 q195 -58 274.5 -136t79.5 -208q0 -139 -102.5 -225.5t-282.5 -93.5v-117h-156v123q-207 27 -393 160z" />
<glyph horiz-adv-x="1146" d="M39 381v108h129l-2 60q0 31 2 47h-129v111h141q37 206 167.5 313.5t307.5 107.5q214 0 396 -110l-70 -150q-144 76 -293 76q-97 0 -172.5 -56t-105.5 -181h471l-33 -111h-453l-2 -47q0 -40 2 -60h424l-33 -108h-374q56 -215 270 -215q184 0 326 110l79 -139 q-92 -83 -193.5 -119t-244.5 -36q-81 0 -153.5 22.5t-136.5 68t-110.5 124.5t-66.5 184h-143z" />
<glyph horiz-adv-x="1146" d="M68 0v170l151 16l21 242h-168v141h180l4 25q24 283 137.5 413t321.5 130q217 0 383 -111l-68 -149q-142 75 -285 75q-117 0 -181 -81.5t-81 -276.5l-4 -25h381v-141h-393l-21 -235h590v-193h-968z" />
<glyph horiz-adv-x="1146" d="M59 1118h244l234 -416q16 -36 36 -108q26 79 39 108l234 416h244l-322 -594h242v-110h-303l-15 -27v-68h316v-110h-316v-209h-237v209h-308v110h308v68l-15 27h-293v110h234z" />
<glyph horiz-adv-x="1349" d="M82 571q0 160 79.5 296.5t216.5 216t298 79.5q160 0 296.5 -79.5t216 -216t79.5 -296.5q0 -161 -79.5 -298t-216 -216.5t-296.5 -79.5q-161 0 -298 79.5t-216.5 216.5t-79.5 298zM360 547l316 -299l315 299l-76 74l-186 -185v438h-106v-438l-187 187z" />
<glyph horiz-adv-x="1349" d="M82 571q0 -161 79.5 -298t216.5 -216.5t298 -79.5q160 0 296.5 79.5t216 216.5t79.5 298q0 160 -79.5 296.5t-216 216.5t-296.5 81q-161 -1 -298 -81t-216.5 -216.5t-79.5 -296.5zM436 332v444h105v-264l313 309l74 -73l-312 -312h265v-104h-445z" />
<glyph horiz-adv-x="1349" d="M82 571q0 -161 79.5 -298t216.5 -216.5t298 -79.5q160 0 296.5 79.5t216 216.5t79.5 298q0 160 -79.5 296.5t-216 216.5t-296.5 81q-161 -1 -298 -81t-216.5 -216.5t-79.5 -296.5zM422 748l74 73l313 -309v264h104v-444h-444v104h264z" />
<glyph horiz-adv-x="1349" d="M82 571q0 160 79.5 296.5t216.5 216.5t298 81q160 -1 296.5 -81t216 -216.5t79.5 -296.5q0 -161 -79.5 -298t-216 -216.5t-296.5 -79.5q-161 0 -298 79.5t-216.5 216.5t-79.5 298zM352 571l299 -315l76 74l-186 186h438v107h-438l186 188l-76 74z" />
<glyph horiz-adv-x="1349" d="M82 571q0 160 79.5 296.5t216.5 216.5t298 81q160 -1 296.5 -81t216 -216.5t79.5 -296.5q0 -161 -79.5 -298t-216 -216.5t-296.5 -79.5q-161 0 -298 79.5t-216.5 216.5t-79.5 298zM371 516h438l-184 -186l75 -74l299 315l-301 314l-73 -74l184 -188h-438v-107z" />
<glyph horiz-adv-x="1349" d="M82 571q0 160 79.5 296.5t216.5 216t298 79.5q160 0 296.5 -79.5t216 -216t79.5 -296.5q0 -161 -79.5 -298t-216 -216.5t-296.5 -79.5q-161 0 -298 79.5t-216.5 216.5t-79.5 298zM360 594l76 -74l187 185v-439h106v439l186 -185l76 76l-315 299z" />
<glyph horiz-adv-x="1349" d="M82 573q0 -161 79.5 -298.5t216.5 -217.5t298 -80q160 0 296.5 80t216 217.5t79.5 298.5q0 160 -79.5 296.5t-216 216t-296.5 79.5q-161 0 -298 -79.5t-216.5 -216t-79.5 -296.5zM436 367v444h445v-104h-265l312 -312l-74 -73l-313 309v-264h-105z" />
<glyph horiz-adv-x="1349" d="M82 573q0 -161 79.5 -298.5t216.5 -217.5t298 -80q160 0 296.5 80t216 217.5t79.5 298.5q0 160 -79.5 296.5t-216 216t-296.5 79.5q-161 0 -298 -79.5t-216.5 -216t-79.5 -296.5zM424 395l309 312h-262v104h444v-444h-106v264l-311 -309z" />
<glyph horiz-adv-x="1030" d="M82 571q0 178 127.5 305.5t306.5 127.5q178 0 305 -127t127 -306t-127 -306.5t-305 -127.5t-306 127.5t-128 306.5zM147 571q0 -152 108.5 -260t260.5 -108q151 0 259 108t108 260q0 151 -108 259t-259 108q-152 0 -260.5 -108t-108.5 -259zM287 553l229 -219l229 219 l-57 55l-133 -131v316h-78v-316l-133 133z" />
<glyph horiz-adv-x="1030" d="M82 571q0 177 126.5 305t307.5 128q178 0 305 -127t127 -306t-127 -306.5t-305 -127.5t-306 127.5t-128 306.5zM147 571q0 -152 108.5 -260t260.5 -108t259.5 108t107.5 260t-107.5 259.5t-259.5 107.5t-260.5 -107.5t-108.5 -259.5zM348 399v322h80v-189l225 224l56 -56 l-224 -225h187v-76h-324z" />
<glyph horiz-adv-x="1030" d="M82 571q0 178 127.5 305.5t304.5 127.5q181 0 307.5 -128t126.5 -305q0 -117 -58 -217t-158 -158.5t-218 -58.5q-177 0 -304.5 128t-127.5 306zM147 571q0 -152 108 -260t259 -108q154 0 261.5 107.5t107.5 260.5q0 152 -107.5 259.5t-261.5 107.5q-151 0 -259 -107.5 t-108 -259.5zM322 700l57 56l223 -224v189h80v-324h-324v78h189z" />
<glyph horiz-adv-x="1030" d="M82 571q0 178 127.5 305.5t306.5 127.5q178 0 305 -127t127 -306t-127 -306.5t-305 -127.5t-306 127.5t-128 306.5zM147 571q0 -152 108.5 -260t260.5 -108t259.5 108t107.5 260t-107.5 259.5t-259.5 107.5t-260.5 -107.5t-108.5 -259.5zM279 571l219 -231l55 59 l-131 131h315v80h-315l133 131l-57 60z" />
<glyph horiz-adv-x="1030" d="M82 571q0 178 127.5 305.5t304.5 127.5q180 0 307 -127t127 -306q0 -117 -58 -217t-158 -158.5t-218 -58.5q-177 0 -304.5 128t-127.5 306zM147 571q0 -152 108 -260t259 -108q154 0 261.5 107.5t107.5 260.5q0 152 -107.5 259.5t-261.5 107.5q-151 0 -259 -107.5 t-108 -259.5zM293 530h317l-133 -131l58 -59l217 231l-217 230l-58 -60l133 -131h-317v-80z" />
<glyph horiz-adv-x="1030" d="M82 569q0 118 58.5 218.5t158.5 158.5t217 58t216.5 -58.5t157.5 -158.5t58 -218q0 -177 -127 -304.5t-305 -127.5t-306 127.5t-128 304.5zM147 569q0 -151 108.5 -258.5t260.5 -107.5q151 0 259 107.5t108 258.5q0 152 -108 260.5t-259 108.5q-152 0 -260.5 -108.5 t-108.5 -260.5zM287 590l57 -58l133 134v-318h78v318l133 -134l57 58l-229 217z" />
<glyph horiz-adv-x="1030" d="M82 569q0 118 58.5 218.5t158.5 158.5t217 58t216.5 -58.5t157.5 -158.5t58 -218q0 -177 -127 -304.5t-305 -127.5q-181 0 -307.5 128.5t-126.5 303.5zM147 569q0 -151 108.5 -258.5t260.5 -107.5t259.5 107.5t107.5 258.5q0 154 -107.5 261.5t-259.5 107.5 q-153 0 -261 -108t-108 -261zM348 420v323h324v-75h-187l224 -226l-56 -57l-225 225v-190h-80z" />
<glyph horiz-adv-x="1030" d="M82 569q0 180 127.5 307.5t304.5 127.5q180 0 307 -127.5t127 -307.5q0 -175 -126.5 -303.5t-307.5 -128.5q-177 0 -304.5 127.5t-127.5 304.5zM147 569q0 -151 108 -258.5t259 -107.5q153 0 261 107.5t108 258.5q0 154 -107.5 261.5t-261.5 107.5q-151 0 -259 -108 t-108 -261zM322 442l225 226h-189v75h324v-323h-78v190l-225 -225z" />
<glyph horiz-adv-x="1847" d="M80 575q0 188 65 347.5t179.5 269.5t275.5 171.5t348 61.5q241 0 424.5 -95t282 -266.5t98.5 -395.5q-1 -90 -15.5 -166.5t-38 -130t-56.5 -95.5t-68 -67.5t-74.5 -42t-74.5 -23t-70 -6.5q-85 0 -142 29t-81 108q-80 -74 -154 -105.5t-178 -31.5q-334 0 -334 445 q0 442 352 442q158 0 299 -109v93h201v-611q0 -82 21.5 -113.5t66.5 -31.5q31 0 61 11.5t62.5 41t57.5 75t41.5 120t17.5 168.5q0 300 -188.5 479.5t-510.5 179.5q-223 0 -396 -94t-268.5 -265t-95.5 -393q0 -327 196.5 -520.5t522.5 -193.5q267 0 498 110l39 -84 q-105 -62 -246.5 -97.5t-290.5 -35.5q-246 0 -433.5 101.5t-290.5 288.5t-103 431zM664 582q0 -157 52.5 -222t153.5 -65q70 0 125 30t123 91v332q-58 55 -112 80.5t-119 25.5q-107 0 -165 -64t-58 -208z" />
<glyph horiz-adv-x="1509" d="M113 625q0 175 85.5 323.5t233.5 235t324 86.5q175 0 322.5 -86.5t233 -235t85.5 -323.5q0 -176 -85.5 -324t-233 -233.5t-322.5 -85.5q-176 0 -324 85.5t-233.5 233.5t-85.5 324zM178 625q0 -158 77 -291t210 -210t291 -77q118 0 225 45.5t184.5 122.5t123.5 184t46 226 q0 118 -46 225.5t-123.5 185t-185 124t-224.5 46.5q-118 0 -225.5 -46t-184.5 -124.5t-122.5 -185.5t-45.5 -225zM475 264v725h287q305 0 305 -241q0 -181 -147 -228l182 -254h-170l-160 236h-149v-238h-148zM623 625h168q133 0 133 116q0 61 -41 93t-119 32h-141v-241z" />
<glyph horiz-adv-x="1255" d="M88 344q0 105 62 177.5t206 142.5q-86 83 -118.5 152t-32.5 151q0 142 102.5 222.5t284.5 80.5q159 0 254.5 -81.5t95.5 -221.5q0 -224 -278 -338q-27 -11 -72.5 -29.5t-66 -27t-54.5 -23.5t-49 -24t-37.5 -23t-31.5 -26.5t-20 -29t-14.5 -35t-3.5 -40.5q0 -98 76 -144.5 t203 -46.5q96 0 156 20t95.5 68.5t48.5 118.5t13 182h334l-2 -192q-45 0 -135 4q-30 -208 -148.5 -303.5t-361.5 -95.5q-245 0 -375.5 92.5t-130.5 269.5zM414 958q0 -55 28.5 -101.5t100.5 -111.5q122 49 171.5 96t49.5 111q0 79 -46 121.5t-126 42.5q-78 0 -128 -43 t-50 -115z" />
<glyph horiz-adv-x="1040" d="M82 291q0 113 58 179.5t179 94.5q-169 64 -169 236q0 287 331 321v131h176v-131q145 -12 291 -69l-67 -166q-164 49 -301 49q-228 0 -228 -154q0 -75 64 -106t209 -31h137v-166h-184q-142 0 -208.5 -35t-66.5 -120q0 -154 264 -154q97 0 175 17.5t180 58.5l71 -166 q-160 -74 -327 -92v-121h-174v117q-410 23 -410 307z" />
<glyph horiz-adv-x="983" d="M102 879q0 163 114 277t278 114q161 0 274 -114t113 -277t-113 -276.5t-274 -113.5q-164 0 -278 113.5t-114 276.5zM158 879q0 -138 98.5 -237t237.5 -99q138 0 235.5 99t97.5 237t-97.5 238t-235.5 100q-139 0 -237.5 -99.5t-98.5 -238.5zM281 872q0 106 55.5 166 t152.5 60q88 0 177 -54l-35 -71q-71 35 -127 35q-115 0 -115 -136q0 -62 31 -93t86 -31q65 0 133 45l39 -68q-84 -68 -186 -68q-91 0 -151 58.5t-60 156.5z" />
<glyph horiz-adv-x="983" d="M102 879q0 163 114 277t278 114q161 0 274 -114t113 -277t-113 -276.5t-274 -113.5q-164 0 -278 113.5t-114 276.5zM158 879q0 -138 98.5 -237t237.5 -99q138 0 235.5 99t97.5 237t-97.5 238t-235.5 100q-139 0 -237.5 -99.5t-98.5 -238.5zM324 674v420h172 q186 0 186 -142q0 -46 -22.5 -75.5t-63.5 -38.5q52 -28 98 -164h-110q-26 70 -45.5 102.5t-44.5 32.5h-76v-135h-94zM424 881h90q33 0 51.5 18t18.5 49q0 68 -88 68h-72v-135z" />
<glyph d="M391 1065l10 356h181v-24q-12 -179 -72 -332h-119z" />
<glyph d="M336 1413l227 279l178 -107v-45q-97 -75 -163.5 -114.5t-174.5 -79.5z" />
<glyph d="M205 1622h151q13 -109 144 -109q134 0 147 109h152q0 -256 -299 -256q-295 0 -295 256z" />
<glyph d="M172 1597l76 78l254 -151l256 151l73 -78l-258 -241h-145z" />
<glyph d="M172 1417l256 242h145l258 -242l-73 -78l-256 154l-254 -154z" />
<glyph d="M178 1503q0 56 37 88.5t86 32.5q56 0 90.5 -32t34.5 -89q0 -56 -35 -87.5t-90 -31.5q-49 0 -86 32.5t-37 86.5zM578 1503q0 57 34 89t88 32q52 0 88.5 -32.5t36.5 -88.5q0 -55 -36.5 -87t-88.5 -32q-54 0 -88 31.5t-34 87.5z" />
<glyph d="M358 1503q0 64 41.5 100.5t102.5 36.5q59 0 100 -37t41 -100q0 -62 -41.5 -99.5t-99.5 -37.5q-61 0 -102.5 37.5t-41.5 99.5z" />
<glyph d="M256 1530v45l178 108l228 -280l-66 -68q-110 42 -177 81.5t-163 113.5z" />
<glyph d="M205 1407l198 289l164 -82v-47q-174 -148 -272 -211zM522 1407l201 289l162 -82v-47q-171 -145 -273 -211z" />
<glyph d="M229 1409v182h547v-182h-547z" />
<glyph d="M295 1542q0 92 58 148.5t149 56.5q92 0 149.5 -56.5t57.5 -148.5q0 -88 -57.5 -142t-151.5 -54q-90 0 -147.5 54.5t-57.5 141.5zM412 1542q0 -38 24.5 -61t63.5 -23q43 0 67.5 23t24.5 61q0 43 -24.5 67.5t-65.5 24.5q-40 0 -65 -25t-25 -67z" />
<glyph d="M170 1409q10 76 42 126.5t76 69.5t92.5 17.5t96.5 -23.5l113 -53q55 -24 85 -9t60 77l103 -17q-10 -78 -43.5 -130.5t-79 -72.5t-95.5 -19t-96 24l-112 55q-53 25 -84 11t-58 -72z" />
</font>
</defs>
</svg>
