<?xml version="1.0" standalone="no"?>
<!DOCTYPE svg PUBLIC "-//W3C//DTD SVG 1.1//EN" "http://www.w3.org/Graphics/SVG/1.1/DTD/svg11.dtd" >
<svg xmlns="http://www.w3.org/2000/svg" xmlns:xlink="http://www.w3.org/1999/xlink" version="1.1">
<metadata></metadata>
<defs>
<font id="gentona_bookbold" horiz-adv-x="1013" >
<font-face units-per-em="2048" ascent="1638" descent="-410" />
<missing-glyph horiz-adv-x="409" />
<glyph unicode="fi" horiz-adv-x="1296" d="M23 721v268h137v31q0 198 92.5 288.5t296.5 90.5q85 0 227 -29l-26 -217q-132 4 -140 4q-72 0 -97.5 -34t-25.5 -103v-31h691v-989h-328v721h-363v-721h-327v721h-137zM836 1278q0 79 53.5 122.5t130.5 43.5t130.5 -43.5t53.5 -122.5q0 -80 -53.5 -124t-130.5 -44 t-130.5 44t-53.5 124z" />
<glyph unicode="fl" horiz-adv-x="1273" d="M23 721v268h137v31q0 198 92.5 288.5t296.5 90.5q90 0 297 -45v28h328v-1382h-328v1149q-133 8 -236 8q-72 0 -97.5 -34t-25.5 -103v-31h244v-268h-244v-721h-327v721h-137z" />
<glyph unicode=" "  horiz-adv-x="409" />
<glyph unicode="&#x09;" horiz-adv-x="409" />
<glyph unicode="&#xa0;" horiz-adv-x="409" />
<glyph unicode="!" horiz-adv-x="536" d="M94 1249h348l-47 -803h-254zM115 141q0 66 42.5 110t110.5 44t111 -44t43 -110t-43 -110.5t-111 -44.5t-110.5 44.5t-42.5 110.5z" />
<glyph unicode="&#x22;" horiz-adv-x="845" d="M143 797v524h293l-74 -524h-219zM475 797v524h293l-74 -524h-219z" />
<glyph unicode="#" horiz-adv-x="1449" d="M72 211l45 238h207l47 229h-205l45 240h207l41 208h256l-41 -208h239l43 208h256l-43 -208h215l-45 -240h-217l-45 -229h213l-45 -238h-215l-41 -211h-258l43 211h-239l-43 -211h-256l40 211h-204zM582 449h239l45 229h-239z" />
<glyph unicode="$" horiz-adv-x="1128" d="M47 139l105 234q251 -144 428 -144q69 0 103 23.5t34 62.5q0 43 -53.5 70t-229.5 82q-188 58 -262 140t-74 214t89.5 217.5t250.5 98.5v118h211v-127q148 -18 350 -92l-73 -227q-267 92 -396 92q-55 0 -86.5 -22.5t-31.5 -57.5q0 -44 47 -66.5t233 -76.5 q183 -53 261.5 -133.5t78.5 -218.5q0 -143 -100.5 -234t-282.5 -106v-113h-211v123q-207 31 -391 143z" />
<glyph unicode="%" horiz-adv-x="1794" d="M63 883q0 387 345 387q342 0 342 -387q0 -381 -342 -381q-345 0 -345 381zM276 883q0 -99 29.5 -145t102.5 -46q71 0 100 46t29 145q0 103 -28.5 149.5t-100.5 46.5q-73 0 -102.5 -46.5t-29.5 -149.5zM453 0l702 1249h182l-702 -1249h-182zM1044 365q0 387 345 387 q342 0 342 -387q0 -383 -342 -383q-345 0 -345 383zM1257 365q0 -99 29.5 -146t102.5 -47q71 0 100 47t29 146q0 102 -29 149t-100 47q-73 0 -102.5 -47t-29.5 -149z" />
<glyph unicode="&#x26;" horiz-adv-x="1372" d="M74 356q0 100 59 173t197 143q-71 71 -98 137t-27 143q0 151 111.5 234.5t312.5 83.5q167 0 268.5 -84t101.5 -223q0 -93 -56.5 -178t-170.5 -144l191 -139q18 26 51.5 79.5t46.5 73.5l211 -131q-62 -111 -103 -174l168 -125l-149 -223l-178 137q-86 -86 -178 -121.5 t-216 -35.5q-265 0 -403.5 94t-138.5 280zM393 397q0 -80 65 -123t158 -43q109 0 189 68l-297 229q-115 -64 -115 -131zM496 940q0 -78 92 -158q83 34 124.5 71.5t41.5 86.5q0 60 -32.5 90.5t-92.5 30.5q-56 0 -94.5 -33t-38.5 -88z" />
<glyph unicode="'" horiz-adv-x="514" d="M143 797v524h293l-74 -524h-219z" />
<glyph unicode="(" horiz-adv-x="702" d="M129 494q0 482 326 860l200 -109q-235 -378 -235 -751q0 -376 235 -750l-200 -111q-157 182 -241.5 400.5t-84.5 460.5z" />
<glyph unicode=")" horiz-adv-x="686" d="M37 -256q235 374 235 750q0 373 -235 751l201 109q327 -380 327 -860q0 -241 -85 -460t-242 -401z" />
<glyph unicode="*" horiz-adv-x="921" d="M76 924l49 149l229 -57l21 233h170l18 -235l234 59l47 -149l-219 -99l139 -202l-119 -103l-184 189l-187 -189l-120 103l139 202z" />
<glyph unicode="+" horiz-adv-x="1032" d="M92 379v233h307v308h232v-308h309v-231l-309 -2v-305h-232v305h-307z" />
<glyph unicode="," horiz-adv-x="575" d="M90 -182q60 47 93 87t53 91q-59 15 -94.5 63.5t-35.5 112.5q0 79 51.5 131.5t133.5 52.5t134 -57t52 -143q0 -113 -84 -231.5t-227 -200.5z" />
<glyph unicode="-" horiz-adv-x="837" d="M117 422v287h604v-287h-604z" />
<glyph unicode="." horiz-adv-x="569" d="M100 172q0 79 51.5 131.5t133.5 52.5t133 -52.5t51 -131.5t-51 -132.5t-133 -53.5t-133.5 53.5t-51.5 132.5z" />
<glyph unicode="/" horiz-adv-x="931" d="M25 -426l544 1767h277l-551 -1767h-270z" />
<glyph unicode="0" horiz-adv-x="1280" d="M70 623q0 315 143 481t428 166t427 -166t142 -481q0 -313 -142 -477t-427 -164t-428 164t-143 477zM408 623q0 -175 52.5 -258.5t180.5 -83.5q126 0 178.5 83.5t52.5 258.5q0 179 -52 263.5t-179 84.5q-128 0 -180.5 -84t-52.5 -264z" />
<glyph unicode="1" horiz-adv-x="1042" d="M47 1034q210 73 408 215h262v-970h256v-279h-869v279h285v610q-124 -34 -278 -49z" />
<glyph unicode="2" horiz-adv-x="1101" d="M33 1118q175 79 300 115.5t249 36.5q204 0 325 -115t121 -307q0 -49 -14.5 -95.5t-37.5 -87t-63.5 -84t-80 -79t-100 -79t-111.5 -77t-125 -80.5q178 13 235 13h309v-279h-979v236q51 41 125 98.5t119.5 93.5t104 83.5t94 79t74 70t59 67t34 58.5t13.5 56q0 72 -44 110.5 t-118 38.5q-148 0 -399 -104z" />
<glyph unicode="3" horiz-adv-x="1144" d="M33 115l92 225q217 -96 444 -96q91 0 141 33t50 96q0 66 -67.5 101.5t-198.5 35.5h-175v244h175q129 0 186 25.5t57 86.5q0 68 -49.5 106t-136.5 38q-159 0 -408 -84l-69 219q283 123 522 123q195 0 320.5 -98t125.5 -255q0 -101 -51 -172t-133 -102q111 -44 165 -109.5 t54 -164.5q0 -182 -131.5 -283.5t-359.5 -101.5q-299 0 -553 133z" />
<glyph unicode="4" horiz-adv-x="1267" d="M35 475l686 774h328v-741h178v-281h-178v-227h-328v227h-670zM375 508h346v385q-47 -62 -96 -117l-129 -145q-40 -47 -121 -123z" />
<glyph unicode="5" horiz-adv-x="1161" d="M33 115l92 241q217 -96 424 -96q97 0 162 45.5t65 122.5q0 70 -50.5 114t-135.5 44q-97 0 -203 -82l-268 39l43 706h878v-278h-594l-20 -250q115 78 272 78q186 0 290 -102.5t104 -282.5q0 -136 -68 -235.5t-179 -148t-249 -48.5q-139 0 -287.5 33.5t-275.5 99.5z" />
<glyph unicode="6" horiz-adv-x="1193" d="M70 565q0 326 175.5 515.5t461.5 189.5q196 0 391 -82l-80 -232q-179 45 -295 45q-276 -3 -324 -299q138 107 344 107q179 0 289.5 -107t110.5 -278q0 -204 -133.5 -323t-368.5 -119q-275 0 -423 155.5t-148 427.5zM399 477q39 -231 242 -231q85 0 137.5 51.5t52.5 140.5 q0 73 -53 117.5t-141 44.5q-69 0 -133 -32.5t-105 -90.5z" />
<glyph unicode="7" horiz-adv-x="1021" d="M29 971v278h970v-248q-142 -205 -263 -473.5t-191 -527.5h-389q94 267 219 524.5t264 446.5h-610z" />
<glyph unicode="8" horiz-adv-x="1187" d="M41 356q0 196 240 301q-187 101 -187 267t135 256t381 90q233 0 356.5 -86.5t123.5 -243.5q0 -172 -218 -258q142 -59 208.5 -134.5t66.5 -191.5q0 -178 -143 -276t-390 -98q-300 0 -436.5 94.5t-136.5 279.5zM360 381q0 -71 60.5 -110.5t163.5 -39.5q96 0 152.5 38 t56.5 102q0 59 -61.5 100t-223.5 96q-148 -70 -148 -186zM416 930q0 -56 47.5 -91.5t169.5 -76.5q84 32 118.5 74.5t34.5 97.5q0 57 -52 92t-138 35q-81 0 -130.5 -36t-49.5 -95z" />
<glyph unicode="9" horiz-adv-x="1193" d="M51 829q0 204 134 322.5t374 118.5q270 0 410.5 -155t140.5 -429q0 -349 -157.5 -526.5t-454.5 -177.5q-204 0 -396 88l80 229q182 -49 299 -49q136 1 207 72t90 215q-63 -54 -139.5 -79.5t-187.5 -25.5q-178 0 -289 112t-111 285zM362 813q0 -73 53.5 -117.5 t141.5 -44.5q60 0 119.5 32.5t103.5 82.5q-14 117 -69.5 178.5t-151.5 61.5q-89 0 -143 -51.5t-54 -141.5z" />
<glyph unicode=":" horiz-adv-x="569" d="M100 172q0 79 51.5 131.5t133.5 52.5t133 -52.5t51 -131.5t-51 -132.5t-133 -53.5t-133.5 53.5t-51.5 132.5zM100 788q0 79 51.5 132t133.5 53t133 -53t51 -132t-51 -132.5t-133 -53.5t-133.5 53.5t-51.5 132.5z" />
<glyph unicode=";" horiz-adv-x="575" d="M90 -182q60 47 93 87t53 91q-59 15 -94.5 63.5t-35.5 112.5q0 79 51.5 131.5t133.5 52.5t134 -57t52 -143q0 -113 -84 -231.5t-227 -200.5zM100 786q0 79 51.5 133t133.5 54t133 -53.5t51 -133.5q0 -79 -51 -131.5t-133 -52.5t-133.5 52.5t-51.5 131.5z" />
<glyph unicode="&#x3c;" horiz-adv-x="851" d="M66 524l542 441l146 -177l-262 -215l-72 -49q58 -40 74 -51l260 -215l-144 -172z" />
<glyph unicode="=" horiz-adv-x="1011" d="M92 231v203h828v-203h-828zM92 575v201h828v-201h-828z" />
<glyph unicode="&#x3e;" horiz-adv-x="854" d="M98 258l260 215l74 51q-12 8 -35.5 24.5t-36.5 24.5l-262 213l146 179l542 -441l-544 -438z" />
<glyph unicode="?" horiz-adv-x="1105" d="M43 1118q178 80 302 116t247 36q202 0 325 -110t123 -281q0 -145 -112.5 -244t-315.5 -139l6 -101h-262l-47 303q112 3 189 14.5t119.5 31t60.5 43t18 55.5q0 72 -45 111.5t-119 39.5q-143 0 -399 -106zM336 139q0 66 42.5 111t110.5 45t112 -45t44 -111q0 -65 -44 -109 t-112 -44t-110.5 43.5t-42.5 109.5z" />
<glyph unicode="@" horiz-adv-x="1810" d="M70 420q0 188 65.5 347.5t180 269.5t274.5 171.5t346 61.5q180 0 330.5 -56t255 -155.5t162 -241t57.5 -309.5q-1 -97 -18 -176.5t-43.5 -133t-64 -94t-74.5 -63.5t-80 -36.5t-76.5 -18t-67.5 -4.5q-43 0 -75.5 4.5t-67 17.5t-61 40.5t-42.5 68.5q-79 -76 -145.5 -103.5 t-165.5 -27.5q-324 0 -324 444q0 232 83.5 340t248.5 108q154 0 276 -116v100h281v-577q0 -87 16 -116.5t52 -29.5q24 0 47.5 7.5t53 31.5t52 63t38.5 109t18 162q0 289 -179 462t-487 173q-160 0 -295 -52.5t-229.5 -146.5t-147.5 -229t-53 -295q0 -313 183.5 -494.5 t490.5 -181.5q145 0 262.5 24.5t243.5 73.5l45 -110q-106 -59 -253.5 -93t-297.5 -34q-242 0 -427 101.5t-286.5 286.5t-101.5 427zM711 426q0 -125 37 -175t116 -50q52 0 93 17.5t87 55.5v7v274q-75 84 -174 84q-80 0 -119.5 -48t-39.5 -165z" />
<glyph unicode="A" horiz-adv-x="1423" d="M18 0l467 1249h455l465 -1249h-356l-70 199h-533l-69 -199h-359zM551 502h321l-124 358q-32 104 -35 115q-5 -17 -17.5 -55t-19.5 -60z" />
<glyph unicode="B" horiz-adv-x="1234" d="M119 0v1249h495q232 0 358 -91.5t126 -258.5q0 -88 -49.5 -149t-139.5 -91q134 -34 202.5 -111t68.5 -192q0 -170 -145.5 -263t-413.5 -93h-502zM453 276h178q97 0 150 32t53 91q0 54 -47.5 83.5t-133.5 29.5h-200v-236zM453 770h200q62 0 95.5 25.5t33.5 72.5 q0 51 -44 78t-124 27h-161v-203z" />
<glyph unicode="C" horiz-adv-x="1253" d="M70 623q0 309 168 478t469 169q251 0 467 -113l-101 -250q-223 64 -350 64q-156 0 -235.5 -87.5t-79.5 -260.5q0 -154 80.5 -248t213.5 -94q103 0 192 20t216 72l109 -248q-135 -75 -261.5 -109t-271.5 -34q-287 0 -451.5 167.5t-164.5 473.5z" />
<glyph unicode="D" horiz-adv-x="1345" d="M119 0v1249h442q337 0 526 -169.5t189 -456.5q0 -283 -192 -453t-523 -170h-442zM453 293h108q189 0 283 81t94 249q0 171 -91.5 252t-285.5 81h-108v-663z" />
<glyph unicode="E" horiz-adv-x="1146" d="M119 0v1249h921v-303h-587v-188h501v-287h-501v-174h604v-297h-938z" />
<glyph unicode="F" horiz-adv-x="1077" d="M119 0v1249h905v-303h-571v-254h491v-286h-491v-406h-334z" />
<glyph unicode="G" horiz-adv-x="1378" d="M70 623q0 291 170.5 469t451.5 178q125 0 270 -28.5t271 -84.5l-84 -248q-132 36 -228.5 53t-197.5 17q-142 0 -228.5 -98t-86.5 -258q0 -167 76 -257t212 -90q173 0 303 48v125h-319v262h608v-574q-166 -83 -308.5 -119t-297.5 -36q-285 0 -448.5 167.5t-163.5 473.5z " />
<glyph unicode="H" horiz-adv-x="1376" d="M119 0v1249h334v-469h471v469h333v-1249h-333v477h-471v-477h-334z" />
<glyph unicode="I" horiz-adv-x="571" d="M119 0v1249h334v-1249h-334z" />
<glyph unicode="J" horiz-adv-x="993" d="M23 92l75 242q158 -49 267 -49q85 0 126 50t41 161v753h334v-753q0 -267 -100.5 -390.5t-323.5 -123.5q-197 0 -419 110z" />
<glyph unicode="K" horiz-adv-x="1320" d="M119 0v1249h334v-553l467 553h360v-22l-449 -535l469 -669v-23h-376l-310 430l-161 -192v-238h-334z" />
<glyph unicode="L" horiz-adv-x="1064" d="M119 0v1249h334v-946h557v-303h-891z" />
<glyph unicode="M" horiz-adv-x="1712" d="M113 0l49 1249h373l290 -680q21 -55 31 -94q10 39 31 94l291 680h372l49 -1249h-335l-15 659v58l-293 -717h-200l-291 717v-49l-16 -668h-336z" />
<glyph unicode="N" horiz-adv-x="1402" d="M119 0v1249h303l528 -712v712h334v-1249h-303l-528 705v-705h-334z" />
<glyph unicode="O" horiz-adv-x="1402" d="M70 623q0 309 167 478t465 169q297 0 464 -169.5t167 -477.5q0 -307 -167 -474t-464 -167q-298 0 -465 167t-167 474zM408 623q0 -167 76.5 -254.5t217.5 -87.5q140 0 216.5 87.5t76.5 254.5q0 171 -76.5 259.5t-216.5 88.5q-141 0 -217.5 -88.5t-76.5 -259.5z" />
<glyph unicode="P" horiz-adv-x="1212" d="M119 0v1249h499q264 0 406.5 -126t142.5 -359q0 -229 -139 -353t-395 -124h-180v-287h-334zM453 569h178q103 0 158 50.5t55 144.5q0 95 -59.5 147t-168.5 52h-163v-394z" />
<glyph unicode="Q" horiz-adv-x="1372" d="M70 623q0 311 160 479t456 168t456.5 -168t160.5 -479q0 -309 -160 -475t-457 -166q-296 0 -456 166t-160 475zM408 623q0 -169 70 -255.5t208 -86.5q279 0 279 342q0 348 -279 348q-278 0 -278 -348zM528 -268l52 192q188 -47 312 -62.5t310 -15.5v-258q-327 0 -674 144 z" />
<glyph unicode="R" horiz-adv-x="1245" d="M119 0v1249h518q264 0 407.5 -121.5t143.5 -345.5q0 -274 -238 -379l279 -376v-27h-357l-249 348h-170v-348h-334zM453 608h188q104 0 160.5 45.5t56.5 128.5q0 86 -56.5 133.5t-160.5 47.5h-188v-355z" />
<glyph unicode="S" horiz-adv-x="1191" d="M47 152l125 260q267 -146 446 -146q55 0 85 22t30 62q0 28 -19 46.5t-75 40.5t-180 59q-357 106 -357 399q0 165 115.5 270t321.5 105q134 0 259.5 -25t280.5 -94l-98 -244q-142 53 -232 73.5t-174 20.5q-57 0 -94 -21.5t-37 -59.5q0 -22 10.5 -37.5t48.5 -35.5 t93.5 -40.5t163.5 -56.5q191 -65 263.5 -149t72.5 -241q0 -173 -121 -275.5t-338 -102.5q-126 0 -295.5 47.5t-294.5 122.5z" />
<glyph unicode="T" horiz-adv-x="1179" d="M37 946v303h1106v-303h-387v-946h-334v946h-385z" />
<glyph unicode="U" horiz-adv-x="1357" d="M109 596v653h333v-653q0 -315 236 -315q237 0 237 315v653h334v-653q0 -312 -141 -463t-430 -151q-288 0 -428.5 151.5t-140.5 462.5z" />
<glyph unicode="V" horiz-adv-x="1374" d="M25 1249h370l254 -784q21 -65 39 -129q13 54 37 129l270 784h355l-478 -1249h-370z" />
<glyph unicode="W" horiz-adv-x="1904" d="M39 1249h350l172 -743q16 -80 25 -162q3 20 26 162l160 743h361l159 -743q16 -93 25 -156q10 89 24 156l175 743h350l-328 -1249h-395l-156 571q-26 140 -35 193q-15 -91 -34 -193l-156 -571h-395z" />
<glyph unicode="X" horiz-adv-x="1343" d="M23 0l393 629l-389 620h372l236 -348q21 -35 37 -59q6 10 19 30.5t18 28.5l235 348h373l-389 -620l393 -629h-365l-247 371l-37 57q-6 -9 -18.5 -28.5t-18.5 -28.5l-250 -371h-362z" />
<glyph unicode="Y" horiz-adv-x="1306" d="M18 1249h351l209 -393q46 -84 75 -158q26 67 76 158l209 393h350l-469 -856v-393h-332v393z" />
<glyph unicode="Z" horiz-adv-x="1239" d="M82 0v244l641 710q-180 -8 -270 -8h-324v303h1028v-260l-596 -696q147 10 258 10h346v-303h-1083z" />
<glyph unicode="[" horiz-adv-x="798" d="M176 -365v1717h582v-252h-285v-1215h285v-250h-582z" />
<glyph unicode="\" horiz-adv-x="931" d="M90 1341h277l544 -1767h-268z" />
<glyph unicode="]" horiz-adv-x="798" d="M47 -115h285v1215h-285v252h582v-1717h-582v250z" />
<glyph unicode="^" horiz-adv-x="1034" d="M78 688l340 633h200l340 -633h-262l-118 236q-42 79 -60 137h-2q-20 -63 -59 -137l-119 -236h-260z" />
<glyph unicode="_" horiz-adv-x="1001" d="M111 -76h780v-231h-780v231z" />
<glyph unicode="`" d="M256 1286v66l205 143l264 -338l-80 -84q-231 97 -389 213z" />
<glyph unicode="a" horiz-adv-x="1077" d="M49 293q0 157 103.5 232t314.5 75h197q0 86 -31.5 121t-116.5 35q-125 0 -321 -43l-50 221q166 43 260 58.5t173 15.5q216 0 310.5 -96t94.5 -312v-600h-319v117q-132 -135 -289 -135q-164 0 -245 71t-81 240zM348 332q0 -54 36 -85.5t97 -31.5q100 0 183 86v125h-154 q-87 0 -124.5 -17.5t-37.5 -76.5z" />
<glyph unicode="b" horiz-adv-x="1173" d="M100 0v1321h328v-463q74 77 149.5 113.5t165.5 36.5q185 0 278 -121.5t93 -382.5q0 -135 -31.5 -237.5t-87 -163.5t-124.5 -91t-150 -30q-74 0 -128 17.5t-85 40.5t-80 71v-111h-328zM428 356q41 -56 82.5 -81t105.5 -25q82 0 129.5 62t47.5 192q0 231 -168 231 q-114 0 -197 -112v-267z" />
<glyph unicode="c" horiz-adv-x="1007" d="M59 489q0 126 35.5 225.5t100 163.5t152 97t192.5 33q220 0 405 -109l-90 -207q-132 56 -270 56q-97 0 -150 -67.5t-53 -191.5q0 -119 52 -183t149 -64q157 0 301 75l96 -186q-101 -79 -203 -114t-241 -35q-99 0 -185 32.5t-151 94.5t-102.5 159.5t-37.5 220.5z" />
<glyph unicode="d" horiz-adv-x="1175" d="M59 504q0 257 98 380.5t275 123.5q94 0 170 -31.5t146 -104.5v449h327v-1321h-327v111q-48 -47 -80 -70.5t-86.5 -41t-128.5 -17.5q-80 0 -149 30t-125 91t-88 164t-32 237zM381 504q0 -130 47.5 -192t130.5 -62q65 0 107.5 25.5t81.5 80.5v267q-83 112 -199 112 q-168 0 -168 -231z" />
<glyph unicode="e" horiz-adv-x="1083" d="M59 487q0 254 133 387.5t369 133.5q213 0 336.5 -122.5t124.5 -353.5q0 -65 -8 -133h-639q34 -163 198 -163q100 0 179.5 20.5t171.5 69.5l92 -185q-111 -84 -221 -121.5t-236 -37.5q-233 0 -366.5 129t-133.5 376zM373 594h368q-12 186 -180 186q-162 0 -188 -186z" />
<glyph unicode="f" horiz-adv-x="757" d="M23 721v268h129v31q0 197 96 288t301 91q101 0 213 -23l-23 -223q-94 4 -129 4q-73 0 -102 -34.5t-29 -102.5v-31h252v-268h-252v-721h-327v721h-129z" />
<glyph unicode="g" horiz-adv-x="1163" d="M59 518q0 251 94 370.5t279 119.5q162 0 313 -129v110h328v-817q0 -277 -124.5 -402.5t-377.5 -125.5q-111 0 -231.5 23t-204.5 61l43 223q234 -60 348 -60t166.5 63.5t52.5 217.5v6q-62 -76 -127.5 -105.5t-179.5 -29.5q-177 0 -278 120.5t-101 354.5zM381 518 q0 -120 45.5 -171.5t132.5 -51.5q65 0 106 25.5t80 82.5v220q-83 112 -196 112q-86 0 -127 -49.5t-41 -167.5z" />
<glyph unicode="h" horiz-adv-x="1159" d="M100 0v1321h328v-483q78 88 156 129t170 41q160 0 235.5 -90.5t75.5 -288.5v-629h-328v516q0 94 -23 130t-91 36q-105 0 -195 -115v-567h-328z" />
<glyph unicode="i" horiz-adv-x="550" d="M92 1278q0 79 53.5 122.5t130.5 43.5t131 -43.5t54 -122.5q0 -80 -54 -124t-131 -44t-130.5 44t-53.5 124zM113 0v989h327v-989h-327z" />
<glyph unicode="j" horiz-adv-x="550" d="M-18 -143q79 42 104 97.5t25 164.5v870h327v-870q0 -203 -87 -317t-304 -162zM88 1278q0 79 53.5 122.5t130.5 43.5t131 -43.5t54 -122.5q0 -80 -54 -124t-131 -44t-130.5 44t-53.5 124z" />
<glyph unicode="k" horiz-adv-x="1142" d="M100 0v1321h328v-676l322 344h366v-22l-375 -400l383 -544v-23h-366l-232 326l-98 -109v-217h-328z" />
<glyph unicode="l" horiz-adv-x="528" d="M100 0v1321h328v-1321h-328z" />
<glyph unicode="m" horiz-adv-x="1732" d="M100 0v989h328v-131q70 75 141 112.5t154 37.5q222 -3 283 -168q88 91 166 128.5t161 37.5q155 0 230 -90t75 -287v-629h-327v537q0 88 -23.5 126.5t-81.5 38.5q-83 0 -170 -100v-602h-327v537q0 86 -27 125.5t-84 39.5q-85 0 -170 -106v-596h-328z" />
<glyph unicode="n" horiz-adv-x="1159" d="M100 0v989h328v-129q164 148 326 148q160 0 235.5 -90.5t75.5 -288.5v-629h-328v537q0 94 -23 129.5t-91 35.5q-107 0 -195 -112v-590h-328z" />
<glyph unicode="o" horiz-adv-x="1148" d="M59 489q0 248 135 383.5t379 135.5q245 0 381 -135.5t136 -383.5q0 -242 -136 -374.5t-381 -132.5q-244 0 -379 132.5t-135 374.5zM381 489q0 -133 47.5 -190t144.5 -57t146 57.5t49 189.5q0 138 -49 198.5t-146 60.5q-96 0 -144 -60.5t-48 -198.5z" />
<glyph unicode="p" horiz-adv-x="1173" d="M100 -315v1304h328v-108q78 63 153 95t162 32q185 0 278 -121.5t93 -382.5q0 -135 -31.5 -237.5t-87 -163.5t-124.5 -91t-150 -30q-73 0 -127.5 17t-86.5 40.5t-79 69.5v-424h-328zM428 354q41 -55 82.5 -79.5t105.5 -24.5q82 0 129.5 62t47.5 192q0 231 -168 231 q-113 0 -197 -110v-271z" />
<glyph unicode="q" horiz-adv-x="1173" d="M59 504q0 261 94 382.5t279 121.5q88 0 162 -31.5t151 -95.5v108h328v-1304h-328v424q-47 -46 -79 -69.5t-86 -40.5t-127 -17q-80 0 -149 30t-125 91t-88 164t-32 237zM383 504q0 -130 46.5 -192t129.5 -62q63 0 105 25t81 79v271q-44 56 -90 83t-106 27q-82 0 -124 -55 t-42 -176z" />
<glyph unicode="r" horiz-adv-x="835" d="M100 0v989h328v-182q52 101 116 151t148 50q59 0 123 -7l-22 -329q-49 4 -117 4q-98 0 -158.5 -40t-89.5 -142v-494h-328z" />
<glyph unicode="s" horiz-adv-x="976" d="M57 98l78 219q249 -92 369 -92q82 0 82 49q0 11 -4 19.5t-14.5 16t-21 13t-32 13t-39.5 12.5t-51 15t-59 18q-271 84 -271 291q0 158 93 248t262 90q208 0 446 -78l-80 -225q-219 59 -344 59q-70 0 -70 -55q0 -13 4.5 -23t17 -18.5t24.5 -15t36.5 -14t44 -12.5t56 -14.5 t63.5 -17.5q149 -41 207.5 -101.5t58.5 -185.5q0 -160 -105.5 -243.5t-307.5 -83.5q-209 0 -443 116z" />
<glyph unicode="t" horiz-adv-x="804" d="M20 721v268h140v219h327v-219h242v-268h-242v-344q0 -69 27 -100t96 -31q78 0 133 4l31 -197q-54 -30 -132.5 -48.5t-154.5 -18.5q-174 0 -250.5 87t-76.5 289v359h-140z" />
<glyph unicode="u" horiz-adv-x="1165" d="M94 362v627h328v-543q0 -93 24 -130t91 -37q106 0 196 114v596h328v-989h-328v117q-123 -81 -163 -100q-74 -35 -154 -35q-160 0 -241 91.5t-81 288.5z" />
<glyph unicode="v" horiz-adv-x="1157" d="M20 989h326l186 -506q16 -43 46 -153q3 10 19.5 67.5t27.5 85.5l206 506h326l-405 -989h-346z" />
<glyph unicode="w" horiz-adv-x="1579" d="M23 989h311l145 -545q14 -93 17 -122q9 59 24 122l156 545h227l156 -545q15 -72 24 -137q3 60 19 137l143 545h314l-267 -989h-368l-133 532l-134 -532h-368z" />
<glyph unicode="x" horiz-adv-x="1103" d="M16 0l314 496l-312 493h349l155 -239q11 -22 31 -52q12 22 31 52l153 239h348l-311 -493l316 -496h-342l-164 242q-24 38 -31 51q-22 -33 -31 -51l-166 -242h-340z" />
<glyph unicode="y" horiz-adv-x="1134" d="M2 987h336l174 -452l49 -158q61 125 110.5 265t112.5 347l344 -2q-4 -13 -30 -87.5t-32.5 -92t-30 -84t-32 -89t-30 -80t-33 -84.5t-31 -74.5t-34 -77.5t-32.5 -66.5t-36 -67.5q-111 -199 -247 -323.5t-337 -192.5l-106 244q164 73 250 162z" />
<glyph unicode="z" horiz-adv-x="1077" d="M74 0v205l475 522q-94 -6 -191 -6h-266v268h887v-198l-455 -533q120 6 209 6h271v-264h-930z" />
<glyph unicode="{" horiz-adv-x="829" d="M57 379v231q132 12 177 60t45 170v90q0 232 116.5 329.5t390.5 102.5l19 -227q-134 -18 -176.5 -60t-42.5 -145v-90q0 -165 -59.5 -242.5t-188.5 -101.5q129 -26 188.5 -103t59.5 -241v-93q0 -102 42.5 -143.5t176.5 -58.5l-19 -230q-274 6 -390.5 104t-116.5 328v93 q0 122 -45 169.5t-177 57.5z" />
<glyph unicode="|" horiz-adv-x="700" d="M215 -410v1731h270v-1731h-270z" />
<glyph unicode="}" horiz-adv-x="829" d="M31 -143q134 17 176.5 58.5t42.5 143.5v91q0 165 59.5 242.5t188.5 103.5q-129 24 -188.5 101.5t-59.5 242.5v90q0 103 -42.5 145t-176.5 60l18 227q275 -5 391.5 -102.5t116.5 -329.5v-90q0 -122 45 -170t178 -60v-231q-133 -10 -178 -57.5t-45 -169.5v-93 q0 -230 -116.5 -328t-391.5 -104z" />
<glyph unicode="~" horiz-adv-x="1040" d="M92 520q59 109 120 161.5t126 55t143 -25.5l150 -62q36 -13 66 -13.5t61.5 23.5t68.5 78l121 -86q-60 -109 -122.5 -162t-127 -56t-141.5 24l-149 61q-51 27 -96.5 11.5t-100.5 -93.5z" />
<glyph unicode="&#xa1;" horiz-adv-x="536" d="M94 -254l47 805h254l47 -805h-348zM115 856q0 66 42.5 110t110.5 44t111 -44t43 -110t-43 -111t-111 -45t-110.5 45t-42.5 111z" />
<glyph unicode="&#xa2;" horiz-adv-x="1058" d="M70 557q0 243 112.5 393.5t298.5 182.5v116h211v-116q140 -20 301 -103l-90 -211q-136 58 -278 58q-114 0 -175 -83t-61 -237q0 -149 60.5 -230t171.5 -81q168 0 305 86l104 -199q-155 -123 -338 -145v-107h-211v109q-86 14 -158.5 53.5t-130 107t-90 171.5t-32.5 235z " />
<glyph unicode="&#xa3;" horiz-adv-x="1187" d="M82 0v240l129 20l18 176h-147v172h164q32 279 152 410t337 131q227 0 412 -113l-90 -209q-157 64 -275 64q-94 0 -145.5 -63.5t-69.5 -219.5h334v-172h-352l-17 -168h539v-268h-989z" />
<glyph unicode="&#xa5;" horiz-adv-x="1189" d="M18 1124h340l174 -327q17 -37 62 -148q6 14 27.5 66.5t33.5 81.5l174 327h342l-301 -559h205v-127h-272l-37 -67h309v-127h-315v-244h-332v244h-309v127h303l-37 67h-266v127h198z" />
<glyph unicode="&#xa6;" horiz-adv-x="700" d="M215 295h270v-705h-270v705zM215 616v705h270v-705h-270z" />
<glyph unicode="&#xa7;" horiz-adv-x="1243" d="M94 547q0 81 43.5 133.5t118.5 91.5q-72 72 -72 195q0 139 100 221t279 82q235 0 457 -92l-82 -232q-91 44 -186.5 70t-157.5 26q-107 0 -107 -67q0 -37 43.5 -57t217.5 -72q216 -65 298 -133t82 -176q0 -84 -40 -138t-117 -92q67 -70 67 -190q0 -143 -102 -231.5 t-289 -88.5q-120 0 -255 39.5t-249 108.5l86 233q107 -67 213.5 -102t186.5 -35q108 0 108 68q0 38 -45.5 59t-214.5 70q-217 63 -300 132t-83 177zM383 594q0 -14 7.5 -26t26 -23t37 -20t53 -20t61.5 -19t74.5 -22t80.5 -24q58 -20 78 -28q39 44 39 77q0 14 -7.5 26 t-25.5 23t-36.5 19.5t-53 20t-60.5 19.5t-74.5 22t-80.5 24q-17 5 -44.5 14.5t-35.5 12.5q-39 -47 -39 -76z" />
<glyph unicode="&#xa8;" d="M139 1270q0 68 46.5 108.5t109.5 40.5q67 0 111.5 -39.5t44.5 -109.5q0 -68 -44.5 -108t-111.5 -40q-62 0 -109 40.5t-47 107.5zM565 1270q0 69 44 109t110 40q63 0 109 -40.5t46 -108.5q0 -67 -46.5 -107.5t-108.5 -40.5q-66 0 -110 40t-44 108z" />
<glyph unicode="&#xa9;" horiz-adv-x="1499" d="M109 625q0 175 85.5 323.5t233.5 235t324 86.5q175 0 322.5 -86.5t233 -235t85.5 -323.5q0 -176 -85.5 -324t-233 -233.5t-322.5 -85.5q-176 0 -324 85.5t-233.5 233.5t-85.5 324zM184 625q0 -116 45 -221.5t120.5 -181t181 -120.5t221.5 -45q153 0 283 75.5t206 206.5 t76 286q0 154 -76 285t-206 207.5t-283 76.5q-116 0 -221.5 -45t-181 -121.5t-120.5 -182t-45 -220.5zM397 618q0 175 96.5 275t256.5 100q157 0 297 -80l-66 -149q-117 47 -201 47q-155 0 -155 -193q0 -184 157 -184q101 0 217 68l72 -140q-72 -57 -147 -83.5t-172 -26.5 q-154 0 -254.5 98.5t-100.5 267.5z" />
<glyph unicode="&#xaa;" horiz-adv-x="802" d="M55 760q0 111 73.5 162.5t225.5 56.5q93 0 140 -2q0 62 -22.5 89.5t-82.5 27.5q-94 0 -229 -31l-35 151q202 56 307 56q156 0 224.5 -68t68.5 -225v-428h-233v78q-93 -90 -203 -90q-119 0 -176.5 50.5t-57.5 172.5zM272 788q0 -39 24 -60t69 -21q71 0 127 59v100h-107 q-58 0 -85.5 -17.5t-27.5 -60.5z" />
<glyph unicode="&#xab;" horiz-adv-x="1261" d="M66 524l454 441l164 -162l-207 -209q-34 -34 -82 -72q37 -26 84 -69l205 -211l-162 -156zM547 524l454 441l164 -162l-207 -209q-38 -38 -81 -72q37 -26 84 -69l204 -211l-161 -156z" />
<glyph unicode="&#xad;" horiz-adv-x="837" d="M117 422v287h604v-287h-604z" />
<glyph unicode="&#xae;" horiz-adv-x="1499" d="M109 625q0 175 85.5 323.5t233.5 235t324 86.5q175 0 322.5 -86.5t233 -235t85.5 -323.5q0 -176 -85.5 -324t-233 -233.5t-322.5 -85.5q-176 0 -324 85.5t-233.5 233.5t-85.5 324zM184 625q0 -116 45 -221.5t120.5 -181t181 -120.5t221.5 -45q153 0 283 75.5t206 206.5 t76 286q0 154 -76 285t-206 207.5t-283 76.5q-116 0 -221.5 -45t-181 -121.5t-120.5 -182t-45 -220.5zM453 270v713h303q168 0 245.5 -63.5t77.5 -188.5q0 -150 -131 -186q33 -18 58.5 -48.5t44.5 -73.5t29.5 -74t23.5 -79h-242q-33 122 -51 154q-27 49 -70 49h-90v-203 h-198zM666 633h106q96 0 96 90q0 96 -112 96h-90v-186z" />
<glyph unicode="&#xaf;" d="M193 1153v231h630v-231h-630z" />
<glyph unicode="&#xb0;" horiz-adv-x="755" d="M78 969q0 136 81.5 218.5t217.5 82.5q137 0 219 -82.5t82 -218.5q0 -133 -82 -214t-219 -81q-136 0 -217.5 81t-81.5 214zM260 969q0 -54 31 -85.5t86 -31.5q57 0 88 31t31 86q0 58 -31.5 91.5t-87.5 33.5q-55 0 -86 -33.5t-31 -91.5z" />
<glyph unicode="&#xb1;" horiz-adv-x="1032" d="M92 43v201h830v-201h-830zM92 575v201h322v246h202v-246h322v-201h-322v-245h-202v245h-322z" />
<glyph unicode="&#xb2;" horiz-adv-x="731" d="M39 1380q112 50 189 72.5t155 22.5q126 0 201 -72t75 -191q0 -42 -18 -82t-42.5 -70.5t-73 -69.5t-86.5 -65t-105 -69q98 8 139 8h193v-178h-607v150q34 27 88 69.5t82.5 65.5t68.5 56t61 53.5t42 45t30 44.5t9 38q0 45 -25.5 67.5t-70.5 22.5q-97 0 -246 -65z" />
<glyph unicode="&#xb3;" horiz-adv-x="737" d="M27 969l57 143q139 -65 274 -65q54 0 84.5 20.5t30.5 58.5q0 84 -162 84h-112v156h112q79 0 113.5 16t34.5 54q0 41 -29.5 62.5t-83.5 21.5q-101 0 -252 -52l-43 140q179 73 324 73q124 0 201 -59t77 -158q0 -63 -32 -107.5t-84 -64.5q69 -27 102 -66.5t33 -101.5 q0 -114 -80.5 -176.5t-222.5 -62.5q-191 0 -342 84z" />
<glyph unicode="&#xb4;" d="M313 1157l262 338l205 -143v-66q-160 -118 -387 -213z" />
<glyph unicode="&#xb6;" horiz-adv-x="1210" d="M78 815q0 227 126 330.5t398 103.5h528v-245l-188 -29v-975h-301v391h-39q-272 0 -398 101.5t-126 322.5z" />
<glyph unicode="&#xb7;" horiz-adv-x="589" d="M106 557q0 79 51.5 131.5t133.5 52.5t133 -52.5t51 -131.5t-51 -132.5t-133 -53.5t-133.5 53.5t-51.5 132.5z" />
<glyph unicode="&#xb8;" d="M281 -375l26 121q90 -18 139 -18q84 0 84 61q0 42 -22.5 58t-81.5 16h-55l41 198h118l-2 -122q111 -9 153 -46.5t42 -119.5q0 -85 -53 -139t-150 -54q-116 0 -239 45z" />
<glyph unicode="&#xb9;" horiz-adv-x="700" d="M61 1321q140 52 256 133h170v-598h175v-178h-560v178h177v367q-105 -25 -179 -35z" />
<glyph unicode="&#xba;" horiz-adv-x="872" d="M70 899q0 178 96 274.5t270 96.5t270.5 -96.5t96.5 -274.5q0 -173 -96.5 -267.5t-270.5 -94.5t-270 94.5t-96 267.5zM297 899q0 -180 139 -180q142 0 142 180q0 188 -142 188q-139 0 -139 -188z" />
<glyph unicode="&#xbb;" horiz-adv-x="1261" d="M98 242l203 211q33 31 84 71q-58 46 -82 70l-205 209l162 162l455 -441l-457 -438zM580 242l202 211q33 31 84 71q-58 46 -82 70l-204 209l161 162l455 -441l-457 -438z" />
<glyph unicode="&#xbc;" horiz-adv-x="1830" d="M61 1116q140 52 256 133h170v-598h175v-178h-560v178h177v367q-105 -25 -179 -35zM477 0l703 1249h184l-705 -1249h-182zM973 281l426 495h203v-475h110v-164h-110v-137h-203v137h-418zM1161 301h238v260q-4 -6 -56 -65l-106 -117q-33 -44 -76 -78z" />
<glyph unicode="&#xbd;" horiz-adv-x="1867" d="M61 1116q140 52 256 133h170v-598h175v-178h-560v178h177v367q-105 -25 -179 -35zM477 0l703 1249h184l-705 -1249h-182zM1128 696q112 48 189.5 70t155.5 22q126 0 201 -71t75 -191q0 -42 -18 -82t-42.5 -70.5t-73.5 -69.5t-86.5 -64.5t-105.5 -69.5q98 8 140 8h192 v-178h-606v150q34 27 88 69.5t82.5 65.5t68.5 56t61 53.5t42 45t30 44.5t9 38q0 45 -25.5 67.5t-70.5 22.5q-97 0 -246 -65z" />
<glyph unicode="&#xbe;" horiz-adv-x="1800" d="M27 557l57 143q139 -65 274 -65q54 0 84.5 21t30.5 59q0 84 -162 84h-112v155h112q79 0 113.5 16t34.5 54q0 41 -29.5 62.5t-83.5 21.5q-104 0 -252 -51l-43 139q181 74 324 74q124 0 201 -59t77 -158q0 -63 -32 -107.5t-84 -64.5q69 -27 102 -66.5t33 -101.5 q0 -115 -80.5 -177.5t-222.5 -62.5q-191 0 -342 84zM457 0l702 1249h184l-704 -1249h-182zM961 281l428 495h200v-477h113v-162h-113v-137h-200v137h-418zM1151 299h238v262q-9 -13 -56 -67l-106 -117q-31 -39 -76 -78z" />
<glyph unicode="&#xbf;" horiz-adv-x="1105" d="M72 117q0 145 112.5 244t315.5 139l-4 100h260l47 -303q-147 -4 -235 -23.5t-120 -48t-32 -71.5q0 -72 45 -112t119 -40q141 0 399 107l90 -232q-177 -79 -301 -115t-248 -36q-202 0 -325 110t-123 281zM469 856q0 66 43 110t111 44t110.5 -44t42.5 -110t-42.5 -111 t-110.5 -45t-111 45t-43 111z" />
<glyph unicode="&#xc0;" horiz-adv-x="1423" d="M18 0l467 1249h455l465 -1249h-356l-70 199h-533l-69 -199h-359zM430 1505v64l236 129l231 -307l-78 -84q-126 47 -209 89t-180 109zM551 502h321l-124 358q-32 104 -35 115q-5 -17 -17.5 -55t-19.5 -60z" />
<glyph unicode="&#xc1;" horiz-adv-x="1423" d="M18 0l467 1249h455l465 -1249h-356l-70 199h-533l-69 -199h-359zM520 1395l232 307l235 -127v-66q-97 -65 -180 -107t-207 -89zM551 502h321l-124 358q-32 104 -35 115q-5 -17 -17.5 -55t-19.5 -60z" />
<glyph unicode="&#xc2;" horiz-adv-x="1423" d="M18 0l467 1249h455l465 -1249h-356l-70 199h-533l-69 -199h-359zM352 1391l266 282h189l268 -282l-82 -86l-280 170l-281 -170zM551 502h321l-124 358q-32 104 -35 115q-5 -17 -17.5 -55t-19.5 -60z" />
<glyph unicode="&#xc3;" horiz-adv-x="1423" d="M18 0l467 1249h455l465 -1249h-356l-70 199h-533l-69 -199h-359zM360 1376q3 76 27 131t59.5 82.5t80 38t88.5 4.5t85 -24l111 -54q25 -12 42.5 -14t34.5 7.5t31 24.5t37 46l119 -4q-4 -77 -29.5 -133t-63 -84t-83.5 -39.5t-90.5 -5.5t-83.5 24l-113 54q-47 23 -74 10.5 t-67 -68.5zM551 502h321l-124 358q-32 104 -35 115q-5 -17 -17.5 -55t-19.5 -60z" />
<glyph unicode="&#xc4;" horiz-adv-x="1423" d="M18 0l467 1249h455l465 -1249h-356l-70 199h-533l-69 -199h-359zM352 1503q0 65 45 104.5t103 39.5q65 0 107 -38.5t42 -105.5q0 -66 -42 -103.5t-107 -37.5q-58 0 -103 38.5t-45 102.5zM551 502h321l-124 358q-32 104 -35 115q-5 -17 -17.5 -55t-19.5 -60zM776 1503 q0 67 43 105.5t107 38.5q59 0 103 -39t44 -105q0 -64 -44 -102.5t-103 -38.5q-64 0 -107 38t-43 103z" />
<glyph unicode="&#xc5;" horiz-adv-x="1423" d="M18 0l467 1249h455l465 -1249h-356l-70 199h-533l-69 -199h-359zM489 1540q0 98 62.5 158.5t161.5 60.5t161 -60.5t62 -158.5q0 -95 -62 -154t-161 -59t-161.5 59t-62.5 154zM551 502h321l-124 358q-32 104 -35 115q-5 -17 -17.5 -55t-19.5 -60zM625 1540q0 -36 24.5 -58 t63.5 -22q40 0 64 21.5t24 58.5q0 41 -24 63.5t-64 22.5q-39 0 -63.5 -23t-24.5 -63z" />
<glyph unicode="&#xc6;" horiz-adv-x="2000" d="M18 0l799 1249h1077v-303h-587v-188h501v-287h-501v-174h604v-297h-938v199h-455l-121 -199h-379zM705 502h268v440z" />
<glyph unicode="&#xc7;" horiz-adv-x="1253" d="M70 621q0 310 168 479.5t469 169.5q246 0 467 -113l-101 -252q-220 66 -350 66q-315 0 -315 -350q0 -153 80.5 -246.5t213.5 -93.5q103 0 192 20t216 72l109 -248q-135 -75 -261.5 -109t-271.5 -34h-10v-43q112 -9 154 -46.5t42 -119.5q0 -85 -53.5 -139t-148.5 -54 q-115 0 -242 45l29 121q87 -18 139 -18q82 0 82 61q0 42 -22.5 58t-82.5 16h-55l27 131q-225 39 -350 201t-125 426z" />
<glyph unicode="&#xc8;" horiz-adv-x="1146" d="M119 0v1249h921v-303h-587v-188h501v-287h-501v-174h604v-297h-938zM283 1505v64l235 129l232 -307l-78 -84q-126 47 -209 89t-180 109z" />
<glyph unicode="&#xc9;" horiz-adv-x="1146" d="M119 0v1249h921v-303h-587v-188h501v-287h-501v-174h604v-297h-938zM373 1395l231 307l236 -127v-66q-97 -65 -180 -107t-207 -89z" />
<glyph unicode="&#xca;" horiz-adv-x="1146" d="M119 0v1249h921v-303h-587v-188h501v-287h-501v-174h604v-297h-938zM205 1391l266 282h188l269 -282l-82 -86l-281 170l-280 -170z" />
<glyph unicode="&#xcb;" horiz-adv-x="1146" d="M119 0v1249h921v-303h-587v-188h501v-287h-501v-174h604v-297h-938zM205 1503q0 65 44.5 104.5t102.5 39.5q65 0 107.5 -38.5t42.5 -105.5q0 -66 -42.5 -103.5t-107.5 -37.5q-58 0 -102.5 38.5t-44.5 102.5zM629 1503q0 67 42.5 105.5t106.5 38.5q59 0 103.5 -39 t44.5 -105q0 -64 -44.5 -102.5t-103.5 -38.5q-64 0 -106.5 38t-42.5 103z" />
<glyph unicode="&#xcc;" horiz-adv-x="571" d="M4 1505v64l236 129l231 -307l-78 -84q-126 47 -209 89t-180 109zM119 0v1249h334v-1249h-334z" />
<glyph unicode="&#xcd;" horiz-adv-x="571" d="M94 1395l232 307l235 -127v-66q-97 -65 -180 -107t-207 -89zM119 0v1249h334v-1249h-334z" />
<glyph unicode="&#xce;" horiz-adv-x="571" d="M-76 1391l269 282h188l268 -282l-82 -86l-280 170l-281 -170zM119 0v1249h334v-1249h-334z" />
<glyph unicode="&#xcf;" horiz-adv-x="571" d="M-74 1503q0 65 45 104.5t103 39.5q65 0 107 -38.5t42 -105.5q0 -66 -42 -103.5t-107 -37.5q-58 0 -103 38.5t-45 102.5zM119 0v1249h334v-1249h-334zM350 1503q0 67 43 105.5t107 38.5q59 0 103 -39t44 -105q0 -64 -44 -102.5t-103 -38.5q-64 0 -107 38t-43 103z" />
<glyph unicode="&#xd0;" horiz-adv-x="1347" d="M10 494v256h111v499h442q337 0 526 -169.5t189 -456.5q0 -283 -192 -453t-523 -170h-442v494h-111zM455 293h108q189 0 283 81t94 249q0 171 -91.5 252t-285.5 81h-108v-206h192v-256h-192v-201z" />
<glyph unicode="&#xd1;" horiz-adv-x="1402" d="M119 0v1249h303l528 -712v712h334v-1249h-303l-528 705v-705h-334zM348 1376q3 76 27 131t59.5 82.5t80 38t88.5 4.5t85 -24l111 -54q25 -12 42.5 -14t34.5 7.5t31 24.5t37 46l119 -4q-4 -77 -29.5 -133t-63 -84t-83.5 -39.5t-90.5 -5.5t-83.5 24l-113 54 q-47 23 -74 10.5t-67 -68.5z" />
<glyph unicode="&#xd2;" horiz-adv-x="1402" d="M70 623q0 309 167 478t465 169q297 0 464 -169.5t167 -477.5q0 -307 -167 -474t-464 -167q-298 0 -465 167t-167 474zM408 623q0 -167 76.5 -254.5t217.5 -87.5q140 0 216.5 87.5t76.5 254.5q0 171 -76.5 259.5t-216.5 88.5q-141 0 -217.5 -88.5t-76.5 -259.5zM420 1505 v64l235 129l232 -307l-80 -84q-125 48 -208 89.5t-179 108.5z" />
<glyph unicode="&#xd3;" horiz-adv-x="1402" d="M70 623q0 309 167 478t465 169q297 0 464 -169.5t167 -477.5q0 -307 -167 -474t-464 -167q-298 0 -465 167t-167 474zM408 623q0 -167 76.5 -254.5t217.5 -87.5q140 0 216.5 87.5t76.5 254.5q0 171 -76.5 259.5t-216.5 88.5q-141 0 -217.5 -88.5t-76.5 -259.5zM508 1395 l233 307l234 -127v-66q-98 -66 -180.5 -107.5t-206.5 -88.5z" />
<glyph unicode="&#xd4;" horiz-adv-x="1402" d="M70 623q0 309 167 478t465 169q297 0 464 -169.5t167 -477.5q0 -307 -167 -474t-464 -167q-298 0 -465 167t-167 474zM340 1391l268 282h187l268 -282l-80 -86l-281 170l-280 -170zM408 623q0 -167 76.5 -254.5t217.5 -87.5q140 0 216.5 87.5t76.5 254.5 q0 171 -76.5 259.5t-216.5 88.5q-141 0 -217.5 -88.5t-76.5 -259.5z" />
<glyph unicode="&#xd5;" horiz-adv-x="1402" d="M70 623q0 309 167 478t465 169q297 0 464 -169.5t167 -477.5q0 -307 -167 -474t-464 -167q-298 0 -465 167t-167 474zM348 1376q4 76 28 131t60 82.5t80 38t87.5 4.5t84.5 -24l111 -54q25 -12 43 -14t35 7t31 25t36 46l119 -4q-3 -77 -28.5 -133t-63 -84t-83.5 -39.5 t-91 -5.5t-84 24l-113 54q-23 12 -40 15t-33.5 -5t-31.5 -23.5t-36 -44.5zM408 623q0 -167 76.5 -254.5t217.5 -87.5q140 0 216.5 87.5t76.5 254.5q0 171 -76.5 259.5t-216.5 88.5q-141 0 -217.5 -88.5t-76.5 -259.5z" />
<glyph unicode="&#xd6;" horiz-adv-x="1402" d="M70 623q0 309 167 478t465 169q297 0 464 -169.5t167 -477.5q0 -307 -167 -474t-464 -167q-298 0 -465 167t-167 474zM342 1503q0 66 44 105t103 39q64 0 107 -38.5t43 -105.5q0 -65 -43 -103t-107 -38q-59 0 -103 38.5t-44 102.5zM408 623q0 -167 76.5 -254.5 t217.5 -87.5q140 0 216.5 87.5t76.5 254.5q0 171 -76.5 259.5t-216.5 88.5q-141 0 -217.5 -88.5t-76.5 -259.5zM766 1503q0 67 41.5 105.5t105.5 38.5q59 0 103.5 -39t44.5 -105q0 -64 -44.5 -102.5t-103.5 -38.5q-64 0 -105.5 37.5t-41.5 103.5z" />
<glyph unicode="&#xd7;" d="M125 733l168 166l217 -217l219 217l160 -168l-213 -215l213 -213l-166 -166l-213 213l-213 -213l-166 164l213 213z" />
<glyph unicode="&#xd8;" horiz-adv-x="1402" d="M70 621q0 310 167 479.5t465 169.5q234 0 390 -107l98 103l119 -117l-97 -100q121 -169 121 -428q0 -305 -167.5 -472t-465.5 -167q-245 0 -399 112l-106 -110l-119 116l106 113q-112 154 -112 408zM408 621q0 -91 20 -152l438 459q-67 43 -166 43q-140 0 -216 -89 t-76 -261zM526 330q67 -49 174 -49q141 0 218 86.5t77 253.5q0 103 -26 174z" />
<glyph unicode="&#xd9;" horiz-adv-x="1357" d="M109 596v653h333v-653q0 -315 236 -315q237 0 237 315v653h334v-653q0 -312 -141 -463t-430 -151q-288 0 -428.5 151.5t-140.5 462.5zM395 1505v64l236 129l233 -307l-80 -84q-124 47 -207 88.5t-182 109.5z" />
<glyph unicode="&#xda;" horiz-adv-x="1357" d="M109 596v653h333v-653q0 -315 236 -315q237 0 237 315v653h334v-653q0 -312 -141 -463t-430 -151q-288 0 -428.5 151.5t-140.5 462.5zM485 1395l232 307l235 -127v-66q-97 -65 -180 -107t-207 -89z" />
<glyph unicode="&#xdb;" horiz-adv-x="1357" d="M109 596v653h333v-653q0 -315 236 -315q237 0 237 315v653h334v-653q0 -312 -141 -463t-430 -151q-288 0 -428.5 151.5t-140.5 462.5zM317 1391l269 282h186l268 -282l-82 -86l-280 170l-281 -170z" />
<glyph unicode="&#xdc;" horiz-adv-x="1357" d="M109 596v653h333v-653q0 -315 236 -315q237 0 237 315v653h334v-653q0 -312 -141 -463t-430 -151q-288 0 -428.5 151.5t-140.5 462.5zM319 1503q0 66 44.5 105t103.5 39q64 0 105.5 -38.5t41.5 -105.5q0 -66 -41.5 -103.5t-105.5 -37.5q-59 0 -103.5 38.5t-44.5 102.5z M741 1503q0 67 43 105.5t107 38.5q59 0 103 -39t44 -105q0 -64 -44 -102.5t-103 -38.5q-64 0 -107 38t-43 103z" />
<glyph unicode="&#xdd;" horiz-adv-x="1306" d="M18 1249h351l209 -393q46 -84 75 -158q26 67 76 158l209 393h350l-469 -856v-393h-332v393zM461 1395l231 307l236 -127v-66q-97 -65 -180 -107t-207 -89z" />
<glyph unicode="&#xde;" horiz-adv-x="1212" d="M119 0v1249h334v-168h165q283 0 417 -115t134 -354q0 -237 -130 -344.5t-404 -107.5h-182v-160h-334zM453 424h180q213 0 213 188q0 185 -230 185h-163v-373z" />
<glyph unicode="&#xdf;" horiz-adv-x="1265" d="M-2 754v235l149 -2q59 146 199 228.5t332 82.5q203 0 330 -96t127 -252q0 -206 -215 -270q142 -36 213 -120t71 -224q0 -160 -110.5 -257t-292.5 -97q-137 0 -246 32l23 230q128 -13 170 -13q73 0 114 38.5t41 103.5q0 141 -266 141h-55v242h55q91 0 140.5 40.5 t49.5 114.5q0 59 -37.5 90t-107.5 31q-116 0 -179 -61t-63 -176v-795h-327v735z" />
<glyph unicode="&#xe0;" horiz-adv-x="1077" d="M49 293q0 157 103.5 232t314.5 75h197q0 86 -31.5 121t-116.5 35q-125 0 -321 -43l-50 221q166 43 260 58.5t173 15.5q216 0 310.5 -96t94.5 -312v-600h-319v117q-132 -135 -289 -135q-164 0 -245 71t-81 240zM289 1286v66l205 143l264 -338l-80 -84q-231 97 -389 213z M348 332q0 -54 36 -85.5t97 -31.5q100 0 183 86v125h-154q-87 0 -124.5 -17.5t-37.5 -76.5z" />
<glyph unicode="&#xe1;" horiz-adv-x="1077" d="M49 293q0 157 103.5 232t314.5 75h197q0 86 -31.5 121t-116.5 35q-125 0 -321 -43l-50 221q166 43 260 58.5t173 15.5q216 0 310.5 -96t94.5 -312v-600h-319v117q-132 -135 -289 -135q-164 0 -245 71t-81 240zM346 1157l262 338l205 -143v-66q-160 -118 -387 -213z M348 332q0 -54 36 -85.5t97 -31.5q100 0 183 86v125h-154q-87 0 -124.5 -17.5t-37.5 -76.5z" />
<glyph unicode="&#xe2;" horiz-adv-x="1077" d="M49 293q0 157 103.5 232t314.5 75h197q0 86 -31.5 121t-116.5 35q-125 0 -321 -43l-50 221q166 43 260 58.5t173 15.5q216 0 310.5 -96t94.5 -312v-600h-319v117q-132 -135 -289 -135q-164 0 -245 71t-81 240zM201 1161l258 287h178l258 -287l-78 -82q-52 33 -143.5 86.5 t-126.5 75.5q-31 -19 -123 -73.5t-145 -88.5zM348 332q0 -54 36 -85.5t97 -31.5q100 0 183 86v125h-154q-87 0 -124.5 -17.5t-37.5 -76.5z" />
<glyph unicode="&#xe3;" horiz-adv-x="1077" d="M49 293q0 157 103.5 232t314.5 75h197q0 86 -31.5 121t-116.5 35q-125 0 -321 -43l-50 221q166 43 260 58.5t173 15.5q216 0 310.5 -96t94.5 -312v-600h-319v117q-132 -135 -289 -135q-164 0 -245 71t-81 240zM186 1171q3 76 27 131t60 82.5t80.5 38t88 4.5t84.5 -24 l111 -53q25 -12 43 -14t35 6.5t31 24.5t36 46l119 -4q-4 -77 -29.5 -133t-63 -84t-83.5 -39.5t-90.5 -5.5t-83.5 24l-113 54q-47 23 -74 10.5t-67 -68.5zM348 332q0 -54 36 -85.5t97 -31.5q100 0 183 86v125h-154q-87 0 -124.5 -17.5t-37.5 -76.5z" />
<glyph unicode="&#xe4;" horiz-adv-x="1077" d="M49 293q0 157 103.5 232t314.5 75h197q0 86 -31.5 121t-116.5 35q-125 0 -321 -43l-50 221q166 43 260 58.5t173 15.5q216 0 310.5 -96t94.5 -312v-600h-319v117q-132 -135 -289 -135q-164 0 -245 71t-81 240zM172 1270q0 68 46.5 108.5t109.5 40.5q67 0 111 -39.5 t44 -109.5q0 -68 -44 -108t-111 -40q-62 0 -109 40.5t-47 107.5zM348 332q0 -54 36 -85.5t97 -31.5q100 0 183 86v125h-154q-87 0 -124.5 -17.5t-37.5 -76.5zM598 1270q0 69 44 109t110 40q63 0 109 -40.5t46 -108.5q0 -67 -46.5 -107.5t-108.5 -40.5q-66 0 -110 40t-44 108 z" />
<glyph unicode="&#xe5;" horiz-adv-x="1077" d="M49 293q0 157 103.5 232t314.5 75h197q0 86 -31.5 121t-116.5 35q-125 0 -321 -43l-50 221q166 43 260 58.5t173 15.5q216 0 310.5 -96t94.5 -312v-600h-319v117q-132 -135 -289 -135q-164 0 -245 71t-81 240zM334 1305q0 98 61.5 158.5t161.5 60.5q99 0 161 -60.5 t62 -158.5q0 -95 -62.5 -154t-162.5 -59q-98 0 -159.5 59t-61.5 154zM348 332q0 -54 36 -85.5t97 -31.5q100 0 183 86v125h-154q-87 0 -124.5 -17.5t-37.5 -76.5zM469 1305q0 -36 24.5 -58t61.5 -22q40 0 64 21.5t24 58.5q0 41 -23.5 63.5t-62.5 22.5t-63.5 -23t-24.5 -63z " />
<glyph unicode="&#xe6;" horiz-adv-x="1687" d="M49 293q0 299 418 299h190q0 90 -29 131t-112 41q-125 0 -321 -43l-50 213q166 43 260 58.5t173 15.5q186 0 276 -84q125 84 311 84q213 0 336.5 -122.5t124.5 -353.5q0 -65 -8 -133h-639q34 -163 199 -163q100 0 179 20.5t171 69.5l92 -185q-111 -84 -221 -121.5 t-236 -37.5q-231 0 -364 127q-189 -127 -383 -127q-193 0 -280 69.5t-87 241.5zM350 315q0 -46 37 -73t105 -27q93 0 208 47q-24 71 -32 137h-11h-147q-92 0 -126 -16t-34 -68zM977 594h369q-12 186 -181 186q-162 0 -188 -186z" />
<glyph unicode="&#xe7;" horiz-adv-x="1007" d="M59 489q0 126 35.5 225.5t100 163.5t152 97t192.5 33q220 0 405 -109l-90 -207q-132 56 -270 56q-97 0 -150 -67.5t-53 -191.5q0 -119 52 -183t149 -64q157 0 301 75l96 -186q-97 -76 -193.5 -111t-226.5 -38v-43q113 -9 155 -46.5t42 -119.5q0 -85 -54 -139t-149 -54 q-115 0 -242 45l29 121q87 -18 139 -18q82 0 82 61q0 42 -22.5 58t-81.5 16h-56l27 129q-166 32 -267.5 160t-101.5 337z" />
<glyph unicode="&#xe8;" horiz-adv-x="1083" d="M59 487q0 254 133 387.5t369 133.5q213 0 336.5 -122.5t124.5 -353.5q0 -65 -8 -133h-639q34 -163 198 -163q100 0 179.5 20.5t171.5 69.5l92 -185q-111 -84 -221 -121.5t-236 -37.5q-233 0 -366.5 129t-133.5 376zM287 1288v64l205 145l262 -338l-80 -84 q-218 89 -387 213zM373 594h368q-12 186 -180 186q-162 0 -188 -186z" />
<glyph unicode="&#xe9;" horiz-adv-x="1083" d="M59 487q0 254 133 387.5t369 133.5q213 0 336.5 -122.5t124.5 -353.5q0 -65 -8 -133h-639q34 -163 198 -163q100 0 179.5 20.5t171.5 69.5l92 -185q-111 -84 -221 -121.5t-236 -37.5q-233 0 -366.5 129t-133.5 376zM342 1159l264 338l203 -145v-64q-163 -122 -387 -213z M373 594h368q-12 186 -180 186q-162 0 -188 -186z" />
<glyph unicode="&#xea;" horiz-adv-x="1083" d="M59 487q0 254 133 387.5t369 133.5q213 0 336.5 -122.5t124.5 -353.5q0 -65 -8 -133h-639q34 -163 198 -163q100 0 179.5 20.5t171.5 69.5l92 -185q-111 -84 -221 -121.5t-236 -37.5q-233 0 -366.5 129t-133.5 376zM197 1163l258 285h178l260 -285l-78 -82 q-173 103 -270 162q-47 -29 -137 -82t-134 -80zM373 594h368q-12 186 -180 186q-162 0 -188 -186z" />
<glyph unicode="&#xeb;" horiz-adv-x="1083" d="M59 487q0 254 133 387.5t369 133.5q213 0 336.5 -122.5t124.5 -353.5q0 -65 -8 -133h-639q34 -163 198 -163q100 0 179.5 20.5t171.5 69.5l92 -185q-111 -84 -221 -121.5t-236 -37.5q-233 0 -366.5 129t-133.5 376zM168 1270q0 68 46.5 108.5t109.5 40.5q67 0 111 -39.5 t44 -109.5q0 -68 -44 -108t-111 -40q-62 0 -109 40.5t-47 107.5zM373 594h368q-12 186 -180 186q-162 0 -188 -186zM594 1270q0 69 44 109t110 40q63 0 109 -40.5t46 -108.5q0 -67 -46.5 -107.5t-108.5 -40.5q-66 0 -110 40t-44 108z" />
<glyph unicode="&#xec;" horiz-adv-x="550" d="M25 1286v66l204 143l265 -338l-80 -84q-231 97 -389 213zM113 0v989h327v-989h-327z" />
<glyph unicode="&#xed;" horiz-adv-x="550" d="M82 1157l262 338l205 -143v-66q-160 -118 -387 -213zM113 0v989h327v-989h-327z" />
<glyph unicode="&#xee;" horiz-adv-x="550" d="M-66 1161l261 287h178l258 -287l-78 -82q-52 33 -143.5 86.5t-126.5 75.5q-34 -21 -125 -75t-144 -87zM113 0v989h327v-989h-327z" />
<glyph unicode="&#xef;" horiz-adv-x="550" d="M-92 1270q0 68 46 108.5t109 40.5q67 0 111.5 -39.5t44.5 -109.5q0 -68 -44.5 -108t-111.5 -40q-62 0 -108.5 40.5t-46.5 107.5zM113 0v989h327v-989h-327zM334 1270q0 70 43.5 109.5t109.5 39.5q63 0 109.5 -40.5t46.5 -108.5q0 -67 -47 -107.5t-109 -40.5 q-65 0 -109 40t-44 108z" />
<glyph unicode="&#xf0;" horiz-adv-x="1148" d="M59 489q0 102 33.5 187.5t97.5 150t165.5 100.5t230.5 36q-56 59 -117 112l-205 -84l-41 109l142 57q-48 38 -123 86v43l319 117q23 -22 64 -60t59 -55l172 70l39 -109l-121 -49q164 -170 240 -330t76 -381q0 -242 -136 -374.5t-381 -132.5q-244 0 -379 132.5t-135 374.5 zM381 473q0 -122 48 -176.5t144 -54.5q97 0 145 57.5t48 189.5q0 153 -51 277q-102 -3 -166.5 -20t-102 -54t-51.5 -88t-14 -131z" />
<glyph unicode="&#xf1;" horiz-adv-x="1159" d="M100 0v989h328v-129q164 148 326 148q160 0 235.5 -90.5t75.5 -288.5v-629h-328v537q0 94 -23 129.5t-91 35.5q-107 0 -195 -112v-590h-328zM229 1171q3 76 27 131t60 82.5t80.5 38t88 4.5t84.5 -24l111 -53q25 -12 43 -14t35 6.5t31 24.5t36 46l119 -4 q-4 -77 -29.5 -133t-63 -84t-83.5 -39.5t-90.5 -5.5t-83.5 24l-113 54q-47 23 -74 10.5t-67 -68.5z" />
<glyph unicode="&#xf2;" horiz-adv-x="1148" d="M59 489q0 248 135 383.5t379 135.5q245 0 381 -135.5t136 -383.5q0 -242 -136 -374.5t-381 -132.5q-244 0 -379 132.5t-135 374.5zM324 1288v64l204 145l263 -338l-80 -84q-218 89 -387 213zM381 489q0 -133 47.5 -190t144.5 -57t146 57.5t49 189.5q0 138 -49 198.5 t-146 60.5q-96 0 -144 -60.5t-48 -198.5z" />
<glyph unicode="&#xf3;" horiz-adv-x="1148" d="M59 489q0 248 135 383.5t379 135.5q245 0 381 -135.5t136 -383.5q0 -242 -136 -374.5t-381 -132.5q-244 0 -379 132.5t-135 374.5zM379 1159l264 338l203 -145v-64q-163 -122 -387 -213zM381 489q0 -133 47.5 -190t144.5 -57t146 57.5t49 189.5q0 138 -49 198.5 t-146 60.5q-96 0 -144 -60.5t-48 -198.5z" />
<glyph unicode="&#xf4;" horiz-adv-x="1148" d="M59 489q0 248 135 383.5t379 135.5q245 0 381 -135.5t136 -383.5q0 -242 -136 -374.5t-381 -132.5q-244 0 -379 132.5t-135 374.5zM233 1163l259 285h178l260 -285l-78 -82q-173 103 -270 162q-47 -29 -137 -82t-134 -80zM381 489q0 -133 47.5 -190t144.5 -57t146 57.5 t49 189.5q0 138 -49 198.5t-146 60.5q-96 0 -144 -60.5t-48 -198.5z" />
<glyph unicode="&#xf5;" horiz-adv-x="1148" d="M59 489q0 248 135 383.5t379 135.5q245 0 381 -135.5t136 -383.5q0 -242 -136 -374.5t-381 -132.5q-244 0 -379 132.5t-135 374.5zM219 1155q4 94 39 155t86.5 82t106.5 19t108 -25l111 -53q25 -12 42.5 -14t34.5 7.5t31 24.5t37 46l119 -4q-4 -77 -29.5 -133t-63 -84 t-83.5 -39.5t-90.5 -5.5t-83.5 24l-113 53q-47 23 -74 11t-67 -68zM381 489q0 -133 47.5 -190t144.5 -57t146 57.5t49 189.5q0 138 -49 198.5t-146 60.5q-96 0 -144 -60.5t-48 -198.5z" />
<glyph unicode="&#xf6;" horiz-adv-x="1148" d="M59 489q0 248 135 383.5t379 135.5q245 0 381 -135.5t136 -383.5q0 -242 -136 -374.5t-381 -132.5q-244 0 -379 132.5t-135 374.5zM207 1272q0 68 45 107.5t108 39.5q67 0 111.5 -39t44.5 -108q0 -70 -44.5 -109t-111.5 -39q-62 0 -107.5 39.5t-45.5 108.5zM381 489 q0 -133 47.5 -190t144.5 -57t146 57.5t49 189.5q0 138 -49 198.5t-146 60.5q-96 0 -144 -60.5t-48 -198.5zM631 1272q0 70 44 108.5t111 38.5q63 0 109.5 -39.5t46.5 -107.5t-46.5 -108t-109.5 -40q-67 0 -111 39t-44 109z" />
<glyph unicode="&#xf7;" horiz-adv-x="1015" d="M92 385v231h832v-231h-832zM395 172q0 50 32 82.5t83 32.5q52 0 84.5 -32.5t32.5 -82.5t-32.5 -83.5t-84.5 -33.5q-50 0 -82.5 33.5t-32.5 83.5zM395 831q0 50 32.5 83.5t82.5 33.5q52 0 84.5 -33.5t32.5 -83.5t-32.5 -82t-84.5 -32q-51 0 -83 32t-32 82z" />
<glyph unicode="&#xf8;" horiz-adv-x="1122" d="M57 489q0 248 135 383.5t379 135.5q189 0 316 -82l76 78l86 -84l-72 -74q110 -134 110 -357q0 -242 -135.5 -374.5t-380.5 -132.5q-202 0 -331 94l-76 -80l-86 86l76 78q-97 129 -97 329zM379 489q0 -47 6 -88l301 316q-48 31 -115 31q-96 0 -144 -60.5t-48 -198.5z M440 285q43 -43 131 -43q97 0 146 57.5t49 189.5q0 71 -12 121z" />
<glyph unicode="&#xf9;" horiz-adv-x="1165" d="M94 362v627h328v-543q0 -93 24 -130t91 -37q106 0 196 114v596h328v-989h-328v117q-123 -81 -163 -100q-74 -35 -154 -35q-160 0 -241 91.5t-81 288.5zM332 1286v66l205 143l262 -338l-78 -84q-228 94 -389 213z" />
<glyph unicode="&#xfa;" horiz-adv-x="1165" d="M94 362v627h328v-543q0 -93 24 -130t91 -37q106 0 196 114v596h328v-989h-328v117q-123 -81 -163 -100q-74 -35 -154 -35q-160 0 -241 91.5t-81 288.5zM389 1157l262 338l205 -143v-66q-161 -119 -389 -213z" />
<glyph unicode="&#xfb;" horiz-adv-x="1165" d="M94 362v627h328v-543q0 -93 24 -130t91 -37q106 0 196 114v596h328v-989h-328v117q-123 -81 -163 -100q-74 -35 -154 -35q-160 0 -241 91.5t-81 288.5zM242 1161l260 287h178l258 -287l-78 -82q-52 33 -143.5 86.5t-126.5 75.5q-37 -22 -128 -75.5t-143 -86.5z" />
<glyph unicode="&#xfc;" horiz-adv-x="1165" d="M94 362v627h328v-543q0 -93 24 -130t91 -37q106 0 196 114v596h328v-989h-328v117q-123 -81 -163 -100q-74 -35 -154 -35q-160 0 -241 91.5t-81 288.5zM215 1270q0 68 46.5 108.5t109.5 40.5q66 0 109.5 -39.5t43.5 -109.5q0 -68 -44 -108t-109 -40q-62 0 -109 40.5 t-47 107.5zM639 1270q0 70 44.5 109.5t111.5 39.5q63 0 109 -40.5t46 -108.5q0 -67 -46.5 -107.5t-108.5 -40.5q-67 0 -111.5 40t-44.5 108z" />
<glyph unicode="&#xfd;" horiz-adv-x="1134" d="M2 987h336l174 -452l49 -158q61 125 110.5 265t112.5 347l344 -2q-4 -13 -30 -87.5t-32.5 -92t-30 -84t-32 -89t-30 -80t-33 -84.5t-31 -74.5t-34 -77.5t-32.5 -66.5t-36 -67.5q-111 -199 -247 -323.5t-337 -192.5l-106 244q164 73 250 162zM375 1157l262 338l205 -143 v-66q-161 -119 -389 -213z" />
<glyph unicode="&#xfe;" horiz-adv-x="1163" d="M100 -315v1564h328v-352q82 56 153 83.5t152 27.5q185 0 278 -121.5t93 -382.5q0 -135 -31.5 -237.5t-87 -163.5t-124.5 -91t-150 -30q-96 0 -154.5 25t-128.5 83v-405h-328zM428 330q42 -42 82 -61t96 -19q82 0 128 62t46 192q0 121 -42 176t-124 55q-94 0 -186 -86 v-319z" />
<glyph unicode="&#xff;" horiz-adv-x="1134" d="M2 987h336l174 -452l49 -158q61 125 110.5 265t112.5 347l344 -2q-4 -13 -30 -87.5t-32.5 -92t-30 -84t-32 -89t-30 -80t-33 -84.5t-31 -74.5t-34 -77.5t-32.5 -66.5t-36 -67.5q-111 -199 -247 -323.5t-337 -192.5l-106 244q164 73 250 162zM201 1270q0 68 46 108.5 t109 40.5q66 0 110 -40t44 -109q0 -68 -44 -108t-110 -40q-62 0 -108.5 40.5t-46.5 107.5zM625 1270q0 70 44 109.5t111 39.5q63 0 109.5 -40.5t46.5 -108.5q0 -67 -47 -107.5t-109 -40.5q-67 0 -111 40t-44 108z" />
<glyph unicode="&#x100;" horiz-adv-x="1423" d="M18 0l467 1249h455l465 -1249h-356l-70 199h-533l-69 -199h-359zM406 1380v224h614v-224h-614zM551 502h321l-124 358q-32 104 -35 115q-5 -17 -17.5 -55t-19.5 -60z" />
<glyph unicode="&#x101;" horiz-adv-x="1077" d="M49 293q0 157 103.5 232t314.5 75h197q0 86 -31.5 121t-116.5 35q-125 0 -321 -43l-50 221q166 43 260 58.5t173 15.5q216 0 310.5 -96t94.5 -312v-600h-319v117q-132 -135 -289 -135q-164 0 -245 71t-81 240zM225 1153v231h631v-231h-631zM348 332q0 -54 36 -85.5 t97 -31.5q100 0 183 86v125h-154q-87 0 -124.5 -17.5t-37.5 -76.5z" />
<glyph unicode="&#x102;" horiz-adv-x="1423" d="M18 0l467 1249h455l465 -1249h-356l-70 199h-533l-69 -199h-359zM403 1622h183q3 -43 36 -71.5t91 -28.5q60 0 93.5 29t35.5 71h182q0 -135 -78.5 -207t-232.5 -72q-152 0 -231 72t-79 207zM551 502h321l-124 358q-32 104 -35 115q-5 -17 -17.5 -55t-19.5 -60z" />
<glyph unicode="&#x103;" horiz-adv-x="1077" d="M49 293q0 157 103.5 232t314.5 75h197q0 86 -31.5 121t-116.5 35q-125 0 -321 -43l-50 221q166 43 260 58.5t173 15.5q216 0 310.5 -96t94.5 -312v-600h-319v117q-132 -135 -289 -135q-164 0 -245 71t-81 240zM244 1407h184q0 -54 33.5 -85.5t93.5 -31.5q61 0 95 32 t34 85h182q0 -293 -311 -293t-311 293zM348 332q0 -54 36 -85.5t97 -31.5q100 0 183 86v125h-154q-87 0 -124.5 -17.5t-37.5 -76.5z" />
<glyph unicode="&#x104;" horiz-adv-x="1423" d="M18 0l467 1249h455l465 -1249h-109q-116 -8 -178.5 -35.5t-62.5 -73.5q0 -37 33 -59t90 -22q31 0 161 20l33 -156q-141 -55 -282 -55q-110 0 -176 51t-66 135q0 73 50 133.5t140 90.5l-59 170h-533l-69 -199h-359zM551 502h321l-124 358q-32 104 -35 115 q-5 -17 -17.5 -55t-19.5 -60z" />
<glyph unicode="&#x105;" horiz-adv-x="1077" d="M49 293q0 157 103.5 232t314.5 75h197q0 86 -31.5 121t-116.5 35q-125 0 -321 -43l-48 221q162 43 255.5 58.5t175.5 15.5q217 0 311 -96t94 -312v-600h-123q-83 -8 -130.5 -36t-47.5 -73q0 -37 33.5 -59t91.5 -22q30 0 160 20l32 -156q-141 -55 -282 -55q-110 0 -176 51 t-66 135q0 74 50.5 134.5t138.5 91.5v86q-132 -135 -289 -135q-164 0 -245 71t-81 240zM348 332q0 -54 36 -85.5t97 -31.5q100 0 183 86v125h-154q-87 0 -124.5 -17.5t-37.5 -76.5z" />
<glyph unicode="&#x106;" horiz-adv-x="1253" d="M70 623q0 309 168 478t469 169q251 0 467 -113l-101 -250q-223 64 -350 64q-156 0 -235.5 -87.5t-79.5 -260.5q0 -154 80.5 -248t213.5 -94q103 0 192 20t216 72l109 -248q-135 -75 -261.5 -109t-271.5 -34q-287 0 -451.5 167.5t-164.5 473.5zM489 1411l234 307l233 -129 v-63q-98 -68 -181 -110.5t-206 -88.5z" />
<glyph unicode="&#x107;" horiz-adv-x="1007" d="M59 489q0 126 35.5 225.5t100 163.5t152 97t192.5 33q220 0 405 -109l-90 -207q-132 56 -270 56q-97 0 -150 -67.5t-53 -191.5q0 -119 52 -183t149 -64q157 0 301 75l96 -186q-101 -79 -203 -114t-241 -35q-99 0 -185 32.5t-151 94.5t-102.5 159.5t-37.5 220.5zM338 1159 l264 338l203 -145v-64q-163 -122 -387 -213z" />
<glyph unicode="&#x10a;" horiz-adv-x="1253" d="M70 623q0 309 168 478t469 169q251 0 467 -113l-101 -250q-223 64 -350 64q-156 0 -235.5 -87.5t-79.5 -260.5q0 -154 80.5 -248t213.5 -94q103 0 192 20t216 72l109 -248q-135 -75 -261.5 -109t-271.5 -34q-287 0 -451.5 167.5t-164.5 473.5zM520 1518q0 74 46.5 115.5 t117.5 41.5q65 0 113.5 -42.5t48.5 -114.5q0 -70 -49 -112t-113 -42q-70 0 -117 41.5t-47 112.5z" />
<glyph unicode="&#x10b;" horiz-adv-x="1007" d="M59 489q0 126 35.5 225.5t100 163.5t152 97t192.5 33q220 0 405 -109l-90 -207q-132 56 -270 56q-97 0 -150 -67.5t-53 -191.5q0 -119 52 -183t149 -64q157 0 301 75l96 -186q-101 -79 -203 -114t-241 -35q-99 0 -185 32.5t-151 94.5t-102.5 159.5t-37.5 220.5zM362 1278 q0 77 48.5 121.5t121.5 44.5q68 0 119 -45t51 -121q0 -73 -51.5 -117.5t-118.5 -44.5q-73 0 -121.5 44t-48.5 118z" />
<glyph unicode="&#x10c;" horiz-adv-x="1253" d="M70 623q0 309 168 478t469 169q251 0 467 -113l-101 -250q-223 64 -350 64q-156 0 -235.5 -87.5t-79.5 -260.5q0 -154 80.5 -248t213.5 -94q103 0 192 20t216 72l109 -248q-135 -75 -261.5 -109t-271.5 -34q-287 0 -451.5 167.5t-164.5 473.5zM322 1618l81 84l281 -170 l281 170l79 -84l-268 -283h-186z" />
<glyph unicode="&#x10d;" horiz-adv-x="1007" d="M59 489q0 126 35.5 225.5t100 163.5t152 97t192.5 33q220 0 405 -109l-90 -207q-132 56 -270 56q-97 0 -150 -67.5t-53 -191.5q0 -119 52 -183t149 -64q157 0 301 75l96 -186q-101 -79 -203 -114t-241 -35q-99 0 -185 32.5t-151 94.5t-102.5 159.5t-37.5 220.5zM184 1376 l78 82q55 -34 150 -91.5t120 -72.5q30 18 123.5 74t147.5 90l78 -82l-258 -286h-179z" />
<glyph unicode="&#x10e;" horiz-adv-x="1345" d="M119 0v1249h442q337 0 526 -169.5t189 -456.5q0 -283 -192 -453t-523 -170h-442zM252 1602l80 86l280 -170l281 170l82 -86l-268 -283h-189zM453 293h108q189 0 283 81t94 249q0 171 -91.5 252t-285.5 81h-108v-663z" />
<glyph unicode="&#x10f;" horiz-adv-x="1173" d="M59 504q0 257 98 380.5t275 123.5q94 0 170 -31.5t146 -104.5v449h327v-1321h-327v111q-48 -47 -80 -70.5t-86.5 -41t-128.5 -17.5q-80 0 -149 30t-125 91t-88 164t-32 237zM381 504q0 -130 47.5 -192t130.5 -62q65 0 107.5 25.5t81.5 80.5v267q-83 112 -199 112 q-168 0 -168 -231zM1153 944l6 377h232v-25q-15 -195 -93 -352h-145z" />
<glyph unicode="&#x110;" horiz-adv-x="1341" d="M10 494v256h105v499h442q337 0 526 -169.5t189 -456.5q0 -283 -192 -453t-523 -170h-442v494h-105zM449 293h108q189 0 283 81t94 249q0 171 -91.5 252t-285.5 81h-108v-206h198v-256h-198v-201z" />
<glyph unicode="&#x111;" horiz-adv-x="1179" d="M59 504q0 257 98 380.5t275 123.5q94 0 170 -31.5t146 -104.5v189h-240v149h240v111h327v-111h70v-149h-70v-1061h-327v111q-48 -47 -80 -70.5t-86.5 -41t-128.5 -17.5q-80 0 -149 30t-125 91t-88 164t-32 237zM381 504q0 -130 47.5 -192t130.5 -62q65 0 107.5 25.5 t81.5 80.5v267q-83 112 -199 112q-168 0 -168 -231z" />
<glyph unicode="&#x112;" horiz-adv-x="1146" d="M119 0v1249h921v-303h-587v-188h501v-287h-501v-174h604v-297h-938zM258 1380v224h614v-224h-614z" />
<glyph unicode="&#x113;" horiz-adv-x="1083" d="M59 487q0 254 133 387.5t369 133.5q213 0 336.5 -122.5t124.5 -353.5q0 -65 -8 -133h-639q34 -163 198 -163q100 0 179.5 20.5t171.5 69.5l92 -185q-111 -84 -221 -121.5t-236 -37.5q-233 0 -366.5 129t-133.5 376zM236 1122v232h630v-232h-630zM373 594h368 q-12 186 -180 186q-162 0 -188 -186z" />
<glyph unicode="&#x116;" horiz-adv-x="1146" d="M119 0v1249h921v-303h-587v-188h501v-287h-501v-174h604v-297h-938zM403 1503q0 73 46 114.5t116 41.5q66 0 115 -42.5t49 -113.5t-49 -113t-115 -42q-70 0 -116 41t-46 114z" />
<glyph unicode="&#x117;" horiz-adv-x="1083" d="M59 487q0 254 133 387.5t369 133.5q213 0 336.5 -122.5t124.5 -353.5q0 -65 -8 -133h-639q34 -163 198 -163q100 0 179.5 20.5t171.5 69.5l92 -185q-111 -84 -221 -121.5t-236 -37.5q-233 0 -366.5 129t-133.5 376zM373 594h368q-12 186 -180 186q-162 0 -188 -186z M373 1278q0 76 49 120t123 44q67 0 118.5 -45t51.5 -119t-51.5 -119t-118.5 -45q-74 0 -123 44t-49 120z" />
<glyph unicode="&#x118;" horiz-adv-x="1146" d="M119 0v1249h921v-303h-587v-188h501v-287h-501v-174h604v-297h-148q-83 -8 -130.5 -36t-47.5 -73q0 -37 33.5 -59t91.5 -22q30 0 160 20l33 -156q-138 -55 -283 -55q-108 0 -174 51.5t-66 134.5q0 122 121 195h-528z" />
<glyph unicode="&#x119;" horiz-adv-x="1083" d="M59 487q0 254 133 387.5t369 133.5q213 0 336.5 -122.5t124.5 -353.5q0 -65 -8 -133h-639q34 -163 198 -163q100 0 179.5 20.5t171.5 69.5l92 -185q-172 -131 -367 -155q-48 -12 -74 -36.5t-26 -58.5q0 -37 33 -59t90 -22q32 0 162 20l32 -156q-141 -55 -282 -55 q-110 0 -176 51t-66 135q0 54 28 102.5t79 82.5q-184 30 -287 156t-103 341zM373 594h368q-12 186 -180 186q-162 0 -188 -186z" />
<glyph unicode="&#x11a;" horiz-adv-x="1146" d="M119 0v1249h921v-303h-587v-188h501v-287h-501v-174h604v-297h-938zM205 1602l80 86l280 -170l281 170l82 -86l-269 -283h-188z" />
<glyph unicode="&#x11b;" horiz-adv-x="1083" d="M59 487q0 254 133 387.5t369 133.5q213 0 336.5 -122.5t124.5 -353.5q0 -65 -8 -133h-639q34 -163 198 -163q100 0 179.5 20.5t171.5 69.5l92 -185q-111 -84 -221 -121.5t-236 -37.5q-233 0 -366.5 129t-133.5 376zM188 1376l78 82q54 -34 147.5 -90t123.5 -74 q25 15 120 72.5t150 91.5l78 -82l-258 -286h-178zM373 594h368q-12 186 -180 186q-162 0 -188 -186z" />
<glyph unicode="&#x11e;" horiz-adv-x="1378" d="M70 623q0 291 170.5 469t451.5 178q125 0 270 -28.5t271 -84.5l-84 -248q-132 36 -228.5 53t-197.5 17q-142 0 -228.5 -98t-86.5 -258q0 -167 76 -257t212 -90q173 0 303 48v125h-319v262h608v-574q-166 -83 -308.5 -119t-297.5 -36q-285 0 -448.5 167.5t-163.5 473.5z M377 1622h182q3 -43 36 -71.5t91 -28.5q60 0 93.5 29t35.5 71h182q0 -135 -78.5 -207t-232.5 -72q-152 0 -230.5 72t-78.5 207z" />
<glyph unicode="&#x11f;" horiz-adv-x="1163" d="M59 518q0 251 94 370.5t279 119.5q162 0 313 -129v110h328v-817q0 -277 -124.5 -402.5t-377.5 -125.5q-111 0 -231.5 23t-204.5 61l43 223q234 -60 348 -60t166.5 63.5t52.5 217.5v6q-62 -76 -127.5 -105.5t-179.5 -29.5q-177 0 -278 120.5t-101 354.5zM291 1407h182 q0 -52 33.5 -83.5t93.5 -31.5q62 0 95.5 31.5t33.5 83.5h182q0 -293 -311 -293q-309 0 -309 293zM381 518q0 -120 45.5 -171.5t132.5 -51.5q65 0 106 25.5t80 82.5v220q-83 112 -196 112q-86 0 -127 -49.5t-41 -167.5z" />
<glyph unicode="&#x120;" horiz-adv-x="1378" d="M70 623q0 291 170.5 469t451.5 178q125 0 270 -28.5t271 -84.5l-84 -248q-132 36 -228.5 53t-197.5 17q-142 0 -228.5 -98t-86.5 -258q0 -167 76 -257t212 -90q173 0 303 48v125h-319v262h608v-574q-166 -83 -308.5 -119t-297.5 -36q-285 0 -448.5 167.5t-163.5 473.5z M524 1503q0 73 46 114.5t116 41.5q66 0 115 -42.5t49 -113.5t-49 -113t-115 -42q-70 0 -116 41t-46 114z" />
<glyph unicode="&#x121;" horiz-adv-x="1163" d="M59 518q0 251 94 370.5t279 119.5q162 0 313 -129v110h328v-817q0 -277 -124.5 -402.5t-377.5 -125.5q-111 0 -231.5 23t-204.5 61l43 223q234 -60 348 -60t166.5 63.5t52.5 217.5v6q-62 -76 -127.5 -105.5t-179.5 -29.5q-177 0 -278 120.5t-101 354.5zM381 518 q0 -120 45.5 -171.5t132.5 -51.5q65 0 106 25.5t80 82.5v220q-83 112 -196 112q-86 0 -127 -49.5t-41 -167.5zM416 1278q0 77 48.5 121.5t121.5 44.5q68 0 119 -45t51 -121q0 -73 -51.5 -117.5t-118.5 -44.5q-73 0 -121.5 44t-48.5 118z" />
<glyph unicode="&#x122;" horiz-adv-x="1378" d="M70 623q0 291 170.5 469t451.5 178q125 0 270 -28.5t271 -84.5l-84 -248q-132 36 -228.5 53t-197.5 17q-142 0 -228.5 -98t-86.5 -258q0 -167 76 -257t212 -90q173 0 303 48v125h-319v262h608v-574q-166 -83 -308.5 -119t-297.5 -36q-285 0 -448.5 167.5t-163.5 473.5z M565 -207q0 56 35.5 92.5t91.5 36.5q58 0 93.5 -39.5t35.5 -99.5q0 -90 -61 -162.5t-162 -101.5l-31 80q68 45 84 73q-39 12 -62.5 45.5t-23.5 75.5z" />
<glyph unicode="&#x123;" horiz-adv-x="1163" d="M59 518q0 251 94 370.5t279 119.5q162 0 313 -129v110h328v-817q0 -277 -124.5 -402.5t-377.5 -125.5q-111 0 -231.5 23t-204.5 61l43 223q234 -60 348 -60t166.5 63.5t52.5 217.5v6q-62 -76 -127.5 -105.5t-179.5 -29.5q-177 0 -278 120.5t-101 354.5zM381 518 q0 -120 45.5 -171.5t132.5 -51.5q65 0 106 25.5t80 82.5v220q-83 112 -196 112q-86 0 -127 -49.5t-41 -167.5zM428 1262q0 96 59 164.5t193 125.5l37 -88q-65 -40 -96 -78q46 -15 73 -52.5t27 -86.5q0 -62 -41 -103.5t-105 -41.5t-105.5 46t-41.5 114z" />
<glyph unicode="&#x126;" horiz-adv-x="1396" d="M39 866v219h90v164h332v-164h475v164h334v-164h88v-219h-88v-866h-334v416h-475v-416h-332v866h-90zM461 705h475v161h-475v-161z" />
<glyph unicode="&#x127;" horiz-adv-x="1155" d="M31 1061v149h65v111h328v-111h244v-149h-244v-223q78 88 156 129t170 41q160 0 235.5 -90.5t75.5 -288.5v-629h-328v516q0 94 -23.5 130t-91.5 36q-104 0 -194 -115v-567h-328v1061h-65z" />
<glyph unicode="&#x12a;" horiz-adv-x="571" d="M-20 1380v224h614v-224h-614zM119 0v1249h334v-1249h-334z" />
<glyph unicode="&#x12b;" horiz-adv-x="550" d="M-41 1153v231h633v-231h-633zM113 0v989h327v-989h-327z" />
<glyph unicode="&#x12e;" horiz-adv-x="571" d="M4 -195q0 58 32 108.5t89 86.5h-6v1249h334v-1249h-64q-84 -8 -131 -36t-47 -73q0 -37 33 -59t90 -22q32 0 162 20l32 -156q-141 -55 -282 -55q-110 0 -176 51t-66 135z" />
<glyph unicode="&#x12f;" horiz-adv-x="550" d="M12 -195q0 58 32 109t91 86h-22v989h327v-989h-43q-83 -8 -130.5 -36t-47.5 -73q0 -37 33.5 -59t91.5 -22q30 0 160 20l33 -156q-138 -55 -283 -55q-110 0 -176 51t-66 135zM104 1278q0 76 49 120t123 44q67 0 118.5 -45t51.5 -119t-51.5 -119t-118.5 -45q-74 0 -123 44 t-49 120z" />
<glyph unicode="&#x130;" horiz-adv-x="571" d="M119 0v1249h334v-1249h-334zM125 1503q0 73 46 114.5t116 41.5q66 0 115 -42.5t49 -113.5t-49 -113t-115 -42q-70 0 -116 41t-46 114z" />
<glyph unicode="&#x131;" horiz-adv-x="550" d="M113 0v989h327v-989h-327z" />
<glyph unicode="&#x132;" horiz-adv-x="1564" d="M119 0v1249h334v-1249h-334zM594 92l76 242q158 -49 266 -49q85 0 126.5 50t41.5 161v753h334v-753q0 -267 -100.5 -390.5t-323.5 -123.5q-198 0 -420 110z" />
<glyph unicode="&#x133;" horiz-adv-x="1060" d="M92 1278q0 79 53.5 122.5t130.5 43.5t131 -43.5t54 -122.5q0 -80 -54 -124t-131 -44t-130.5 44t-53.5 124zM113 0v989h327v-989h-327zM492 -143q79 42 104 97.5t25 164.5v870h327v-870q0 -203 -87 -317t-304 -162zM598 1278q0 79 53.5 122.5t130.5 43.5t131 -43.5 t54 -122.5q0 -80 -54 -124t-131 -44t-130.5 44t-53.5 124z" />
<glyph unicode="&#x136;" horiz-adv-x="1320" d="M119 0v1249h334v-553l467 553h360v-22l-449 -535l469 -669v-23h-376l-310 430l-161 -192v-238h-334zM537 -207q0 56 35.5 92.5t93.5 36.5q56 0 91.5 -40t35.5 -99q0 -89 -61.5 -162t-162.5 -102l-30 80q67 42 84 73q-39 12 -62.5 45.5t-23.5 75.5z" />
<glyph unicode="&#x137;" horiz-adv-x="1142" d="M100 0v1321h328v-676l322 344h366v-22l-375 -400l383 -544v-23h-366l-232 326l-98 -109v-217h-328zM446 -207q0 56 35.5 92.5t93.5 36.5q56 0 91.5 -40t35.5 -99q0 -90 -60.5 -162.5t-162.5 -101.5l-28 80q64 42 81 73q-38 12 -62 46t-24 75z" />
<glyph unicode="&#x139;" horiz-adv-x="1064" d="M117 1395l233 307l234 -127v-66q-98 -66 -180.5 -107.5t-206.5 -88.5zM119 0v1249h334v-946h557v-303h-891z" />
<glyph unicode="&#x13a;" horiz-adv-x="528" d="M90 1491l264 338l203 -146v-63q-163 -122 -387 -213zM100 0v1321h328v-1321h-328z" />
<glyph unicode="&#x13b;" horiz-adv-x="1064" d="M119 0v1249h334v-946h557v-303h-891zM416 -207q0 56 35.5 92.5t91.5 36.5q58 0 93.5 -39.5t35.5 -99.5q0 -90 -62 -162.5t-164 -101.5l-28 80q64 42 84 73q-39 12 -62.5 45.5t-23.5 75.5z" />
<glyph unicode="&#x13c;" horiz-adv-x="528" d="M100 0v1321h328v-1321h-328zM137 -207q0 56 35.5 92.5t93.5 36.5q56 0 91.5 -40t35.5 -99q0 -90 -60.5 -162.5t-162.5 -101.5l-29 80q65 43 82 73q-38 12 -62 46t-24 75z" />
<glyph unicode="&#x13d;" horiz-adv-x="1064" d="M119 0v1249h334v-946h557v-303h-891zM657 872l7 377h231v-24q-15 -199 -92 -353h-146z" />
<glyph unicode="&#x13e;" horiz-adv-x="550" d="M100 0v1321h328v-1321h-328zM526 944l4 377h232v-25q-15 -205 -92 -352h-144z" />
<glyph unicode="&#x13f;" horiz-adv-x="1064" d="M119 0v1249h334v-946h557v-303h-891zM604 690q0 79 51 131.5t133 52.5t133.5 -52.5t51.5 -131.5t-51.5 -132.5t-133.5 -53.5t-133 53.5t-51 132.5z" />
<glyph unicode="&#x140;" horiz-adv-x="901" d="M100 0v1321h328v-1321h-328zM512 655q0 79 51 132t133 53t133.5 -53t51.5 -132t-51.5 -132.5t-133.5 -53.5t-133 53.5t-51 132.5z" />
<glyph unicode="&#x141;" horiz-adv-x="1081" d="M20 449v258l95 26v516h334v-424l260 72v-258l-260 -72v-264h555v-303h-889v475z" />
<glyph unicode="&#x142;" horiz-adv-x="550" d="M20 465v258l86 29v569h328v-459l101 35v-258l-101 -33v-606h-328v494z" />
<glyph unicode="&#x143;" horiz-adv-x="1402" d="M119 0v1249h303l528 -712v712h334v-1249h-303l-528 705v-705h-334zM508 1395l231 307l236 -127v-66q-97 -65 -180 -107t-207 -89z" />
<glyph unicode="&#x144;" horiz-adv-x="1159" d="M100 0v989h328v-129q164 148 326 148q160 0 235.5 -90.5t75.5 -288.5v-629h-328v537q0 94 -23 129.5t-91 35.5q-107 0 -195 -112v-590h-328zM389 1157l262 338l205 -143v-66q-160 -118 -387 -213z" />
<glyph unicode="&#x145;" horiz-adv-x="1402" d="M119 0v1249h303l528 -712v712h334v-1249h-303l-528 705v-705h-334zM569 -207q0 56 35.5 92.5t91.5 36.5q58 0 93.5 -39.5t35.5 -99.5q0 -90 -61 -162.5t-162 -101.5l-31 80q68 45 84 73q-39 12 -62.5 45.5t-23.5 75.5z" />
<glyph unicode="&#x146;" horiz-adv-x="1159" d="M100 0v989h328v-129q164 148 326 148q160 0 235.5 -90.5t75.5 -288.5v-629h-328v537q0 94 -23 129.5t-91 35.5q-107 0 -195 -112v-590h-328zM451 -207q0 56 35.5 92.5t93.5 36.5q56 0 91.5 -40t35.5 -99q0 -90 -61 -162.5t-163 -101.5l-28 80q65 43 82 73q-38 12 -62 46 t-24 75z" />
<glyph unicode="&#x147;" horiz-adv-x="1402" d="M119 0v1249h303l528 -712v712h334v-1249h-303l-528 705v-705h-334zM340 1602l80 86l280 -170l281 170l82 -86l-268 -283h-189z" />
<glyph unicode="&#x148;" horiz-adv-x="1159" d="M100 0v989h328v-129q164 148 326 148q160 0 235.5 -90.5t75.5 -288.5v-629h-328v537q0 94 -23 129.5t-91 35.5q-107 0 -195 -112v-590h-328zM236 1374l77 82q42 -26 86.5 -53t99 -59t85.5 -50q31 19 123 73.5t145 88.5l78 -82l-258 -284h-178z" />
<glyph unicode="&#x14c;" horiz-adv-x="1402" d="M70 623q0 309 167 478t465 169q297 0 464 -169.5t167 -477.5q0 -307 -167 -474t-464 -167q-298 0 -465 167t-167 474zM393 1380v224h617v-224h-617zM408 623q0 -167 76.5 -254.5t217.5 -87.5q140 0 216.5 87.5t76.5 254.5q0 171 -76.5 259.5t-216.5 88.5 q-141 0 -217.5 -88.5t-76.5 -259.5z" />
<glyph unicode="&#x14d;" horiz-adv-x="1148" d="M59 489q0 248 135 383.5t379 135.5q245 0 381 -135.5t136 -383.5q0 -242 -136 -374.5t-381 -132.5q-244 0 -379 132.5t-135 374.5zM258 1155v231h631v-231h-631zM381 489q0 -133 47.5 -190t144.5 -57t146 57.5t49 189.5q0 138 -49 198.5t-146 60.5q-96 0 -144 -60.5 t-48 -198.5z" />
<glyph unicode="&#x150;" horiz-adv-x="1402" d="M70 623q0 309 167 478t465 169q297 0 464 -169.5t167 -477.5q0 -307 -167 -474t-464 -167q-298 0 -465 167t-167 474zM389 1389l193 319l209 -109v-61q-173 -136 -295 -219zM408 623q0 -167 76.5 -254.5t217.5 -87.5q140 0 216.5 87.5t76.5 254.5q0 171 -76.5 259.5 t-216.5 88.5q-141 0 -217.5 -88.5t-76.5 -259.5zM764 1389l190 319l209 -109v-61q-160 -129 -293 -219z" />
<glyph unicode="&#x151;" horiz-adv-x="1148" d="M59 489q0 248 135 383.5t379 135.5q245 0 381 -135.5t136 -383.5q0 -242 -136 -374.5t-381 -132.5q-244 0 -379 132.5t-135 374.5zM279 1159l192 336l193 -109v-63q-123 -117 -293 -233zM381 489q0 -133 47.5 -190t144.5 -57t146 57.5t49 189.5q0 138 -49 198.5 t-146 60.5q-96 0 -144 -60.5t-48 -198.5zM637 1159l192 336l193 -109v-63q-123 -117 -293 -233z" />
<glyph unicode="&#x152;" horiz-adv-x="1923" d="M70 621q0 310 167 479.5t465 169.5q105 0 193 -31v10h922v-303h-588v-188h502v-287h-502v-174h604v-297h-938v12q-85 -30 -193 -30q-298 0 -465 166.5t-167 472.5zM408 623q0 -167 76 -254.5t216 -87.5q123 0 195 63v563q-73 64 -195 64q-140 0 -216 -88.5t-76 -259.5z " />
<glyph unicode="&#x153;" horiz-adv-x="1798" d="M59 489q0 248 135 383.5t379 135.5q223 0 357 -113q128 113 346 113q213 0 336.5 -122.5t124.5 -353.5q0 -65 -8 -133h-637q29 -163 196 -163q100 0 179 20.5t171 69.5l93 -185q-111 -84 -221 -121.5t-236 -37.5q-218 0 -346 110q-131 -110 -355 -110q-244 0 -379 132.5 t-135 374.5zM381 489q0 -133 47.5 -190t144.5 -57t146 57.5t49 189.5q0 138 -49 198.5t-146 60.5q-96 0 -144 -60.5t-48 -198.5zM1087 594h369q-12 186 -180 186q-163 0 -189 -186z" />
<glyph unicode="&#x154;" horiz-adv-x="1245" d="M119 0v1249h518q264 0 407.5 -121.5t143.5 -345.5q0 -274 -238 -379l279 -376v-27h-357l-249 348h-170v-348h-334zM410 1395l231 307l236 -127v-66q-96 -65 -179.5 -106.5t-208.5 -89.5zM453 608h188q104 0 160.5 45.5t56.5 128.5q0 86 -56.5 133.5t-160.5 47.5h-188 v-355z" />
<glyph unicode="&#x155;" horiz-adv-x="835" d="M100 0v989h328v-182q52 101 116 151t148 50q59 0 123 -7l-22 -329q-49 4 -117 4q-98 0 -158.5 -40t-89.5 -142v-494h-328zM217 1157l262 338l205 -143v-66q-160 -118 -387 -213z" />
<glyph unicode="&#x156;" horiz-adv-x="1245" d="M119 0v1249h518q264 0 407.5 -121.5t143.5 -345.5q0 -274 -238 -379l279 -376v-27h-357l-249 348h-170v-348h-334zM453 608h188q104 0 160.5 45.5t56.5 128.5q0 86 -56.5 133.5t-160.5 47.5h-188v-355zM500 -207q0 56 35.5 92.5t91.5 36.5q58 0 93.5 -39.5t35.5 -99.5 q0 -89 -61.5 -162t-162.5 -102l-30 80q68 45 84 73q-39 12 -62.5 45.5t-23.5 75.5z" />
<glyph unicode="&#x157;" horiz-adv-x="835" d="M100 0v989h328v-182q52 101 116 151t148 50q59 0 123 -7l-22 -329q-49 4 -117 4q-98 0 -158.5 -40t-89.5 -142v-494h-328zM135 -207q0 56 35.5 92.5t91.5 36.5q58 0 93.5 -39.5t35.5 -99.5q0 -90 -61.5 -162.5t-163.5 -101.5l-29 80q68 45 84 73q-39 12 -62.5 45.5 t-23.5 75.5z" />
<glyph unicode="&#x158;" horiz-adv-x="1245" d="M119 0v1249h518q264 0 407.5 -121.5t143.5 -345.5q0 -274 -238 -379l279 -376v-27h-357l-249 348h-170v-348h-334zM242 1602l80 86l280 -170l281 170l82 -86l-269 -283h-186zM453 608h188q104 0 160.5 45.5t56.5 128.5q0 86 -56.5 133.5t-160.5 47.5h-188v-355z" />
<glyph unicode="&#x159;" horiz-adv-x="872" d="M100 1374l78 82q42 -26 86.5 -53t99 -59t85.5 -50q31 19 123 73.5t145 88.5l78 -82l-258 -284h-179zM137 0v989h328v-182q52 101 116 151t148 50q59 0 123 -7l-23 -329q-49 4 -116 4q-98 0 -158.5 -40t-89.5 -142v-494h-328z" />
<glyph unicode="&#x15a;" horiz-adv-x="1191" d="M47 152l125 260q267 -146 446 -146q55 0 85 22t30 62q0 28 -19 46.5t-75 40.5t-180 59q-357 106 -357 399q0 165 115.5 270t321.5 105q134 0 259.5 -25t280.5 -94l-98 -244q-142 53 -232 73.5t-174 20.5q-57 0 -94 -21.5t-37 -59.5q0 -22 10.5 -37.5t48.5 -35.5 t93.5 -40.5t163.5 -56.5q191 -65 263.5 -149t72.5 -241q0 -173 -121 -275.5t-338 -102.5q-126 0 -295.5 47.5t-294.5 122.5zM399 1395l232 307l235 -127v-66q-97 -65 -180 -107t-207 -89z" />
<glyph unicode="&#x15b;" horiz-adv-x="976" d="M57 98l78 219q249 -92 369 -92q82 0 82 49q0 11 -4 19.5t-14.5 16t-21 13t-32 13t-39.5 12.5t-51 15t-59 18q-271 84 -271 291q0 158 93 248t262 90q208 0 446 -78l-80 -225q-219 59 -344 59q-70 0 -70 -55q0 -13 4.5 -23t17 -18.5t24.5 -15t36.5 -14t44 -12.5t56 -14.5 t63.5 -17.5q149 -41 207.5 -101.5t58.5 -185.5q0 -160 -105.5 -243.5t-307.5 -83.5q-209 0 -443 116zM256 1165l264 338l203 -145v-64q-163 -122 -387 -213z" />
<glyph unicode="&#x15e;" horiz-adv-x="1191" d="M47 152l125 260q267 -146 446 -146q55 0 85 22t30 62q0 28 -19 46.5t-75 40.5t-180 59q-357 106 -357 399q0 165 115.5 270t321.5 105q134 0 259.5 -25t280.5 -94l-98 -244q-142 53 -232 73.5t-174 20.5q-57 0 -94 -21.5t-37 -59.5q0 -22 10.5 -37.5t48.5 -35.5 t93.5 -40.5t163.5 -56.5q191 -65 263.5 -149t72.5 -241q0 -173 -121 -275.5t-338 -102.5h-31v-43q113 -9 155 -46.5t42 -119.5q0 -85 -54 -139t-149 -54q-115 0 -242 45l29 121q87 -18 139 -18q82 0 82 61q0 42 -22.5 58t-81.5 16h-55l28 135q-245 43 -430 154z" />
<glyph unicode="&#x15f;" horiz-adv-x="976" d="M57 98l78 219q249 -92 369 -92q82 0 82 49q0 11 -4 19.5t-14.5 16t-21 13t-32 13t-39.5 12.5t-51 15t-59 18q-271 84 -271 291q0 158 93 248t262 90q208 0 446 -78l-80 -225q-219 59 -344 59q-70 0 -70 -55q0 -13 4.5 -23t17 -18.5t24.5 -15t36.5 -14t44 -12.5t56 -14.5 t63.5 -17.5q149 -41 207.5 -101.5t58.5 -185.5q0 -160 -105.5 -243.5t-307.5 -83.5h-4v-43q112 -9 154 -46.5t42 -119.5q0 -85 -54 -139t-149 -54q-114 0 -241 45l28 121q87 -18 140 -18q82 0 82 61q0 42 -22.5 58t-82.5 16h-55l27 129q-145 23 -308 106z" />
<glyph unicode="&#x160;" horiz-adv-x="1191" d="M47 152l125 260q267 -146 446 -146q55 0 85 22t30 62q0 28 -19 46.5t-75 40.5t-180 59q-357 106 -357 399q0 165 115.5 270t321.5 105q134 0 259.5 -25t280.5 -94l-98 -244q-142 53 -232 73.5t-174 20.5q-57 0 -94 -21.5t-37 -59.5q0 -22 10.5 -37.5t48.5 -35.5 t93.5 -40.5t163.5 -56.5q191 -65 263.5 -149t72.5 -241q0 -173 -121 -275.5t-338 -102.5q-126 0 -295.5 47.5t-294.5 122.5zM231 1602l80 86l281 -170l280 170l82 -86l-268 -283h-188z" />
<glyph unicode="&#x161;" horiz-adv-x="976" d="M57 98l78 219q249 -92 369 -92q82 0 82 49q0 11 -4 19.5t-14.5 16t-21 13t-32 13t-39.5 12.5t-51 15t-59 18q-271 84 -271 291q0 158 93 248t262 90q208 0 446 -78l-80 -225q-219 59 -344 59q-70 0 -70 -55q0 -13 4.5 -23t17 -18.5t24.5 -15t36.5 -14t44 -12.5t56 -14.5 t63.5 -17.5q149 -41 207.5 -101.5t58.5 -185.5q0 -160 -105.5 -243.5t-307.5 -83.5q-209 0 -443 116zM102 1382l78 82q54 -34 147.5 -90t123.5 -74q25 15 120 72.5t150 91.5l78 -82l-258 -286h-179z" />
<glyph unicode="&#x164;" horiz-adv-x="1179" d="M37 946v303h1106v-303h-387v-946h-334v946h-385zM229 1602l80 86l281 -170l280 170l82 -86l-268 -283h-188z" />
<glyph unicode="&#x165;" horiz-adv-x="825" d="M20 721v268h140v219h327v-219h242v-268h-242v-344q0 -69 27 -100t96 -31q78 0 133 4l31 -197q-54 -30 -132.5 -48.5t-154.5 -18.5q-174 0 -250.5 87t-76.5 289v359h-140zM557 1051l6 376h232v-24q-15 -195 -93 -352h-145z" />
<glyph unicode="&#x16a;" horiz-adv-x="1357" d="M109 596v653h333v-653q0 -315 236 -315q237 0 237 315v653h334v-653q0 -312 -141 -463t-430 -151q-288 0 -428.5 151.5t-140.5 462.5zM371 1380v224h616v-224h-616z" />
<glyph unicode="&#x16b;" horiz-adv-x="1165" d="M94 362v627h328v-543q0 -93 24 -130t91 -37q106 0 196 114v596h328v-989h-328v117q-123 -81 -163 -100q-74 -35 -154 -35q-160 0 -241 91.5t-81 288.5zM266 1153v231h631v-231h-631z" />
<glyph unicode="&#x16e;" horiz-adv-x="1357" d="M109 596v653h333v-653q0 -315 236 -315q237 0 237 315v653h334v-653q0 -312 -141 -463t-430 -151q-288 0 -428.5 151.5t-140.5 462.5zM455 1540q0 98 62 158.5t161 60.5q100 0 161.5 -60.5t61.5 -158.5q0 -95 -61.5 -154t-161.5 -59q-99 0 -161 59t-62 154zM592 1540 q0 -36 23.5 -58t62.5 -22q40 0 64 21.5t24 58.5q0 41 -24 63.5t-64 22.5q-39 0 -62.5 -22.5t-23.5 -63.5z" />
<glyph unicode="&#x16f;" horiz-adv-x="1165" d="M94 362v627h328v-543q0 -93 24 -130t91 -37q106 0 196 114v596h328v-989h-328v117q-123 -81 -163 -100q-74 -35 -154 -35q-160 0 -241 91.5t-81 288.5zM358 1305q0 98 62.5 158.5t161.5 60.5q100 0 161.5 -60.5t61.5 -158.5q0 -95 -61.5 -154t-161.5 -59q-99 0 -161.5 59 t-62.5 154zM496 1305q0 -36 23.5 -58t62.5 -22q40 0 64 21.5t24 58.5q0 41 -24 63.5t-64 22.5q-39 0 -62.5 -22.5t-23.5 -63.5z" />
<glyph unicode="&#x170;" horiz-adv-x="1357" d="M109 596v653h333v-653q0 -315 236 -315q237 0 237 315v653h334v-653q0 -312 -141 -463t-430 -151q-288 0 -428.5 151.5t-140.5 462.5zM367 1389l192 319l209 -109v-61q-173 -136 -295 -219zM739 1389l193 319l209 -109v-61q-160 -129 -293 -219z" />
<glyph unicode="&#x171;" horiz-adv-x="1165" d="M94 362v627h328v-543q0 -93 24 -130t91 -37q106 0 196 114v596h328v-989h-328v117q-123 -81 -163 -100q-74 -35 -154 -35q-160 0 -241 91.5t-81 288.5zM287 1157l192 336l193 -109v-61q-124 -121 -293 -236zM645 1157l193 336l192 -109v-61q-124 -121 -293 -236z" />
<glyph unicode="&#x172;" horiz-adv-x="1357" d="M109 596v653h333v-653q0 -315 236 -315q237 0 237 315v653h334v-655q0 -295 -127 -445.5t-385 -164.5q-90 -28 -90 -93q0 -37 33.5 -59t91.5 -22q30 0 160 20l33 -156q-138 -55 -283 -55q-110 0 -176 51t-66 135q0 53 28.5 102t78.5 83q-221 32 -329.5 182t-108.5 424z " />
<glyph unicode="&#x173;" horiz-adv-x="1165" d="M94 362v627h328v-543q0 -93 24 -130t91 -37q106 0 196 114v596h328v-989h-125q-83 -8 -130.5 -36t-47.5 -73q0 -37 33.5 -59t91.5 -22q29 0 159 20l33 -156q-138 -55 -282 -55q-110 0 -176 51t-66 135q0 72 49 132.5t133 91.5v88q-123 -81 -163 -100q-74 -35 -154 -35 q-160 0 -241 91.5t-81 288.5z" />
<glyph unicode="&#x174;" horiz-adv-x="1904" d="M39 1249h350l172 -743q16 -80 25 -162q3 20 26 162l160 743h361l159 -743q16 -93 25 -156q10 89 24 156l175 743h350l-328 -1249h-395l-156 571q-26 140 -35 193q-15 -91 -34 -193l-156 -571h-395zM592 1391l266 282h189l268 -282l-82 -86l-281 170l-280 -170z" />
<glyph unicode="&#x175;" horiz-adv-x="1579" d="M23 989h311l145 -545q14 -93 17 -122q9 59 24 122l156 545h227l156 -545q15 -72 24 -137q3 60 19 137l143 545h314l-267 -989h-368l-133 532l-134 -532h-368zM451 1161l258 287h178l260 -287l-78 -82q-51 31 -139.5 83.5t-130.5 78.5q-37 -22 -128 -75.5t-143 -86.5z" />
<glyph unicode="&#x176;" horiz-adv-x="1306" d="M18 1249h351l209 -393q46 -84 75 -158q26 67 76 158l209 393h350l-469 -856v-393h-332v393zM293 1391l266 282h189l268 -282l-82 -86l-281 170l-280 -170z" />
<glyph unicode="&#x177;" horiz-adv-x="1134" d="M2 987h336l174 -452l49 -158q61 125 110.5 265t112.5 347l344 -2q-4 -13 -30 -87.5t-32.5 -92t-30 -84t-32 -89t-30 -80t-33 -84.5t-31 -74.5t-34 -77.5t-32.5 -66.5t-36 -67.5q-111 -199 -247 -323.5t-337 -192.5l-106 244q164 73 250 162zM227 1161l260 287h179 l258 -287l-78 -82q-52 33 -143 86.5t-128 75.5q-35 -22 -126.5 -75.5t-143.5 -86.5z" />
<glyph unicode="&#x178;" horiz-adv-x="1306" d="M18 1249h351l209 -393q46 -84 75 -158q26 67 76 158l209 393h350l-469 -856v-393h-332v393zM293 1503q0 65 44.5 104.5t102.5 39.5q65 0 107.5 -38.5t42.5 -105.5q0 -66 -42.5 -103.5t-107.5 -37.5q-58 0 -102.5 38.5t-44.5 102.5zM717 1503q0 67 42.5 105.5t106.5 38.5 q59 0 103.5 -39t44.5 -105q0 -64 -44.5 -102.5t-103.5 -38.5q-64 0 -106.5 38t-42.5 103z" />
<glyph unicode="&#x179;" horiz-adv-x="1239" d="M82 0v244l641 710q-180 -8 -270 -8h-324v303h1028v-260l-596 -696q147 10 258 10h346v-303h-1083zM428 1395l231 307l236 -127v-66q-97 -65 -180 -107t-207 -89z" />
<glyph unicode="&#x17a;" horiz-adv-x="1077" d="M74 0v205l475 522q-94 -6 -191 -6h-266v268h887v-198l-455 -533q120 6 209 6h271v-264h-930zM344 1157l264 338l203 -143v-66q-154 -115 -387 -213z" />
<glyph unicode="&#x17b;" horiz-adv-x="1239" d="M82 0v244l641 710q-180 -8 -270 -8h-324v303h1028v-260l-596 -696q147 10 258 10h346v-303h-1083zM459 1503q0 73 46 114.5t116 41.5q66 0 114.5 -42.5t48.5 -113.5t-48.5 -113t-114.5 -42q-70 0 -116 41t-46 114z" />
<glyph unicode="&#x17c;" horiz-adv-x="1077" d="M74 0v205l475 522q-94 -6 -191 -6h-266v268h887v-198l-455 -533q120 6 209 6h271v-264h-930zM369 1278q0 76 48.5 120t121.5 44q67 0 118.5 -45t51.5 -119t-51.5 -119t-118.5 -45q-73 0 -121.5 44t-48.5 120z" />
<glyph unicode="&#x17d;" horiz-adv-x="1239" d="M82 0v244l641 710q-180 -8 -270 -8h-324v303h1028v-260l-596 -696q147 10 258 10h346v-303h-1083zM260 1602l80 86l281 -170l280 170l82 -86l-268 -283h-189z" />
<glyph unicode="&#x17e;" horiz-adv-x="1077" d="M74 0v205l475 522q-94 -6 -191 -6h-266v268h887v-198l-455 -533q120 6 209 6h271v-264h-930zM190 1374l78 82q52 -33 143 -86.5t128 -75.5q35 22 126.5 75.5t143.5 86.5l78 -82l-258 -284h-178z" />
<glyph unicode="&#x192;" horiz-adv-x="1181" d="M51 354l41 209h111l4 21q54 290 185 427.5t353 137.5q110 0 206.5 -25.5t205.5 -87.5l-90 -198q-165 53 -274 53q-100 0 -167 -71t-98 -236l-4 -21h387l-41 -209h-385l-65 -354h-320l64 354h-113z" />
<glyph unicode="&#x1cd;" horiz-adv-x="1423" d="M18 0l467 1249h455l465 -1249h-356l-70 199h-533l-69 -199h-359zM352 1602l80 86l281 -170l280 170l82 -86l-268 -283h-189zM551 502h321l-124 358q-32 104 -35 115q-5 -17 -17.5 -55t-19.5 -60z" />
<glyph unicode="&#x218;" horiz-adv-x="1191" d="M47 152l125 260q267 -146 446 -146q55 0 85 22t30 62q0 28 -19 46.5t-75 40.5t-180 59q-357 106 -357 399q0 165 115.5 270t321.5 105q134 0 259.5 -25t280.5 -94l-98 -244q-142 53 -232 73.5t-174 20.5q-57 0 -94 -21.5t-37 -59.5q0 -22 10.5 -37.5t48.5 -35.5 t93.5 -40.5t163.5 -56.5q191 -65 263.5 -149t72.5 -241q0 -173 -121 -275.5t-338 -102.5q-126 0 -295.5 47.5t-294.5 122.5zM461 -207q0 56 35.5 92.5t93.5 36.5q56 0 91.5 -40t35.5 -99q0 -90 -60.5 -162.5t-162.5 -101.5l-29 80q65 43 82 73q-38 12 -62 46t-24 75z" />
<glyph unicode="&#x219;" horiz-adv-x="976" d="M57 98l78 219q249 -92 369 -92q82 0 82 49q0 11 -4 19.5t-14.5 16t-21 13t-32 13t-39.5 12.5t-51 15t-59 18q-271 84 -271 291q0 158 93 248t262 90q208 0 446 -78l-80 -225q-219 59 -344 59q-70 0 -70 -55q0 -13 4.5 -23t17 -18.5t24.5 -15t36.5 -14t44 -12.5t56 -14.5 t63.5 -17.5q149 -41 207.5 -101.5t58.5 -185.5q0 -160 -105.5 -243.5t-307.5 -83.5q-209 0 -443 116zM350 -207q0 56 35.5 92.5t93.5 36.5q56 0 91.5 -40t35.5 -99q0 -90 -60.5 -162.5t-162.5 -101.5l-29 80q65 43 82 73q-38 12 -62 46t-24 75z" />
<glyph unicode="&#x21a;" horiz-adv-x="1179" d="M37 946v303h1106v-303h-387v-946h-334v946h-385zM463 -207q0 56 35.5 92.5t93.5 36.5q56 0 91.5 -40t35.5 -99q0 -90 -60.5 -162.5t-162.5 -101.5l-29 80q65 43 82 73q-38 12 -62 46t-24 75z" />
<glyph unicode="&#x21b;" horiz-adv-x="804" d="M20 721v268h140v219h327v-219h242v-268h-242v-344q0 -69 27 -100t96 -31q78 0 133 4l31 -197q-54 -30 -132.5 -48.5t-154.5 -18.5q-174 0 -250.5 87t-76.5 289v359h-140zM295 -203q0 56 35.5 92.5t91.5 36.5q58 0 93.5 -39.5t35.5 -99.5q0 -90 -61 -162.5t-162 -101.5 l-31 80q68 45 84 73q-39 12 -62.5 45.5t-23.5 75.5z" />
<glyph unicode="&#x2c6;" d="M168 1161l258 287h178l258 -287l-78 -82q-52 33 -143.5 86.5t-126.5 75.5q-31 -19 -123 -73.5t-145 -88.5z" />
<glyph unicode="&#x2c7;" d="M160 1374l78 82l270 -162q31 19 123 73.5t145 88.5l78 -82l-258 -284h-178z" />
<glyph unicode="&#x2d8;" d="M211 1407h184q0 -54 33.5 -85.5t93.5 -31.5q61 0 95 32t34 85h183q0 -293 -312 -293q-311 0 -311 293z" />
<glyph unicode="&#x2d9;" d="M336 1278q0 76 49 120t123 44q67 0 118.5 -45t51.5 -119t-51.5 -119t-118.5 -45q-74 0 -123 44t-49 120z" />
<glyph unicode="&#x2da;" d="M285 1305q0 98 61.5 158.5t161.5 60.5q99 0 161 -60.5t62 -158.5q0 -95 -62.5 -154t-162.5 -59q-98 0 -159.5 59t-61.5 154zM420 1305q0 -36 24.5 -58t61.5 -22q40 0 64 21.5t24 58.5q0 41 -23.5 63.5t-62.5 22.5t-63.5 -23t-24.5 -63z" />
<glyph unicode="&#x2db;" d="M229 -195q0 98 86.5 169.5t223.5 80.5l73 -55q-83 -8 -130.5 -36t-47.5 -73q0 -37 33.5 -59t91.5 -22q30 0 160 20l33 -156q-138 -55 -283 -55q-108 0 -174 51.5t-66 134.5z" />
<glyph unicode="&#x2dc;" d="M154 1171q3 76 27 131t59.5 82.5t80 38t88.5 4.5t85 -24l110 -53q25 -12 42.5 -14t35 7t31.5 24.5t37 45.5l118 -4q-4 -77 -29.5 -133t-63 -84t-83.5 -39.5t-90.5 -5.5t-83.5 24l-112 54q-47 23 -74.5 10.5t-67.5 -68.5z" />
<glyph unicode="&#x2dd;" d="M201 1157l192 336l195 -109v-61q-128 -123 -295 -236zM559 1157l193 336l194 -109v-61q-128 -123 -295 -236z" />
<glyph unicode="&#x312;" horiz-adv-x="0" d="M346 1262q0 96 59 164.5t193 125.5l37 -88q-65 -40 -96 -78q46 -15 73 -52.5t27 -86.5q0 -62 -40.5 -103.5t-104.5 -41.5t-106 46t-42 114z" />
<glyph unicode="&#x326;" horiz-adv-x="0" d="M377 -207q0 56 35.5 92.5t91.5 36.5q58 0 93.5 -39.5t35.5 -99.5q0 -90 -61.5 -162.5t-163.5 -101.5l-29 80q64 42 84 73q-39 12 -62.5 45.5t-23.5 75.5z" />
<glyph unicode="&#x1e80;" horiz-adv-x="1904" d="M39 1249h350l172 -743q16 -80 25 -162q3 20 26 162l160 743h361l159 -743q16 -93 25 -156q10 89 24 156l175 743h350l-328 -1249h-395l-156 571q-26 140 -35 193q-15 -91 -34 -193l-156 -571h-395zM670 1505v64l235 129l232 -307l-78 -84q-126 47 -209 89t-180 109z" />
<glyph unicode="&#x1e81;" horiz-adv-x="1579" d="M23 989h311l145 -545q14 -93 17 -122q9 59 24 122l156 545h227l156 -545q15 -72 24 -137q3 60 19 137l143 545h314l-267 -989h-368l-133 532l-134 -532h-368zM541 1286v66l204 143l263 -338l-80 -84q-227 95 -387 213z" />
<glyph unicode="&#x1e82;" horiz-adv-x="1904" d="M39 1249h350l172 -743q16 -80 25 -162q3 20 26 162l160 743h361l159 -743q16 -93 25 -156q10 89 24 156l175 743h350l-328 -1249h-395l-156 571q-26 140 -35 193q-15 -91 -34 -193l-156 -571h-395zM760 1395l231 307l236 -127v-66q-97 -65 -180 -107t-207 -89z" />
<glyph unicode="&#x1e83;" horiz-adv-x="1579" d="M23 989h311l145 -545q14 -93 17 -122q9 59 24 122l156 545h227l156 -545q15 -72 24 -137q3 60 19 137l143 545h314l-267 -989h-368l-133 532l-134 -532h-368zM596 1157l264 338l203 -143v-66q-154 -115 -387 -213z" />
<glyph unicode="&#x1e84;" horiz-adv-x="1904" d="M39 1249h350l172 -743q16 -80 25 -162q3 20 26 162l160 743h361l159 -743q16 -93 25 -156q10 89 24 156l175 743h350l-328 -1249h-395l-156 571q-26 140 -35 193q-15 -91 -34 -193l-156 -571h-395zM592 1503q0 65 44.5 104.5t102.5 39.5q65 0 107.5 -38.5t42.5 -105.5 q0 -66 -42.5 -103.5t-107.5 -37.5q-58 0 -102.5 38.5t-44.5 102.5zM1016 1503q0 67 42.5 105.5t106.5 38.5q59 0 103.5 -39t44.5 -105q0 -64 -44.5 -102.5t-103.5 -38.5q-64 0 -106.5 38t-42.5 103z" />
<glyph unicode="&#x1e85;" horiz-adv-x="1579" d="M23 989h311l145 -545q14 -93 17 -122q9 59 24 122l156 545h227l156 -545q15 -72 24 -137q3 60 19 137l143 545h314l-267 -989h-368l-133 532l-134 -532h-368zM424 1270q0 69 46 109t108 40q67 0 111 -39.5t44 -109.5q0 -68 -44 -108t-111 -40q-62 0 -108 40.5t-46 107.5z M848 1270q0 70 44.5 109.5t111.5 39.5q63 0 109 -40.5t46 -108.5q0 -67 -46.5 -107.5t-108.5 -40.5q-67 0 -111.5 40t-44.5 108z" />
<glyph unicode="&#x1ef2;" horiz-adv-x="1306" d="M18 1249h351l209 -393q46 -84 75 -158q26 67 76 158l209 393h350l-469 -856v-393h-332v393zM371 1505v64l235 129l232 -307l-78 -84q-126 47 -209 89t-180 109z" />
<glyph unicode="&#x1ef3;" horiz-adv-x="1134" d="M2 987h336l174 -452l49 -158q61 125 110.5 265t112.5 347l344 -2q-4 -13 -30 -87.5t-32.5 -92t-30 -84t-32 -89t-30 -80t-33 -84.5t-31 -74.5t-34 -77.5t-32.5 -66.5t-36 -67.5q-111 -199 -247 -323.5t-337 -192.5l-106 244q164 73 250 162zM317 1286v66l205 143 l262 -338l-77 -84q-230 95 -390 213z" />
<glyph unicode="&#x2000;" horiz-adv-x="914" />
<glyph unicode="&#x2001;" horiz-adv-x="1829" />
<glyph unicode="&#x2002;" horiz-adv-x="914" />
<glyph unicode="&#x2003;" horiz-adv-x="1829" />
<glyph unicode="&#x2004;" horiz-adv-x="609" />
<glyph unicode="&#x2005;" horiz-adv-x="457" />
<glyph unicode="&#x2006;" horiz-adv-x="304" />
<glyph unicode="&#x2007;" horiz-adv-x="304" />
<glyph unicode="&#x2008;" horiz-adv-x="228" />
<glyph unicode="&#x2009;" horiz-adv-x="174" />
<glyph unicode="&#x200a;" horiz-adv-x="101" />
<glyph unicode="&#x2010;" horiz-adv-x="837" d="M117 422v287h604v-287h-604z" />
<glyph unicode="&#x2011;" horiz-adv-x="837" d="M117 422v287h604v-287h-604z" />
<glyph unicode="&#x2012;" horiz-adv-x="837" d="M117 422v287h604v-287h-604z" />
<glyph unicode="&#x2013;" horiz-adv-x="1021" d="M117 434v242h788v-242h-788z" />
<glyph unicode="&#x2014;" horiz-adv-x="1902" d="M117 434v242h1669v-242h-1669z" />
<glyph unicode="&#x2018;" horiz-adv-x="575" d="M104 924q0 112 84.5 231t227.5 201l76 -94q-60 -47 -93 -87t-53 -92q58 -15 93.5 -63t35.5 -111q0 -79 -51 -132.5t-133 -53.5t-134.5 57.5t-52.5 143.5z" />
<glyph unicode="&#x2019;" horiz-adv-x="575" d="M90 817q60 47 93 87t53 91q-59 15 -94.5 63.5t-35.5 112.5q0 79 51.5 132t133.5 53t134 -57.5t52 -143.5q0 -113 -84 -231.5t-227 -200.5z" />
<glyph unicode="&#x201a;" horiz-adv-x="575" d="M90 -166q60 47 93 87t53 91q-59 15 -94.5 63.5t-35.5 112.5q0 79 51.5 132t133.5 53t134 -57.5t52 -143.5q0 -113 -84 -231.5t-227 -200.5z" />
<glyph unicode="&#x201c;" horiz-adv-x="1026" d="M104 924q0 112 84.5 231t227.5 201l76 -94q-60 -47 -93 -87t-53 -92q58 -15 93.5 -63t35.5 -111q0 -79 -51 -132.5t-133 -53.5t-134.5 57.5t-52.5 143.5zM555 924q0 113 84 231.5t227 200.5l76 -94q-59 -46 -92 -86.5t-53 -92.5q58 -15 93.5 -63t35.5 -111 q0 -79 -51.5 -132.5t-133.5 -53.5t-134 57.5t-52 143.5z" />
<glyph unicode="&#x201d;" horiz-adv-x="1026" d="M90 817q60 47 93 87t53 91q-59 15 -94.5 63.5t-35.5 112.5q0 79 51.5 132t133.5 53t134 -57.5t52 -143.5q0 -113 -84 -231.5t-227 -200.5zM541 817q59 46 92 86t53 92q-58 15 -93.5 63t-35.5 111q0 80 51 133.5t133 53.5t134.5 -57.5t52.5 -143.5q0 -112 -84 -231 t-228 -201z" />
<glyph unicode="&#x201e;" horiz-adv-x="1026" d="M90 -166q60 47 93 87t53 91q-59 15 -94.5 63.5t-35.5 112.5q0 79 51.5 132t133.5 53t134 -57.5t52 -143.5q0 -113 -84 -231.5t-227 -200.5zM541 -166q59 46 92 86t53 92q-58 15 -93.5 63t-35.5 111q0 80 51 133.5t133 53.5t134.5 -57.5t52.5 -143.5q0 -112 -84 -231 t-228 -201z" />
<glyph unicode="&#x2020;" horiz-adv-x="1071" d="M86 686v170l342 23l21 370h172l22 -370l340 -23v-170l-338 -22l-24 -863h-172l-25 863z" />
<glyph unicode="&#x2021;" horiz-adv-x="1071" d="M86 205v170l334 22v267l-334 22v170l342 23l21 370h172l22 -370l340 -23v-170l-334 -22v-267l334 -22v-170l-340 -23l-22 -370h-172l-21 370z" />
<glyph unicode="&#x2022;" horiz-adv-x="710" d="M111 551q0 106 68 176t177 70t177.5 -70t68.5 -176t-68.5 -176t-177.5 -70t-177 70t-68 176z" />
<glyph unicode="&#x2026;" horiz-adv-x="1687" d="M100 172q0 79 51.5 131.5t133.5 52.5t133 -52.5t51 -131.5t-51 -132.5t-133 -53.5t-133.5 53.5t-51.5 132.5zM659 172q0 79 51.5 131.5t133.5 52.5t133 -52.5t51 -131.5t-51 -132.5t-133 -53.5t-133.5 53.5t-51.5 132.5zM1219 172q0 79 51 131.5t133 52.5t133 -52.5 t51 -131.5t-51 -132.5t-133 -53.5t-133 53.5t-51 132.5z" />
<glyph unicode="&#x202f;" horiz-adv-x="365" />
<glyph unicode="&#x2030;" horiz-adv-x="2594" d="M63 883q0 387 345 387q342 0 342 -387q0 -381 -342 -381q-345 0 -345 381zM276 883q0 -99 29.5 -145t102.5 -46q71 0 100 46t29 145q0 103 -28.5 149.5t-100.5 46.5q-73 0 -102.5 -46.5t-29.5 -149.5zM453 0l702 1249h182l-702 -1249h-182zM1051 365q0 387 342 387 t342 -387q0 -383 -342 -383t-342 383zM1264 365q0 -99 29 -146t100 -47t101 47t30 146q0 101 -29.5 148.5t-101.5 47.5q-71 0 -100 -47t-29 -149zM1845 365q0 387 344 387q342 0 342 -387q0 -383 -342 -383q-344 0 -344 383zM2058 365q0 -99 29.5 -146t101.5 -47 q71 0 100 47t29 146q0 102 -29 149t-100 47q-73 0 -102 -47t-29 -149z" />
<glyph unicode="&#x2039;" horiz-adv-x="780" d="M66 524l454 441l164 -162l-207 -209q-34 -34 -82 -72q37 -26 84 -69l205 -211l-162 -156z" />
<glyph unicode="&#x203a;" horiz-adv-x="780" d="M98 242l203 211q33 31 84 71q-58 46 -82 70l-205 209l162 162l455 -441l-457 -438z" />
<glyph unicode="&#x2044;" horiz-adv-x="432" d="M-227 0l702 1249h184l-704 -1249h-182z" />
<glyph unicode="&#x205f;" horiz-adv-x="457" />
<glyph unicode="&#x20ac;" horiz-adv-x="1150" d="M47 375v127h109l-2 55v16h-107v127h119q36 210 170.5 325.5t325.5 115.5q110 0 208 -26t207 -85l-90 -211q-152 66 -278 66q-78 0 -136.5 -43.5t-83.5 -141.5h402l-37 -127h-379v-16v-57h354l-36 -125h-293q48 -137 205 -137q159 0 305 94l104 -199q-105 -81 -208.5 -116 t-248.5 -35q-114 0 -210 39.5t-171 130t-104 223.5h-125z" />
<glyph unicode="&#x2116;" horiz-adv-x="2371" d="M115 0v1249h303l528 -712v712h334v-1249h-303l-528 705v-705h-334zM1458 760q0 188 101 292.5t292 104.5t292.5 -104.5t101.5 -292.5q0 -185 -101 -287t-293 -102q-191 0 -292 102t-101 287zM1497 0v242h709v-242h-709zM1731 760q0 -78 29 -116t91 -38q121 0 121 154 q0 82 -29 120t-92 38t-91.5 -38t-28.5 -120z" />
<glyph unicode="&#x2122;" horiz-adv-x="1605" d="M31 1079v170h610v-170h-207v-438h-192v438h-211zM690 641l27 608h209l149 -342q5 -9 10.5 -27t6.5 -20q2 5 6.5 22t7.5 25l151 342h207l29 -608h-190l-9 328l-133 -328h-141l-133 326l-8 -326h-189z" />
<glyph unicode="&#x215b;" horiz-adv-x="1896" d="M61 1116q140 52 256 133h170v-598h175v-178h-560v178h177v367q-105 -25 -179 -35zM477 0l703 1249h184l-705 -1249h-182zM1087 213q0 120 148 188q-115 61 -115 166q0 103 84 158t236 55q145 0 221 -52.5t76 -149.5q0 -108 -131 -162q86 -37 127 -83.5t41 -117.5 q3 -111 -86.5 -173t-245.5 -60q-355 0 -355 231zM1288 229q0 -42 37 -66t98 -24q57 0 92 23.5t35 60.5q0 36 -37.5 61t-134.5 58q-90 -45 -90 -113zM1323 569q0 -33 29 -54.5t102 -47.5q90 38 90 106q0 34 -30 54t-82 20q-49 0 -79 -21.5t-30 -56.5z" />
<glyph unicode="&#x215c;" horiz-adv-x="1871" d="M27 557l57 143q139 -65 274 -65q54 0 84.5 21t30.5 59q0 84 -162 84h-112v155h112q79 0 113.5 16t34.5 54q0 41 -29.5 62.5t-83.5 21.5q-104 0 -252 -51l-43 139q181 74 324 74q124 0 201 -59t77 -158q0 -63 -32 -107.5t-84 -64.5q69 -27 102 -66.5t33 -101.5 q0 -115 -80.5 -177.5t-222.5 -62.5q-191 0 -342 84zM459 0l702 1249h182l-702 -1249h-182zM1067 213q0 119 147 188q-112 61 -112 166q0 102 83 157.5t236 55.5q144 0 220.5 -53t76.5 -149q0 -107 -133 -162q87 -37 128.5 -84t41.5 -119q1 -109 -88.5 -171t-243.5 -60 q-356 0 -356 231zM1268 229q0 -42 37.5 -66t99.5 -24q55 0 90 23.5t35 60.5q0 36 -37 61t-133 58q-92 -45 -92 -113zM1305 569q0 -33 28.5 -55t100.5 -47q92 38 92 106q0 34 -31.5 54t-83.5 20q-47 0 -76.5 -21.5t-29.5 -56.5z" />
<glyph unicode="&#x215d;" horiz-adv-x="1910" d="M47 547l57 151q149 -63 263 -63q60 0 98.5 28.5t38.5 77.5q0 45 -29.5 71t-81.5 26q-59 0 -127 -52l-170 25l27 438h549v-174h-381l-12 -155q86 55 182 55q117 0 180.5 -64t63.5 -180q0 -127 -86.5 -197.5t-221.5 -70.5q-195 0 -350 84zM481 0l703 1249h184l-704 -1249 h-183zM1108 213q0 120 147 188q-114 60 -114 166q0 103 83.5 158t235.5 55q145 0 221 -52.5t76 -149.5q0 -108 -131 -162q86 -37 127 -83.5t41 -117.5q1 -112 -88 -173.5t-244 -59.5q-354 0 -354 231zM1309 229q0 -42 37 -66t98 -24q57 0 92 23.5t35 60.5q0 36 -37.5 61 t-134.5 58q-90 -45 -90 -113zM1343 569q0 -33 29.5 -54.5t102.5 -47.5q90 38 90 106q0 34 -30.5 54t-82.5 20q-49 0 -79 -21.5t-30 -56.5z" />
<glyph unicode="&#x215e;" horiz-adv-x="1736" d="M33 1073v176h606v-157q-90 -128 -166 -294t-117 -325h-245q55 161 134 320t167 280h-379zM287 0l702 1249h185l-705 -1249h-182zM928 213q0 120 147 188q-114 60 -114 166q0 103 83.5 158t235.5 55q145 0 221 -52.5t76 -149.5q0 -108 -131 -162q86 -37 127 -83.5 t41 -117.5q3 -111 -86.5 -173t-245.5 -60q-354 0 -354 231zM1128 229q0 -42 37.5 -66t98.5 -24q57 0 92 23.5t35 60.5q0 36 -37.5 61t-134.5 58q-91 -46 -91 -113zM1163 569q0 -33 29 -54.5t102 -47.5q90 38 90 106q0 34 -30 54t-82 20q-49 0 -79 -21.5t-30 -56.5z" />
<glyph unicode="&#x2190;" horiz-adv-x="1327" d="M47 612l586 617l190 -191l-286 -290h751v-269h-749l284 -289l-190 -190z" />
<glyph unicode="&#x2191;" horiz-adv-x="1345" d="M61 700l613 566l610 -566l-188 -190l-287 272v-782h-270v782l-289 -272z" />
<glyph unicode="&#x2192;" horiz-adv-x="1327" d="M39 479v269h749l-284 290l190 191l586 -617l-586 -612l-190 190l282 289h-747z" />
<glyph unicode="&#x2193;" horiz-adv-x="1345" d="M61 549l189 190l289 -272v782h270v-782l287 272l188 -190l-610 -565z" />
<glyph unicode="&#x2196;" horiz-adv-x="1386" d="M92 346v903h901v-268l-448 6l796 -797l-192 -190l-795 795l8 -449h-270z" />
<glyph unicode="&#x2197;" horiz-adv-x="1386" d="M47 190l795 797l-449 -6v268h901v-903h-268l6 449l-794 -795z" />
<glyph unicode="&#x2198;" horiz-adv-x="1386" d="M47 1059l191 190l794 -794l-6 448h268v-903h-901v268l449 -6z" />
<glyph unicode="&#x2199;" horiz-adv-x="1386" d="M92 0v903h270l-8 -448l795 794l192 -190l-796 -797l448 6v-268h-901z" />
<glyph unicode="&#x2212;" horiz-adv-x="1015" d="M92 381v231h832v-231h-832z" />
<glyph unicode="&#x25fc;" horiz-adv-x="993" d="M0 0v993h993v-993h-993z" />
<glyph unicode="&#xfb00;" horiz-adv-x="1497" d="M23 721v268h129v31q0 197 96 288t301 91q101 0 213 -23l-23 -223q-94 4 -129 4q-73 0 -102 -34.5t-29 -102.5v-31h412v31q0 197 96 288t301 91q101 0 213 -23l-22 -223q-94 4 -129 4q-73 0 -102 -34.5t-29 -102.5v-31h251v-268h-251v-721h-328v721h-412v-721h-327v721 h-129z" />
<glyph unicode="&#xfb03;" horiz-adv-x="2002" d="M23 721v268h129v31q0 197 96 288t301 91q101 0 213 -23l-23 -223q-94 4 -129 4q-73 0 -102 -34.5t-29 -102.5v-31h387v31q0 198 93.5 288.5t297.5 90.5q74 0 205 -25l-24 -221q-114 4 -119 4q-73 0 -99 -34t-26 -103v-31h692v-989h-327v721h-365v-721h-328v721h-387v-721 h-327v721h-129zM1542 1278q0 79 53.5 122.5t130.5 43.5t131 -43.5t54 -122.5q0 -80 -54 -124t-131 -44t-130.5 44t-53.5 124z" />
<glyph unicode="&#xfb04;" horiz-adv-x="1968" d="M23 721v266h129v33q0 197 96 288t301 91q101 0 213 -23l-23 -223q-47 2 -129 2q-73 0 -102 -34.5t-29 -102.5v-31h373v33q0 198 93 288.5t298 90.5q90 0 297 -45v28h328v-1382h-328v1149q-100 6 -235 6q-73 0 -99 -33t-26 -102v-33h245v-266h-245v-721h-328v721h-373 v-721h-327v721h-129z" />
<glyph horiz-adv-x="624" d="M16 -57q61 34 91.5 62.5t47.5 75t17 120.5v1048h334v-985q0 -149 -36 -247.5t-112 -165t-211 -123.5z" />
<glyph horiz-adv-x="1298" d="M119 0v1249h334v-458h145l301 458h361v-26l-373 -590l391 -606v-27h-389l-279 446h-157v-446h-334z" />
<glyph horiz-adv-x="1298" d="M119 0v1249h334v-458h145l301 458h361v-26l-373 -590l391 -606v-27h-389l-279 446h-157v-446h-334zM520 -207q0 56 35.5 92.5t93.5 36.5q56 0 91.5 -40t35.5 -99q0 -90 -61 -162.5t-162 -101.5l-31 80q67 42 84 73q-39 12 -62.5 45.5t-23.5 75.5z" />
<glyph horiz-adv-x="1372" d="M70 621q0 312 160 480.5t456 168.5t456.5 -168.5t160.5 -480.5q0 -344 -197 -506q64 -72 176 -181l-233 -184q-132 143 -207 246q-66 -14 -156 -14q-296 0 -456 166t-160 473zM408 621q0 -340 278 -340q279 0 279 340q0 350 -279 350q-278 0 -278 -350z" />
<glyph horiz-adv-x="1310" d="M119 0v1249h516q264 0 407.5 -120t143.5 -343q0 -145 -54 -221t-163 -108q42 -21 77 -52.5t61 -74.5t44.5 -79.5t34.5 -90.5t23.5 -82t19.5 -78h-381q-14 55 -27.5 97t-34.5 88t-45 76t-58.5 49.5t-74.5 19.5h-157v-330h-332zM451 608h188q106 0 162 46t55 132 q0 85 -56.5 131t-160.5 46h-188v-355z" />
<glyph horiz-adv-x="1310" d="M119 0v1249h516q264 0 407.5 -120t143.5 -343q0 -145 -54 -221t-163 -108q42 -21 77 -52.5t61 -74.5t44.5 -79.5t34.5 -90.5t23.5 -82t19.5 -78h-381q-14 55 -27.5 97t-34.5 88t-45 76t-58.5 49.5t-74.5 19.5h-157v-330h-332zM434 1395l232 307l235 -127v-66 q-97 -65 -180 -107t-207 -89zM451 608h188q106 0 162 46t55 132q0 85 -56.5 131t-160.5 46h-188v-355z" />
<glyph horiz-adv-x="1310" d="M119 0v1249h516q264 0 407.5 -120t143.5 -343q0 -145 -54 -221t-163 -108q42 -21 77 -52.5t61 -74.5t44.5 -79.5t34.5 -90.5t23.5 -82t19.5 -78h-381q-14 55 -27.5 97t-34.5 88t-45 76t-58.5 49.5t-74.5 19.5h-157v-330h-332zM266 1602l80 86l281 -170l280 170l82 -86 l-268 -283h-189zM451 608h188q106 0 162 46t55 132q0 85 -56.5 131t-160.5 46h-188v-355z" />
<glyph horiz-adv-x="1310" d="M119 0v1249h516q264 0 407.5 -120t143.5 -343q0 -145 -54 -221t-163 -108q42 -21 77 -52.5t61 -74.5t44.5 -79.5t34.5 -90.5t23.5 -82t19.5 -78h-381q-14 55 -27.5 97t-34.5 88t-45 76t-58.5 49.5t-74.5 19.5h-157v-330h-332zM451 608h188q106 0 162 46t55 132 q0 85 -56.5 131t-160.5 46h-188v-355zM496 -207q0 56 35.5 92.5t93.5 36.5q56 0 91.5 -40t35.5 -99q0 -90 -61 -162.5t-163 -101.5l-28 80q65 43 82 73q-38 12 -62 46t-24 75z" />
<glyph horiz-adv-x="1132" d="M100 0v1321h328v-657h115l202 325h349v-24l-299 -445l319 -493v-27h-362l-215 367h-109v-367h-328z" />
<glyph horiz-adv-x="1132" d="M100 0v1321h328v-657h115l202 325h349v-24l-299 -445l319 -493v-27h-362l-215 367h-109v-367h-328zM430 -207q0 56 35.5 92.5t91.5 36.5q58 0 93.5 -39.5t35.5 -99.5q0 -90 -61.5 -162.5t-163.5 -101.5l-29 80q64 42 84 73q-39 12 -62.5 45.5t-23.5 75.5z" />
<glyph horiz-adv-x="1173" d="M59 504q0 257 98 380.5t275 123.5q175 0 313 -115v96h328v-989h-328v111q-72 -71 -129 -100t-163 -29q-80 0 -149 30t-125 91t-88 164t-32 237zM385 504q0 -254 174 -254q65 0 106.5 25t79.5 81v267q-83 112 -196 112q-82 0 -123 -55t-41 -176z" />
<glyph horiz-adv-x="1173" d="M59 504q0 257 98 380.5t275 123.5q175 0 313 -115v96h328v-989h-328v111q-72 -71 -129 -100t-163 -29q-80 0 -149 30t-125 91t-88 164t-32 237zM385 504q0 -254 174 -254q65 0 106.5 25t79.5 81v267q-83 112 -196 112q-82 0 -123 -55t-41 -176zM424 1159l264 338 l203 -145v-64q-163 -122 -387 -213z" />
<glyph horiz-adv-x="1173" d="M59 504q0 257 98 380.5t275 123.5q175 0 313 -115v96h328v-989h-328v111q-72 -71 -129 -100t-163 -29q-80 0 -149 30t-125 91t-88 164t-32 237zM324 1407h182q0 -52 33.5 -83.5t93.5 -31.5q62 0 95.5 31.5t33.5 83.5h182q0 -293 -311 -293q-309 0 -309 293zM385 504 q0 -254 174 -254q65 0 106.5 25t79.5 81v267q-83 112 -196 112q-82 0 -123 -55t-41 -176z" />
<glyph horiz-adv-x="1173" d="M59 504q0 257 98 380.5t275 123.5q175 0 313 -115v96h328v-989h-328v111q-72 -71 -129 -100t-163 -29q-80 0 -149 30t-125 91t-88 164t-32 237zM279 1163l258 285h178l260 -285l-78 -82q-173 103 -270 162q-47 -29 -137 -82t-134 -80zM385 504q0 -254 174 -254 q65 0 106.5 25t79.5 81v267q-83 112 -196 112q-82 0 -123 -55t-41 -176z" />
<glyph horiz-adv-x="1173" d="M59 504q0 257 98 380.5t275 123.5q175 0 313 -115v96h328v-989h-328v111q-72 -71 -129 -100t-163 -29q-80 0 -149 30t-125 91t-88 164t-32 237zM252 1272q0 68 45.5 107.5t108.5 39.5q67 0 111 -38.5t44 -108.5t-44 -109t-111 -39q-63 0 -108.5 40t-45.5 108zM385 504 q0 -254 174 -254q65 0 106.5 25t79.5 81v267q-83 112 -196 112q-82 0 -123 -55t-41 -176zM676 1272q0 70 44 108.5t111 38.5q63 0 109.5 -39.5t46.5 -107.5t-46.5 -108t-109.5 -40q-67 0 -111 39t-44 109z" />
<glyph horiz-adv-x="1173" d="M59 504q0 257 98 380.5t275 123.5q175 0 313 -115v96h328v-989h-328v111q-72 -71 -129 -100t-163 -29q-80 0 -149 30t-125 91t-88 164t-32 237zM369 1288v64l204 145l263 -338l-80 -84q-218 89 -387 213zM385 504q0 -254 174 -254q65 0 106.5 25t79.5 81v267 q-83 112 -196 112q-82 0 -123 -55t-41 -176z" />
<glyph horiz-adv-x="1173" d="M59 504q0 257 98 380.5t275 123.5q175 0 313 -115v96h328v-989h-328v111q-72 -71 -129 -100t-163 -29q-80 0 -149 30t-125 91t-88 164t-32 237zM303 1155v231h631v-231h-631zM385 504q0 -254 174 -254q65 0 106.5 25t79.5 81v267q-83 112 -196 112q-82 0 -123 -55 t-41 -176z" />
<glyph horiz-adv-x="1173" d="M59 504q0 257 98 380.5t275 123.5q175 0 313 -115v96h328v-989h-110q-84 -8 -131.5 -36t-47.5 -73q0 -37 33 -59t90 -22q32 0 162 20l33 -156q-141 -55 -283 -55q-110 0 -175.5 51t-65.5 135q0 69 44.5 127.5t122.5 90.5v88q-72 -71 -129 -100t-163 -29q-80 0 -149 30 t-125 91t-88 164t-32 237zM385 504q0 -254 174 -254q65 0 106.5 25t79.5 81v267q-83 112 -196 112q-82 0 -123 -55t-41 -176z" />
<glyph horiz-adv-x="1173" d="M59 504q0 257 98 380.5t275 123.5q175 0 313 -115v96h328v-989h-328v111q-72 -71 -129 -100t-163 -29q-80 0 -149 30t-125 91t-88 164t-32 237zM385 504q0 -254 174 -254q65 0 106.5 25t79.5 81v267q-83 112 -196 112q-82 0 -123 -55t-41 -176zM395 1305q0 99 62 159 t161 60t161.5 -60t62.5 -159q0 -93 -62.5 -152t-161.5 -59q-98 0 -160.5 58.5t-62.5 152.5zM530 1305q0 -36 24.5 -58t63.5 -22q40 0 64.5 21.5t24.5 58.5q0 41 -24.5 64.5t-64.5 23.5q-39 0 -63.5 -23.5t-24.5 -64.5z" />
<glyph horiz-adv-x="1173" d="M59 504q0 257 98 380.5t275 123.5q175 0 313 -115v96h328v-989h-328v111q-72 -71 -129 -100t-163 -29q-80 0 -149 30t-125 91t-88 164t-32 237zM264 1171q4 76 28 131t60 82.5t80 38.5t87.5 5.5t84.5 -23.5l113 -53q49 -21 75 -8t68 71l121 -4q-4 -77 -29.5 -133t-63 -84 t-84 -39.5t-91 -6.5t-84.5 23l-113 56q-47 22 -73.5 9.5t-67.5 -69.5zM385 504q0 -254 174 -254q65 0 106.5 25t79.5 81v267q-83 112 -196 112q-82 0 -123 -55t-41 -176z" />
<glyph horiz-adv-x="1193" d="M27 -203q0 140 131 183q-78 62 -78 194q0 77 28.5 123t120.5 76q-110 88 -110 278q0 192 104 274.5t350 82.5q172 0 281 -50q45 30 98.5 48t96.5 18q77 0 122 -18l-22 -179h-86q-39 0 -68 -6q33 -78 33 -170q0 -197 -104.5 -280.5t-350.5 -83.5q-155 0 -247 35 q-29 -26 -29 -56q0 -38 21 -48.5t88 -10.5h364q199 0 273.5 -62t74.5 -225q0 -198 -130.5 -283.5t-428.5 -85.5q-278 0 -405 57.5t-127 188.5zM283 -143q0 -63 67.5 -87t208.5 -24q165 0 226 21.5t61 85.5q0 34 -18 47.5t-58 13.5h-375q-71 -3 -91.5 -15.5t-20.5 -41.5z M430 651q0 -153 143 -153q78 0 112 35t34 118q0 162 -146 162q-77 0 -110 -37.5t-33 -124.5z" />
<glyph horiz-adv-x="1193" d="M27 -203q0 140 131 183q-78 62 -78 194q0 77 28.5 123t120.5 76q-110 88 -110 278q0 192 104 274.5t350 82.5q172 0 281 -50q45 30 98.5 48t96.5 18q77 0 122 -18l-22 -179h-86q-39 0 -68 -6q33 -78 33 -170q0 -197 -104.5 -280.5t-350.5 -83.5q-155 0 -247 35 q-29 -26 -29 -56q0 -38 21 -48.5t88 -10.5h364q199 0 273.5 -62t74.5 -225q0 -198 -130.5 -283.5t-428.5 -85.5q-278 0 -405 57.5t-127 188.5zM283 -143q0 -63 67.5 -87t208.5 -24q165 0 226 21.5t61 85.5q0 34 -18 47.5t-58 13.5h-375q-71 -3 -91.5 -15.5t-20.5 -41.5z M299 1407h184q0 -54 33.5 -85.5t93.5 -31.5q61 0 95 32t34 85h183q0 -293 -312 -293q-311 0 -311 293zM430 651q0 -153 143 -153q78 0 112 35t34 118q0 162 -146 162q-77 0 -110 -37.5t-33 -124.5z" />
<glyph horiz-adv-x="1193" d="M27 -203q0 140 131 183q-78 62 -78 194q0 77 28.5 123t120.5 76q-110 88 -110 278q0 192 104 274.5t350 82.5q172 0 281 -50q45 30 98.5 48t96.5 18q77 0 122 -18l-22 -179h-86q-39 0 -68 -6q33 -78 33 -170q0 -197 -104.5 -280.5t-350.5 -83.5q-155 0 -247 35 q-29 -26 -29 -56q0 -38 21 -48.5t88 -10.5h364q199 0 273.5 -62t74.5 -225q0 -198 -130.5 -283.5t-428.5 -85.5q-278 0 -405 57.5t-127 188.5zM283 -143q0 -63 67.5 -87t208.5 -24q165 0 226 21.5t61 85.5q0 34 -18 47.5t-58 13.5h-375q-71 -3 -91.5 -15.5t-20.5 -41.5z M430 651q0 -153 143 -153q78 0 112 35t34 118q0 162 -146 162q-77 0 -110 -37.5t-33 -124.5zM436 1282q0 96 59 165.5t193 125.5l37 -88q-65 -40 -96 -78q46 -15 73 -52.5t27 -86.5q0 -62 -41.5 -104t-105.5 -42t-105 46t-41 114z" />
<glyph horiz-adv-x="1193" d="M27 -203q0 140 131 183q-78 62 -78 194q0 77 28.5 123t120.5 76q-110 88 -110 278q0 192 104 274.5t350 82.5q172 0 281 -50q45 30 98.5 48t96.5 18q77 0 122 -18l-22 -179h-86q-39 0 -68 -6q33 -78 33 -170q0 -197 -104.5 -280.5t-350.5 -83.5q-155 0 -247 35 q-29 -26 -29 -56q0 -38 21 -48.5t88 -10.5h364q199 0 273.5 -62t74.5 -225q0 -198 -130.5 -283.5t-428.5 -85.5q-278 0 -405 57.5t-127 188.5zM283 -143q0 -63 67.5 -87t208.5 -24q165 0 226 21.5t61 85.5q0 34 -18 47.5t-58 13.5h-375q-71 -3 -91.5 -15.5t-20.5 -41.5z M424 1278q0 76 49 120t123 44q67 0 118.5 -45t51.5 -119t-51.5 -119t-118.5 -45q-74 0 -123 44t-49 120zM430 651q0 -153 143 -153q78 0 112 35t34 118q0 162 -146 162q-77 0 -110 -37.5t-33 -124.5z" />
<glyph horiz-adv-x="1200" d="M94 518v471h328v-471q0 -120 42.5 -166.5t129.5 -46.5q65 0 107 26t81 83v575h328v-817q0 -277 -124.5 -402.5t-377.5 -125.5q-113 0 -233.5 23t-204.5 61l45 217q207 -60 346 -60q112 0 166.5 63.5t54.5 203.5v6q-62 -62 -129.5 -88.5t-179.5 -26.5q-194 0 -286.5 116 t-92.5 359z" />
<glyph horiz-adv-x="1200" d="M94 518v471h328v-471q0 -120 42.5 -166.5t129.5 -46.5q65 0 107 26t81 83v575h328v-817q0 -277 -124.5 -402.5t-377.5 -125.5q-113 0 -233.5 23t-204.5 61l45 217q207 -60 346 -60q112 0 166.5 63.5t54.5 203.5v6q-62 -62 -129.5 -88.5t-179.5 -26.5q-194 0 -286.5 116 t-92.5 359zM414 1157l262 338l205 -143v-66q-160 -118 -387 -213z" />
<glyph horiz-adv-x="1200" d="M94 518v471h328v-471q0 -120 42.5 -166.5t129.5 -46.5q65 0 107 26t81 83v575h328v-817q0 -277 -124.5 -402.5t-377.5 -125.5q-113 0 -233.5 23t-204.5 61l45 217q207 -60 346 -60q112 0 166.5 63.5t54.5 203.5v6q-62 -62 -129.5 -88.5t-179.5 -26.5q-194 0 -286.5 116 t-92.5 359zM268 1161l258 287h179l258 -287l-78 -82q-52 33 -143 86.5t-128 75.5q-31 -19 -123 -73.5t-145 -88.5z" />
<glyph horiz-adv-x="1200" d="M94 518v471h328v-471q0 -120 42.5 -166.5t129.5 -46.5q65 0 107 26t81 83v575h328v-817q0 -277 -124.5 -402.5t-377.5 -125.5q-113 0 -233.5 23t-204.5 61l45 217q207 -60 346 -60q112 0 166.5 63.5t54.5 203.5v6q-62 -62 -129.5 -88.5t-179.5 -26.5q-194 0 -286.5 116 t-92.5 359zM240 1270q0 68 46 108.5t109 40.5q67 0 111.5 -39.5t44.5 -109.5q0 -68 -44.5 -108t-111.5 -40q-62 0 -108.5 40.5t-46.5 107.5zM666 1270q0 70 43.5 109.5t109.5 39.5q63 0 109.5 -40.5t46.5 -108.5q0 -67 -47 -107.5t-109 -40.5q-65 0 -109 40t-44 108z" />
<glyph horiz-adv-x="1200" d="M94 518v471h328v-471q0 -120 42.5 -166.5t129.5 -46.5q65 0 107 26t81 83v575h328v-817q0 -277 -124.5 -402.5t-377.5 -125.5q-113 0 -233.5 23t-204.5 61l45 217q207 -60 346 -60q112 0 166.5 63.5t54.5 203.5v6q-62 -62 -129.5 -88.5t-179.5 -26.5q-194 0 -286.5 116 t-92.5 359zM356 1286v66l205 143l264 -338l-80 -84q-231 97 -389 213z" />
<glyph horiz-adv-x="1929" d="M23 721v266h137v33q0 198 92.5 288.5t296.5 90.5q98 0 305 -47v30h328v-503q149 127 315 127q185 0 278.5 -120.5t94.5 -381.5q0 -134 -32 -237t-87.5 -164t-124.5 -91t-149 -30q-74 0 -128.5 17t-87 40.5t-79.5 69.5v-109h-328v1149q-104 6 -244 6q-72 0 -97.5 -33 t-25.5 -102v-33h244v-266h-244v-721h-327v721h-137zM1182 354q39 -54 82 -79t106 -25q174 0 174 254q0 121 -42 176t-124 55q-113 0 -196 -112v-269z" />
<glyph horiz-adv-x="2613" d="M23 721v266h129v33q0 197 96 288t301 91q101 0 213 -23l-23 -223q-47 2 -129 2q-73 0 -102 -34.5t-29 -102.5v-31h365v31q0 199 93 290t298 91q26 0 121.5 -13.5t181.5 -31.5v28h328v-503q151 129 315 129q185 0 279 -121.5t94 -382.5q0 -134 -32 -237t-87.5 -164 t-124.5 -91t-149 -30q-74 0 -128.5 17.5t-86.5 41t-80 70.5v-111h-328v1149q-61 4 -148.5 6t-93.5 2q-73 -1 -99 -34.5t-26 -102.5v-33h246v-266h-246v-721h-327v721h-365v-721h-327v721h-129zM1866 356q39 -55 81 -80.5t107 -25.5q174 0 174 254q0 121 -41 176t-123 55 q-115 0 -198 -112v-267z" />
<glyph horiz-adv-x="2236" d="M23 721v268h129v31q0 197 96 288t301 91q101 0 213 -23l-23 -223q-94 4 -129 4q-73 0 -102 -34.5t-29 -102.5v-31h412v31q0 197 96 288t301 91q101 0 213 -23l-22 -223q-94 4 -129 4q-73 0 -102 -34.5t-29 -102.5v-31h411v31q0 197 96.5 288t301.5 91q101 0 213 -23 l-23 -223q-94 4 -129 4q-73 0 -102 -34.5t-29 -102.5v-31h252v-268h-252v-721h-328v721h-411v-721h-328v721h-412v-721h-327v721h-129z" />
<glyph horiz-adv-x="2605" d="M23 721v266h129v33q0 197 96 288t301 91q101 0 213 -23l-23 -223q-47 2 -129 2q-73 0 -102 -34.5t-29 -102.5v-31h373v33q0 198 93 288.5t298 90.5q89 0 303 -45v28h328v-524q99 76 179 112t167 36q157 0 224 -88t67 -289v-629h-328v537q0 94 -22.5 129.5t-89.5 35.5 q-109 0 -197 -112v-590h-328v1149q-104 6 -241 6q-73 0 -99 -33t-26 -102v-33h245v-266h-245v-721h-328v721h-373v-721h-327v721h-129z" />
<glyph horiz-adv-x="1990" d="M23 721v268h129v31q0 197 96 288t301 91q101 0 213 -23l-23 -223q-94 4 -129 4q-73 0 -102 -34.5t-29 -102.5v-31h373v31q0 198 93 288.5t298 90.5q75 0 203 -25l-23 -221q-22 1 -48.5 2t-42 1.5t-27.5 0.5q-73 0 -99 -34t-26 -103v-31h688v-870q0 -101 -18.5 -175.5 t-62.5 -135.5t-120 -102.5t-188 -65.5l-66 217q79 42 103 97t24 165v602h-360v-721h-328v721h-373v-721h-327v721h-129zM1528 1278q0 79 53.5 122.5t130.5 43.5t130.5 -43.5t53.5 -122.5q0 -80 -53.5 -124t-130.5 -44t-130.5 44t-53.5 124z" />
<glyph horiz-adv-x="2605" d="M23 721v268h129v31q0 197 96 288t301 91q101 0 213 -23l-23 -223q-94 4 -129 4q-73 0 -102 -34.5t-29 -102.5v-31h373v31q0 198 93 288.5t298 90.5q102 0 305 -45v28h328v-747l319 354h371l-375 -424q111 -127 222 -278t192 -287h-364q-122 196 -254 334l-111 -125v-209 h-328v1149q-131 8 -243 8q-73 0 -99 -34t-26 -103v-31h245v-268h-245v-721h-328v721h-373v-721h-327v721h-129z" />
<glyph horiz-adv-x="2236" d="M23 721v268h129v31q0 197 96 288t301 91q101 0 213 -23l-23 -223q-94 4 -129 4q-73 0 -102 -34.5t-29 -102.5v-31h412v31q0 197 96 288t301 91q101 0 213 -23l-22 -223q-94 4 -129 4q-73 0 -102 -34.5t-29 -102.5v-31h372v219h328v-219h242v-268h-242v-344q0 -69 27 -100 t96 -31q78 0 133 4l31 -197q-54 -30 -132.5 -48.5t-154.5 -18.5q-174 0 -251 87.5t-77 288.5v359h-372v-721h-328v721h-412v-721h-327v721h-129z" />
<glyph horiz-adv-x="1912" d="M23 721v266h137v33q0 198 92.5 288.5t296.5 90.5q98 0 305 -47v30h328v-524q97 76 178 112t168 36q157 0 224 -88t67 -289v-629h-328v537q0 94 -23 129.5t-90 35.5q-108 0 -196 -112v-590h-328v1149q-104 6 -244 6q-72 0 -97.5 -33t-25.5 -102v-33h244v-266h-244v-721 h-327v721h-137z" />
<glyph horiz-adv-x="1298" d="M23 721v268h137v31q0 198 92.5 288.5t296.5 90.5q85 0 227 -29l-26 -217q-132 4 -140 4q-72 0 -97.5 -34t-25.5 -103v-31h689v-870q0 -203 -86.5 -317t-305.5 -162l-63 217q79 42 103 97t24 165v602h-361v-721h-327v721h-137zM836 1278q0 79 53.5 122.5t130.5 43.5 t130.5 -43.5t53.5 -122.5q0 -80 -53.5 -124t-130.5 -44t-130.5 44t-53.5 124z" />
<glyph horiz-adv-x="1910" d="M23 721v266h137v33q0 198 92.5 288.5t296.5 90.5q98 0 305 -47v30h328v-739l321 346h371l-377 -422q236 -270 414 -567h-363q-116 189 -258 338l-108 -121v-217h-328v1149q-104 6 -244 6q-72 0 -97.5 -33t-25.5 -102v-33h244v-266h-244v-721h-327v721h-137z" />
<glyph horiz-adv-x="1503" d="M23 721v268h129v31q0 197 96 288t301 91q101 0 213 -23l-23 -223q-94 4 -129 4q-73 0 -102 -34.5t-29 -102.5v-31h379v219h328v-219h241v-268h-241v-344q0 -69 27 -100t96 -31q78 0 133 4l31 -197q-54 -30 -132.5 -48.5t-154.5 -18.5q-174 0 -251 87.5t-77 288.5v359 h-379v-721h-327v721h-129z" />
<glyph horiz-adv-x="1636" d="M100 0v989h328v-182q52 101 116 151t148 50q59 0 123 -7l-22 -329q-49 4 -117 4q-98 0 -158.5 -40t-89.5 -142v-494h-328zM889 721v268h104v31q0 198 93.5 288.5t297.5 90.5q130 0 256 -33l-32 -213q-144 4 -162 4q-73 0 -99 -34t-26 -103v-31h246v-268h-246v-721h-328 v721h-104z" />
<glyph horiz-adv-x="1630" d="M100 0v989h328v-182q52 101 116 151t148 50q59 0 123 -7l-22 -329q-49 4 -117 4q-98 0 -158.5 -40t-89.5 -142v-494h-328zM881 721v268h102v219h328v-219h243v-268h-243v-344q0 -69 27 -100t98 -31q78 0 131 4l32 -197q-55 -31 -133 -49t-153 -18q-174 0 -252 87.5 t-78 288.5v359h-102z" />
<glyph horiz-adv-x="1239" d="M70 535q0 167 59.5 291.5t185 197t306.5 72.5q268 0 408 -153t140 -408q0 -252 -140 -402.5t-408 -150.5q-136 0 -242 40.5t-173 114.5t-101.5 174.5t-34.5 223.5zM408 535q0 -114 50.5 -184t162.5 -70t161 70t49 184q0 262 -210 262q-113 0 -163 -71.5t-50 -190.5z" />
<glyph horiz-adv-x="1046" d="M47 860q217 78 412 215h270v-796h248v-279h-883v279h301v434q-132 -36 -284 -58z" />
<glyph horiz-adv-x="1101" d="M33 944q178 80 302 116t247 36q203 0 325.5 -104t122.5 -273q0 -71 -26.5 -131.5t-70 -105.5t-110.5 -85.5t-136.5 -69t-158.5 -57.5q162 9 203 9h309v-279h-977v236q302 146 380 190q196 110 233 195q10 23 10 47q0 72 -45 110.5t-119 38.5q-148 0 -399 -104z" />
<glyph horiz-adv-x="1138" d="M33 -57l92 225q237 -105 438 -105q88 0 138.5 37t50.5 101q0 66 -66 101.5t-192 35.5h-175v244h175q125 0 180 25.5t55 86.5q0 68 -49 106t-135 38q-153 0 -402 -84l-69 219q283 123 514 123q196 0 321 -98t125 -255q1 -101 -50 -170t-134 -100q110 -43 164.5 -110.5 t54.5 -167.5q0 -182 -131.5 -283.5t-359.5 -101.5q-296 0 -545 133z" />
<glyph horiz-adv-x="1267" d="M35 225l686 830h328v-797h178v-258h-178v-205h-328v205h-670zM340 258h381v451q-58 -77 -94 -117l-164 -203q-67 -78 -123 -131z" />
<glyph horiz-adv-x="1161" d="M33 -80l92 242q237 -105 424 -105q96 0 161.5 49t65.5 127q0 70 -50.5 114t-135.5 44q-97 0 -203 -82l-268 39l43 707h878v-275h-614l-23 -264q141 88 295 88q186 0 290 -102.5t104 -282.5q0 -136 -68 -235.5t-179 -148t-249 -48.5q-141 0 -289 33t-274 100z" />
<glyph horiz-adv-x="1193" d="M70 565q0 326 175.5 515.5t461.5 189.5q196 0 391 -82l-80 -232q-179 45 -295 45q-276 -3 -324 -299q138 107 344 107q179 0 289.5 -107t110.5 -278q0 -204 -133.5 -323t-368.5 -119q-275 0 -423 155.5t-148 427.5zM399 477q39 -231 242 -231q85 0 137.5 51.5t52.5 140.5 q0 73 -53 117.5t-141 44.5q-69 0 -133 -32.5t-105 -90.5z" />
<glyph horiz-adv-x="1021" d="M29 774v281h970v-248q-142 -205 -262.5 -474t-191.5 -528h-387q92 266 217 523.5t266 445.5h-612z" />
<glyph horiz-adv-x="1187" d="M41 356q0 196 240 301q-187 101 -187 267t135 256t381 90q233 0 356.5 -86.5t123.5 -243.5q0 -172 -218 -258q142 -59 208.5 -134.5t66.5 -191.5q0 -178 -143 -276t-390 -98q-300 0 -436.5 94.5t-136.5 279.5zM360 381q0 -71 60.5 -110.5t163.5 -39.5q96 0 152.5 38 t56.5 102q0 59 -61.5 100t-223.5 96q-148 -70 -148 -186zM416 930q0 -56 47.5 -91.5t169.5 -76.5q84 32 118.5 74.5t34.5 97.5q0 57 -52 92t-138 35q-81 0 -130.5 -36t-49.5 -95z" />
<glyph horiz-adv-x="1193" d="M51 655q0 204 134 322.5t374 118.5q270 0 410.5 -155t140.5 -429q0 -349 -157.5 -527t-454.5 -178q-200 0 -396 87l80 231q182 -49 299 -49q136 1 207 71.5t90 214.5q-63 -54 -139.5 -79t-187.5 -25q-178 0 -289 112t-111 285zM362 639q0 -73 53.5 -117.5t141.5 -44.5 q60 0 119.5 32.5t103.5 82.5q-14 117 -69.5 178t-151.5 61q-89 0 -143 -51t-54 -141z" />
<glyph horiz-adv-x="1157" d="M23 623q0 314 140.5 480.5t416.5 166.5q274 0 414.5 -166.5t140.5 -480.5q0 -312 -140.5 -476.5t-414.5 -164.5q-276 0 -416.5 164.5t-140.5 476.5zM360 623q0 -173 51.5 -257.5t168.5 -84.5t167 84t50 258q0 178 -50 263t-167 85t-168.5 -85t-51.5 -263z" />
<glyph horiz-adv-x="1157" d="M86 1034q217 78 412 215h270v-970h248v-279h-862v279h280v604q-132 -36 -284 -58z" />
<glyph horiz-adv-x="1157" d="M55 1120q179 79 302.5 114.5t246.5 35.5q204 0 326.5 -115t122.5 -307q0 -43 -10 -83.5t-32 -79t-47.5 -72.5t-66 -71.5t-77 -68t-91.5 -69t-99.5 -68t-109.5 -70.5q178 13 234 13h309v-279h-977v236q54 43 142 112t134.5 106t112 91t100 88.5t70 74.5t50 72.5t14.5 61.5 q0 72 -45 111.5t-119 39.5q-144 0 -400 -106z" />
<glyph horiz-adv-x="1157" d="M41 115l90 225q217 -96 444 -96q91 0 141 33t50 96q0 66 -67.5 101.5t-198.5 35.5h-174v244h174q130 0 186.5 25.5t56.5 86.5q0 68 -49.5 106t-136.5 38q-158 0 -407 -84l-70 219q283 123 522 123q196 0 321.5 -98t125.5 -255q0 -101 -51.5 -172t-133.5 -102 q111 -44 165 -109.5t54 -164.5q0 -182 -131.5 -283.5t-359.5 -101.5q-299 0 -551 133z" />
<glyph horiz-adv-x="1157" d="M14 453l656 796h327v-764h148v-258h-148v-227h-327v227h-641zM330 485h340v424q-22 -39 -58 -82l-204 -252q-5 -5 -33.5 -39t-44.5 -51z" />
<glyph horiz-adv-x="1157" d="M47 115l92 241q217 -96 424 -96q97 0 162.5 45.5t65.5 122.5q0 70 -51 114t-136 44q-97 0 -203 -82l-268 39l43 706h879v-278h-594l-21 -250q115 78 273 78q185 0 289 -102t104 -283q0 -136 -68 -235.5t-179 -148t-249 -48.5q-139 0 -287.5 33.5t-275.5 99.5z" />
<glyph horiz-adv-x="1157" d="M45 565q0 326 175.5 515.5t461.5 189.5q193 0 391 -82l-80 -232q-181 45 -295 45q-279 -3 -323 -299q138 107 344 107q179 0 289 -107t110 -278q0 -204 -134 -323t-370 -119q-275 0 -422 155.5t-147 427.5zM375 477q39 -231 239 -231q86 0 139.5 51.5t53.5 140.5 q0 73 -53.5 117.5t-141.5 44.5q-70 0 -134 -32.5t-103 -90.5z" />
<glyph horiz-adv-x="1157" d="M92 969v280h971v-248q-142 -206 -263.5 -474.5t-191.5 -526.5h-389q94 267 220 524t266 445h-613z" />
<glyph horiz-adv-x="1157" d="M25 356q0 196 239 301q-186 100 -186 267q0 166 135 256t381 90q232 0 355.5 -86.5t123.5 -243.5q0 -173 -217 -258q142 -59 208 -134.5t66 -191.5q0 -178 -142.5 -276t-389.5 -98q-300 0 -436.5 94.5t-136.5 279.5zM344 381q0 -71 60 -110.5t163 -39.5q95 0 152 38 t57 102q0 59 -61 100t-223 96q-148 -70 -148 -186zM399 930q0 -56 47.5 -91.5t169.5 -76.5q84 32 119 74.5t35 97.5q0 57 -52 92t-138 35q-82 0 -131.5 -36t-49.5 -95z" />
<glyph horiz-adv-x="1157" d="M41 829q0 204 134 322.5t374 118.5q269 0 409 -155t140 -429q1 -349 -156.5 -526.5t-454.5 -177.5q-203 0 -395 88l80 229q180 -49 299 -49q136 1 207 72t90 215q-63 -54 -140 -79.5t-188 -25.5q-178 0 -288.5 111.5t-110.5 285.5zM350 813q0 -73 54.5 -117.5 t142.5 -44.5q59 0 119 32.5t104 82.5q-31 240 -221 240q-89 0 -144 -52t-55 -141z" />
<glyph horiz-adv-x="1280" d="M70 623q0 315 143 481t428 166t427 -166t142 -481q0 -313 -142 -477t-427 -164t-428 164t-143 477zM408 623q0 -39 4 -105l381 402q-54 51 -152 51q-128 0 -180.5 -84t-52.5 -264zM475 342q55 -61 166 -61q126 0 178.5 83.5t52.5 258.5q0 77 -8 129z" />
<glyph horiz-adv-x="817" d="M53 379q0 196 89.5 298.5t267.5 102.5q177 0 265.5 -102.5t88.5 -298.5q0 -193 -89 -295t-265 -102q-178 0 -267.5 102t-89.5 295zM266 379q0 -108 31.5 -157.5t112.5 -49.5q79 0 110 49t31 158q0 113 -31 163t-110 50q-81 0 -112.5 -50t-31.5 -163z" />
<glyph horiz-adv-x="700" d="M61 643q140 52 256 133h170v-598h175v-178h-560v178h177v367q-106 -25 -179 -35z" />
<glyph horiz-adv-x="731" d="M39 696q113 48 189.5 70t154.5 22q126 0 201 -71t75 -191q0 -42 -18 -82t-42.5 -70.5t-73 -69.5t-86.5 -65t-105 -69q98 8 139 8h193v-178h-607v150q34 27 88 69.5t82.5 65.5t68.5 56t61 53.5t42 45t30 44.5t9 38q0 45 -25.5 67.5t-70.5 22.5q-97 0 -246 -65z" />
<glyph horiz-adv-x="737" d="M27 66l57 143q141 -66 274 -66q54 0 84.5 21t30.5 59q0 84 -162 84h-112v156h112q79 0 113.5 15.5t34.5 53.5q0 41 -29.5 62.5t-83.5 21.5q-104 0 -252 -51l-43 140q179 73 324 73q124 0 201 -59t77 -158q0 -63 -32 -107.5t-84 -64.5q69 -27 102 -66.5t33 -101.5 q0 -114 -80.5 -176.5t-222.5 -62.5q-191 0 -342 84z" />
<glyph horiz-adv-x="815" d="M31 281l426 495h202v-475h113v-164h-113v-137h-202v137h-416zM221 301h236v260q-31 -40 -56 -65l-104 -117q-35 -41 -76 -78z" />
<glyph horiz-adv-x="759" d="M47 66l57 151q149 -63 263 -63q60 0 98.5 28.5t38.5 77.5q0 45 -29.5 70.5t-81.5 25.5q-61 0 -127 -51l-170 25l27 438h549v-174h-381l-12 -156q88 56 182 56q117 0 180.5 -64t63.5 -180q0 -127 -86.5 -197.5t-221.5 -70.5q-195 0 -350 84z" />
<glyph horiz-adv-x="774" d="M53 344q0 203 109.5 319.5t290.5 116.5q124 0 241 -49l-49 -147q-99 26 -182 26q-181 0 -203 -196q89 75 217 75q112 0 180 -64t68 -169q2 -125 -80.5 -199.5t-232.5 -74.5q-171 0 -265 97t-94 265zM262 297q11 -71 50 -109t100 -38q53 0 84.5 31t31.5 85 q0 43 -32.5 69.5t-85.5 26.5q-40 0 -81.5 -17.5t-66.5 -47.5z" />
<glyph horiz-adv-x="679" d="M33 600v176h606v-158q-90 -129 -166 -294t-117 -324h-245q55 161 134 320t167 280h-379z" />
<glyph horiz-adv-x="784" d="M49 213q0 120 148 188q-115 61 -115 166q0 103 83.5 158t235.5 55q145 0 221 -52.5t76 -149.5q0 -108 -131 -162q86 -37 127 -83.5t41 -117.5q3 -111 -86.5 -173t-245.5 -60q-354 0 -354 231zM250 229q0 -42 37 -66t98 -24q57 0 92 23.5t35 60.5q0 36 -37.5 61t-134.5 58 q-90 -45 -90 -113zM285 569q0 -33 29 -54.5t102 -47.5q90 38 90 106q0 34 -30.5 54t-82.5 20q-49 0 -78.5 -21.5t-29.5 -56.5z" />
<glyph horiz-adv-x="753" d="M45 508q0 127 82.5 199.5t230.5 72.5q168 0 255 -95t87 -265q0 -217 -97 -327.5t-281 -110.5q-128 0 -246 53l51 147q106 -30 184 -30q88 0 131 45.5t52 142.5q-85 -64 -203 -64q-111 0 -178.5 63.5t-67.5 168.5zM240 500q0 -47 31 -73t87 -26q82 0 138 56 q-15 157 -138 157q-55 0 -86.5 -29.5t-31.5 -84.5z" />
<glyph horiz-adv-x="817" d="M53 868q0 196 89.5 299t267.5 103q177 0 265.5 -103t88.5 -299q0 -193 -89 -295t-265 -102q-178 0 -267.5 102t-89.5 295zM266 868q0 -108 31.5 -157t112.5 -49q79 0 110 49t31 157q0 113 -31 163t-110 50q-81 0 -112.5 -50t-31.5 -163z" />
<glyph horiz-adv-x="700" d="M61 1116q140 52 256 133h170v-598h175v-178h-560v178h177v367q-105 -25 -179 -35z" />
<glyph horiz-adv-x="731" d="M39 1176q111 50 188 72t156 22q126 0 201 -71.5t75 -190.5q0 -42 -18 -82t-42.5 -71t-72.5 -70t-86.5 -65t-105.5 -69q98 8 139 8h193v-178h-607v150q33 26 88 69.5t83 65.5t68 56t60.5 54.5t42.5 45t30.5 44.5t8.5 38q0 45 -25.5 67.5t-70.5 22.5q-95 0 -246 -66z" />
<glyph horiz-adv-x="737" d="M27 557l57 143q139 -65 274 -65q54 0 84.5 21t30.5 59q0 84 -162 84h-112v155h112q79 0 113.5 16t34.5 54q0 41 -29.5 62.5t-83.5 21.5q-104 0 -252 -51l-43 139q181 74 324 74q124 0 201 -59t77 -158q0 -63 -32 -107.5t-84 -64.5q69 -27 102 -66.5t33 -101.5 q0 -115 -80.5 -177.5t-222.5 -62.5q-191 0 -342 84z" />
<glyph horiz-adv-x="815" d="M31 754l426 495h202v-475h113v-164h-113v-137h-202v137h-416zM221 774h236v260q-31 -41 -56 -65l-104 -117q-35 -41 -76 -78z" />
<glyph horiz-adv-x="759" d="M47 547l57 151q149 -63 263 -63q60 0 98.5 28.5t38.5 77.5q0 45 -29.5 71t-81.5 26q-59 0 -127 -52l-170 25l27 438h549v-174h-381l-12 -155q86 55 182 55q117 0 180.5 -64t63.5 -180q0 -127 -86.5 -197.5t-221.5 -70.5q-195 0 -350 84z" />
<glyph horiz-adv-x="774" d="M53 834q0 203 109.5 319.5t290.5 116.5q124 0 241 -49l-49 -148q-103 27 -182 27q-181 0 -203 -197q90 76 217 76q112 0 180 -64.5t68 -169.5q2 -125 -80.5 -199.5t-232.5 -74.5q-171 0 -265 97.5t-94 265.5zM262 786q11 -71 50 -109t100 -38q53 0 84.5 31.5t31.5 85.5 q0 43 -32.5 69.5t-85.5 26.5q-39 0 -80.5 -18t-67.5 -48z" />
<glyph horiz-adv-x="679" d="M33 1073v176h606v-157q-90 -128 -166 -294t-117 -325h-245q55 161 134 320t167 280h-379z" />
<glyph horiz-adv-x="784" d="M49 702q0 121 148 189q-115 61 -115 166q0 103 83.5 158t235.5 55q145 0 221 -52.5t76 -150.5q0 -108 -131 -162q86 -37 127 -83t41 -117q3 -111 -87 -173.5t-245 -60.5q-354 0 -354 231zM250 719q0 -42 37 -66t98 -24q57 0 92 23.5t35 60.5q0 36 -37 60t-135 58 q-90 -45 -90 -112zM285 1059q0 -33 29.5 -55.5t101.5 -47.5q90 38 90 107q0 34 -30.5 54t-82.5 20q-49 0 -78.5 -21.5t-29.5 -56.5z" />
<glyph horiz-adv-x="753" d="M45 997q0 127 82.5 200t230.5 73q168 0 255 -95.5t87 -265.5q0 -217 -97 -327.5t-281 -110.5q-128 0 -246 53l51 148q109 -31 184 -31q88 0 131 45.5t52 142.5q-84 -63 -203 -63q-111 0 -178.5 63t-67.5 168zM240 989q0 -47 31 -72.5t87 -25.5q83 0 138 55 q-15 158 -138 158q-55 0 -86.5 -30t-31.5 -85z" />
<glyph horiz-adv-x="907" d="M90 1341h277l452 -1468h-270z" />
<glyph horiz-adv-x="710" d="M111 612q0 106 68 176t177 70t177.5 -70t68.5 -176t-68.5 -175.5t-177.5 -69.5t-177 69.5t-68 175.5z" />
<glyph horiz-adv-x="536" d="M94 0l47 805h254l47 -805h-348zM115 1110q0 66 42.5 110t110.5 44t111 -44t43 -110t-43 -111t-111 -45t-110.5 45t-42.5 111z" />
<glyph horiz-adv-x="589" d="M106 633q0 79 51.5 131.5t133.5 52.5t133 -52.5t51 -131.5q0 -80 -51 -133.5t-133 -53.5t-133.5 54t-51.5 133z" />
<glyph horiz-adv-x="1105" d="M72 373q0 145 112.5 244t315.5 139l-4 100h260l47 -303q-147 -4 -235 -23.5t-120 -48t-32 -71.5q0 -72 45 -112t119 -40q141 0 399 107l90 -232q-177 -79 -301 -115t-248 -36q-202 0 -325 110t-123 281zM469 1112q0 66 43 110t111 44t110.5 -44t42.5 -110t-42.5 -111 t-110.5 -45t-111 45t-43 111z" />
<glyph horiz-adv-x="921" d="M90 -182l469 1523h277l-476 -1523h-270z" />
<glyph horiz-adv-x="829" d="M57 508v231q131 12 176.5 58t45.5 157v33q0 211 118 304.5t389 97.5l19 -228q-132 -18 -175.5 -55.5t-43.5 -118.5v-33q0 -153 -56.5 -227t-177.5 -100q122 -24 178 -98t56 -234v-35q0 -80 43.5 -118t175.5 -54l-19 -229q-272 6 -389.5 99t-117.5 302v35q0 63 -9 100 t-35.5 61.5t-67 35.5t-110.5 16z" />
<glyph horiz-adv-x="829" d="M31 88q132 16 175.5 54t43.5 118v35q0 160 55.5 234t177.5 98q-121 26 -177 99.5t-56 227.5v33q0 81 -43.5 118.5t-175.5 55.5l18 228q273 -4 390.5 -97.5t117.5 -304.5v-33q0 -111 45.5 -157t177.5 -58v-231q-136 -11 -179.5 -51.5t-43.5 -161.5v-35q0 -209 -117.5 -302 t-390.5 -99z" />
<glyph horiz-adv-x="798" d="M176 -117v1469h582v-252h-285v-967h285v-250h-582z" />
<glyph horiz-adv-x="798" d="M47 -117v250h285v967h-285v252h582v-1469h-582z" />
<glyph horiz-adv-x="694" d="M129 616q0 121 21 220.5t66.5 189t99.5 162t139 166.5l192 -109q-49 -72 -75 -112t-60.5 -105t-50.5 -119.5t-28.5 -130.5t-12.5 -162t12 -162t28.5 -130t51 -119t60.5 -104.5t75 -110.5l-192 -111q-85 95 -138.5 167.5t-100 162t-67 188.5t-20.5 219z" />
<glyph horiz-adv-x="677" d="M37 -10q61 86 93.5 139t68 131t50.5 163.5t15 192.5t-15 193t-50.5 164.5t-68 131.5t-93.5 140l192 109q85 -94 139 -166.5t100.5 -162t67.5 -189t21 -220.5q0 -120 -21 -219t-67.5 -188.5t-100 -161.5t-139.5 -168z" />
<glyph horiz-adv-x="1902" d="M117 514v242h1669v-242h-1669z" />
<glyph horiz-adv-x="1021" d="M117 514v242h788v-242h-788z" />
<glyph horiz-adv-x="837" d="M117 500v286h604v-286h-604z" />
<glyph horiz-adv-x="1261" d="M66 618l454 441l164 -162l-207 -209q-34 -34 -82 -72q37 -26 84 -69l205 -211l-162 -156zM547 618l454 441l164 -162l-207 -209q-38 -38 -81 -72q37 -26 84 -69l204 -211l-161 -156z" />
<glyph horiz-adv-x="1261" d="M98 336l203 211q33 31 84 71q-58 46 -82 70l-205 209l162 162l455 -441l-457 -438zM580 336l202 211q33 31 84 71q-58 46 -82 70l-204 209l161 162l455 -441l-457 -438z" />
<glyph horiz-adv-x="780" d="M66 618l454 441l164 -162l-207 -209q-34 -34 -82 -72q37 -26 84 -69l205 -211l-162 -156z" />
<glyph horiz-adv-x="780" d="M98 336l203 211q33 31 84 71q-58 46 -82 70l-205 209l162 162l455 -441l-457 -438z" />
<glyph horiz-adv-x="1157" d="M25 354l41 209h110l4 21q54 289 186 427t353 138q111 0 208 -25.5t203 -87.5l-90 -198q-165 53 -274 53q-100 0 -166.5 -71t-97.5 -236l-4 -21h387l-41 -209h-385l-66 -354h-319l65 354h-114z" />
<glyph horiz-adv-x="1157" d="M104 557q0 242 113 393t299 183v116h213v-116q135 -19 301 -103l-92 -211q-134 58 -279 58q-110 0 -168.5 -80t-58.5 -240q0 -311 225 -311q170 0 304 86l104 -199q-155 -123 -336 -145v-107h-213v109q-86 14 -158.5 53.5t-130.5 107t-90.5 171.5t-32.5 235z" />
<glyph horiz-adv-x="1157" d="M76 139l104 232q257 -144 428 -144q67 0 102 24.5t35 63.5q0 42 -54.5 70t-227.5 82q-188 58 -262 139.5t-74 212.5q0 132 89.5 217.5t250.5 98.5v120h211v-127q148 -18 350 -92l-74 -227q-267 92 -395 92q-55 0 -87 -22.5t-32 -57.5q0 -44 47 -66.5t234 -76.5 q182 -53 261 -134t79 -218q0 -144 -100.5 -234.5t-282.5 -105.5v-113h-211v123q-210 31 -391 143z" />
<glyph horiz-adv-x="1157" d="M39 375v127h108l-2 55v16h-106v127h119q36 210 170 325.5t325 115.5q110 0 208.5 -26t207.5 -85l-90 -211q-152 66 -279 66q-172 0 -219 -185h402l-37 -127h-379v-16v-57h354l-37 -125h-292q48 -137 204 -137q159 0 305 94l105 -199q-105 -81 -208.5 -116t-248.5 -35 q-114 0 -210 39.5t-171 130t-104 223.5h-125z" />
<glyph horiz-adv-x="1157" d="M55 0v240l131 20l17 176h-148v172h166q30 279 150.5 410t337.5 131q228 0 411 -113l-90 -209q-154 64 -274 64q-94 0 -144.5 -63t-70.5 -220h333v-172h-350l-18 -168h538v-268h-989z" />
<glyph horiz-adv-x="1157" d="M35 1124h340l157 -327q6 -17 21.5 -68.5t26.5 -79.5q10 26 24 74.5t23 73.5l155 327h342l-276 -559h213v-127h-277l-32 -67h309v-127h-316v-244h-333v244h-308v127h302l-33 67h-269v127h207z" />
<glyph horiz-adv-x="1308" d="M61 571q0 160 79.5 296.5t216.5 216t298 79.5q160 0 296.5 -79.5t216 -216t79.5 -296.5q0 -161 -79.5 -298t-216 -216.5t-296.5 -79.5q-161 0 -298 79.5t-216.5 216.5t-79.5 298zM342 539l313 -293l312 291l-97 98l-145 -143v372h-137v-372l-150 143z" />
<glyph horiz-adv-x="1308" d="M61 569q0 -160 79.5 -296.5t216.5 -216t298 -79.5q160 0 296.5 79.5t216 216t79.5 296.5q0 161 -79.5 298t-216 217t-296.5 81q-161 -1 -298 -81t-216.5 -217t-79.5 -298zM410 328v440h137v-207l266 264l96 -96l-264 -268h205v-133h-440z" />
<glyph horiz-adv-x="1308" d="M61 569q0 -160 79.5 -296.5t216.5 -216t298 -79.5q160 0 296.5 79.5t216 216t79.5 296.5q0 161 -79.5 298t-216 217t-296.5 81q-161 -1 -298 -81t-216.5 -217t-79.5 -298zM397 729l97 96l268 -264v207h137v-440h-442v133h205z" />
<glyph horiz-adv-x="1308" d="M61 569q0 161 79.5 298t216.5 217t298 81q160 -1 296.5 -81t216 -217t79.5 -298q0 -160 -79.5 -296.5t-216 -216t-296.5 -79.5q-161 0 -298 79.5t-216.5 216t-79.5 296.5zM330 569l291 -311l98 96l-144 148h373v137h-373l144 147l-96 97z" />
<glyph horiz-adv-x="1308" d="M61 569q0 161 79.5 298t216 217t296.5 81q161 -1 298 -81t216.5 -217t79.5 -298q0 -160 -79.5 -296.5t-216.5 -216t-298 -79.5q-160 0 -296.5 79.5t-216 216t-79.5 296.5zM360 502h375l-145 -148l98 -96l291 311l-291 314l-98 -97l145 -147h-375v-137z" />
<glyph horiz-adv-x="1308" d="M61 569q0 161 79.5 298t216.5 216.5t298 79.5q160 0 296.5 -79.5t216 -216.5t79.5 -298q0 -160 -79.5 -296.5t-216 -216t-296.5 -79.5q-161 0 -298 79.5t-216.5 216t-79.5 296.5zM342 604l96 -98l150 145v-375h137v375l145 -143l97 96l-312 291z" />
<glyph horiz-adv-x="1308" d="M61 573q0 -161 79.5 -298t216.5 -217t298 -81q160 1 296.5 81t216 217t79.5 298q0 160 -79.5 296.5t-216 216t-296.5 79.5q-161 0 -298 -79.5t-216.5 -216t-79.5 -296.5zM410 375v440h440v-133h-205l264 -268l-96 -97l-266 265v-207h-137z" />
<glyph horiz-adv-x="1308" d="M61 573q0 -161 79.5 -298t216 -217t296.5 -81q161 1 298 81t216.5 217t79.5 298q0 160 -79.5 296.5t-216.5 216t-298 79.5q-160 0 -296.5 -79.5t-216 -216t-79.5 -296.5zM399 414l265 268h-205v133h440v-440h-135v207l-268 -265z" />
<glyph horiz-adv-x="1009" d="M61 571q0 119 60 221t162.5 162t222.5 60q181 0 311.5 -130.5t130.5 -312.5q0 -120 -59.5 -222.5t-161.5 -162t-221 -59.5q-183 0 -314 130.5t-131 313.5zM141 571q0 -151 107 -257.5t258 -106.5q150 0 257 107t107 257q0 149 -107.5 257t-256.5 108 q-150 0 -257.5 -107.5t-107.5 -257.5zM270 545l236 -217l233 217l-75 76l-107 -107v277h-102v-277l-109 107z" />
<glyph horiz-adv-x="1009" d="M61 571q0 118 59.5 220t162 162.5t223.5 60.5q181 0 311.5 -130.5t130.5 -312.5q0 -120 -59.5 -222.5t-161.5 -162t-221 -59.5q-183 0 -314 130.5t-131 313.5zM141 571q0 -151 107 -257.5t258 -106.5q150 0 257 107t107 257q0 149 -107.5 257t-256.5 108 q-150 0 -257.5 -107.5t-107.5 -257.5zM334 391v330h104v-154l199 197l74 -74l-197 -198h150v-101h-330z" />
<glyph horiz-adv-x="1009" d="M61 571q0 119 60 221t162 162t221 60q121 0 224 -60.5t161.5 -162.5t58.5 -220q0 -183 -130.5 -313.5t-313.5 -130.5q-119 0 -221 59.5t-162 162t-60 222.5zM141 571q0 -151 106.5 -257.5t256.5 -106.5q151 0 258.5 106.5t107.5 257.5q0 149 -108 257t-258 108 q-149 0 -256 -108t-107 -257zM301 690l72 74l198 -197v154h105v-330h-330v101h150z" />
<glyph horiz-adv-x="1009" d="M61 571q0 119 60 221t162.5 162t222.5 60q181 0 311.5 -130.5t130.5 -312.5q0 -120 -59.5 -222.5t-161.5 -162t-221 -59.5q-183 0 -314 130.5t-131 313.5zM141 571q0 -151 107 -257.5t258 -106.5q150 0 257 107t107 257q0 149 -107.5 257t-256.5 108 q-150 0 -257.5 -107.5t-107.5 -257.5zM262 569l217 -233l76 76l-106 106h276v103h-276l106 108l-76 76z" />
<glyph horiz-adv-x="1009" d="M61 571q0 119 60 221t162 162t221 60q120 0 222.5 -60t162 -162t59.5 -221q0 -183 -130.5 -313.5t-313.5 -130.5q-119 0 -221 59.5t-162 162t-60 222.5zM141 571q0 -151 106.5 -257.5t256.5 -106.5q151 0 258.5 106.5t107.5 257.5q0 149 -108 257t-258 108 q-149 0 -256 -108t-107 -257zM285 518h276l-104 -106l73 -76l218 233l-218 236l-75 -76l106 -108h-276v-103z" />
<glyph horiz-adv-x="1009" d="M61 569q0 183 131 314t314 131q119 0 221 -60t161.5 -162.5t59.5 -222.5q0 -119 -59.5 -221t-161.5 -161.5t-221 -59.5q-120 0 -222.5 59.5t-162.5 161.5t-60 221zM141 569q0 -149 107 -255.5t258 -106.5q149 0 256.5 106.5t107.5 255.5q0 151 -107.5 259t-256.5 108 q-151 0 -258 -108t-107 -259zM270 596l76 -76l109 107v-277h102v277l107 -105l75 74l-233 217z" />
<glyph horiz-adv-x="1009" d="M61 569q0 183 131 314t314 131q119 0 221 -60t161.5 -162.5t59.5 -222.5q0 -119 -59.5 -221t-161.5 -161.5t-221 -59.5q-121 0 -223.5 60t-162 162t-59.5 220zM141 569q0 -149 107 -255.5t258 -106.5q149 0 256.5 106.5t107.5 255.5q0 151 -107.5 259t-256.5 108 q-151 0 -258 -108t-107 -259zM334 422v328h330v-101h-150l197 -198l-74 -72l-199 194v-151h-104z" />
<glyph horiz-adv-x="1009" d="M61 569q0 120 60 222.5t162 162.5t221 60q183 0 313.5 -131t130.5 -314q0 -181 -129.5 -311.5t-314.5 -130.5q-182 0 -312.5 130.5t-130.5 311.5zM141 569q0 -149 107 -255.5t256 -106.5q151 0 258.5 106.5t107.5 255.5q0 151 -107.5 259t-258.5 108q-149 0 -256 -108 t-107 -259zM301 451l195 198h-150v101h330v-328h-105v151l-198 -194z" />
<glyph horiz-adv-x="1810" d="M70 569q0 188 65.5 347.5t180 269.5t274.5 171.5t346 61.5q180 0 330.5 -56t255 -155.5t162 -241t57.5 -309.5q-1 -97 -18 -176.5t-43.5 -133t-64 -94t-74.5 -63.5t-80 -36.5t-76.5 -18t-67.5 -4.5q-43 0 -75.5 4.5t-67 17.5t-61 40.5t-42.5 68.5q-79 -76 -145.5 -103.5 t-165.5 -27.5q-324 0 -324 444q0 232 83.5 340.5t248.5 108.5q153 0 276 -117v101h281v-578q0 -87 15.5 -116t52.5 -29q19 0 38.5 5.5t44 19t45.5 41t39 66.5t29.5 101t12.5 139q0 289 -179 462t-487 173q-160 0 -295 -52.5t-229.5 -146.5t-147.5 -229t-53 -295 q0 -313 183.5 -494t490.5 -181q145 0 262.5 24.5t243.5 73.5l45 -111q-106 -59 -253.5 -93t-297.5 -34q-242 0 -427 101.5t-286.5 286.5t-101.5 427zM711 575q0 -125 37 -175t116 -50q52 0 92.5 17.5t87.5 56.5v6v275q-74 83 -174 83q-80 0 -119.5 -48t-39.5 -165z" />
<glyph horiz-adv-x="1499" d="M109 625q0 175 85.5 323.5t233.5 235t324 86.5q175 0 322.5 -86.5t233 -235t85.5 -323.5q0 -176 -85.5 -324t-233 -233.5t-322.5 -85.5q-176 0 -324 85.5t-233.5 233.5t-85.5 324zM184 625q0 -116 45 -221.5t120.5 -181t181 -120.5t221.5 -45q153 0 283 75.5t206 206.5 t76 286q0 154 -76 285t-206 207.5t-283 76.5q-116 0 -221.5 -45t-181 -121.5t-120.5 -182t-45 -220.5zM453 264v725h303q165 0 242 -63.5t77 -188.5q0 -171 -127 -227l156 -244h-225l-127 215h-101v-217h-198zM651 645h125q57 0 81 21t24 63q0 98 -123 98h-107v-182z" />
<glyph horiz-adv-x="1288" d="M74 356q0 101 54.5 173.5t186.5 140.5q-71 70 -98 137t-27 145q0 151 111.5 234.5t312.5 83.5q168 0 269.5 -84t101.5 -223q0 -109 -65.5 -201t-208.5 -150q-37 -15 -86.5 -34t-74 -28.5t-56.5 -24t-46.5 -25.5t-29.5 -26.5t-20 -34t-5 -42.5q0 -139 223 -139 q66 0 109.5 12t71.5 34t42 65t18.5 92.5t4.5 130.5h408v-264q-46 0 -140 4q-38 -179 -158 -264.5t-356 -85.5q-265 0 -403.5 94t-138.5 280zM479 940q0 -78 92 -158q85 33 126.5 71t41.5 87q0 58 -32.5 88.5t-92.5 30.5q-58 0 -96.5 -32t-38.5 -87z" />
<glyph horiz-adv-x="1058" d="M61 299q0 112 56 178t170 96q-154 66 -154 228q0 290 318 332v122h241v-122q153 -18 297 -82l-92 -232q-173 55 -315 55q-86 0 -127 -24.5t-41 -79.5q0 -50 50.5 -68t172.5 -18h129v-229h-201q-101 0 -147.5 -22.5t-46.5 -84.5q0 -104 190 -104q102 0 178.5 16.5 t194.5 61.5l96 -228q-163 -79 -332 -102v-119h-241v113q-396 29 -396 313z" />
<glyph horiz-adv-x="974" d="M92 872q0 165 115 281.5t280 116.5t280.5 -116.5t115.5 -281.5q0 -164 -115.5 -279.5t-280.5 -115.5t-280 115t-115 280zM156 872q0 -137 97 -235t234 -98q138 0 235 98t97 235q0 138 -97 237t-235 99t-234.5 -99t-96.5 -237zM270 866q0 109 58 170.5t157 61.5 q92 0 183 -51l-41 -97q-71 31 -121 31q-47 0 -69.5 -27.5t-22.5 -87.5q0 -104 92 -104q56 0 129 39l47 -88q-89 -68 -195 -68q-95 0 -156 59.5t-61 161.5z" />
<glyph horiz-adv-x="974" d="M92 872q0 165 115 281.5t280 116.5t280.5 -116.5t115.5 -281.5q0 -164 -115.5 -279.5t-280.5 -115.5t-280 115t-115 280zM156 872q0 -137 97 -235t234 -98q138 0 235 98t97 235q0 138 -97 237t-235 99t-234.5 -99t-96.5 -237zM311 670v420h181q194 0 194 -148 q0 -90 -76 -113q57 -31 88 -159h-145q-23 83 -38 103q-14 18 -34 18h-49v-121h-121zM442 881h62q27 0 40 15t13 40q0 55 -65 55h-50v-110z" />
<glyph d="M377 1079l6 377h231v-24q-15 -199 -92 -353h-145z" />
<glyph d="M313 1395l232 307l235 -127v-66q-97 -65 -180 -107t-207 -89z" />
<glyph d="M197 1622h182q3 -43 36 -71.5t91 -28.5q60 0 93.5 29t35.5 71h182q0 -135 -78.5 -207t-232.5 -72q-152 0 -230.5 72t-78.5 207z" />
<glyph d="M145 1602l82 86l281 -170l280 170l80 -86l-268 -283h-186z" />
<glyph d="M145 1391l269 282h186l268 -282l-80 -86l-280 170l-281 -170z" />
<glyph d="M147 1503q0 66 44.5 105t103.5 39q64 0 106.5 -38.5t42.5 -105.5q0 -65 -42.5 -103t-106.5 -38q-59 0 -103.5 38.5t-44.5 102.5zM571 1503q0 67 42 105.5t106 38.5q59 0 103 -39t44 -105q0 -64 -44 -102.5t-103 -38.5q-64 0 -106 38t-42 103z" />
<glyph d="M344 1503q0 73 47 114.5t117 41.5q64 0 113 -42.5t49 -113.5t-48.5 -113t-113.5 -42q-70 0 -117 41.5t-47 113.5z" />
<glyph d="M225 1505v64l236 129l233 -307l-80 -84q-124 47 -207 88.5t-182 109.5z" />
<glyph d="M156 1389l192 319l209 -109v-61q-173 -136 -295 -219zM528 1389l193 319l209 -109v-61q-160 -129 -293 -219z" />
<glyph d="M199 1380v224h616v-224h-616z" />
<glyph d="M285 1540q0 98 61.5 158.5t161.5 60.5q99 0 161 -60.5t62 -158.5q0 -95 -62.5 -154t-162.5 -59q-98 0 -159.5 59t-61.5 154zM420 1540q0 -36 24.5 -58t61.5 -22q40 0 64 21.5t24 58.5q0 41 -23.5 63.5t-62.5 22.5t-63.5 -23t-24.5 -63z" />
<glyph d="M154 1376q3 76 27 131t59.5 82.5t80 38t88.5 4.5t85 -24l110 -54q25 -12 42.5 -14t35 7t31.5 24.5t37 46.5l118 -4q-4 -77 -29.5 -133t-63 -84t-83.5 -39.5t-90.5 -5.5t-83.5 24l-112 54q-47 23 -74.5 10.5t-67.5 -68.5z" />
</font>
</defs>
</svg>
